<?xml version="1.0" encoding="UTF-8"?>
<svg id="Capa_1" data-name="Capa 1" xmlns="http://www.w3.org/2000/svg" viewBox="0 0 290.89 293.39">
  <defs>
    <style>
      .cls-1 {
        fill: #c2a0fb;
      }

      .cls-1, .cls-2, .cls-3, .cls-4, .cls-5, .cls-6, .cls-7, .cls-8, .cls-9, .cls-10, .cls-11, .cls-12, .cls-13, .cls-14, .cls-15, .cls-16, .cls-17, .cls-18, .cls-19, .cls-20, .cls-21, .cls-22, .cls-23, .cls-24, .cls-25, .cls-26, .cls-27, .cls-28, .cls-29, .cls-30, .cls-31, .cls-32, .cls-33, .cls-34, .cls-35, .cls-36, .cls-37, .cls-38, .cls-39, .cls-40, .cls-41, .cls-42, .cls-43, .cls-44, .cls-45, .cls-46, .cls-47, .cls-48, .cls-49 {
        stroke-width: 0px;
      }

      .cls-2 {
        fill: #dbcaea;
      }

      .cls-3 {
        fill: #2e278e;
      }

      .cls-4 {
        fill: #c5a2fb;
      }

      .cls-5 {
        fill: #c9aafb;
      }

      .cls-6 {
        fill: #2c268b;
      }

      .cls-7 {
        fill: #eddbfa;
      }

      .cls-8 {
        fill: #2d278d;
      }

      .cls-9 {
        fill: #2a2384;
      }

      .cls-10 {
        fill: #e7e4e8;
      }

      .cls-11 {
        fill: #c29ffa;
      }

      .cls-12 {
        fill: #292380;
      }

      .cls-13 {
        fill: #2b2587;
      }

      .cls-14 {
        fill: #2d2687;
      }

      .cls-15 {
        fill: #c4a2fb;
      }

      .cls-16 {
        fill: #eedef9;
      }

      .cls-17 {
        fill: #292283;
      }

      .cls-18 {
        fill: #ba9af9;
      }

      .cls-19 {
        fill: #e9e6eb;
      }

      .cls-20 {
        fill: #f7f3fd;
      }

      .cls-21 {
        fill: #dedbde;
      }

      .cls-22 {
        fill: #c7a3fc;
      }

      .cls-23 {
        fill: #f2ebfc;
      }

      .cls-24 {
        fill: #efe0f9;
      }

      .cls-25 {
        fill: #eedff9;
      }

      .cls-26 {
        fill: #d8d5d9;
      }

      .cls-27 {
        fill: #f8f4fb;
      }

      .cls-28 {
        fill: #decbed;
      }

      .cls-29 {
        fill: #322a90;
      }

      .cls-30 {
        fill: #eedefa;
      }

      .cls-31 {
        fill: #f0eef0;
      }

      .cls-32 {
        fill: #dfd3eb;
      }

      .cls-33 {
        fill: #cdb0fd;
      }

      .cls-34 {
        fill: #c29ffc;
      }

      .cls-35 {
        fill: #2f2788;
      }

      .cls-36 {
        fill: #c3a2fa;
      }

      .cls-37 {
        fill: #e7e6e7;
      }

      .cls-38 {
        fill: #c29dfa;
      }

      .cls-39 {
        fill: #c2a3f9;
      }

      .cls-40 {
        fill: #c6a3fb;
      }

      .cls-41 {
        fill: #c7a7fb;
      }

      .cls-42 {
        fill: #c09dfa;
      }

      .cls-43 {
        fill: #efe1f9;
      }

      .cls-44 {
        fill: #dbd9db;
      }

      .cls-45 {
        fill: #fef9fe;
      }

      .cls-46 {
        fill: #b897f7;
      }

      .cls-47 {
        fill: #a68fe4;
      }

      .cls-48 {
        fill: #1c1976;
      }

      .cls-49 {
        fill: #f8f3fa;
      }
    </style>
  </defs>
  <path class="cls-25" d="m246.12,251.63c-1.47,4.58-5.44,7.11-8.83,9.82-16.29,13.03-34.38,22.72-54.81,27.54-7.13,1.68-14.28,3.81-21.73,3.26-1.63-.12-2.38,1.36-3.8,1.1-7.7-.72-15.4-.71-23.11,0-.64-.3-1.27-.6-1.91-.89-2.14-.76-4.29-.7-6.45-.04-10.24-2.1-20.42-4.42-30.24-8.04-17.51-6.46-33.56-15.4-46.88-28.66-7.44-7.41-15.04-14.71-20.85-23.58-4.21-6.44-7.88-13.1-11.34-20.02-3.24-6.47-6.06-13.09-8.94-19.69-.79-1.82-1.65-3.67-1.55-5.75.62-6.93,6.48-12.22,15.06-13.49-3.49-.39-4.91-2.15-4.65-5.39.22-2.73-.5-5.63,2.13-7.66,1.73-1.33,2.1-2.37.36-4.4-2.09-2.44-5.53-5.28-3.79-8.78,2.36-4.77,5.49-9.49,11.35-10.71,1.88-.39,3.74-.86,5.51-1.63.96,2.17.14,4.23.63,6.14-.28-2.19-.05-4.39-.2-6.59-.06-.95.5-1.8,1.78-1.22,1.85,3.62.73,7.56,1.22,11.34,2.47,19.08,10.9,35.34,23.03,49.93,11.45,14.55,25.88,25.61,41.48,35.25,16.14,9.96,33.54,17.09,51.44,23.25,9.16,3.15,17.04,2.74,24.58-3.83,3.58-3.12,7.57-5.86,11.4-8.74,10.54-8.17,19.85-17.62,28.69-27.55.38-.55.81-1.06,1.28-1.53,1.01-.91,2.01-1.86,3.55-1.57,2.32,1.72,1.72,3.84.46,5.71-1.38,2.04-.91,3.88-.58,6.11,1.03,6.91,2.67,13.72-1.08,20.73-2,3.73-2.45,8.52-2.99,12.94-.32,2.61-1.47,4.02-4.12,3.95-3.57-.08-6.11,1.61-8.28,4.3-2.02,2.5-7.93,3.91-10.91,2.72-1.48-.59-2.97-1.46-4.19.1-1.22,1.56-.12,2.92.91,4.11,1.86,2.14,3.24,4.87,6.88,4.62,1.48-.1,2.78,1.23,3.97,2.23,1.07.9,2.06,1.98,4.1.92-1.07-1.98-2.97-3.96-1.78-6.51,1.1-2.36,3.51-2.88,5.6-3.8,1.75-.77,3.09-1.96,4.28-3.44,5.36-6.66,10.73-7.66,18.41-3.26,1.5.86,1.98-.18,2.7-.72,2.84-2.14,5.43-4.59,8.25-6.75,1.17-.89,2.08-2.42,3.95-1.82Z"/>
  <path class="cls-24" d="m33.59,132.86c-2.28,2.79,0,6.29-1.7,9.91-.13-2.79-.22-4.9-.37-8.04-.85,2.49-1.15,4.08-3.76,2.53-1.83-1.08-4.53.81-5.89,2.22-1.11,1.14-2.27,2.34-3.41,3.54-3.7,3.9-3.25,8.9,1.41,12.53,2.24,1.75,3.41,2.9.17,4.47-4.76,2.31-2.58,6.8-2.72,10.15-.1,2.37,3.03,1.65,5.68.64-.84,2.85-.61,5.44-4.59,4.22-2.92-.9-5.14,1.42-6.75,3.1-2.36,2.47-5.26,4.83-5.99,8.55-1.76-4.49-2.44-9.12-1.86-13.92-.02-3.76-1.85-7.61,2.15-10.93,2.3-1.91,4.31-3.28,7.3-3.12,1.04.06,2.24.18,2.69-1.19.1-.3,0-.63-.24-.84-1.05-.92-2.08-.32-2.98.2-2,1.17-4.22.64-6.29,1.04-4.06.78-4.6-1.29-4.83-4.56-.6-8.45,1.25-16.75,1.26-25.16-.26-.37-.83-.86-.74-1.09,2.53-6.44,2.22-13.54,4.71-20.01,2.08-5.4,3.49-11.06,5.58-16.45,3.55-9.19,9.84-16.83,14.73-25.27,4.54-7.84,10.78-14.23,16.92-20.81,7.3-7.82,15.69-14.09,24.32-20.25,9.8-7,20.58-12.23,31.79-15.78,4.64-1.47,8.48-4.66,13.61-5.25,4.2-.48,8.28-1.36,12.57-.77-.61-.31-1.21-.63-2.42-1.25,4.02-.38,7.33,1.37,10.75.71-.2,2.57-2.41,1.92-3.84,2.23-5.13,1.09-10.46,1.05-15.47,2.81-1.19.42-2.64.17-2.05,2.56.66,2.68-2.45,3.59-4.14,5.86,3.85-1.27,5.76,2.02,8.68,2.9-.19-2.59,2.97-8.65,5.17-9.42,3.6-1.26,7.04-1.02,9.62,2.31,1.65,2.13,4.45,2.73,6.16,4.84,1.24,1.53,2.45.72,3.37-.59,1.84-2.63,3.74-2.48,6.25-.66,2.68,1.94,6.31,2.14,8.61,5.08,4.32,5.5,3.24,11.93-3.11,14.99-3.39,1.63-6.5,3.27-8.61,6.64-1.5,2.4-1.87,3.99,1.32,4.67,4.86,1.04,6.13,5.38,8.03,8.89,1.47,2.72-.27,4.9-3.86,5.84-3.77.99-3.96,1.44-1.06,4.15,2.97,2.78,4.88,6.22,6.73,9.75-3.63,6.83-9.14,12.32-13.43,18.69-2.14,3.18-5.5,2.83-9.88-.27-5.68-4.03-11.57-7.72-17.93-10.5-17.77-7.78-35.28-7.66-52.29,2.32-14.7,9.62-23.59,23.07-26.65,40.37-.07.44-.17.87-.3,1.29-.54,1.47-.36,3.04-.65,4.55-.31.86-.55,1.8-1.8,1.6Z"/>
  <path class="cls-16" d="m262.83,63.24c3.82,2.88,5.95,7.18,7.71,11.25,2.63,6.08,6.36,11.53,9.01,17.55,1.22,2.75,2.96,5.28,2.08,8.7-.38,1.47.72,3.12,1.81,4.53,1.92,2.49,2.52,5.33,2.03,8.58-.45,2.98.2,5.98,1.47,8.78.32.36.48.79.49,1.27-.38,3.99.7,7.82,1.29,11.7.15.5.25,1,.32,1.51.02,7.33.59,14.66-.31,21.98-1.9,2.52-1.62,5.28-.88,8.09-.9,2.1-.9,4.11-.26,6.39.66,2.39-.51,5.15-1.09,7.28-1.23,4.5-5.45,14.24-5.75,17.33-.41,4.18-1.4,8.19-4.39,11.35-.66.7-1.16,1.11-1.02,2.27.52,4.36-3.14,7.19-5.19,9.96-2.28,3.07-3.08,6.99-5.98,9.55-2.99,2.64-2.78,7.62-7.69,9.26-1.76.59-2.22,5.02-4.7,6.83-1.22.89-2.03,2.39-3.81,2.37.41-2.2.62-3.89-1.84-5.62-3.78-2.66-2.86-10.82,1.71-14.1,3.17-2.28,3.81-4.93,3.53-8.34-.38-4.78,1.57-9.34,1.06-14.21-.6-5.73-2.82-7.82-8.4-6.63-2.44.52-5.02,1.47-6.64-1.29-1.45-2.46-.29-4.76,1.14-6.89.87-1.29,1.91-2.42,2.96-3.56q3.15-3.4,1.86-7.78c-1.31,1.67-2.33,4.15-5.24,1.65-.53-2.36.84-4.18,1.82-6.06,3.2-6.18,6.1-12.48,7.98-19.21.45-1.39.8-2.81,1.23-4.21,5.79-19.42,5.87-38.67-1.7-57.69-1.68-4.41-4.2-8.35-6.93-12.18-.96-1.35-2.06-2.63-2.22-4.39,2.23-5.17,6.56-7.84,11.61-9.62,1.8-.64,3.35.06,4.69,1.18,2.24,1.87,4.87,3.33,6.66,5.66,1.82,2.37,3.84,2.66,6.61,1.34-1.73-4.09-4.18-7.6-6.38-11.26-.88-1.46-2.62-3.68,1.36-3.34Z"/>
  <path class="cls-43" d="m262.83,63.24c-1.86.52-1.83,1.22-.64,2.71,3.24,4.04,5.41,8.74,7.83,13.26-7.38,3.47-10.17-3.26-14.46-6.2-3.76-2.57-8.86-2.76-11.8.89-1.56,1.95-3.53,3.35-5.15,5.16-.39.25-.81.3-1.25.16-4.29-3.06-7.27-7.65-11.98-10.22-11.04-7.48-23.27-10.17-36.44-9.11-5.06-.25-11.33-5.68-12.06-10.55-.36-2.38,1.2-3.67,3.07-4.64,1.36-.7,3.11-.67,4.15-1.89,1.21-1.41,2.82-3.16-.58-3.94-2.65-.61-2.26-2.41-1.91-4.32,1.15-6.24,4.57-11.65,6.48-17.61.7-2.18,3.4-2.51,4.6-4.56-4.29-2.97-9.28-3.51-13.8-5.25-1.27-.49-3.32-.02-3.33-2.35,8.18-1.86,14.7,2.94,21.83,5.37,4.1,1.4,7.01,4.77,10.89,6.48,9.66,4.23,18.98,9.04,26.91,16.13,9.51,8.5,19.16,16.87,26.3,27.63.6.9,1.35,1.69,1.34,2.86Z"/>
  <path class="cls-30" d="m175.56,4.78c5.62,1.86,11.23,3.77,16.88,5.55,1.29.41,2.43.8,2.44,2.3.01,1.33-1.2,1.82-2.2,2.06-3.08.73-3.31,3.05-4.38,5.59-1.99,4.73-4.17,9.35-5.49,14.34-.51,1.93-1.74,3.91,2,2.86,1.36-.38,2.71.36,2.46,1.9-.42,2.63-1.42,5.21-4.37,5.91-.96.23-2.16-.14-3.05.55-1.74,1.35-3.84,2.64-.79,4.93.92.69,1.61,1.93,1.97,3.06,1.2,3.84,3.62,5.51,7.61,4.82-.75,2.98-3.59,1.6-5.31,2.57-8.33,1.67-15.36,5.96-22.01,11-1.55,1.17-2.87,2.89-5.21,2.27-3.63-3.55-5.95-8.19-10.19-11.38-1.26-.95,1.72-3.57,3.96-3.42,1.89.12,3.4.22,4.1-1.8.63-1.82-.32-3.21-1.37-4.64-2.29-3.12-4.25-6.51-8.83-6.71-1.63-.07-2.17-1.96-1.38-2.75,2.73-2.76,3.52-7.13,7.94-8.57,3.18-1.04,6.8-1.9,7.69-6.38,1.23-6.12-1.55-10.39-8.03-11.36-.44-.07-1.11-.05-1.28-.31-2.58-4.11-4.52-3.94-6.43.61-.57,1.36-3.16,1.43-3.58.34-1.41-3.68-5.71-3.66-7.66-6.88-2.14-3.54-7.78-2.39-9.38,1.42-.23.56-.4,1.44-.81,1.58-4.52,1.61-1.94,3.04.87,4.51-3.3,1.07-5.72,1.91-7.53-1.14-1.12-1.89-2.56-1.98-4.23-.63-.89.72-2.01,1.26-2.76,0-.66-1.13.22-2.06,1.04-2.79.57-.5,1.27-.86,1.91-1.29,2.62-1.74,4.01-3.55-.28-5.5,7.75-2.65,15.29-3.57,22.83-4.47.7-.08,1.35-.59,2.02-.9,0-.31.02-.61.02-.92,8.03-.74,16.06-.75,24.08.01h8.23c.25,1.51-1.68.42-1.71,2.25,3.98-2.66,6.74,1.1,10.22,1.46Z"/>
  <path class="cls-7" d="m238.67,182.93c2.72.91,3.5-1.65,5.03-2.81,3.53,4.09,2.16,7.33-1.69,10.25-.96.72-1.66,1.81-2.39,2.8-1.4,1.89-2.91,4.01-1.27,6.29,1.71,2.37,3.98.59,5.93.05,5.21-1.44,8.84,1.42,9.33,6.78.61,6.73-1.76,13.24-1.05,19.94.2,1.92-.97,3.25-2.69,3.89-4.77,1.78-4.7,6.43-5.05,10.04-.3,3.1,3.06,4.81,6.52,5.34-1.31,1.67-2.34,2.98-3.37,4.28-.61.62-1.23,1.23-1.84,1.85-4.84,4-9.68,8-14.73,12.17-1.09-4.74-4.83-4.97-7.95-4.52-3.84.56-7.97,1.49-9.87,5.82-.86,1.95-2.7,2.87-4.58,3.67-7.04,3-7.13,3.32-2.49,9.39-2.37,1.53-4.28,3.48-6.76-.35-.99-1.53-3.27-3.51-6.02-1.94-1.25.72-1.64-.45-1.98-1.23-.77-1.77-2.14-3.02-3.49-4.28-1.93-1.82-2.12-3.89-.42-5.73,1.57-1.69,3.63-1.25,5.5-.17,2.24,1.28,8.26.13,9.69-1.85,2.35-3.28,5.17-5.53,9.58-4.69,1.67.32,2.58-.58,2.75-2.3.59-5.95,1.62-11.71,4.26-17.24,2.65-5.54.53-11.44-.42-17.09-.41-2.45-1.78-4.46.85-6.58,1.54-1.24,1.6-3.26-.02-4.88-.61-2.34,1.2-3.64,2.23-5.29,4.67-5.92,8.76-12.25,12.85-18.57.85-1.31,1.34-3.25,3.56-3.06Z"/>
  <path class="cls-25" d="m2.9,128.21c1.69,1.68,1.19,3.89.81,5.68-1.62,7.65-.32,15.32-.85,23.01,4.25-.67,8.42.25,12.16-2.41,1.47-1.05,2.85.99,3.04,2.53.28,2.32-1.77,3.98-3.37,3.22-5.99-2.84-6.95,3.7-10.52,5.23-.74.32.32,1.65.41,2.53.16,1.63.78,3.38-.74,4.76-.3-.3-.61-.61-.91-.91-1.02-1.07.11-2.67-.93-3.73h0c-1.24-2.36.34-5.07-.93-7.42-1.51-8.73-1.57-17.4.91-25.98.95-1.76-.4-3.9.92-5.59,0-.3,0-.6,0-.9Z"/>
  <path class="cls-31" d="m286.92,123.63c0-.33.01-.66.02-1,0,0,0,0,0,0,.31-.44.62-.44.93,0,2.07,4.12,1.92,8.57,1.86,12.99,0,0-.29.34-.29.35-.27.16-.56.22-.87.17-.32-.06-.55-.24-.69-.53v.02c-.12-4.02-1.99-7.9-.97-12.01Z"/>
  <path class="cls-31" d="m289.73,135.63c1.89,2.95.92,6.24.84,9.32-.14,5.25,1.11,10.6-.79,15.76-.39-.45-.66-.97-.82-1.54-.32-6.7-.07-13.4-.13-20.1-.01-1.23.05-2.45.91-3.45h0Z"/>
  <path class="cls-19" d="m158.82,1.08c-8.03,0-16.06,0-24.08-.01,6.52-2.05,13.22-.44,19.81-.89,1.44-.1,3.09-.53,4.27.9Z"/>
  <path class="cls-44" d="m133.84,293.35c7.7-1.43,15.41-1.46,23.11,0-7.7,0-15.41,0-23.11,0Z"/>
  <path class="cls-2" d="m287.85,167.18c-1.39-2.48-1.42-4.95.03-7.41.32-.25.65-.25.98-.01.21.35.19.67-.07.99-1.77,1.93-.48,4.31-.94,6.44Z"/>
  <path class="cls-24" d="m2.9,129.11c-.28,1.87.78,3.96-.92,5.59-.42-1.98-1.3-4.05.92-5.59Z"/>
  <path class="cls-10" d="m1.06,160.69c1.85,2.28.51,4.96.93,7.42-1.85-2.28-.57-4.95-.93-7.42Z"/>
  <path class="cls-21" d="m125.49,292.42c2.16-1.36,4.31-1.4,6.45.04-2.15-.01-4.3-.03-6.45-.04Z"/>
  <path class="cls-10" d="m1.99,168.11c1.35.99.78,2.45.93,3.73-.18.37-.45,1.48-.76.61-.47-1.3-.15-2.88-.16-4.34Z"/>
  <path class="cls-26" d="m288.79,160.74c0-.31,0-.62,0-.93.16-.13.32-.26.48-.38.15.14.3.28.45.43,0,.29.01.58.06.87-.04.9-.09,1.8-.14,2.96-1.3-.95-.66-2.05-.85-2.94Z"/>
  <path class="cls-37" d="m287.87,122.64c-.31,0-.62,0-.93,0,0-1.2,0-2.4,0-3.6.25-.02.5-.03.76-.05.06,1.22.12,2.44.17,3.65Z"/>
  <path class="cls-42" d="m156.1,74.48c6.02-4.15,11.66-8.89,18.52-11.72,2.68-1.11,5.28-2.46,8.3-2.33.38-.29,1.08-.56,1.23-.3,3.57,6.08,10.53,8.74,14.51,14.4.35,1.14.39,2.3.23,3.47-.29,2.25-2.16,2.71-3.83,3.55-2.54,1.28-5.79,2-6.11,5.63-.32,3.65,2.63,4.89,5.07,6.5,3.64,2.4,7.44,4.72,6.91,10.02-.05.46.23.88.47,1.28,2.44,4.01,1.98,5.24-2.79,5.85-2.71.34-5.06.82-6.97,2.98-1.14,1.28-1.15,2.02-.19,3.52,3.59,5.57,4.63,11.36.38,17.17-.66.9-1.07,1.91-1.13,3-.22,3.88-2.43,5.82-6.08,6.43-2.69.69-5.55-.04-8.2.95-2.29.64-4.62,1.17-6.63,2.53-.87.63-1.67,1.34-2.51,2-4.24,3.09-5.15,8.23-7.59,12.42-.96-2.39-3.47-2.71-5.3-3.91-1.45-.95-3.43-1.66-4.77-.54-4.3,3.58-9.79,3.13-14.63,4.83-.46.05-.91,0-1.35-.11-4.11-2.29-7.85-5.29-12.83-5.74-8.41-.76-14.95,2.15-19.49,9.33-.16.26-.35.51-.49.78-3.2,5.78-2.79,6.98,3.44,9.97-.28,2.36-1.93,1.13-3.18,1.45,2.76-.61,4.23.95,5.44,3,1.72,2.9,4.45,4.14,7.66,4.46,2.8.28,3.73-1.71,4.31-3.9.69-2.58-1.46-2.48-2.98-3.07-3.21-1.24-7.71-1.15-7.08-6.56.21-.23.45-.56.7-.54,5.34.49,9.23-2.55,13.21-5.36,2.26.2,2.94,1.24,1.59,3.2-1.05,1.52-1.74,3.09-1.31,4.98.24,2.78,1.02,3.97,4.06,2.24,5.17-2.95,11-4.77,14.59-10.13,1.34-2,3.81-3.03,6.21-3.86,3.86-1.34,6.87-.52,9.31,2.87,2.6,3.61,4.61,7.69,8.18,10.57.78.63.8,1.62.58,2.58-.36,1.8-1.88,2-3.27,2.61-2.92,1.29-5.27,3.17-4.88,6.9-.21.7-.71,1.12-1.38,1.34-.69.17-1.37.15-2.06.03-2.89-.63-5.79-.59-8.69-.05-2.54.6-4.42-.78-6.32-2.09-1.65-1.14-3.41-2.61-5.35-.83-2.08,1.92-.99,3.89.44,5.69.38.48.74.97.94,1.56,1.57,3.88,4.74,3.91,8.15,3.36,4.73.83,9.46.01,14.19,0,5.87,1.05,9.36,6.35,14.8,8.31,2.06.74,1.95,3.33,1.5,5.38-.39,1.78-1.44,3.17-3.33,3.43-1.94.28-3.24-.77-3.85-2.6-.45-1.33-1.32-1.62-2.52-1.13-1.72.7-3.34.04-5.13-.09,1.77.89,3.64,1.61,5.21,2.83.95.74,1.3,1.75.77,2.87-.37.78-1.16,1.13-1.94.81-3.93-1.61-7.58.12-11.33.82-1.51.28-3.1.9-4.57.38-2.31-.82-2.98-.12-3.01,2.21-.03,1.97-1.02,3.88-3.26,3.73-2.19-.15-2.99-2.21-2.96-4.11.05-3.78-1.5-3.45-3.79-1.73-2.14,1.61-4.61,2.62-6.76.63-3.57-3.31-7.28-2.22-11.1-1.05-1.04.31-2.04.72-3.14.76-3.44.12-5.02-1.6-5.32-4.98-.53-5.93-.61-5.93-6.14-6.68-1.39-.19-2.63-.94-2.56-2.23.24-4.26-2.77-7.9-1.91-11.95-.71-.9-1.3-.51-1.87-.37-3.79.89-4.8.03-4.41-3.77.61-5.95.15-6.68-5.72-8.47-1.95-.59-3.81-1.14-4.87-3.16-.79-1.49-2.46-1.81-3.91-2.26-1.8-.57-3.67-.87-5.13.83-1.32,1.54-1.83,3.29-.72,5.12,1.5,2.46.83,4.68-1.14,6.18-3.31,2.52-6.38,5.28-9.42,8.1-.57.53-1.35.73-2.15.38-8.37-8.59-13.9-18.93-18.45-29.88-4.29-10.36-6.07-21.14-5.59-32.32.29-.62.58-1.24.87-1.87,1.14-1.4-.12-3.26.91-4.68v-.02c2.75,2.09,2.75,2,8.09,1.86,2.62-.07,5.96.03,6.67,2.92.68,2.78-.62,5.74-3.39,7.51-1.11.71-3.14.84-2.83,2.56.36,2.01,2.52,1.95,4.12,2.34,1.07.26,2.27.28,3.14-.38,3.88-2.98,7.41-6.37,11.81-8.74,1.96-1.06,1.3-2.92-.86-3.71-1.83-.67-4.1-.7-4.48-3.31.79-8.52,4.86-15.36,11.02-21.06,1.34-1.24,2.91-2.26,4.45-3.27,1.68-1.1,3.61-2.2,3.25-4.58-.41-2.71-2.88-2.25-4.76-2.61-4.36-2.09-6.05-7.03-10.11-9.51-.68-.42.27-1.29.82-1.79,6.69-5.54,14.8-7.36,23.06-8.23,17.91-1.89,33.17,5.1,47.31,15.13,6.45,4.58,8.42,4.47,12.24-2.32,3.06-5.42,7.68-9.59,11.19-14.64Z"/>
  <path class="cls-38" d="m57.63,195.06c3.9-2.34,5.92-6.77,10.27-8.8,1.93-.9,3.73-3.12.9-5.93-1.9-1.88.75-7.33,3.57-7.45,3.47-.15,7.19-.2,8.9,3.98.82,2,2.94,1.48,4.45,1.92,6.28,1.83,7.4,3.44,6.18,9.71-.2,1.02-1.05,2.05.06,2.98,1.41,1.19,2.22-.12,3.11-.87.86-.72,1.8-1.52,2.85-.66.93.76.82,2.08.46,3.05-1.57,4.19,3.09,7.51,1.55,11.79-.28.79,1.26,1.16,2.55.68,3.51-1.3,5.82.19,6.24,3.8.09.76.02,1.55.03,2.32.07,6.02,1.72,7.14,7.26,4.5,2.84-1.35,6.24.44,8.85-2,.64-.6.95.27,1.19,1.17.8,3.07,3.56,4.06,6.18,2.4,1.04-.66,2.01-1.42,2.97-2.19.91-.73,1.84-1.19,2.95-.5,1.06.66,1.35,1.65.94,2.81-.31.87-.8,1.74-.36,2.67.51,1.06.68,2.82,2.11,2.7,1.47-.13,2.31-1.55,2.19-3.1-.24-3.04-2.04-7.38,3.97-3.15,1.37.96,4.6-.76,6.98-1.2,3.28-.62,6.59-2.35,10.13-.08-1.1-2.28-3.03-3.47-5.46-3.82-1.59-.23-2.94-.6-2.32-2.48.62-1.88,2.16-1.38,3.43-.68,1.07.6,2.06,1.69,3.34.86,2.95-1.92,5.04-2.74,4.48,2.31-.1.88,1.48,1.69,2.58,1.44,1.66-.38,2.55-1.68,2.6-3.4.05-1.67.43-3.99-1.7-4.29-5.62-.79-8.2-6.33-13.2-7.94-.16-.42-.07-.79.23-1.11,1.88-1.2,4.19-1.63,5.79-3.31,4.21-1.78,5.93-6.22,9.39-8.81,2.37-.71,4.7-.41,6.95.55,1.06-1.83-1.75-3.52.17-5.1,4.53-.18,8.12,1.49,10.27,5.57,1.63,3.09,3.11,4.13,7.36,3.62,5.51-.66,9.79-4.16,15.2-4.74-1.14-1.5-2.87-1.33-4.47-1.51-1.65-.19-2.42-1.23-2.48-2.82-.06-1.51.42-3.25,2.01-3.12,3.51.27,3.51-2.16,4.04-4.37.25-1.05.47-2.22,1.28-2.94,2.38-2.12.48-3.03-1.05-4.08.73-3.44,1.35-6.91,4.04-9.52,1.3-1.27,1.29-3.08,1.85-4.66.8-2.26,2.4-3.61,4.88-3.44,2.37.16,4.07,1.41,4.74,3.75.69,2.4-.72,3.75-2.64,4.76-2.14,1.13-3.98,2.27-.93,4.54,1.19.88,1.34,2.39,1.48,3.77.2,2.03,1.29,3.23,3.04,4.28,5.4,3.25,5.07,12.25-.55,15.23-2.3,1.22-4.66,2.42-7.1,3.34-3.09,1.17-4.01,3.23-4.02,6.42-.02,5.95,1.45,11.9.03,17.85-.3.31-.6.62-.89.93-1.6,2.75-3.89,3.68-7.01,2.89-3.12-.78-6.11-.14-8.93,1.35-.27.14-.56.42-.82.4-9.13-.9-10.22,7.1-13.64,12.42-1.87,2.91-2.8,5.94.9,8.42.72.48,1.25,1.39.73,2.42-6.17,5.85-12.93,10.91-20.52,14.78-4.4,2.24-8.87.62-13.07-.63-29.44-8.8-56.47-22.34-80.03-42.19-6.08-5.12-12.15-10.53-16.44-17.47Z"/>
  <path class="cls-11" d="m217.34,211.74c-1.84-6.67-.68-13.55-1.28-20.32-.19-2.19,1.29-4.12,4.09-4.86,2.91-.77,5.6-2.37,8.37-3.65,4.38-2.02,2.32-6.28,3.03-9.48.49-2.21-1.53-3.24-3.82-3.67-2.28-.42-3.05-2.31-2.98-4.57.04-1.36.24-2.81-.97-3.88-3.65-3.25-3.58-3.96.99-6.03,1.32-.6,2.77-.91,2.6-2.68-.18-1.84-1.3-3.17-3.08-3.65-3.08-.83-4.86.64-5.01,3.64-.11,2.19-.69,3.65-2.64,4.92-2.69,1.75-1.17,5.92-3.94,7.82-3.47,1.47-6.44-.32-8.75-2.25-2.29-1.91-2.09-4.95.6-6.71,3.03-1.98,2.48-3.36-.13-4.95-.26-.16-.55-.37-.67-.63-2.69-6.24-7.82-5.89-13.2-4.91-1.87-.14-3.68-.53-5.37-1.37-.44-.29-.59-.7-.45-1.21,3.14-1.35,5.47-3.19,4.81-7.15-.11-.65.27-1.52.69-2.09,4.7-6.41,4.29-10.96-1.66-17.16-.48-.5-.91-1.22-.37-1.52,2.73-1.56,3.77-5.85,7.31-5.57,2.84.23,4.89-1.19,8.34-1.57-2.96-1.81-6.08-2.44-3.99-6.59.97-1.92-2.28-4.06-4.21-5.54-2.05-1.57-4.5-2.65-6.44-4.32-2.75-2.36-1.96-6.69.76-8.98,2.42-2.05,6.1-1.84,7.88-4.77,3.61.87,7.16,1.9,10.32,3.94.12.76-.67,1.04-.88,1.64.56-.24.6-.93,1.07-1.25.91-.3,1.6.09,2.22.69.42.45.95.94,1.01,1.51.44,4.45,3.45,5.18,7.13,5.02,4.02,2.09,6.04,5.61,7.04,9.85.03,3.52-2.36,3.86-5.05,3.84-1.58-.01-3.28,0-3.64,2.02-.33,1.81.92,2.82,2.32,3.63.4.23.79.53,1.23.64,5.19,1.31,9.41,4.15,13.03,8.04,1.57,1.68,3.6,2.2,5.95,1.65,1.82-.43,3.7-.07,5.54.16,7.6.96,8.88,2.33,8.8,9.79-.02,2.11.48,4.29-.42,6.4-2.07-.22-1.74-1.89-2.07-3.12-.83-3.12-2.32-3.62-4.81-1.56-1.1.91-2.11,2.01-2.13,3.46-.05,3.3-1,6.38-1.79,9.53-.59,2.34,2.76,6.98,5.95,7.59,2.58.49,1.37,1.59,1.15,2.74.14,1.34-.29,2.53-.95,3.67-.47.19-.85-.01-1.28-.2-6.8-2.92-9.25-1.45-9.88,5.93-.09,1.09-.07,2.24-.81,3.07-1.73,1.96-1.25,3.97-.34,6.04,2.15,4.86,2.47,9.04-1.99,13.33-3.4,3.27-5.77,7.51-10.56,9.33-2.08.79-1.55,3.14-1.45,4.95.09,1.63,1.38,3.17.31,4.88-.96,1.54-1.91,3.07-2.87,4.61-.9.63-1.8,1.26-2.69,1.9Z"/>
  <path class="cls-4" d="m187.68,240.58c-.15-.27-.25-.59-.46-.8-5.19-5.21-5.39-6.15-1.28-12.43,1.35-2.07,2.57-4.05,3.23-6.46.66-2.42,2.73-4.39,4.99-4.25,6.28.39,11.9-4.92,18.46-1.84,1.6.75,2.32-1.78,3.83-2.13-.19.58-.22,1.3-.6,1.7-8.57,9-17.23,17.91-26.86,25.8-.33.27-.87.27-1.31.4Z"/>
  <path class="cls-1" d="m62.3,84.53c-.09.29-.31.81-.25.85,4.01,2.35,6.02,6.75,9.65,9.48-.1,2.35-2.29,2.66-3.69,3.67-7.56,5.49-13.06,12.46-15.82,21.46-.36,1.18-.68,2.36-.71,3.6-.09,4,1.49,5.14,5.29,3.79.59-.21,1.15-.41,1.77-.2.16,1.97,1.64,1.8,3.03,2.03,1.82.31,3.97.74,4.22,2.94.26,2.29-1.9,4.2-3.42,4.46-3.98.69-5.9,3.69-8.45,6.03-2.99,2.75-7.97,3.1-10.9.4-2.4-2.23-.99-4.53,1.36-4.71,4.32-.34,3.48-4.09,5.03-6.21.58-.79.04-1.49-.77-1.79-2.18-.79-4.82-2.22-6.67-.9-4.58,3.28-5.57.31-6.65-3.11,2.39-18.18,11.35-32.11,26.94-41.77Z"/>
  <path class="cls-1" d="m35.37,126.32c-.18,1.58.65,3.36-.91,4.68.16-1.59-.55-3.34.91-4.68Z"/>
  <path class="cls-40" d="m249.84,154.24c-.07-.61-.13-1.21-.2-1.82-2.68,2.25-2.77-1.1-4.13-1.77-5.41-2.69-4.97-6.58-2.77-11.03.89-1.79-.11-3.75.3-5.38.81-3.24,2.85-5.9,6.64-5.99,5.03-.12,1.84,4.24,3.83,6.95,0-4.07.57-7.52-.2-10.63-.53-2.14-3.41-3.14-5.72-3.66-2.21-.49-4.74-1.28-6.74-.67-6.17,1.89-9.08-1.95-12.07-5.98-1-1.35-2.32-1.91-4-1.84-3.15.13-5.3-2.23-7.88-3.45-1.67-.79-1.88-3.19-1.17-5.02.69-1.78,2.2-2.25,4.16-1.97,2.14.31,4.93,1.3,4.9-2.63,2.24.12,3.52,4.24,6.29,1.71,2.41-2.2.26-4.55-.27-6.82-.18-.77-.23-1.51.09-2.25,3.02-2.57,6.14-2.19,9.13-.08,2.41,1.7,4.85,3.11,7.92,2.88,6.44,12.94,7.56,26.78,6.17,40.82-.62,6.29-1.28,12.78-4.29,18.62Z"/>
  <path class="cls-22" d="m222.9,205.24c-.48-1.29-1.39-2.59-1.36-3.87.07-2.94-2.25-6.9,3.55-7.71,2.56-.35,4.59-2.87,6.22-5.19,1.48-2.11,2.86-4.21,5-5.94,2.59-2.08.5-5.22-.13-7.6-.43-1.62-.92-3.52-1.88-5.09-.24-.39-.43-.81-.64-1.22,4.95-2.08,1.51-7.43,4.23-10.66,3.36-4,7.65-4.35,11-.06-1.39,6.68-4.49,12.67-7.46,18.72-1.01,2.06-1.85,4.2-2.77,6.3-5.51,7.26-9.55,15.55-15.76,22.31Z"/>
  <path class="cls-34" d="m247.97,94.8c-2.82,3.04-5.49.42-7.1-1.04-3.11-2.82-6.2-2.62-9.68-1.72-3.32-1.03-4.65-3.58-5.12-6.77,2.79-4.15,6.05-7.42,11.69-6.24.29.02.57.03.86.03,3.39,5.09,7.59,9.69,9.35,15.74Z"/>
  <path class="cls-32" d="m288.79,159.81c-.3-.03-.61-.04-.91-.04,0-8.05,0-16.1,0-24.14.32,0,.63,0,.95.01.69,8.05.72,16.09-.02,24.14l-.02.04Z"/>
  <path class="cls-28" d="m286.92,123.63c-.04,4.03,1.53,7.94.97,12.01-.96-3.95-2.89-7.83-.97-12.01Z"/>
  <path class="cls-15" d="m197.88,74.47c-4.95-4.72-11.48-7.76-14.96-14.04,1.52-1.82,4.16-.04,5.7-1.79,12.74-1.14,24.68,1.24,35.63,8.06.92.57,1.9,1,2.4,2.04,1.42,5.88-.75,8.71-7.82,10.21-2.08-.09-3.81-1.17-5.59-2.08-4.86-2.52-9.78-4.51-15.36-2.39Z"/>
  <path class="cls-16" d="m259.65,61.47c-7.2-3.17-10,3.03-13.35,6.48-5.26,5.4-5.82,5.67-9.89-.68-1.24-1.94-1.86-3.31.97-4.03,1.38-.35,1.98-1.31,2.37-2.56.36-1.18,2.16-2.04,2.39-1.79,3.88,4.33,7.98-1.24,11.89.33.87.35,1.65-.03,2.75-.84,2.21-1.61,2.04,1.75,2.88,3.09Z"/>
  <path class="cls-41" d="m218.29,78.09c5.48-.71,8.27-3.82,8.36-9.34,4.56,2.5,7.82,6.4,11.1,10.28-4.54.81-8.24,3.04-11.17,6.57-4.11-1.02-6.54-3.89-8.3-7.51Z"/>
  <path class="cls-45" d="m288.81,159.77c0-8.05.01-16.09.02-24.14.3,0,.6,0,.9,0,0,8.07-.01,16.14-.02,24.22-.3-.04-.61-.06-.91-.08Z"/>
  <path class="cls-36" d="m180.2,180.18c-.63,2.35,4.07,3.23,1.84,5.72-2.02,2.26-3.57-1.36-5.65-1.1-.91.11-2.03,1.03-2.84-.29-1.09-3.68-3.48-5.52-7.39-5.2-.68-.15-1.23-.54-1.74-.99.1-.29.37-.77.28-.84-4.37-3.83-6.72-9.24-10.51-13.51-2.63-2.97-5.55-.69-8.08.1-1.92.6-4.08,2.14-5,3.87-3.56,6.64-10.87,7.56-16.48,10.7-4.14,2.32-2.18-3.01-2.91-4.95,3.12-1.76,6.46-1.45,9.93-.93-.81-.58-2.06-.04-2.37-1.08-.38-1.3.81-1.42,1.63-1.68.88-.28,1.82-.29,2.71-.52.36-.18.74-.34,1.1-.52,2.41-1.68,1.92-3.56.39-5.51-.42-.48-.74-1-.73-1.67.71-.58,1.45-1.69,2.13-1.65,5.15.31,9.3-2.09,13.68-4.27,2.7-1.34,7.74,2.02,9.73,5.71,2.45-.17,4.2,1.77,6.48,2.12.59.31,1.01.76,1.07,1.46,1.08.3-2.73,1.39.24,1.43.9.01,1.72.52,2.48,1.04.67.53,1.13,1.2,1.45,1.98.33,1.15.86,2.18,1.85,2.92,2.3,2.49,3.3,6.12,6.7,7.65Z"/>
  <path class="cls-49" d="m218.29,78.09c2.77,2.5,5.53,5,8.3,7.51,1.09,2.46,2.91,4.41,4.6,6.44.45,1.14.83,2.31,1.37,3.4,1.43,2.91,1.84,5.91-1.5,7.46-3.14,1.46-5.07-.75-6.26-3.55-1.13-3.8-3.31-6.87-6.5-9.23-3.51-1.25-5.58-4.36-8.38-6.53-.44-.69-1.11-.88-1.87-.87h0c-3.21-1.98-7.61-1.34-10.2-4.67,0-1.2.02-2.39.03-3.58,2.67-3.01,5.91-2.39,9.22-1.48,4,1.11,7.46,3.4,11.19,5.09Z"/>
  <path class="cls-27" d="m58.56,127.18c-1.92,1.22-3.33,4.16-6.28,1.98-2.71-2.01-2.48-4.94-1.76-7.6,2.83-10.54,8.93-18.79,18.1-24.74,1.03-.67,2.06-1.31,3.09-1.97,2.5-.15,5.26-.41,6.1,2.65.89,3.24-1.32,4.91-3.89,6.43-8.85,5.24-13.57,13.3-15.36,23.24Z"/>
  <path class="cls-9" d="m100.33,165.22c7.33-12.32,23.5-13.98,33.4-3.44.39.31.64,1.01.36,1.14-2.61,1.22-4.29,3.81-7.06,4.77-3.58-1.86-7.14-3.77-11.41-2.62-3.29.59-5.19,3.08-7.28,5.31-.5.43-1.05.73-1.72.82-2.26-1.83-6.01-2.08-6.3-5.99Z"/>
  <path class="cls-14" d="m168.95,146.57c1.85-1.74,4.12-2.44,6.58-2.63,1.54.68,3.15-.31,4.7.22,4.07.56,7.87,2.82,12.18,1.82,2.55.47,4.36,2.1,6.01,3.91,3.18,3.47,3.08,5.76-.28,9.4-3.34,1.41-6.13.48-8.62-1.96-1.17-1.15-2.26-2.44-3.86-3.05-2.01-.98-4.18-1.31-6.35-1.67-1.06-.19-2.68-.3-2.72-1.35-.19-4.46-2.71-3.98-5.73-3.14-.93.26-2.34.29-1.91-1.54Z"/>
  <path class="cls-38" d="m106.81,170.88c.36-.29.72-.58,1.07-.86,1.49.04,1.47.78.85,1.81.39,4.58,4.29,4.58,7.37,5.5,1.82.54,5.13.35,4.23,2.72-.91,2.41-.33,7.11-5.34,6.64-3.94-.37-7.48-1.26-9.47-5.23-1.03-2.05-2.41-3.86-6.21-2.81,2.13-1.74,3.92-.68,4.76-2.18-.34-2.47,1.52-3.87,2.72-5.59Z"/>
  <path class="cls-17" d="m166.48,178.41c5.83-.78,6.97.2,7.08,6.11-2.59,3.72-4.86,7.74-9.38,9.57-.5.47-1.18.6-1.53.04-1.76-2.82-4.47-3.13-7.39-2.94-.41-.1-.78-.29-1.11-.55-.22-.36-.26-.75-.16-1.15.54-.67,1.55-.3,2.11-.94.32-.27.65-.54.97-.81,3.47-2.78,6.14-6.35,9.41-9.32Z"/>
  <path class="cls-13" d="m134.65,194.12c-.78-.72-1.65-1.37-2.32-2.18-1.62-1.96-2.21-4.16-.32-6.21,1.91-2.07,4.19-2.35,6.54-.54,1.91,1.47,3.53,3.48,6.27,3.45.21.02.41.04.62.06.38.17.72.41,1.02.71.29.31.55.64.79,1,.45,3.74-2.1,5.16-4.99,6.05-.92.29-2.1.01-3.16.18-1.94-.04-3.47-.79-4.45-2.52Z"/>
  <path class="cls-35" d="m165.94,164.24c-2.49.19-4.4-.91-6.02-2.66.02-5.59,2.67-9.78,6.96-13.11,1.05-.39,1.59.24,1.36,1.07-.91,3.21.52,5.61,2.46,7.9-.3,3.17-1.04,6.03-4.76,6.81Z"/>
  <path class="cls-12" d="m139.25,196.26c2.61-.84,5.15-1.59,7.1-3.89,1.17-1.39-.61-1.29-.49-1.98,2.78-1.81,5.57-1.81,8.35,0h0c-.49,3.18,3.13,4.01,3.74,6.55-.06.22-.1.44-.12.66-5.21,1.23-10.44,1.35-15.67.14-1.47.5-2.48.08-2.91-1.48Z"/>
  <path class="cls-3" d="m170.17,157.35c-5.13-1.47-2.37-5.85-3.28-8.88.69-.63,1.38-1.27,2.07-1.9.79,1.38,1.73.65,2.75.28,4.42-1.6,5.27-1.04,5.71,3.71.14,1.55,1.4.53,2.03.93-.22,2.08-2.19,1.72-3.39,2.45-1.87.61-3.06,2.2-4.64,3.24-.4.19-.82.24-1.25.17Z"/>
  <path class="cls-39" d="m115.14,164.24c4.71-1.74,8.44.59,12.15,2.95,2.31,1.3,5.11,1.25,7.36,2.7-1.14,1.82-3.2.47-4.64,1.31.65,1.22,2.1.11,3.1,1.33-3.85,1.13-7.56,1.58-11.39,1.15-1.1-2.17-.13-3.93,1.41-5.26,1.51-1.31.36-1.6-.49-2.16-2.77.32-5.88,1.9-7.51-2.02Z"/>
  <path class="cls-18" d="m115.14,164.24c2.17,1.91,5.16.8,7.51,2.02-.46.39-1.08.68-1.36,1.17-2.93,5.11-7.81,4.54-12.56,4.39-.02-.73-.15-1.41-.85-1.81,1.48-3.1,3.73-5.24,7.26-5.77Z"/>
  <path class="cls-8" d="m106.81,170.88c.17,2.39-1.3,3.98-2.72,5.59-2.34.23-4.97.59-6.16-1.94-1.68-3.58.46-6.49,2.4-9.3,2.16,1.88,4.32,3.77,6.47,5.65Z"/>
  <path class="cls-29" d="m134.65,169.89c-3.03.67-5.78.57-7.36-2.7,1.41-2.68,4.28-3.63,6.44-5.4.22,0,.43,0,.65,0,.26.29.53.57.79.86,2.74,2.64,2.93,5.1-.53,7.29v-.03Z"/>
  <path class="cls-46" d="m166.48,178.41c-2.67,3.58-4.2,8.31-9.41,9.32-1.3-2.98,1.14-6.94,5.05-8.19.84-.27,2.33.7,2.31-1.22.68.03,1.37.06,2.05.09Z"/>
  <path class="cls-38" d="m114.38,191.51c1.53-.08,1.73.93,1.74,2.06.02,1.44-.25,2.81-1.95,3.07-1.49.23-1.68-.9-1.7-2.03-.03-1.45.28-2.7,1.91-3.11Z"/>
  <path class="cls-38" d="m139.25,196.26c.97.49,1.94.98,2.91,1.48-3.86,1.71-6.18-.86-8.64-3.08.37-.18.74-.36,1.12-.54,1.53.71,3.07,1.43,4.6,2.14Z"/>
  <path class="cls-48" d="m180.22,144.93c-1.58-.25-3.4.63-4.68-1,2.98-1.54,6.11-.77,9.2-.62,0,.23.03.45.12.66-1.1,2.46-2.96,1.28-4.64.95Z"/>
  <path class="cls-33" d="m144.81,188.64c3.07-1.72,6.2-1.38,9.35-.26-.84,1.38-2.39.88-3.57,1.35-.44.11-.87.08-1.29-.06-1.51-.25-3.05-.39-4.49-.98v-.06Z"/>
  <path class="cls-38" d="m126.4,204.68c-.6-.34-1.58-.43-1.41-1.43.12-.72.88-.85,1.43-.61.49.22,1.12.69,1.21,1.14.14.72-.5.97-1.22.9Z"/>
  <path class="cls-38" d="m151.21,200.41h-3.91c1.62-1.07,2.84-.82,3.91,0Z"/>
  <path class="cls-47" d="m150.5,189.45c.93-1.35,2.43-.74,3.66-1.07.65.05,1.29.11,1.94.16-.63.31-1.26.63-1.88.94-1.25.62-2.49.66-3.72-.04Z"/>
  <path class="cls-38" d="m108.91,189.23c-.23-.2-.7-.4-.77-.7-.14-.64.26-1.2.89-1.28.29-.04.84.35.94.65.21.68-.32,1.04-1.06,1.33Z"/>
  <path class="cls-38" d="m102.4,186.69c.49.25,1.07.34,1.17.62.26.68-.25,1.09-.88,1.05-.33-.02-.8-.37-.9-.67-.07-.23.35-.61.6-1Z"/>
  <path class="cls-42" d="m175.36,153.19c1.36-.57,2.72-1.13,4.08-1.7,2.17.57,4.33,1.14,6.5,1.71-.1.11-.19.26-.31.33-.12.07-.29.07-.44.1,2.03,1.11,1.92,2.38.42,3.94-1.38,1.45-2.3,3.21-2.96,5.44,3.97.58,5.7-4.1,9.33-3.77,1.28.64,2.65.54,4.01.5.77-.06,1.4-.37,1.78-1.09,2.72-2.83,2.84-5.51-.42-8.05-1.66-1.29-2.87-3.14-4.96-3.89-.67-.65-2.27-.11-2.18-1.72,2.4-.34,4.8-.7,7.21-1,1.8-.22,3.53.17,4.42,1.83,1.48,2.75,3.14,5.09,6.05,6.68,1.86,1.02,1.56,2.79-.77,3.66-1.87.7-3.93,1.37-3.65,4.04.29,2.75,2.21,3.17,4.56,3.5,1.56.22,2.77,1.96,4.65,1.62,1.64.08,3.65-.44,4.36,1.67.7,2.07-1.75,1.7-2.42,2.68-1.77,2.61-1.83,5.74-2.13,8.94-1.2-.44-2.15-.95-3.16-1.11-1.58-.25-2.22.68-2.2,2.19.02,1.44.46,2.58,2.16,2.05,1.41-.44,2.68-.89,3.67.64.78,1.21,3.6.95,2.87,2.97-.84,2.29-2.54.35-3.89.13-.56-.09-1.5-.11-1.72.21-3.77,5.63-10.66,2.47-15.46,5.58-3.56,2.3-4.1-3-4.38-3.86-1.7-5.23-6.06-5.9-10.19-7.22-2.59.52-4-1-5.1-2.98-.81-1.46-1.55-2.96-2.32-4.44-.93-.72-1.09-1.96-1.86-2.78-.31-.62-.62-1.24-.93-1.86-.72-1.13-3.01-.71-2.78-2.78-.42-.36-.84-.73-1.27-1.09,2.67-1.53,3.17-4.38,4.22-6.9.26-.11.52-.2.8-.28,1.75-1.03,3.1-2.72,5.29-3.13.3-.06-.88-.15-.88-.76Z"/>
  <path class="cls-6" d="m157.96,196.94c-2.18-1.65-5.71-2.53-3.74-6.55,4.18-1.07,7.61-.13,9.97,3.69-1.69,1.79-3.84,2.58-6.22,2.86Z"/>
  <path class="cls-42" d="m75.89,177.17c0,.82-.58,1.02-1.21,1.01-.83-.02-1.49-.48-1.73-1.27-.2-.67.18-1.19.92-1.22,1.03-.04,1.73.45,2.01,1.47Z"/>
  <path class="cls-5" d="m209.93,83.6c3.33,1.48,6.19,3.57,8.38,6.53-4.95,1.11-6.32.26-7.11-4.19-.15-.83-.83-1.56-1.26-2.34Z"/>
  <path class="cls-3" d="m190.22,145c.73.57,1.45,1.14,2.18,1.72-4.47,2.17-8.18-.76-12.18-1.79,1.56-.25,3.35.61,4.64-.95,1.79.34,3.58.68,5.36,1.03Z"/>
  <path class="cls-42" d="m208.05,82.73c.86,1.61-.05,2.27-1.45,2.24-.54-.01-1.59-1.05-1.51-1.36.47-1.61,1.95-.55,2.96-.88,0,0,0,0,0,0Z"/>
  <path class="cls-23" d="m52.89,131.89c2.29.36,3,2.05,2.9,3.95-.11,2.12-1.28,4.04-3.56,4.02-2.15-.01-2.95-1.89-2.92-3.9.03-2.32,1.41-3.55,3.58-4.07Z"/>
  <path class="cls-20" d="m229.3,110.15c.16-2.45,1.52-3.83,3.52-3.59,2.47.29,4.08,1.96,4.01,4.7-.05,2.1-1.18,3.86-3.2,3.69-2.7-.22-4.08-2.32-4.33-4.8Z"/>
  <path class="cls-39" d="m134.64,169.92c2.44-2.26,2.54-4.7.53-7.29,3.53,2.65,3.32,5.45-.53,7.29Z"/>
  <path class="cls-38" d="m167.21,165.33l2.78,2.78c-1.58-.4-3.15-.79-4.76-1.19.21-1.1,1.28-1.12,1.98-1.59Z"/>
  <path class="cls-38" d="m170.92,169.97c1.23.52,1.85,1.45,1.86,2.78-1.88-.09-1.87-1.43-1.86-2.78Z"/>
  <path class="cls-38" d="m197.77,158.66c.05.82-.04,1.58-.86,2.03-1.38-1.14-3.25.17-4.64-.92-3.39.69-5.16,4.26-8.63,4.85-.87.15-1.7.87-2.53,0-.85-.9-.12-1.73.26-2.49.82-1.61,1.66-3.22,2.67-4.72.81-1.2,4-2.22-.02-3.39-.34-.1-.27-.36,1.91-.81,1.9.36,3.34,1.64,4.34,3.04,1.99,2.79,4.45,3.3,7.49,2.42Z"/>
  <path class="cls-6" d="m150.5,189.45c1.24.01,2.48.03,3.72.04,0,.3,0,.6,0,.9-2.78,0-5.57,0-8.35,0,0-.28,0-.56,0-.84,1.22-.84,2.46-.72,3.72-.08.31,0,.62-.01.92-.02Z"/>
  <path class="cls-47" d="m149.57,189.47c-1.24.03-2.48.06-3.72.08-.35-.29-.7-.57-1.05-.86,1.65-.1,3.38-.74,4.77.77Z"/>
  <path class="cls-38" d="m175.36,153.19c1.01.07,2.03.14,4.12.29-3.49,1.47-6,2.53-8.52,3.59.91-1.92,2.28-3.33,4.4-3.88Z"/>
  <path class="cls-11" d="m190.41,172.99c.05-3.73,2.37-5.96,6.07-5.78.75.04,1.57.11,2.22.44,1.69.85,5.24-2.04,5.05,1.44-.13,2.52-2.86,4.88-6,5.49-1.16.22-2.49-.3-3.42.84-.67.82-1.21,1.82-2.59,1.15-1.63-.79-1.26-2.25-1.33-3.58Z"/>
  <path class="cls-11" d="m192.27,159.77c1.56.22,3.34-.62,4.64.92-1.56-.22-3.34.62-4.64-.92Z"/>
</svg>