<?xml version="1.0" encoding="UTF-8"?>
<svg id="Capa_1" data-name="Capa 1" xmlns="http://www.w3.org/2000/svg" viewBox="0 0 310.71 315.38">
  <defs>
    <style>
      .cls-1 {
        fill: #bd96f9;
      }

      .cls-1, .cls-2, .cls-3, .cls-4, .cls-5, .cls-6, .cls-7, .cls-8, .cls-9, .cls-10, .cls-11, .cls-12, .cls-13, .cls-14, .cls-15, .cls-16, .cls-17, .cls-18, .cls-19, .cls-20, .cls-21, .cls-22, .cls-23, .cls-24, .cls-25, .cls-26, .cls-27, .cls-28, .cls-29, .cls-30, .cls-31, .cls-32, .cls-33, .cls-34, .cls-35 {
        stroke-width: 0px;
      }

      .cls-2 {
        fill: #c39efa;
      }

      .cls-3 {
        fill: #c6a2fb;
      }

      .cls-4 {
        fill: #d0b1fe;
      }

      .cls-5 {
        fill: #171277;
      }

      .cls-6 {
        fill: #bd97f9;
      }

      .cls-7 {
        fill: #c6a1fb;
      }

      .cls-8 {
        fill: #c29cfa;
      }

      .cls-9 {
        fill: #bb95f9;
      }

      .cls-10 {
        fill: #1a1279;
      }

      .cls-11 {
        fill: #7c60d8;
      }

      .cls-12 {
        fill: #c7a2fb;
      }

      .cls-13 {
        fill: #282282;
      }

      .cls-14 {
        fill: #785bd6;
      }

      .cls-15 {
        fill: #bc97fa;
      }

      .cls-16 {
        fill: #be98fa;
      }

      .cls-17 {
        fill: #c7a6fb;
      }

      .cls-18 {
        fill: #f3dcf6;
      }

      .cls-19 {
        fill: #352a9c;
      }

      .cls-20 {
        fill: #f7f2fc;
      }

      .cls-21 {
        fill: #f9f5fb;
      }

      .cls-22 {
        fill: #f3daf7;
      }

      .cls-23 {
        fill: #302890;
      }

      .cls-24 {
        fill: #be99fa;
      }

      .cls-25 {
        fill: #c7a1fb;
      }

      .cls-26 {
        fill: #f3ddf7;
      }

      .cls-27 {
        fill: #7559d5;
      }

      .cls-28 {
        fill: #c29dfa;
      }

      .cls-29 {
        fill: #262084;
      }

      .cls-30 {
        fill: #f4ddf8;
      }

      .cls-31 {
        fill: #271f83;
      }

      .cls-32 {
        fill: #c19bfa;
      }

      .cls-33 {
        fill: #7357d4;
      }

      .cls-34 {
        fill: #2b238b;
      }

      .cls-35 {
        fill: #2a2284;
      }
    </style>
  </defs>
  <path class="cls-18" d="m213.77,303.07c-5.21,1.91-10.35,4.07-15.65,5.69-7.94,2.42-15.56,5.3-24.43,4.95-5.08-.2-10.79,1.08-16.24,1.57-5.84.52-11.58-1.18-17.49-.61-1.04.1-3.9.21-5.57-.58-2.41-1.14-4.88-1.33-7.42-1.78-6.52-1.16-13.2-2.19-19.33-4.54-4.6-1.77-9.43-3.03-13.99-5.16-4-1.87-7.96-4.06-11.92-6.02-9.27-4.58-18.25-9.58-25.42-17.51-5.31-5.88-11.6-10.9-17.63-16.1-3-2.59-3.71-6.57-6.38-9.31-8.46-8.69-12.58-20.16-19.04-30.15-2.75-4.26-3.19-9.95-5.24-14.76-2.08-4.89-2.7-10.14-4.26-15C-.72,179.74.87,165.5.1,151.32c-.36-6.63.23-13.53,1.71-19.46,2.9-11.6,5.07-23.74,11.53-34.26,7.06.07,7.22.13,7.36,7.42.06,3.26.6,5.45,4.63,5.55,6.58.16,10.31-1.25,10.91-4.77.44-2.57-1.87-4.84-5.14-4.47-3.7.42-5.89-.9-6.59-4.48-.5-2.55.2-4.67,2.93-5.66.79-.29,1.6-.51,2.38-.83,2-.84,4.65-1.57,4.06-4.29-.59-2.75-2.98-3.88-5.84-3.63-1.34.11-2.71.26-3.97-.34-1.08-.51-2.1-1.17-1.6-2.68,1.2-3,2.43-5.99,5.06-8.1,2.47-.09,3.84,1.84,5.6,3.05,5.41,3.72,9.12,3.19,13.28-1.88,2.51-3.07,6.01-4.1,8.3-2.47,2.16,1.54,3.08,6.37,1.69,9.21-.66,1.35-1.64,2.54-2.03,4.03-6.29,10.87-12.08,21.94-13.84,34.62-.16,1.16-.36,2.31-.45,3.47-.09,1.61-.08,3.23-.45,4.82-1.39,8.13.64,16.03,1.67,23.99.41,3.16,1.41,6.23,2.15,9.33,6.38,21.19,17.62,39.72,31.91,56.34,15.78,18.34,34.03,34.01,53.73,48.07,7.21,5.14,14.05,7.48,22.97,4.16,10.91-4.07,21.83-7.99,32.16-13.4,4.72-2.17,9.16-4.97,14.32-6.12,1.12-.37,2.25-.68,3.37-1.07,2.3-.81,3.59.08,3.85,2.44.55,5.1.11,10.09-1.79,14.9-.51,1.3-1.34,2.72-2.88,2.33-3.72-.94-3.41,2.15-4.4,4.02-1.27,2.4.11,3.88,1.82,5.1,2.13,1.53,2.05,3.67,2.7,5.92,1.61,5.56-1.17,11.13.97,16.55,1.36,3.46,3.34,4.33,6.65,2.92,1.7-.72,3.43-1.5,5.35-1.28.8.09,1.81.31,1.59,1.46-.19.97-1.14,1.11-1.98,1.25Z"/>
  <path class="cls-22" d="m66,30.85c10.6-9.09,23.01-14.96,35.78-20.21,8.93-3.67,18.23-6.41,27.61-8.17,17.49-3.28,35.11-3.42,52.72.35,12.03,2.58,24.04,5.22,35.15,10.55,9.81,4.71,19.09,10.49,27.77,17.08,8.85,6.73,16.52,14.77,24.48,22.52,4.45,4.34,5.77,11.17,12.46,13.95,2.18.91,3.79,6.06,5.19,9.37,2.52,5.95,4.72,11.89,9.58,16.49,1.26,1.2,2.36,3.21,2.46,4.9.52,9.46,5.33,17.76,7.05,26.97,1.29,6.91,1.77,13.96,3.21,20.62,2.26,10.51.94,20.58.52,30.86-.08,1.89-1.31,3.03-2.05,4.5-1.01.79.02,2.42-1.74,3.33-4.52-4.87-2.47-11.48-5.13-16.66-1.15,6.06-5.13,11.54-7.66,17.78-2.95,7.27-6.43,14.85-14.37,18.61-1.75.83-3.87,1.8-4.93-.3-2.7-5.36-7-9.44-10.61-14.06-.52-.66-.74-1.51-.84-2.37.08-3.01,1.91-5.35,3.05-7.94,5.53-12.56,9.94-25.39,9.49-39.4-.06-1.85,0-3.71-.61-5.49-.65-2.57-.07-5.28-.93-7.83-.69-3.72-2.02-7.27-2.92-10.93-.35-1.16-.67-2.32-1.16-3.43-5.6-12.16-13.5-22.39-24.93-29.64-2.71-1.72-5.54-3.17-8.68-3.93-16.04-7.19-31.82-5.98-47.42,1.39-1.71.92-3.46,1.8-4.91,3.14-.63.39-1.31.64-2.01.86-1.83.37-3.48,2.02-5.55.85-3.28-4.28-3.24-5.09.97-10.86-6.51,1.98-8.82-1.92-10.52-6.75-.93-2.64-1.74-5.01-5.7-3.36-2.64,1.1-4.06-.97-3.04-3.72,1.6-4.31,4.44-5.61,9.04-4.12,5.07,1.64,3.91,1.15,5.92-3.58,2.95-6.94,2.47-13.08.48-19.97-1.36-4.7-2.73-6.2-6.42-2.9-4.05,3.61-9.39,5.4-12.88,9.69-.64.79-1.53,1.64-2.51,1.59-5.85-.26-9.79,4.26-14.91,5.78-1.92.57-3.08,2-4.11,3.56-1.79,2.72-3.82,3.21-6.85,1.65-3.64-1.87-7.52-3.07-7.3-8.36.07-1.85-1.75-2.95-3.49-3.15-6.74-.78-13.43-2.98-20.01,1.53-3.18,2.18-7.54,1.59-11.29.68-2.81-.68-4.83-.32-6.82,1.75-1.64,1.7-3.71,2.94-5.79,4.04-2.87,1.52-5.12.57-5.74-2.56-.74-3.73.39-7.65-1.19-11.4-.48-1.13,1.55-2.04,2.09-3.27Z"/>
  <path class="cls-30" d="m263.25,187.67c3.92,4.85,9.43,8.48,11.38,14.84.3.98.98,1.27,1.91,1.18,1.71-.15,9.59-7.04,10.13-8.78.29-.93.67-1.86,1.12-2.72,1.8-3.44,6.41-5.76,4.26-10.78-.08-.19.22-.69.46-.84,4.99-3.05,4.75-8.92,7.2-13.33.4-.72.64-1.55,1.11-2.21.81-1.15,1.88-1.33,3.03-.45,1.2.91.59,1.85-.19,2.5-2.08,1.76-1.71,3.24.09,4.99,1.66,1.63,1.21,3.67.56,5.67-.68,2.1,1.7,3.15,1.82,4.99.58-.7,1.17-1.4,1.75-2.09,1.68,4.97-3.47,9.43-1.06,14.45-3.71,1.85-.79,6.07-2.72,8.15-2.96,3.17-1.93,7.71-4.39,10.78-2.01,2.5-.38,5.77-1.99,8-7.78,10.78-13.04,23.14-21.56,33.49-6.8,8.27-14.65,15.43-21.95,23.15-5.4,5.71-11.06,10.71-17.88,14.4-6.86,3.72-13.89,7.13-20.87,10.64-.67.34-1.29.02-1.71-.61.86-1.95.84-2.04.37-1.92-.81.2-1.59.5-2.38.79-9.68,3.56-8.09,3-11.9-5.13-.14-.3-.59-.71-.51-.82,3.04-4.6-.43-9.31.29-13.84.37-2.31.56-3.19-1.7-4.7-2.07-1.39-6.92-3.52-1.89-7.4.72-.56.2-1.54.06-2.36-.48-2.86.95-3.46,3.14-2.16,2.89,1.72,3.38-.21,4.02-2.25,1.52-4.88,1.71-9.85,1.18-15.05-2.05.42-3.96.81-5.88,1.2-.25-2.93,2.32-3.45,4.06-4.47,14.35-8.4,27.36-18.49,38.81-30.55,6.82-7.18,12.66-15.09,17.93-23.46.92-1.47,1.44-3.55,3.88-3.28Z"/>
  <path class="cls-26" d="m66,30.85c-.74,2.26-1.9,4.23.49,6.64,1.5,1.51-.92,4.03-.54,6.28.25,1.49-.03,3.15,1.64,3.94,1.49.71,2.54-.28,3.55-1.23,1.94-1.81,4.73-2.51,6.18-5.04.82-1.43,2.51-1.84,4.05-1.24,5.92,2.32,11.48,2.23,16.58-2.01,1.94-1.61,4.21-.19,6.35-.53,4.21-.66,8.44.71,12.54,1.65,1.7.39,3.47,1.78,3.08,4.5-.38,2.68,6.16,8.27,8.93,7.94.45-.05,1.11-.36,1.24-.71,2.52-6.45,9.54-6.45,14.12-9.92,1.55-1.17,3.05-1.95,5.1-1.3.7.22,2.07.09,2.36-.37,2.91-4.59,8.31-5.96,12.03-9.48.96-.91,2.01-1.79,3.16-2.44,5.7-3.21,7.34-2.19,7.44,4.43.03,1.98-.58,4.26,1.3,5.68,3.77,2.85,2.11,5.93.4,8.82-1.66,2.81-2.9,5.35-1.98,8.9.74,2.89-.99,4.88-4.02,2.86-2.04-1.36-4.6-.53-6.49-2.43-.9-.9-5.83,4.85-5.15,6.27.92,1.92,2.3,1.04,3.24.08,3.03-3.09,4.09-1.28,5,1.74.58,1.92,1.42,3.78,2.26,5.6,1.23,2.64,2.72,4.64,6.24,3.12,1.48-.64,3.77-.89,4.5.96.96,2.44-1.94,1.42-2.84,2.35-2.69,2.8-2.01,5.64-.41,8.59-.11.19-.22.38-.33.57-1.09,1.08-2.28,2.06-3.06,3.43-7.73,9.28-8.74,9.28-17.64.02-2-1.4-3.27-3.38-4.43-5.46-5.03-6.7-11.85-11.16-18.97-15.26-7.65-4.46-16.02-6.63-24.72-7.75-5.8-1.31-11.47-.08-17.14.95-13.56,2.64-24.32,9.92-33.3,20.15-.75.86-1.55,1.85-2.96,1.27-.23-3.11,3.97-5.08,1.78-8.95-1.93-3.43-5-4.3-7.66-1.24-6.65,7.65-10.05,7.89-17.73,1.25-.87-.76-1.78-1.47-2.68-2.2,10.03-16.15,22.78-29.7,38.47-40.47Z"/>
  <path class="cls-26" d="m22.47,79.42c1.3,2.54,3.5,2.36,5.64,1.64,1.58-.53,3-.79,4.11.6,1.4,1.75,4.69,2.81,3.83,5.34-.8,2.37-2.96,4.32-6.03,4.69-3.17.38-5.52,1.88-4.37,5.64,1.03,3.33,3.29,4.04,6.22,2.2,2.3-1.45,2.91.6,3.86,1.78,1.15,1.43,3.74,2.39,2.13,4.93-1.85,2.92-3.4,6.36-7.91,5.6-.65-.11-1.34-.02-2.01-.02-8.45,0-8.51,0-8.47-7.94.01-3.32.2-6.4-4.74-4.63-1.03.37-1.21-.84-1.39-1.65,1.3-6.94,5.68-12.32,9.12-18.18Z"/>
  <path class="cls-8" d="m181.39,82.49c.63-.02,1.27-.04,1.9-.06,1.56-2.36,4.92.37,6.39-2.27,2.96.57,2.74,2.61,1.94,4.63-1.37,3.48-2.74,6.82-.96,10.65.66,1.42-.41,2.98-1.1,4.29-1.88,3.56-.92,6.52,1.74,9.13,2.67,2.63,5.13,1.04,7.78-.3,2.83-1.44,5.52-3.58,9.23-.87,1.22.89,4.27-1.06,6.76-.87-3.08-5.86-2.35-7.74,2.96-8.33,1.38,2.7,3.09,5.13,5.07,7.46,3.11,3.65,2.12,6.08-2.55,6.61-1.87.21-3.16.92-4.17,2.4-1.94,2.85-4.9,4-8.07,4.77-2.45.6-5.49-.39-6.84,3.05-.43,1.09-2.18.64-2.5-.26-1.69-4.63-6.75-1.89-9.45-4.48-.98-.94-1.88.37-2.31,1.7-1.79,5.5-1.84,5.48-7.39,4-.65,1.77-1.06,3.77.27,5.13,1.51,1.54,3.57.58,5.2-.26,6.48-3.35,12.01-2,16.89,3.11.23.24.62.42.71.7,1.79,5.21,3.58,10.25,9.87,11.94,1.37.37.59,2.73.05,4.16-.97,2.61-1.41,5.44-.43,7.93,1.54,3.9,1.1,7.16-.45,11.06-1.13,2.86-2.44,4.92-4.78,6.7-2.48,1.88-4.23,3.53-.34,6.44,4.84,3.62,4.64,5,1.32,12.46,2.36,1.21,4.6-.21,6.88-.31,1.84-.09,2.27-.88,1.59-2.63-.95-2.44-.39-5.01-.09-7.49.23-1.96,1.37-3.5,3.53-3.75,1.95-.22,3.24.98,3.95,2.59,2.55,5.78,6.21,11.4,1.54,17.96-1.48,2.08-.87,4.75-.26,7.33,1.53,6.46-1.13,11.24-6.41,12.12-2.62.44-4.77-.01-5.07-3.28-.15-1.6.08-4.14-2.41-3.29-2.3.78-5.97,2.06-4.72,5.34,1.48,3.86-.14,6.53-1.69,9.46-1.25,2.38-2.73,4.64-3.27,7.35-.61,3.05-2.91,4.85-5.22,6.56-3.26,2.41-5.12-.25-7.4-1.95-2.88-2.16-5.2-.97-5.49,2.58-.54,6.58-2.55,9.14-8.39,10.59,1.88,1.8,3.99,2.31,6.48,1.84,1.15-.22,2.81-.83,2.79,1.45-12.73,7.44-26.45,12.43-40.71,15.84-5.39,1.29-9.68-2.61-13.73-5.39-16.13-11.04-31.07-23.59-44.79-37.49-17.66-17.89-31.92-38.13-40.83-61.84-.76-2.03-1.79-4.01-1.71-6.28-.85-1.46-.43-2.33,1.26-2.16,2.09.21,3.41-1.15,5.02-2.01,3.46-1.86,3.75-4,.9-6.65-2.12-1.98-2.6-3.95-1.97-7.13.52-2.62-.37-6.47-4.02-7.75-6.2-2.18-6.22-2.11-5.27-8.83.03-1.65.06-3.29.09-4.94,2.62,3.63,5.76,1.79,8.73.71,1.7-.62,3.28-2.13,5.07-.46,1.84,1.71,1.62,3.92,1.13,6.12-.15.66.09-.15-.16.48-1.01,2.56-3.23,4.96-.63,7.86,2.67,2.98,5.17.85,7.79-.02,1.52-.51,3.27-.57,3.76,1.33.53,2.06,1.22,4.7-1.32,5.82-4.5,2-3.63,6.28-3.27,9.24.47,3.78,4.29,4.71,8,4.27,1.34-.16,2.68-.24,4.03-.19,5.58.21,7.51,3.04,4.77,7.78-1.83,3.16.27,6.24-.77,9.35-.52,1.54,1.65,1.44,2.62,1.33,5.99-.71,11.93-1.47,17.96-.19,1.72.37,1.63-1.23,1.58-2.43-.12-2.65.99-4.23,3.8-4.14,3.21.1,2.85-3.43,4.79-4.61,2.85.92,2.73,3.33,2.83,5.63-.22,1.59-1.69,2.41-2.35,3.76-1.15,2.4-.99,4.69.91,6.43,3.02,2.77,6.92,4.34,10.81,4.71,3.27.31,4.34-3.09,5.1-5.84.35-1.27-.36-2.63-.16-3.97.08-.46.23-.91.44-1.33,1.13-1.54,3.37-2.43,2.85-4.94.24-2.02.13-4.18,2.15-5.49.29-.69,1.02,1.43,1.05-.11.02-1.3.26-2.57.19-3.88.19-2.76-.41-5.57.62-8.25.16-.31.54-.75.66-.67,5.43,3.73,12.45,6.12,12.54,14.97,4-4.64,11.61-5.18,12.57-12.93.42-3.39,6.49-6.77,10.06-5.64,3.91,1.24,8.04,2.42,10.98,5.71-.63,4.23-2.13,8.07-5.07,11.26-1,.53-.44-1.92-1.69-.9-1.51,1.24-3.31,1.26-5.15,1.41-2.99.24-3.18,1.85-1.68,4.05,1.18,1.71,3.41,2.78,3.21,5.33-6.84,1.83-4.68,6.95-4.18,11.47-3.62,2.61-6.14-.32-8.4-2.15-5.2-4.21-11.38-5.33-17.58-6.59-.82-.17-1.65-.29-2.47.01-.34.12-.54.37-.62.78.55,1.44,1.8,1.45,2.9,1.05,4.35-1.58,7.06.5,9.18,3.95,1.12,1.82,2.66,2.7,4.73,3.34,3.91,1.2,6.79,3.58,6.55,8.25-1.42,2.15-3.22,1.68-4.72.35-3.46-3.08-7.76-4.63-11.65-6.91-3.45-2.02-6.52-2.32-9.8-.02-1.14.17-2.27-.12-3.4-.12-1.26.02-2.51.05-2.72,1.74-1.54,7.78,4.36,10.83,9.21,14.54,1.24.88,2.53,1.7,3.16,3.18,1.04,7.37.98,14.98,4.82,21.73,2.8,5.24,7.54,7.78,12.98,9.36,3.15,1.17,6.2-.25,9.3-.33,4.48,1.08,8.89,1.06,13.03-1.22,1.59-.88,3.27-1.96,3.28-4.05.01-2.07-1.74-2.65-3.36-3.1-1.7-.47-2.38-1.65-2.6-3.25-.44-3.02.28-6.11-.68-9.09-.82-5.12-5.28-8.95-5.08-14.43.36-1.34,1.14-2.27,2.53-2.61,2.02.01,3.56.81,4.37,2.75.39.93.8,1.91,1.74,2.39,1.46.73,3.48,2.27,4.54.82,1.49-2.04-1.19-2.53-2.42-3.38-1.2-.84-2.88-1.14-3.03-3.01,1.4-2.04,3.41-1.59,5.39-1.32,6.07.82,8.78-2.51,6.84-8.4-.16-.48-.23-.96-.18-1.46.07-.15.13-.42.23-.43,6.06-1.15,6.92-4.92,5.11-10.06.13-.09.26-.23.41-.28,6.31-2.09,6.56-2.92,2.51-8.35-.08-2.07,1.41-2.07,2.7-1.79,2.5.55,4.75,0,4.86-2.63.1-2.5-2.04-4-4.53-4.51-1.31-.27-2.64.16-3.97.09-.76-.14-1.28-.6-1.64-1.26-.84-2.69-2.08-5.22-3.2-7.8-1.73-2.54-4.37-2.96-7.12-2.94-5.59.04-7.11-.99-8.48-6.36-.6-2.34-1.52-4.37-3.1-6.25-2.04-2.42-2.03-11.48.24-13.57,3.91-3.59,5.76-8.59,9.26-12.5,2.16-2.41.94-6.21-.5-9.09-1.32-2.65-1.89-5.04.07-7.51,2.55-3.21-.87-6-.6-9.04Z"/>
  <path class="cls-28" d="m106.62,163.13c-.77,3.18-.01,7.51-6.03,5.92-1.87-.49-1.7,2.16-1.04,3.87,1.29,3.35-.27,3.78-3.19,3.17-4.8-1-9.55-2.67-14.5,0-2.51,1.36-5.36-2.03-8.32.45.85-3.93,2.92-7.17.25-10.57-.19-.24,1.27-1.76,1.96-2.68,2.21-2.99,1.17-5.63-2.46-5.88-1.99-.14-4.01.14-6.01.36-4.5.51-10.67-3.11-9.34-6.32,1.24-2.98-3.18-9.42,4.58-9.58,2.25-.05.94-3.28.84-4.68-.13-1.89-2.16-.84-3.13-.15-2.88,2.05-5.3,2.95-8.32-.21-3-3.13-2.1-5.65.02-8.42,1.14-1.49,1.08-3.19.82-4.83-.32-2.03-1.47-3.31-3.4-1.55-1.64,1.49-3.68,1.36-5.41,2.09-3.74,1.56-4.32-.75-5.2-3.17,1.67-14.15,7.08-26.83,15.1-38.49,4.69-5.27,9.65-10.16,15.57-14.15,6.11-4.12,12.57-6.99,19.83-8.13,1.62-.08,3.24-1.88,4.17,1.82.44,1.76,5.95,1.49,7.91-1.02,1.96-2.5,3.73-2.7,6.25-1.8,9.14.44,17.64,2.88,25.26,8.07,2.21,1.63,2.5,4.32,3.46,6.58,4.12,9.66,6.11,10.83,15.67,8.68,1.12,1.89,2.03,3.95,4.13,5.05-1.31,4.23-3.8,7.03-7.55,9.86-4.63,3.49-9.74,6.49-13.93,10.57-4.02,3.92-3.73,10.64.51,15.46,5.72,6.52,5.4,16.33-.68,21.2-2.06,1.65-4.03,3-5.2-.86-.03-.11-.34.61-.76.65-1.87-.27-2.68-1.92-3.91-3.02-4.36-3.92-9.03-3.57-12.55,1.16-2.91,3.9-4.12,8.4-4.22,13.26-.05,2.46.65,5.09-1.14,7.3Z"/>
  <path class="cls-2" d="m184.47,255.59c-3.31-.53-6.93.95-9.92-1.57-1.03-.86-2.5-1.71-2.03-3.19.7-2.21,2.11-.39,3.21-.22,3.48.55,7.86-4.68,6.47-8.37-1.13-3,.67-4.09,2.34-5.31,1.96-1.42,3.93-.5,5.49.94,1.41,1.3,2.3,4.22,4.56,3.04,2.25-1.18,5.37-2.8,5.62-5.44.44-4.7,3.69-7.84,5.25-11.86.53-1.37,1.65-2.59.77-4.25-.68-1.28-3.92-2.04-1.81-3.77,2.4-1.97,4.5-4.91,7.73-5.33,2.03-.27,3.78,1.24,3.09,3.96-1.23,4.85,1.81,4.21,4.56,3.29,4.29-1.44,6.54-5.94,4.35-10.45-1.99-4.09-.46-7.13,1.29-10.25,1.76-3.13,2.22-6.12-.07-8.91-1.51-1.84-1.2-4.17-2.34-6.04-.74-1.21-1.46-2.36-3.09-2.04-1.54.3-2.67,1.82-2.35,2.88.88,2.91-1.87,6.25,1.38,8.89,1.34,1.08.74,2.9-1.17,2.49-3.02-.65-5.57.98-8.4,1.07-1.16.04-2.29.7-3.13-.56-.94-1.41-.11-2.44.71-3.61,1.26-1.77,5.14-2.94,2.03-5.94-1.59-1.53-1.84-4.38-4.94-4.58-2.15-.14-2.83-1.65-1.19-3.54.88-1.02,1.54-2.71,2.59-3,5.57-1.51,3.84-7.73,7.13-10.67.42-.38.38-1.76.05-2.43-2.41-4.76-2.98-9.43-.19-14.31.73-1.28-.39-1.9-1.75-2.32-4.07-1.25-8.06-2.13-7.28-8.37.56-4.46-9.8-9.13-14.95-7.23-1.1.41-2.13,1.01-3.19,1.53-2.21,1.09-5.01,1.93-6.62.15-1.85-2.04-.46-5.28-.6-7.96-.08-1.58,1.95-1.17,3.1-.1.98.91,2.02,2.24,3.45,1.39,1.36-.8,1.97-2.24,1.26-3.93-.6-1.45-.29-2.69,1.16-3.41,1.31-.64,2.73-.55,3.75.51,1.69,1.77,3.34,2.18,5.83,1.38,4.29-1.37,1.8,3.13,3.76,4.86-.04-4.71,2.49-4.34,5.83-4.34,3.69,0,7.81-.92,9.6-5.19.85-2.03,2.4-2.73,4.43-2.4,1.24.2,2.63,1.43,3.44-.46.7-1.64-.31-2.87-1.41-4.01-2.17-2.25-5.15-4.08-4.41-7.95,1.1-2.88.55-6.56,4.01-8.29,1.66,5.59,7.91,5.95,11.16,9.74,1.38,1.63,1.91,3.46,1.65,5.61-.33,2.76.27,5.34,1.92,7.64,2.25,3.13,2.17,6.07-.31,9.19-2.24,2.82-1.57,4.22,2.02,5.21,2.15.59,4.32.55,6.49.07,2.45-.54,4.69-.26,6.45,1.76.62.95.27,1.87-.04,2.8-.84,2.41-1.22,4.81.22,7.16,2.41,1.97,4.76,1.77,6.38-.78,1.63-2.56,3.98-3.38,6.66-3.88,4.21-.79,8.37-1.58,8.19-7.35-.03-.88.55-1.98,1.95-1.6,1.77,2.52.68,5.38.98,8.08.94,4.98.3,9.96.38,14.62-.63.6-1.07.74-1.23.46-2.36-3.92-5.24-5.37-9.37-2.31-.93.69-2.26.57-3.44.69-4.58.47-5.3,2.11-2.59,5.93.59.83,1.33,1.53,2.13,2.15,3.05,2.36,3.24,5.04.59,7.71-1.92,1.95-2.42,3.73-.99,6.25,2.09,3.68.93,7.13-2.24,9.37-3.72,2.64-6.54,5.72-8.09,10-.28.78-.83,1.63-1.56,1.94-5.4,2.3-6.46,8.81-11.59,11.59-2.91,1.58-2.14,6.43.66,8.63,1.47,1.15,3.98,1.32,3.91,3.99-11.34,13.11-25.29,22.92-40.08,31.66-1.27.75-2.87,1.12-3.47,2.74-4.7,2.05-9.4,4.1-14.09,6.15Z"/>
  <path class="cls-28" d="m38.64,125.89c-.37,4.78.27,8.59,6.65,7.37.58-.11,2,.96,1.95,1.15-1.09,3.6,5.46,6.11,1.3,10.27-1.42,1.43.96,2.48,1.81,3.56,1.5,1.89,5.04,3.9,3.06,6.07-2.29,2.5-5.14,5.87-9.32,5.24-1.35-.2-1.24.02-1.38.87-3.72-11.23-6.06-22.63-4.07-34.53Z"/>
  <path class="cls-2" d="m128.73,144.25c.06-.33.12-.66.18-.99,3.82,1.57,7.54-.06,8.46-4.52,1.09-5.3.87-10.61-3.62-14.78-5.15-4.78-5-13.66.73-17.45,5.78-3.83,10.14-9.58,16.83-12.11.97-.37,1.78-1.31,1.62-2.36-.4-2.6,1.53-3.4,3.14-4.5.29.16.65.26.85.49,7.33,8.65,7.71,8.64,15.37-.43,1.37-1,2.62-2.18,4.07-3.08,0,0,0,.02,0,.02,1.68-.68,3.36-1.36,5.03-2.04,3.03,3.45,4.82,6.94.8,10.97-1.36,1.36-.52,2.74.46,4.05,1.13,1.5,1.96,3.19,1.75,5.14-.32,2.95.93,5.48-2.77,8.5-3.34,2.73-5.25,8.13-8.98,11.51,3.17,3.39-3.05,8.5,2.25,11.7,1.89,1.14,2,3.77,2.41,5.91.75,3.91,2.04,6.35,7.07,5.32,2.73-.56,6.81-.68,7.87,3.77-5.13-.98-9.99-.01-14.72,1.97-2.62-1.12-5.27-2.16-7.84-3.39-6.06-2.91-10.56-.6-12.03,6.06-.58,2.65-1.56,5.02-4.99,5.47-3.23.42-3.6,4.71-6.74,5.64-1.05.31-1.89,1.67-3.14.93-1.24-.73-.84-2-.58-3.17,1.02-4.64-3.01-6.73-5.18-9.61-1.36-1.8-1.88,1.96-3.58,1.41-1.52-1.5.32-4.08-1.66-5.45-.87,3.37-.85,6.74,0,10.11-.35,1.22-.36,2.72-1.11,3.6-1.18,1.38-.65-.5-1.01-.78-2.38-5.87-1.67-11.9-.93-17.92Z"/>
  <path class="cls-32" d="m221.96,90.59c-2.3,2.22-.77,6.4-4.14,8.07-2.19,1.68-7.03,2.8-1.33,6.14,1.08.63,1.44,1.35.95,2.42-.46,1-1.4,1.72-2.42,1.35-2.44-.89-4.47-.79-6.38,1.22-1.1,1.17-2.37.79-2.3-.88.11-2.55-1.05-1.88-2.42-1.28-1.38.6-3.06.82-4.13,1.75-2.82,2.45-5.93,3.96-8.87,1.08-2.91-2.85-5.76-6.22-2.62-10.94,1.33-2,2.04-4.11.14-6.77-1.91-2.67,1.22-5.15,1.92-7.77.49-1.83,1.67-3.44-.88-4.55-1.26.68-2.15.64-2.1-1.13,5.35-4.06,11.78-5.67,18.1-6.52,10.83-1.46,21.63-.79,31.58,4.65.55.36,1.44,1.06,1.09,1.43-2.97,3.23-4.09,7.77-7.62,10.59-2.89.11-5.65,1.22-8.56,1.12Z"/>
  <path class="cls-25" d="m242.11,215.04c-1.26-.8-2.5-1.63-3.78-2.38-1.86-1.09-4.58-1.9-4.04-4.49.59-2.79-.18-5.68,3.58-8.16,4.98-3.28,8.8-8.65,12.36-13.65,1.94-2.72,3.43-5.55,6.38-7.44,4.91-3.13,5.42-5.39,2.4-10.2-1.29-2.07-1.48-3.46.71-5.04,3.4-2.46,5.05-5.04,0-7.75-3.01-1.61-2.97-5.08-3.89-7.88-.59-1.8.99-1.85,2.14-1.8,3.74.16,7.12-.38,10.51-2.42,4.26-2.56,5.24,1.3,7.06,4.24,0-4.69,0-9.39,0-14.08,2.39,9.22.43,18.14-1.8,27.07-2.33,9.34-6.64,17.87-10.5,26.59-3.98,5.68-7.77,11.5-11.99,16.99-2.79,3.65-5.32,7.61-9.15,10.37Z"/>
  <path class="cls-7" d="m230.92,88.57c1.76-3.3,2.74-7.12,6.2-9.33.26-.16-.03-1.17-.06-1.78,12.54,4.61,21.65,13.25,28.4,24.52,1.88,3.14,4.37,6.04,4.98,9.84-3.92,1.64-6.69,5.57-11.46,5.62-1.31.01-.59,2.16-1.78,2.69-2.02-.22-2.06-1.97-2.47-3.32-3.31-11-10.91-18.47-20.08-24.71-1.4-.95-3.68-1.1-3.73-3.52Z"/>
  <path class="cls-12" d="m250.19,132.05c.34-.67.68-1.35,1.03-2.02,2.18-1.9,5.23-1.43,7.6-2.83,6.92-1.38,8.82-7.89,12.66-12.4,1.4,3.6,2.98,7.16,3.09,11.12-.34.55-1.03,1.16-.95,1.65,1.03,6.53-3.68,7.54-8.23,8.44-2.82.56-5.04,1.05-6.85,3.96-2.06,3.31-5.47,3.35-8.33.17-.28-.25-.38-.52-.31-.79.08-.28.16-.42.24-.42.66-.19,1.31-.12,1.94.12,1.93.72,3.61.61,4.69-1.41.66-1.22,1.01-2.56.22-3.79-1.3-2.03-3.14-1.31-4.9-.73-.64.21-1.28.31-1.95.13-.26-.28-.33-.55-.23-.82.1-.26.19-.39.28-.39Z"/>
  <path class="cls-2" d="m271.48,114.8c-.66,5.86-5.74,11.38-12.17,13.2-2,.07-4.93,2.72-5.23-1.9.81-2.16,1.49-4.4,3.17-6.11-.17-2.13.04-3.99,2.87-3.95,2.36.04,3.96-1.29,5.5-2.89,1.28-1.32,2.78-2.45,4.81-1.34,1.12.73,1,1.89,1.04,2.99Z"/>
  <path class="cls-2" d="m187.38,79.32c.42.89,1.21,1.11,2.1,1.13-.03,2.08-.38,3.96-3.03,2.32-1.14-.71-2.04-.8-3.15-.32.38-2.33,2.32-2.6,4.09-3.12Z"/>
  <path class="cls-2" d="m151.94,82.5c-5.59,4.39-12.99,2.28-15.31-4.52-1.23-3.6-3.43-6.85-3.82-10.74,7.51,3.66,14.01,8.6,19.13,15.26Z"/>
  <path class="cls-17" d="m107.55,59.17c-1.51.52-3.34-1.13-4.37,2.27-1.09,3.58-10.6,3.99-11.22.86-.52-2.58-1.44-1.93-2.73-2.12,6.03-1.79,12.08-3.21,18.33-1.01Z"/>
  <path class="cls-22" d="m176.36,84.52c-.93,1.59-2.11,2.84-4.07,3.08.84-1.71,1.96-3.04,4.07-3.08Z"/>
  <path class="cls-31" d="m128.73,144.25c1.79,5.9,1.63,11.9.93,17.93-.69,2.08-1.37,4.16-2.06,6.25-.17,1.93-1.35,3.15-2.9,4.1-.17.2-.22.42-.13.67-6.24,5.52-13.34,3.77-15.94-3.94-.67-2.04-1.34-4.09-2.01-6.13-.27-5.51-.48-10.99,1.55-16.3,1.74-4.57,4.14-8.6,9.38-9.43,5.48-.87,8.54,2.78,11.18,6.85Z"/>
  <path class="cls-29" d="m177.53,151.35c4.45-4.06,9.28-5.32,14.72-1.97,1.68,2.42,3.59,4.74,3.32,7.97.27,3.36.11,6.75.87,10.07.55,3.12-.22,5.92-2.03,8.47-4.09,8.85-10,11-18.28,6.66-2.58-2.1-3.73-5.04-4.71-8.08-.17-.51-.27-1.04-.34-1.57-.15-2.7-.27-5.41.06-8.11.2-.83.55-1.56,1.32-2.02,1.63-3.84,2.78-7.89,5.08-11.42Z"/>
  <path class="cls-2" d="m176.31,181.64c8.62,3.75,11.98,2.57,17.28-6.06.87-.2,1.21.11.95.99.1,1.76,2.19,2.2,2.38,4.29.31,3.52-.23,5.49-4.18,4.96-1.27-.17-2.21.43-3.26.87-.46.51-1.01.87-1.68.98-8.39,1.39-9.28,2.24-10.46,10.15,1.66,2.27,4.88,1.84,6.7,4.08,2.1,2.59,1.38,4.25-1.49,4.3-2.83.04-6.51-.17-7.11-3.98-.35-2.25-2.35-2.11-3.17-3.42-.29-.4-.34-.81-.14-1.26,1.32-1.52,2.68-3.03,1.02-5.14-3.96-3.24-4.31-3.2-8.63,1.04-.99.83-2.13,1.29-3.43,1.32-1.62-.09-3.07-.53-4-2.01-1.17-4.08-2.84-7.62-8.03-7.23-2.34.17-2.31-2.04-3.32-3.23-2.26-2.67-3.84-6.82-8.74-3.6-1.43.94-3.27.12-4.31-1.48-.55-.84-1.17-1.86-.46-2.8,1.1-1.46,2.83-1.03,4.21-.72,7.21,1.63,14.69,2.56,20.42,8.09,1.63,1.57,3.68,3,6.29,1.88,4.12-2.41,8.79-1.17,13.15-2.02Z"/>
  <path class="cls-11" d="m175.34,214.96c1.92,3.21.65,6.71.92,10.07-1.02.9.47,3.19-1.87,3.36-1.74-3.65-4.94-1.6-6.49-.71-3.55,2.05-8.59,2.67-9.51,8.05-.27,1.59-2.02,1.5-3.35,1.61-5.73-1.11-10.41-3.74-13.15-9.15,1.38-3.98,4.4-6.53,7.77-8.69,1.97-1.27,4.05-1.55,5.92.35.38.29.73.63,1.06.97,3.6,3.3,3.89.37,4.31-2.29.72-3.93,3.2-4.7,6.66-3.68,2.57.76,5.13,1.61,7.73.11Z"/>
  <path class="cls-33" d="m155.09,221.09c-3.05-3.47-5.7-.63-7.34,1.21-1.86,2.09-3.99,3.85-5.86,5.89-4.82-7.09-5.13-15.15-5.03-23.3,5.52-1.15,11.36-.64,15.3,2.9,3.37,3.03,4.66,8.26,2.93,13.3Z"/>
  <path class="cls-34" d="m155.09,221.09c-.82-3.54-1.54-7.1-2.49-10.6-.42-1.57-1.05-3.52-3.1-3.37-4.44.33-8.38-1.78-12.64-2.23-1.02-.67-2.05-1.33-3.07-2-1.68-2.31-1.19-3.84,1.59-4.68,3.14-.95,6.34-1.6,9.5-2.5,3.55-.37,7.1-.82,10.57.39,1.53,1.28.67,2.15-.69,2.24-1.95.13-3.95.06-5.35-.06,5.87-2.41,6.69,5.92,11.68,6.35-.26,3.23.07,6.45.37,9.67-.4,3.48-1.23,6.62-5.57,6.96-.27-.04-.54-.09-.8-.16Z"/>
  <path class="cls-15" d="m156.09,196.79c-4.02.21-8.03.53-12.03-.24-5.69-.17-11.3-4.83-13.12-10.88,2.74-3.39,5.61-3.88,9.51-1.38,4.55,2.92,10.13,4.14,13.85,8.48.77.9,1.86.38,2.79,0,1.46.39,2.91.78,4.37,1.17-.95,2.53-2.77,3.43-5.37,2.86Z"/>
  <path class="cls-9" d="m108.63,169.27c4.08,6.3,9.56,6.93,15.94,3.94-.3,2.04,1.46,3.78.79,5.88-1.67,5.21-5.18,6.83-10.49,4.78-1.57-.6-3.13-1.21-4.68-1.86-6.51-2.74-7.19-8.32-1.56-12.74Z"/>
  <path class="cls-35" d="m130.94,185.67c3.34,4.87,7.31,8.99,13.12,10.88-2.2,2.08-5.16,2.03-7.83,2.54-2.51.48-2.61,1.91-2.44,3.8-3.49-1.45-5.99-4.09-8.33-6.93-2.42-2.93-2.8-5.93-.37-9.05.43-1.43,1.85-1.54,2.9-2.15,1.05.08,2.18-.06,2.96.91Z"/>
  <path class="cls-27" d="m160.16,213.97c.82-2.95-3.43-6.51,1.11-9,2.36-2.52,5.18-4.12,8.71-4.25.59,5.2,5.12,8.92,5.37,14.24-1.88,5.24-5.34,1.76-7.83,1.06-3.31-.93-5.2-.78-5.38,3.09-3.2-.74-.38-3.79-1.98-5.15Z"/>
  <path class="cls-13" d="m169.98,200.72c-2.82,1.59-5.41,3.64-8.71,4.25-3.27-.2-6.51.5-7.12-4.78-.33-2.83-4.86-.42-7.3-1.84,3.05-1.48,6.54.81,9.25-1.55,1.79-.95,3.58-1.9,5.37-2.86.81-.44,1.62-.89,2.44-1.33,3,.59,5.85,2.21,9.1,1.17.5-.16.82.91.86,1.62-.11,1.01-.84,1.68-1.39,2.44-.13.31-.2.64-.21.98-.76.64-1.52,1.27-2.29,1.91Z"/>
  <path class="cls-16" d="m177.33,197.83c-1.99-5.95,2.06-11.5,8.11-11.15,1.34.08,2.69.02,4.03.02,3,4.42,2.63,7.58-1.19,11.24-1.18,1.13-2.37.9-3.67.47-2.38-.78-4.78-1.29-7.28-.58Z"/>
  <path class="cls-14" d="m155.03,237.35c.69-.42,1.98-.83,1.99-1.26.09-6.33,6.03-6.76,9.58-9.49,2.81-2.16,6.63-1.13,7.71,1.63-.61,4.99-3.05,7.39-9.19,9.03-3.36.1-6.71,2.41-10.1.09Z"/>
  <path class="cls-24" d="m176.31,181.64c-3.89,3.89-8.78,1.25-13.15,2.02-.25-.6-.42-1.24-.76-1.79-3.31-5.43-1.93-8.13,4.81-9.34,2.03-.25,3.39.47,4.21,2.46.19.48.5-.69,1.01-.74,1.18,2.52,2.05,5.21,3.89,7.38Z"/>
  <path class="cls-1" d="m165.13,237.26c3.59-2.47,7.63-4.5,9.19-9.03.65-1.07,1.3-2.13,1.95-3.2.1.65.17,1.54.97,1.48,3.01-.24,5.06,1.25,5.61,3.92.62,2.99-2.2,4.47-4.2,5.55-4.2,2.27-8.79,3.24-13.51,1.29Z"/>
  <path class="cls-2" d="m172.43,174.26c-.34.67-.34,2.57-1.51,1.09-1.07-1.34-2.73-1.57-3.7-2.82-1.56-1.73-3.02-3.57-4.71-5.17-1.66-1.58-1.21-3.28.02-4.4,2.72-2.46,6.65-.49,9.68-2.19.08.66.16,1.33.25,1.99-.06.56-.11,1.11-.17,1.67-.8,3.04-.86,6.09.04,9.12.21.21.25.44.11.7Z"/>
  <path class="cls-2" d="m196.44,158.63c4.48-2.17,9.69-.24,10.7,4.04.53,2.27-2.31,2.49-2.86,4.28-.37,1.2-1.59,1.67-2.85.74-1.24-.92-2.46-1.95-3.85-.22-1.19.35-1.44-.57-1.82-1.32-.08-2.53-.85-5.13.68-7.52Z"/>
  <path class="cls-6" d="m196.42,166.18c.39.43.77.86,1.16,1.29,3.42.64,4.26,3.18,3.82,6.01-.65,4.17-4.17,2.91-6.85,3.09-.32-.33-.63-.66-.95-.99.63-2.71,2.26-5.17,1.97-8.11-.52-.97.08-1.19.86-1.29Z"/>
  <path class="cls-10" d="m196.42,166.18c-.29.43-.57.86-.86,1.29-1.58-3.38-1.59-6.75,0-10.13.29.43.58.85.87,1.28,0,2.52-.01,5.04-.02,7.55Z"/>
  <path class="cls-4" d="m131.78,159.36c-1.48-3.37-1.5-6.74,0-10.11,0,3.37,0,6.74,0,10.11Z"/>
  <path class="cls-2" d="m124.7,172.53c.97-1.37,1.94-2.74,2.9-4.1,1.06,2.8-.66,3.64-2.9,4.1Z"/>
  <path class="cls-2" d="m127.98,184.76c-.49,1.35-1.71,1.73-2.9,2.15-.81-3.11,1.53-1.97,2.9-2.15Z"/>
  <path class="cls-21" d="m257.25,119.99c.15,2.24-1.04,4.03-2.01,5.9-5.12,2.06-7.56,1.13-9.24-4.7-2.45-8.47-7.94-14.68-13.99-20.59-1.7-1.68-3.76-2.7-6.01-3.46-3.09-1.05-4.65-3.16-4.04-6.55,2.52-2.71,5.78-2.17,8.95-2.02,13.23,6.75,22.36,16.92,26.34,31.42Z"/>
  <path class="cls-3" d="m232.01,100.61c7.88,4.16,12.5,11.01,14.82,19.26,1.33,4.74,3.45,7.02,8.42,6.02-.47,4.23,2.86,1.12,4.07,2.11-2.38,1.96-5.21,2.11-8.1,2.02-4.25-3.08-8.94.76-13.43-.86-1.99-.72-3.9-1.07-4.59-3.21-.73-2.26.36-3.41,2.43-4.66,2.31-1.38,2.17-4.46.66-6.23-2.73-3.19-3.9-6.46-2.71-10.46.55-1.85-1.24-2.61-1.58-4.01Z"/>
  <path class="cls-3" d="m250.19,132.05c0,.32,0,.64,0,.96,1.64,2,1.72,4.01.05,6.04-.01.37-.03.73-.04,1.1-1.56-2.7-1.55-5.4,0-8.1Z"/>
  <path class="cls-20" d="m250.24,139.05c-.02-2.01-.03-4.02-.05-6.04,2.23-1.59,4.55-3.33,7.21-1.06,2.36,2.02,1.76,4.67.41,6.88-2.25,3.69-4.97,2.37-7.57.22Z"/>
  <path class="cls-5" d="m174.06,164.61v7.85c-.17,0-.33,0-.5,0v-7.77l.5-.09Z"/>
  <path class="cls-24" d="m172.32,173.56c-1.71-3.03-1.65-6.08-.04-9.12.01,3.04.03,6.08.04,9.12Z"/>
  <path class="cls-23" d="m173.28,195.78c-.09-.62-.39-1.66-.98-1.21-3.67,2.75-5.98.27-8.4-1.97,4.09-5.04,6.12-5.21,10.44-.85.3,1.52,1.68,3.32-1.06,4.03Z"/>
  <path class="cls-8" d="m173.28,195.78c1.86-.95.89-2.64,1.06-4.03,1.55,2.69,1.85,5-1.87,6.08-.2-.87.14-1.52.81-2.05Z"/>
  <path class="cls-19" d="m160.16,213.97c1.78,1.28.25,3.84,1.98,5.15-.12,2.17-.17,4.5-2.92,4.98-2.02.36-2.94-1.05-3.33-2.85,2.15-2,4.97-3.61,4.27-7.29Z"/>
</svg>