<?xml version="1.0" encoding="UTF-8"?>
<svg id="Capa_1" data-name="Capa 1" xmlns="http://www.w3.org/2000/svg" viewBox="0 0 337.5 342.03">
  <defs>
    <style>
      .cls-1 {
        fill: #d5ddfb;
      }

      .cls-1, .cls-2, .cls-3, .cls-4, .cls-5, .cls-6, .cls-7, .cls-8, .cls-9, .cls-10, .cls-11, .cls-12, .cls-13, .cls-14, .cls-15, .cls-16, .cls-17, .cls-18, .cls-19, .cls-20, .cls-21, .cls-22, .cls-23, .cls-24 {
        stroke-width: 0px;
      }

      .cls-2 {
        fill: #241e80;
      }

      .cls-3 {
        fill: #d6ddfb;
      }

      .cls-4 {
        fill: #fafafc;
      }

      .cls-5 {
        fill: #d7e0fb;
      }

      .cls-6 {
        fill: #282186;
      }

      .cls-7 {
        fill: #c1a1fb;
      }

      .cls-8 {
        fill: #d5dbfa;
      }

      .cls-9 {
        fill: #171176;
      }

      .cls-10 {
        fill: #dddede;
      }

      .cls-11 {
        fill: #b896f8;
      }

      .cls-12 {
        fill: #c1a2fc;
      }

      .cls-13 {
        fill: #bfa0fb;
      }

      .cls-14 {
        fill: #d3dbfb;
      }

      .cls-15 {
        fill: #e2e2e2;
      }

      .cls-16 {
        fill: #c8d0f0;
      }

      .cls-17 {
        fill: #faf9fb;
      }

      .cls-18 {
        fill: #bf9dfa;
      }

      .cls-19 {
        fill: #b896f9;
      }

      .cls-20 {
        fill: #261f81;
      }

      .cls-21 {
        fill: #c1a2fa;
      }

      .cls-22 {
        fill: #f9f9fc;
      }

      .cls-23 {
        fill: #bd9cfa;
      }

      .cls-24 {
        fill: #d6defb;
      }
    </style>
  </defs>
  <path class="cls-14" d="m2.25,149.36c2.35-20.67,9.02-39.97,18.46-58.4,5.54-10.81,12.53-20.65,20.29-29.94C67.39,29.4,101.04,10.01,141.43,2.75c16.85-3.03,33.9-3.93,51.09-.81,7.87,1.43,15.47,3.32,22.98,5.88,2.64.81,3.48,2.55,3.28,5.3-.45,6.2-.34,6.21,5.54,6.86,5.75.64,8.23,4.1,7.04,9.85-.22,1.08-.14,2.15-.16,3.23-.06,2.75-.18,5.55-3.15,6.94-3,1.41-4.53-1.22-6.34-2.58-.57.06-.93.22-1.05.57q-3.35,9.65-13.31,6.35c-1.37-.45-2.71-1.09-4.19-.92-1.69.19-2.93.75-1.68,2.75.84,1.34,2.42,2.75.73,4.24-1.82,1.6-3.93.6-5.45-.65-2.77-2.29-5.53-3.22-8.8-1.2-1.71-.07-3.05-1.03-4.46-1.81-6.81-3.79-13.87-4.87-21.28-1.93-5.79,1.79-10.03,5.55-13.55,10.35-5.49,7.49-9.44,15.84-13.54,24.1-2.17,4.37-4.58,8.64-6.73,13.01-5.16,10.5-13.96,13.84-24.91,13.9-7.58.04-15.19-.69-22.74.55-.82.21-1.66.34-2.51.41-10.32.26-20.13,1.93-27.9,9.65-7.89,7.84-10.71,16.9-7.08,27.66.57,1.7,1.27,3.4,1.01,5.27-.98,2.81-3.12,2.31-5.36,2.02-3.64-.47-6.14,1.27-7.96,4.39-1.29,2.21-1.55,3.97.91,5.48,2.03,1.25,3.46,1.1,5-.99,3.54-4.79,8-2.32,12.25-1.2.49.13.93.36,1.34.65.89.96,1.26,2.15,1.56,3.38.56,2.6,2.65,4.27,3.93,6.43,1.54,2.58,1.56,5.47-1.06,6.6-4.36,1.87-7.12,5.46-10.66,8.17-2.4,1.84-4.56,1.97-6.54-.93.74,2.57,2.2,5.32-1.6,6.54-1.57.51-1.05,1.54-.84,2.59.56,2.73-1.2,3.97-3.33,4.83-2.38.95-4.2,0-5.68-1.9-1-1.29-1.75-2.74-2.64-4.1-.83-1.27-2.02-2.62-3.49-2.1-7.39,2.62-8.71-4.83-12.72-7.67-1.39-.98-1.25-4.11.78-4.5,3.18-.61,5.79-3.08,9.25-2.57,2.14.32,4.23.13,3.94-2.86-.27-2.78,1.67-6.7-2.9-7.58-3.9-.75-7.89-.03-11.79.6-2.02.33-1.93,2.35-2.64,3.75-.57,1.13-1.36,2.58-2.38.22-.86-6.58,2.27-13.02.6-19.62Z"/>
  <path class="cls-1" d="m188.29,48.13c1.71-3.57,4.08-3.6,6.87-1.26.83.69,1.57,1.55,2.51,2.04,1.2.62,2.78,2.15,3.87.78,1.35-1.7-.87-2.18-1.85-3.03-2.63-2.29-1.47-3.25,1.2-4.43,4.21-1.86,7.69.76,10.71,2.2,4.79,2.27,5.7-.04,6.86-3.45.58-1.69-.17-3.72,1.28-5.15,1.14-1.13,2.4-2.82,3.47.11.7,1.92,1.43,3.89,4.12,3.26,2.92-.69,2.69-3.51,2.64-5.32-.08-2.44-.88-4.46,1.17-6.81,1.47-1.68-4.01-6.14-7.32-5.9-6.18.45-7.89-1.3-6.47-7.13.64-2.61.18-4.56-1.83-6.23,10.18,2.14,19.51,6.52,28.7,11.19,5.57,2.83,11.21,5.62,16.37,9.11,4.48,3.03,8.22,7.12,12.44,10.55,11.98,9.74,22.32,21.08,31.34,33.49,2.55,3.51,5.28,6.75,7.97,10.09,1.68,2.09.65,5.6,2.6,7.97,4.27,5.18,4.78,12.33,8.59,17.52,6.83,9.31,5.72,20.74,9.5,30.81,5.12,13.64,4.74,28.02,4.15,42.21-.28,6.62-2.65,13.15-4.08,19.73-2.89-.1-2.15-2.35-2.21-3.96-.08-1.96.91-3.8,1.04-5.93.22-.51-1.06-.22-.34-.16.22.02.29.22.09.53-2.5,4.02-3.44,8.64-4.95,13.04-.68,1.99-1.69,3.6-3.73,4.32-1.78.62-3.64.37-3.58-1.81.12-4.69-3.04-5.59-6.51-6.45-1.58-.39-3.07-1.06-4.48-1.88-2.13-1.25-4.3-.76-5.07,1.26-2.25,5.92-6.96,5.97-11.98,5.71-1.27-.07-2.51.16-3.73.53-.77.2-1.56.31-2.36.34-.89.02-1.97.13-2.58-.44-3.03-2.83-6.24-4.52-10.69-4.42-3.01.07-3.89-3.2-4.66-5.81-.13-.51-.13-1.02-.03-1.54,1.02-2.16,2.96-3.55,4.46-5.31,5.95-6.08,12.24-11.81,17.1-18.91,13.36-19.48,6.06-39.15-16.91-45.2-.54-.1-1.06-.25-1.57-.42-7.54-2.62-15.42-4.04-22.95-6.65-.41-.29-.66-.7-.76-1.17.05-.14.06-.34.16-.48.09-.13.26-.2.4-.3q-5.82-2.59-1.13-7.45c.25-.26.52-.5.74-.79,6.05-7.68,10.75-8.03,18.42-1.39.12.1.35.08.67.14,3.34-4.8,6.39-9.83,8.81-15.23.26-3.42-1.1-5.66-4.62-6.31-2.64-.17-4.4-1.34-4.9-4.12-.41-2.32-1.51-4.43-2.21-6.67-.62-1.96-.73-3.82.37-5.73.72-1.23,3.28-2.43,1.51-3.9-1.93-1.6-4.44-3.9-7.27-2.39-3.11,1.66-6.54,3.17-8.2,6.73-.86,1.86-1.94,3.7-4.37,3.28-2.6-.45-2.45-2.74-2.69-4.69-.06-.71-.05-1.43-.15-2.14-.29-1.89-.99-3.57-3.14-3.78-2.23-.22-3.16,1.47-3.7,3.22-1.52,4.95-2.89,9.94-5.02,14.69-2.47,4.11-6.92,4.73-10.91,6.02-2.37.77-4.8,1.3-6.96,2.61-2.1.27-2.78-1.39-3.5-2.76-6.21-11.9-11.41-24.4-20.53-34.58-.49-.55-.49-1.32-.2-2.03Z"/>
  <path class="cls-3" d="m2.2,169.98c2.37-1.34-.5-5.04,2.4-5.85,4.63-1.3,9.53-1.89,14.23-1.24,2.41.34,6.3,1.79,3.88,6.16-.71,1.27-.1,2.43.33,3.63.69,1.88-.17,3.91-1.88,3.58-4.03-.76-7.26,1.18-10.83,2.02-.92.22-2.16-.71-2.54.9-.32,1.34-.04,2.93,1.26,3.24,2.92.68,3.78,2.92,4.94,5.16.65,1.25,1.85,2.28,3.59,1.19,4.09-2.56,5.97-.43,7.82,3.2,1.07,2.09,1.72,5.77,5.5,4.85,6.13-1.49,2.41-4.74.36-8.03,4.54.59,8.06.63,4.78-4.79-.66-1.08-.26-3.2,1.47-3.6,2.08-.48,1.48,1.48,1.69,2.56.58,3,2.11,2.34,3.84,1.06,3.76-2.78,5.92-7.47,11.3-8.45,1.87-.34,1.76-2.79.59-5-1.25-2.37-4.86-3.56-3.78-7.12,3.58-.13,4.07,3.42,6.11,5.13,1.89,3.2,5,5.36,7.16,8.33,3.42,3.99,6.59,8.24,10.41,11.8,6.31,5.89,7.54,12.72,5.47,20.77-3.12,12.1-5.56,24.34-7.38,36.71-.67,4.52-.48,9.03-.84,13.53-.87,3.83-3.94,6.36-5.85,9.58-1.04,1.74-3.27,2.08-5.37,1.13-1.45-.65-2.85-1.58-4.79-1.33.93,1.66,2.43.76,3.53,1.1,3.85,1.22,5.05,3.76,3.4,7.43-2.12,4.73,2.3,14.55,7.18,15.81,2.54.66,4.36-.46,6.24-2.23,4.26-4.02,6.68-3.16,8.18,2.58.37,1.4.82,2.83.81,4.25-.03,4.42,2.02,6.62,6.3,7.99,2.81.9,4.2.74,4.65-1.99,1.04-6.39,4.72-8.54,10.99-8.38,4.1.1,7.73-1.68,8.15-6.86.24-2.93,4.27-4.61,2.98-8.2,2.88-3.08,7.23-2.34,10.6-4.13,7.74-2.28,14.9-6.03,22.42-8.86,1.99-.75,3.89-1.86,6.11-1.84,1.47.31,3.08.58,2.03,2.72-.63,1.3-1.67,2.38-2.15,3.76-1.36,3.93-6.16,6.12-4.95,11.61.5,2.25-2.7,4.45-5.24,5.69-1.52.74-3.39,1.85-2.68,3.56,1.92,4.6.04,8.91-.38,13.33-.12,1.31.18,2.51,1.06,3.77-.38-1.86-.09-3.48,1.26-4.77,1.4-1.34,3.11-1.79,4.98-1.74,4.16.12,6.44,2.7,5.24,6.69-1.11,3.7-.06,5.85,3.27,7.41,2.95,1.38,5.74,3.07,8.13,5.34,1.52,1.44,3.41,1.96,5.44,2.16,1.63.16,3.23.11,4.86-.15,3.32-.53,7.41-2.37,9.69.68,2.16,2.9-1.85,5.34-2.92,8.06-.14.36-.24.68-.06,1.31,2.66-.71,3.49-2.53,3.76-5.07.61-5.79,2.53-7.44,7.3-6.63,4.74.81,8.88,5.86,8.18,9.96-.32,1.89-1.5,2.56-3.29,3.02-2.6.67-5.46-.23-7.87,1.37-1.65.36-3.34.2-4.1.17,1.15-.29,3.47.72,5.32-.95,2.3.3,4.7-.96,6.91.49-5.12,3.28-10.65,3.5-16.38,2.16-9.19.58-18.37.61-27.53-.27-3.44-.7-2.19-2.98-1.72-5.06.67-2.97-.64-3.72-3.24-2.64-3.66,1.52-6.78,4.16-10.67,5.23-.48,0-.96-.05-1.43-.15-1.62-.34-3.3-.24-4.92-.56-.47-.09-.93-.21-1.39-.35-1.61-.47-3.31-.69-4.68-1.79-.8-1.36.24-2.82-.34-4.65-2.47.17-4.44,2.56-7.87,2.01,3.3.88,6.06.85,8.24,2.62.32.27.43.55.35.84-.09.29-.18.44-.28.44-6.3,1.58-11.23-2.52-16.79-4.03.88-2.91-4.72,1.49-2.85-2.53-.79-2.08-3.11-1.06-4.39-2.16-4.86,1.65-8.03-.9-10.84-4.36-4.07-2.46-7.85-5.62-13.02-5.47-.92-.43-1.1-1.25-1.15-2.15-1.29-2.12-3.7-2.84-5.47-4.35-3.4-1-5.97-3.3-8.63-5.48-2.39-3.15-5.88-5.03-8.78-7.59-14.19-9.99-23.43-24.23-32.66-38.4-6.96-10.69-11.28-22.63-16.04-34.43-3.1-7.69-3.13-15.86-5.93-23.29-1.91-5.06.89-10.26-1.93-14.89l.02.02c.02-.39.04-.78.06-1.17,1.42-4.98-.46-10.19,1.04-15.16Z"/>
  <path class="cls-24" d="m287.33,204.81c.74-.98,1.79-1.09,2.9-1.09,4.99-.04,10.32,1.22,12.42-5.81.7-2.33,3.37-4.2,6.39-1.02,1.34,1.41,3.86,1.93,5.94,2.33,4.59.89,7.81,2.46,4.85,8.54,7.22-.83,6.26-6.96,7.38-10.5,1.07-3.38,2.54-5.66,5.21-7.8,2.42,3.62-2.65,7.62.67,11.03-1.35,2.41,2.73,5.6-1.1,7.65-1.11-.57-.63-1.94-1.63-3.03.01,3.03.08,5.71.49,8.39-8.23,30.5-23.74,56.65-45.79,79.3-8.86,9.1-17.4,18.49-28.62,24.45-5.91,3.14-11.16,7.72-18.27,8.97-2.71.47-4.87,4.09-8.53,2.64-.5-.29-.99-.16-1.53-.06-1.65.3-3.25,2.83-4.8,1.01-1.55-1.82-.49-4.28.67-6.07,2.36-3.64,3.2-7.47,3.25-11.79.1-7.97,5.18-10.9,12.31-7.46,5.84,2.82,9.24,2.28,14.15-2.22,1.06-.98,2.32-1.76,3.22-2.9,1.56-1.97,4.04-3.45,4.61-5.93.71-3.1-3.23-2.84-4.31-4.86-1.92-3.61-5.56-6.31-5.71-10.86,5.31-16.57,1.61-33.16.09-49.73-.2-2.15-.73-4.26-.33-6.43.36-1.64.98-3.35,2.66-3.82,5.3-1.48,8.96-6.07,14.37-7.35,1.52-.36,3.44-1.14,2.6-3.33-.87-2.26-2.85-2.8-4.93-1.78-2.44,1.19-5.04,2.01-7.39,3.4-1.39.82-2.86,1.83-4.31.03-.18-.49-.23-.99-.17-1.51,2.8-4.62,7.18-7.77,10.83-11.61.86-.56,1.7-1.24,2.81-.58,2.08,4.08,4.55,7.04,9.84,4.64,1.68-.77,2.37,1.23,2.91,2.46.93,2.12,2.5,2.87,4.67,2.71.27,1.95-1.52,2.19-2.56,3.02-1.01.8-2.12,1.56-1.62,3.06.45,1.35,1.67,2.01,2.94,2.01,5.23,0,10.33,1.48,15.56,1.28,2.02-.08,4.25-.38,4.64-2.81.42-2.64-1.68-3.76-3.76-4.54-2.06-.78-4.26-.5-6.41-.62-2.28-.13-4.73.5-6.64-1.4Z"/>
  <path class="cls-8" d="m252.47,278.71c3.16,4.08,4.08,10.13,10.4,11.45,1.45.3,1.78,1.97.81,3.11-4.71,5.48-8.08,12.47-16.14,14.2-3.61.78-6.61-.21-9.53-2.29-3.12-2.23-9.23-.45-9.03,3.01.46,7.69-2.47,14.23-5.64,20.67,2.59,1.63,4.25-2.44,6.31-.02-1.44.73-2.89,1.45-4.33,2.18-1.9,1.59-4.21,1.97-6.57,2.19l-.51.02h-.51c-4.71,2.85-10.07,3.4-15.32,4.35h-.51s-.5,0-.5,0c-2.56,0-5.12-.02-7.68-.03,1.16-1.62,3.18-.57,4.48-1.36,1.71-1.04,5.07.22,5.11-2.88.04-2.91-1.26-5.76-3.84-7.38-5.39-3.39-8.89-1.38-9.02,4.98-.09,4.22-1.11,5.07-7.81,6.36-.06-3.38,2.6-5.38,3.86-8.02.44-.93,1.83-1.63,1.2-2.8-.73-1.36-2.23-.73-3.43-.78-3.54-.14-6.78,1.72-10.49,1.14-2.98-.47-5.4-1.07-7.55-3.48-1.61-1.81-4.01-3.14-6.3-4.06-4.91-1.97-7.27-4.67-4.01-9.81,1.08-1.7.07-2.84-1.17-3.61-2.32-1.45-4.82-1.48-7.1.13-1.24.87-2.13,2.06-.86,3.65,1.1,1.37,2.04,3.34.1,4.1-2.22.87-2.71-1.56-3.34-3.22-.78-2.06-1.24-4.07-.59-6.33.96-3.35,2.45-6.52-.01-10.23-1.22-1.84-.11-4.74,2.91-5.28,1.77-.32,2.94-1.31,4.04-2.52,3.57-3.94,3.22-6.43-1.32-9.37.34-1.57,1.68-1.37,2.55-1.03,3.08,1.2,4.29.09,4.65-3.01.23-1.99,1.4-3.56,3.02-4.95.89-.75-.54-.77-1.05-.97,2.57-4.74,6.47-3.68,10.03-1.87,7.05,3.59,13.91,7.58,21.07,10.97,7.32,3.47,14.33,7.57,21.89,10.52,1.23.48,2.49.9,3.73,1.34.99.36,1.97.76,2.96,1.1,5.15,1.58,10.35,2.19,15.66.93,1.89-.89,3.85-1.63,5.83-2.27,3.31-.8,5.52-3.17,7.89-5.37,1.62-1.5,2.79-3.91,5.64-3.45Z"/>
  <path class="cls-8" d="m140.41,336.46c4.04-2.03,8.04-4.12,12.13-6.05,1.32-.62,3.03-2.42,4.22-.6.95,1.45,1.63,3.62.4,5.49-.68,1.05-1.54,1.97-1.52,3.32-.26.17-.52.33-.78.5-4.68,1.2-9.06-.15-13.44-1.56h-.51s-.51-.01-.51-.01c-.25-.25-.33-.49-.25-.74.08-.25.17-.37.25-.37Z"/>
  <path class="cls-3" d="m183.98,339.74c-9.1,4.01-18.21,1.93-27.32.01,9.11-.94,18.21-.91,27.32-.01Z"/>
  <path class="cls-16" d="m2.2,169.98c-.53,5.04,1.09,10.23-1.04,15.17-.02-9.41-.04-18.82-.06-28.23h-.01c2.05-2.26.63-5.06,1.15-7.56,2.02,3.35,1.3,7.09.72,10.46-.58,3.41-.71,6.76-.77,10.17Z"/>
  <path class="cls-8" d="m81.65,316.87c.93-.33,1.37-2.18,2.6-1.29,3.36,2.43,8.56,2.03,10.41,6.76-5.22.27-8.59-3.84-13.02-5.47Z"/>
  <path class="cls-8" d="m183.98,339.74c-9.11,0-18.21,0-27.32.01,0,0-.51,0-.51,0l-.51-.02c-.37-.25-.49-.49-.37-.74.12-.25.25-.37.37-.37h0c8.11,0,16.22-.03,24.33.02,1.73.01,3.66-.59,5.06,1.07,0,0-.52.01-.52.01,0,0-.52,0-.52,0Z"/>
  <path class="cls-24" d="m202.42,337.58c5.11-1.45,10.21-2.91,15.32-4.36-4.21,4.6-9.78,4.45-15.32,4.36Z"/>
  <path class="cls-3" d="m155.64,338.63v1.1c-5.06,1.42-9.89,1.26-14.21-2.16,4.78-.2,9.4,1.77,14.21,1.06Z"/>
  <path class="cls-1" d="m330.85,213.5c-1.97-1.54-1-4.17-2.55-6.2-2.13-2.78,2.55-1.88,2.65-4.29,1.53,2.01.74,3.65,1.03,5.13-.38,1.79-.76,3.57-1.13,5.36Z"/>
  <path class="cls-3" d="m140.41,336.46c0,.37,0,.74,0,1.11-3.56.55-7.38,2.26-9.84-2.18,1.46-.83,2.93-.8,4.4-.02h0c1.62,1.33,3.81-.18,5.44,1.09h0Z"/>
  <path class="cls-8" d="m57.63,297.31c3.54,1.82,7.29,3.4,8.78,7.59-3.3-2.1-6.65-4.13-8.78-7.59Z"/>
  <path class="cls-24" d="m218.76,333.21c1.9-1.61,4.39-1.43,6.57-2.19-1.64,2.37-3.61,3.76-6.57,2.19Z"/>
  <path class="cls-8" d="m75.04,310.37c2.44.68,4.93,1.28,5.47,4.35-2.14-1.05-4.31-2.06-5.47-4.35Z"/>
  <path class="cls-8" d="m105.51,326.69c1.74-.07,3.56-.24,5.03.88,1.53,1.16,0,1.06-.64,1.29-1.75-.15-3.25-.78-4.39-2.16Z"/>
  <path class="cls-15" d="m1.11,156.91c-1.96-1.95-.89-4.2-.01-6.41v6.42s.01-.01.01-.01Z"/>
  <path class="cls-10" d="m1.08,186.3v5.26c-1.14-1.81-1.64-3.58.02-5.24,0,0-.02-.02-.02-.02Z"/>
  <path class="cls-8" d="m134.96,335.37c-1.47,0-2.93.01-4.4.02-.34,0-.68.02-1.03.02,0-.38-.01-.75-.02-1.13h0c1.83.26,3.92-.73,5.44,1.09Z"/>
  <path class="cls-18" d="m214.35,288.61c-1.2-.02-2.46.12-3.27-1.09,1.69-3.63,2.8-7.38,3.11-11.43.42-5.41,2.48-7.17,7.74-6.16,2.45.47,2.58-.67,3.3-2.19,2.15-4.54.67-9.71,2.67-14.28.43-.99-.69-1.95-1.27-2.86-3.22-5.07-3.23-6.98,1.86-10.27,3.88-2.51,5.53-5.8,6.71-9.9.69-2.4.69-4.51-.13-6.85-2.45-6.99-3.09-14.11-1.08-21.35.44-1.57,1.15-3.38.47-4.8-3.6-7.52,2.53-11.66,5.68-16.78,1.32-2.16,3.72-2.01,5.92-1.51,5.61,1.27,9.55-.6,11.69-6.03.26-.67.75-1.25,1.02-1.92.86-2.19,4.13-3.49,3.48-5.85-.83-2.99-3.48-5.29-4.21-8.58-.36-1.6-2.42-1.19-3.75-1.64-3.82-1.29-4.45-3.75-1.16-5.94,3.72-2.48,1.93-5.25,1.2-8.14.11,1.97-1.02,3.22-2.21,4.62-2.09,2.47-4.03,5.14-3.82,8.71.12,2.11-.74,3.86-2.28,5.31-2.07,1.96-3.07,4.13-2.73,7.23.43,3.94-6.92,9-10.79,7.78-1.03-.33-2-.87-2.93-1.41-2.08-1.21-4.97.34-6.63-1.63-1.78-2.13,1.89-3.44,1.29-5.54-.08-.28-.52-.48-.99-.98.29,2.74-1.45,5.13-.13,7.75.63,1.25,1.35,3.02-.7,3.51-1.33.32-2.09-1.16-2.47-2.43-.32-1.05-.4-2.13-.44-3.22.21-3.24-.83-6.36-.99-9.56,1.98-5.53-1.95-8.5-5.14-11.79-.82-.99-2.37-.49-3.15-1.57.81,1.17,2.65.58,3.32,1.99-.42,1.2-1.44,1.55-2.52,1.82-8.86.32-13.73,5.57-15.69,18.81-.72,4.85.22,9.71.72,14.54-.15,1.71-.83,3.25-2.41,3.93-2.56,1.09-4.66,2.2-5.2,5.44-.32,1.93-2.47,1.05-4.71,1.01,2.49.45,4.85-.06,5.46,2.11.44,1.59-1.36,1.72-2.51,2.1-10.51-.25-20.92-1.55-31.34-2.71-7.5-.83-10.03.51-12.59,7.08-.83,1.62-1.73,3.25-3.16.47-2.11-4.1-1.12-9.2,2.66-12.33,1.92-1.59,1.77-3.19,1.29-5.27-1.16-5.06-.6-6.02,4.3-6.09,3.12-.04,5.07-1.19,6.6-3.73,2.98-4.93,8.19-8.89,6.45-15.81-.25-.99.74-1.97,1.6-2.69.99-.83,2.08-1.71,1.23-3.16-.97-1.66-2.7-1.98-4.28-1.39-4.13,1.54-6.94,4.59-8.85,8.51.01.37.04.73-.02,1.07-.27,1.64.07,4.14-2.19,4.06-1.76-.07-1.61-2.43-1.77-3.98-.21-2.1.2-4.26-.6-6.3q-6-13.69-20.68-8.55c-2.07-1.03-3.76-2.7-6.02-3.48-2.39-.82-4.13-2.41-3.74-5.24.41-2.95,2.66-4.05,5.22-4.8,1.54-.45,3.25.42,4.7-.63-2.15-4.96-4.4-5.86-7.68-2.19-3.62,4.04-8.34,3.84-12.83,4.74-2.11.42-3.86-.74-4.99-2.58-1.28-2.07-.21-3.62,1.02-5.36,4.26-6.03,3.23-9.43-3.39-11.89-5.75-2.14-11.38-4.38-14.3-10.48-.26-.55-2.1-.08-2.83-1.11,1.66-1.63,3.76-.93,5.69-1.04,8.29-.48,16.58.01,24.92-.78,7.24-.68,11.34-4.54,14.41-9.94,5.27-9.28,9.76-19,14.95-28.33,4.11-7.39,8.05-15.04,15.69-19.71,1.88-1.15,3.67-2.34,5.99-2.22,2.98-1.09,5.59-.92,7.57,1.98.61.89,1.65,1.42,2.63,1.88,11.59,5.39,17.49,15.55,22.33,26.59.73,1.67,1.56,3.27,2.61,4.74,4.37,6.17,8.63,12.29,11,19.69,1.67,5.23,4.25,5.99,9.52,4.78.93-.21,1.79-.02,2.64.3,5.7,6.48,14.21,7.48,21.41,10.99.2.49-.12.96-.15,1.45.93,0,.91-1.24,1.77-1.35,1.33-.33,2.51-.07,3.55.82.03.33.06.67.08,1,2.13.71,4.74.79,2.21,4.34-2.11,2.96-.59,5.51,3.02,6.11,1.82.3,3.6-.35,5.41-.38,4.98-.09,7.26,2.44,6.29,7.36-.64,3.26.76,4.16,3.63,4.53,8.49,1.1,10.53,3.06,12.53,11.61.33,1.43.86,2.76,1.54,4.05,1.62,3.11,1.51,5.51-2.44,6.7-3.3.99-3.14,4.32-3.68,6.76-.9,4.09-2.42,7.54-5.89,10.02-1.04.74-1.87,1.78-2.33,2.97-2.23,5.89-6.44,9.91-11.89,12.8-.6.52-1.24,1-1.9,1.45-5.36,2.5-8.54,7.6-11.4,12.02-2.87,4.44-2.9,10.83-.71,16.26,2.19,5.43,2.59,10.33.54,16.19-1.51,4.3-2.53,8.59-5.03,12.6-2.23,3.58-2.09,7.85-1.17,12.13,1.52,7.04.79,8.02-5.21,11.99-4.15,2.74-9.27,4.31-11.66,9.28-.17.52-.4,1.02-.66,1.5-.96,1.35-1.85,2.9-3.92,1.71Z"/>
  <path class="cls-23" d="m80.48,105.75c4.13-.37,6.47,3.31,8.46,5.4,2.92,3.07,6.43,3.81,9.74,5.1,7.27,2.85,8.81,8.41,3.38,14.07-2.25,2.35-1.37,6.04,1.47,5.53,4.24-.76,9.48.87,12.56-3.97,1.55-2.44,3.86-3.81,6.91-3.2,3.32.66,3.36,3.93,4.62,6.15,1.16,2.05-.08,2.55-1.97,2.16-1.22-.25-2.48-.77-3.67-.65-2.37.23-4.79.85-5.37,3.65-.59,2.89,1.61,3.52,3.75,4.29,2.11.77,4.29,1.66,5.19,4.07.3.67.54,1.42.26,2.09-3.52,8.38-3.98,17.07-2.69,25.94-.65,1.86-1.34,3.65-3.26.91-1.75-4.17-.96-8.45-.37-13.83-.68,3.02.88,7.51-3.93,4.22-.26-.18-.7.09-1.04.17-6.84,1.45-7.03,1.31-5.74-5.97.78-4.37-1.51-7.68-3.46-11.13-.76-1.35-2.15-1.46-3.3-.6-3.58,2.69-5.14.97-5.68-2.42-.86-.42-1.38-.25-1.77.13-5.42,5.2-11.73,4.42-15.88-2.21-1.95-3.11-4.96-4.31-8.13-4.86-3.42-.6-4.47,1.84-4.06,4.78.33,2.33,1.22,4.6,2.32,6.65,2.25,4.21,2.44,8.66,2.22,13.22-.37,7.32-4.57,9.61-10.94,5.95-1.26-.72-2.46-1.53-3.57-2.47-2.65-.99-2.9-4.31-5.34-5.48-.38-1.06-.76-2.12-1.14-3.19-.72-2.29,1.13-3.26,2.42-4.37,2.77-2.39,2.1-4.27-.65-5.97-1.23-.77-2.51-1.45-3.69-2.3-5.89-4.25-5.63-9.92.64-13.77,2.51-1.54,5.39-2.11,8.09-3.14,2.88-1.09,5.79-2.15,8.18-4.2,1.09-.93,2.6-1.79,2.28-3.43-.35-1.76-2.18-1.6-3.54-1.96-5.67-1.54-6.46-2.82-6-7.73.31-3.38,2.26-4.38,5.04-4.17,4.33.32,8.89,2.47,12.06-2.72.47-.77,2.47.29,3.52-.74.7,0,1.4-.01,2.1-.02Z"/>
  <path class="cls-12" d="m219.88,104.68c-.52-.15-1.16-.59-1.53-.42-5.08,2.38-8.88,1.81-10.52-3.41-4.09-13.01-13.64-22.9-19.03-35.25-3.22-7.39-9.16-14.57-17.97-17.29-3.25-1-4.1-6.35-8.71-4.58,9.78-4.79,18.11-.99,26.17,4.41,9.47,9.86,14.94,22.17,20.93,34.17.87,1.74,2,3.35,3,5.03,3.7,5.28,7.93,10.33,7.67,17.36Z"/>
  <path class="cls-18" d="m78.38,105.76c-.89,1.69-3.09,1.23-4.16,3.85-1.82,4.46-6.66,1.8-10.06.91-3.54-.93-4.49.06-5.18,3.46-1.02,5.01,2.19,5.37,5.46,5.89,1.91.3,4.18-.3,4.98,2.24.86,2.73-1.35,3.59-2.95,5.08-3.47,3.23-7.8,4.44-12.07,5.73-2.29.69-4.48,1.55-6.37,2.89-3.8,2.7-3.52,6.86-.08,9.99,2.64,2.4,7.32,2.62,8.26,6.49,1.12,4.64-5.21,4.43-6.18,7.99-.35-.04-.69-.07-1.04-.08-2.56-2.85-6.78-4.77-5.48-9.78-2.62-8.12-5.21-16.15-1.26-24.71,6.19-13.39,17.48-18.52,31.23-19.87,1.62-.16,3.26-.04,4.89-.06Z"/>
  <path class="cls-3" d="m43.51,150.4c.51,4,4.6,5.99,5.48,9.78-2.31-.06-4.51-.83-6.88-.9-2.35-.07-3.57.14-4.41,2.53-1.31,3.76-3.73,3.13-6.27,1.11-2.05-1.63-5.46-2.12-2.49-6.36,3.31-4.73,6.27-8.42,12.62-5.42.44.21,1.3-.48,1.96-.75Z"/>
  <path class="cls-3" d="m23.14,181.1c.28.66.61,1.09.61,1.51-.01.8-.56,1.25-1.3.83-.29-.16-.46-.89-.37-1.3.07-.35.59-.6,1.07-1.04Z"/>
  <path class="cls-5" d="m219.88,104.68c-2.56-5.79-5.11-11.57-7.67-17.36.47-2.78,2.68-2.95,4.85-3.33,4.62-.81,8.98-2.27,12.6-5.42,5.73,4.17,6.16,3.87,9.14-2.75,1.42-3.16.64-7.64,4.98-9.24.29,1.46-.76,3.71,1.49,4.07,2.44.39,2.4-1.87,3.02-3.58,2.38-6.55,14.83-9.14,19.3-4.09,1.38,1.56.19,2.87-1.02,3.53-3.95,2.14-3.07,5.13-1.77,8.29.61,1.49,1.69,3,1.69,4.5,0,3.4,1.87,3.86,4.53,3.64-.88,3.6-4.52,3.62-6.94,5.06-2.76,1.64-5.72,3-8.43,4.76-1.95,1.27-4.32,2.75-2.72,5.54,1.4,2.43,3.76,1.49,5.77.64,4.95-2.11,9.96-4.1,14.34-7.34.98-.72,1.95-1.68,3.38-1.07-1.93,6.28-7.07,10.88-9,17.22-.65,2.12-2.42,1.28-3.09-.27-2.05-4.74-6.15-4.87-10.37-4.97-2.66-.07-4.63.55-4.81,3.7-.09,1.57-1.13,2.65-2.4,3.39-1.34.77-3.7.95-3.13,2.98.41,1.46,2.66,1.38,4.12,1.93.26.1,2.4-.71.8.97-.27.29-1.04.11-1.58.14-1.43-.02-2.86-.03-4.29-.05-.34.36-.67.35-1-.02-1.29-1.54-3.3-1.38-4.92-1.66-6.72-1.17-12.29-4.24-16.9-9.2Z"/>
  <path class="cls-13" d="m254.68,192.83c8.68-3.66,10.28-13.68,17.17-19.11,3.04-2.39,2.38-7.24,3.42-10.95.61-2.18,1.01-3.77,3.75-3.44,3.31.39,3.36-1.68,2.02-3.57-1.78-2.51-2.24-5.16-2.59-8.1-.5-4.26-5.47-8.03-9.74-7.94-6.96.14-7.77-.89-5.52-7.05.88-2.4-1.84-5.13-5.07-4.93-1.24.08-2.43.69-3.68.84-3.29.41-5.91-.29-7.66-3.65-1.9-3.65,1-4.71,3.15-6.22-1.18-.87-2.02-1.49-2.86-2.1,8.26,1.24,16.3,3.27,23.99,6.56-.53,1.03-1.77.99-2.89,1.97,1.6-.74,3.27-.21,3.93-1.92,21.79,3.82,31.58,25.95,19.76,44.35-5.42,8.44-12.23,15.54-19.71,22.09-2.22.66-3.66,2.11-4.33,4.32-.01.35-.04.69-.07,1.04-.72.37-1.44.74-2.16,1.11-3.91-.2-7.03-3.03-10.92-3.29Z"/>
  <path class="cls-4" d="m276.43,90.52c-5.3,5.1-12.17,7.39-18.65,10.34-2.43,1.11-4.81,1.07-6.49-1.8-1.75-2.99-.31-5.03,1.93-6.35,5.83-3.44,11.86-6.54,17.8-9.78,4.1.89,5.18,3.93,5.41,7.58Z"/>
  <path class="cls-17" d="m287.33,204.81c3.98.01,7.98-.19,11.94.1,3.77.27,7.16,2.49,7.08,6.21-.09,3.76-3.7,4.61-7.31,4.62-5.07.02-9.96-1.75-15.07-1.2-2.65.29-4.64-.95-5.21-3.67-.59-2.8,1.57-3.72,3.6-4.64.96-.44,1.89-.94,2.84-1.41.72,0,1.43,0,2.15,0Z"/>
  <path class="cls-22" d="m243.78,66.58c-1.58,3.92-3.26,7.81-4.71,11.78-.88,2.42-1.72,5.04-4.61,5.22-3.13.19-3.58-2.94-4.81-5,1.32-4.47,2.53-8.98,3.99-13.4.91-2.77,1.11-6.68,5.51-6,4.06.63,4.84,3.82,4.62,7.4Z"/>
  <path class="cls-18" d="m272.1,123.21c.11.77,1.65,1.85.9,1.87-2.59.07-4.39,1.46-6.65,4.51-.14-5.16,1.55-6.49,4.71-6.42.35-.01.69,0,1.04.04Z"/>
  <path class="cls-23" d="m267.82,193.97c-.58-3.46.87-4.9,4.32-4.32-1.1,1.79-2.54,3.23-4.32,4.32Z"/>
  <path class="cls-23" d="m186.94,198.39c.5-.33,2.34.04.92-1.32-1.33-1.27-3.36-.9-5.26-1.53,3.28-.11,5.58-.6,4.92-4.74-.29-1.85,1.91-2.33,3.64-2.32,2.46.01,3.58-1.36,3.85-3.64,1.88-.01,2.74,1.55,3.96,2.56,5.33,4.36,12.13,3.19,15.73-2.73,1.71-2.81,2.6-5.92,3.42-9.08.46-1.79.1-4.16,2.67-4.83.44,1.64-.53,3.71,1.89,5.2-.97-4.7-.57-9.09-.34-13.79.94,2.61,2.76,3.78,5.37,3.56-.26,3.04-4.49,2.09-4.36,5.6,3.34-.38,6.65-.36,9.37,2.13,1.48,1.35,3.09.96,4.15-.7.91-1.43,1.81-2.64,3.7-2.81,1.99-.18,2.72-1.66,1.49-2.99-2.46-2.66-.4-4.57.99-6.08,2.64-2.86,5.1-5.24,3.56-9.82-.61-1.82,2.31-3.44,3.34-5.41,1.17-2.23,4.18-3.35,1.69-6.54-.37-.47.26-1.39,1.11-1.52,1.53-.24,2.74.66,2.75,1.96.04,3.9,5.67,9.38-2.88,11.1-.79.16-1.01,1.04-.57,1.75.57.92,1.33,2,2.54,1.67,4.86-1.35,5.73,1.36,5.58,5.25-.01.35.09.73.22,1.06.9,2.3,6.3,2.89,3.75,5.96-3.58,4.3-5.3,9.81-9.34,13.55-2.37,2.19-5.9.92-8.93.76-1.06-.06-2.16-.75-3.13-.58-2.55.45-8.6,11.58-7.56,13.94,1.18,2.65,1.2,5.16.35,7.9-2.4,7.69-1.77,15.36,1.42,22.6,1.57,3.56-.79,5.86-1.39,8.7-.59,2.77-.34,5.43-4.5,6.91-6.62,2.35-6.99,5.78-2.12,10.49,1.69,1.64,1.05,3.02.47,4.34-2.47,5.62-.64,12.11-4.48,17.54-.43-.19-1.53-.72-2.66-1.18-4.08-1.66-6.29-.07-6.81,4.43-.49,4.24.68,9.21-4.36,11.81-2.1.18-3.8-.9-5.56-1.78-12.51-6.3-25.29-12.08-37.36-19.22-3.69-2.18-7.01-2.29-10.42.27-9.7,2.86-18.4,8.35-28.27,10.78-1.64-.17-2.2-1.39-3.03-2.63-3.85-5.75-10.95-6.52-16-1.8-2.01,1.88-4.14,3.57-6.82,4.14-4.66.99-7.57,5.46-12.39,6.05-11.31-2.1-19.43-11.26-20.46-23.1-.53-13.81,2.74-27.08,5.6-40.42,1.31-6.12,2.72-12.25,3.56-18.45.62-4.51-2.59-7.61-5.38-10.69-4.08-4.5-8.49-8.73-11.51-14.08,1.93-.93,2.01-1,3.19.24,1.62,1.7,3.02,3.63,5.42,4.32,1.26.36,2.56.48,3.52-.6.83-.93.45-2.03.08-3.06-.37-1.02-.83-2.01-1.45-2.9-2.37-3.35-1.91-5.69,2.66-6.69-1.72-.9-4.79-.38-3.23-3.52.97-1.94,2.07-4.06,4.9-2.89,1.51.63,2.65,1.86,3.95,2.83,2.15,1.62,4.07,2.34,6.86.77,4.59-2.58,7.35,1.67,9.2,4.3,1.88,2.66,5.03,2.65,6.74,5.01.67.93,1.72.31,2.17-.55,2.6-4.95,5.89-3.59,9.33-1.09,1.45,1.05,4.23.73,3.83,3.7-.76,2.08-.78,3.79,1.74,4.78,2.41.95,4.47,2.45,5.24,5.12.67,2.32,1.24,4.74,4.35,4.66,3.04-.08,5.65-1.19,7.31-3.9.57-.93.73-2.04,1.11-3.05.65-1.94,1.65-3.67,3.01-5.19.39-.35.85-.54,1.36-.59,1.07-.03,2.62.04,2.85-.99,1.19-5.26,5.47-10.19,1.91-16.01,1.69-4.26,8.88-9.64,12.67-9.42,2.68.16,3.43,2.37,4.27,4.33,1.01,2.34-.68,2.72-2.42,3.06-1.24.24-2.24,1.74-1.83,2.3,3.74,5.05-1.09,7.91-2.88,11.39-1.47,2.85-3.83,5.24-5.46,8.02-1.54,2.61-3.59.89-5.33.9-3.43.02-5.5.52-3.35,4.57,1.63,3.06,1.86,5.44-2.33,7.16-6.16,2.52-.66,7.49-1.72,11.18.17.02.35.09.49.05.16-.05.28-.22.42-.34,2.64.72,2.08,3.07,2.4,4.89,1.82,10.36,10.49,19.11,20.79,20.9,4.3.75,8.24-.26,11.92-2.48,5.95-3.58,9.96-8.75,12.52-15.16,2.11-5.27.08-9.78-2.34-14.26Z"/>
  <path class="cls-18" d="m119.73,176.51c-2.37-1.54-4.66-3.21-7.13-4.57-3.15-1.74-3.76,1.14-4.47,2.98-1.39,3.57-2.96,3.57-4.54.37-.82-1.66-1.63-2.21-3.32-1.59-1.82.67-2.4-.45-2.26-1.91.32-3.49-3.43-3.15-4.8-5.24-2.1-3.21-3.69.13-5.61,1.1-3.33,1.69-5.19-1.65-7.37-3.09-4.1-2.72-3.94-2.97-6.49,1.49.9.78,1.62-.17,2.43-.25,1.27-.13,2.79-.43,3.03,1.32.23,1.73-.92,2.9-2.6,2.69-4.05-.52-4.01.49-2.04,3.64,1.59,2.55,5.33,5.88,1.49,8.71-3.75,2.77-6.99-.39-9.88-3.09-.94-.87-.45-3.78-3.12-2.46-2.54-2.26-5.54-4.11-6.56-7.66,1.98-.33,3.37.82,4.95,1.74,5.01,2.91,7.66,1.19,8.28-4.49.75-6.81-1.69-12.77-4.35-18.63-1.35-2.97-.85-5.14,1-7.44,2.04-2.53,4.06-1.07,6.3-.26,3.68,1.32,7.15,2.56,8.01,7.09.35,1.86,1.89,2.94,3.67,1.9,1.97-1.15,3.18-1.55,3.91,1.14.42,1.56,1.49,1.28,2.42.36.37-.37.56-.92.89-1.35,1.43-1.86,2.98-4.82,5.05-4.46,2.9.5.24,4.2,1.8,6.02,6.96-4.51,6.85-4.46,10.47,3.7,1.54,3.46,2.51,6.69.52,10.25-.78,1.4-.75,2.91.83,3.76,1.55.83,2.22-.53,2.99-1.52,2.38-3.02,3.93-1.96,5.23,1.73.12-2.42.2-4.17.29-5.92,1.02,4.66.85,9.4,2.04,13.96-.36.5-.73.5-1.09,0Z"/>
  <path class="cls-8" d="m70.78,260.23c2.94,7.34,5.61,14.87,13.12,19.04,2.35,1.3,4.6,2.94,7.49,2.8,6.69-.59,13.45-.1,20.08-1.52,2.39-.51,4.88-1.59,7.16.4.85.6,1.71,1.19,2.56,1.79-3.3,3.21-4.19,7.48-5.85,11.52-.82,1.99-5.81,3.56-9.73,3.09-3.77-.45-6.92-.26-7.08,5.38-.14,4.83-3.24,5.01-7.48,4.46-6.52-.85-6.65-5.06-7.23-9.63-.18-1.42-.47-2.84-.86-4.21-.37-1.27.16-3.24-1.87-3.44-1.49-.15-2.69.77-3.71,1.89-4.59,5.06-8.49,4.72-12.05-.89-.96-1.51-2.39-2.7-3.4-4.18-2-2.93-3.58-6.05-.52-9.2,1.28-1.32,2.17-2.47.99-4.19-1.11-1.61-2.69-2.67-4.63-1.99-1.95.69-3.54.78-4.67-1.16-.59-1.02.17-1.66,1-2.13,1.79-1.01,3.5-1.81,5.4,0,3.29,3.12,5.9,2.5,6.9-1.96.62-2.76,4.16-3.03,4.36-5.89Z"/>
  <path class="cls-21" d="m118.64,280.96c-7.36,1.11-14.64,3.03-22.2,2.2-1.72-.19-3.62.48-5.04-1.08,5.71-4.34,13.37-5.19,18.6-10.41,5.92-5.9,16.07-3.26,18.39,4.74.13.46.72.78,1.1,1.17-3.24,2.32-7.41,1.68-10.85,3.39Z"/>
  <path class="cls-8" d="m129.52,334.28c-3.58.35-6.56-1.55-10.47-2.51,2.97-1.33,5.74-1.32,7.81-3.02,1.05-.86,1.95-2.53,3.63-1.37,1.91,1.32.27,2.95.04,4.41-.14.86-.66,1.66-1,2.49h0Z"/>
  <path class="cls-8" d="m193.73,337.86c-2.33,1.11-4.35.92-6.41,0h6.41Z"/>
  <path class="cls-8" d="m140.4,336.45c-1.83-.26-3.91.72-5.44-1.08,1.83.26,3.91-.73,5.44,1.08Z"/>
  <path class="cls-7" d="m252.47,278.71c-4.63,2.9-6.93,8.9-13.03,9.86-5.75-4.1-2.51-9.74-2.35-14.77.06-2.11,1.67-3.96,2.63-5.9.64-1.29,1.9-2.93,1.25-4.03-4.32-7.28,1.37-14.2.54-21.32-.28-2.44,1.82-4.31,2.35-6.54.81-3.38-.17-6.74-.73-10.12-.67-4.06-1.67-8.6,4.78-9.14,1.4-.12,1.67-2.49,3.52-2.07,1.55,1.53,2.09,3.28,1.12,5.34.78,12.55,3.11,24.96,3.32,37.57.12,7.29-.31,14.39-3.39,21.13Z"/>
  <path class="cls-13" d="m251.44,214.6c-1.4,2.14-1.54,5.68-6.02,3.97-.97-.37-1.64,3.7-1.37,5.79.33,2.62.9,5.27,1.49,7.8,1.27,5.41-3.66,8.9-3.34,14.16.21,3.45,1.67,7.98-2.17,11.04-.28.22-.14,1.61.23,1.9,5.08,3.94,1.61,7.49-.37,11.16-3.21,5.96-3.21,12.03-.46,18.15-1.8.73-3.61,1.46-5.41,2.19-2.21.8-4.38.83-6.73-.06.59-2.33,3.09-1.99,4.29-3.8-3.54-2.18-7.03-2.97-10.88-1.02-.94.48-1.89,1.07-3.03.51-.55-6.07,5.24-6.8,8.49-9.27,1.95-1.48,4.22-3.16,6.83-4.13,3.4-1.26,2.43-4.74,1.83-7.12-1.86-7.39-1.84-14.05,4.59-19.44,2.09-1.75-.99-4.21.32-6.1,4.42-6.37,1.12-12.32,0-18.79-1.13-6.43-3.01-14,4.62-19.32,3.27-2.28,4.29-7.52,9.24-8.31.33.7.31,1.48-.18,1.99-2.72,2.9-2.41,5.59.29,8.31.7.71,1.53,1.55.99,2.78-.01.35-.02.7-.03,1.04-.56.67-1.01,1.42-1.49,2.15-.64,1.24-.49,2.72-1.21,3.93-.17.16-.35.32-.52.49Z"/>
  <path class="cls-4" d="m277.63,229c4.91,2.38,10.81,5.78,15.54,10.79,1.84,1.95-.34,3.77-1.57,5.12-1.64,1.79-3.89,2.76-6.25,1.28-5.08-3.17-9.38-7.28-13.39-11.68-.95-1.04-1.16-2.26-.33-3.47,1.09-1.59,2.55-2.54,6.01-2.04Z"/>
  <path class="cls-1" d="m252.5,209.15c.47-.86,1.29-1.03,2.17-1.11,4.04.41,6.95-2.26,10.1-3.99,3.59-1.98,5.93-.61,7.79,2.11,1.25,1.84.94,4.14-1.46,4.88-4.99,1.53-9.73,3.28-13.38,7.3-1.25,1.37-3.97-.59-5.17,1.68-.37-1.8-.73-3.61-1.1-5.41,0,0-.01,0-.01,0,1.31-1.63-.2-3.82,1.07-5.46Z"/>
  <path class="cls-7" d="m254.7,207c-.1-.15-.19-.31-.31-.44q-5.92-6.17-.8-12.64c.36-.36.73-.73,1.09-1.09,4.66-2.28,7.61,1.1,10.92,3.29-3.25,4.01-6.88,7.64-10.9,10.88Z"/>
  <path class="cls-7" d="m217.68,286.4c4.59-4.36,9.81-3.17,14.9-1.39,2.03.71,1.8,2.73.21,3.87-1.07.76-2.66.8-4.09,1.89,1.78,0,3.55,0,5.33,0-5.97,2.05-11.77,1.57-17.45-1.09,2.54-.36-.39-2.55,1.1-3.27Z"/>
  <path class="cls-13" d="m217.68,286.4c-.83.93,3.63,3.64-1.1,3.27-.9-.01-1.72-.22-2.23-1.06,1.7.15,2.19-1.51,3.32-2.2Z"/>
  <path class="cls-6" d="m186.94,198.39c5.16,3.95,6.17,7.62,3.89,14.22-4.34,12.59-15.18,20.43-26.35,19.05-11.45-1.41-20.83-11.77-22.28-24.56-.1-.88-.37-1.74-.56-2.61.53-6.89,3.27-9.58,10.33-9.1,11.67.79,23.31,1.98,34.97,3Z"/>
  <path class="cls-20" d="m220.79,170.75c-.92,3.46-1.67,6.97-2.8,10.36-1.8,5.43-5.09,9.56-11.12,10.47-5.61.85-9.01-2.55-11.87-6.74-2.48-8.65-2.05-17.08,1.77-25.3,2.78-5.99,7.2-9.33,14-9.01,6.65,1.41,7.67,2.5,9.05,9.76.32,3.49.65,6.97.97,10.46Z"/>
  <path class="cls-2" d="m122,176.27c-2.24-9.74-1.5-19.11,3.56-27.92,10.36-8.09,16.78-5.83,21.28,7.5.87,4.41,1.28,8.81-.19,13.17-2.93-2.85-.29-6.6-1.58-9.77-.07-.66-.71.42-.08.06,1.12,3.38-.83,7.1,1.17,10.38.85,3.44.37,6.47-2.71,8.69l.04.08c-1.09,2.23-2.64,4.06-4.64,5.54-8.74,2.83-14.55.16-16.85-7.73Z"/>
  <path class="cls-11" d="m146.02,169.2c1.6-4.37.86-8.88.82-13.34,2.61,3.27.28,7.24,2.28,10.75,0-1.77,0-3.55,0-5.32,3.15,1.82,4.41,4.13,1.93,7.43-1.43,1.9-.54,4.18-.94,6.26-.88,4.49-3.25,5.7-6.66,3.42.81-2.8,1.63-5.59,2.44-8.39-.35-.24-.45-.44-.29-.6.13-.13.28-.2.43-.2Z"/>
  <path class="cls-23" d="m233.92,162.51c.57-1.62-.97-4.66,1.9-4.59,2.14.05,1.41,2.87,1.39,4.52-.02,1.78.73,4.73-1.97,4.6-2.29-.11-.77-2.95-1.32-4.53Z"/>
  <path class="cls-23" d="m219.82,160.29c-1.66-4.51-4.46-7.96-9.04-9.76.99-.12,1.98-.22,2.55-1.22,5.03,1.97,8.3,4.97,6.49,10.98Z"/>
  <path class="cls-23" d="m241.7,115.54c.33-.02.67-.01,1,.02.61,1.41.55,2.41-1.38,2.15-.99-.13-2.25-.22-1.96-1.62.07-.33,1.52-.37,2.34-.55Z"/>
  <path class="cls-23" d="m212.71,149.53c-1.67-.53-3.34-1.06-5.57-1.77,2.98-1.25,4.53.3,5.57,1.77Z"/>
  <path class="cls-23" d="m253.12,187.75c-.3.16-.68.49-1.1.57-.53.1-1.08-.18-.81-.81.16-.38.68-.73,1.1-.83.58-.14.9.27.82,1.07Z"/>
  <path class="cls-19" d="m122,176.27c5.59,7.95,8.16,8.91,17.16,6.45.96.16,1.69.71,2.34,1.39-1.3,5.57-4.8,8.31-10.53,8.51-2.73.1-4.44-1.32-4.5-3.59-.12-4.02-2.31-5.93-5.67-6.93-4.2-1.25-3.67-3.18-1.06-5.6.36,0,.73,0,1.09,0,.16.42.32.84.49,1.25.23-.5.46-.99.7-1.49Z"/>
  <path class="cls-18" d="m141.49,184.12c-1.03-.04-1.9-.36-2.34-1.39,1.45-1.42,2.89-2.84,4.33-4.26.59,2.33-2.22,3.46-2,5.66Z"/>
  <path class="cls-7" d="m246.95,210.99c-.12.97-.59,1.85-1.58,1.81-.99-.04-1.48-1-1.44-1.95.05-1.08.35-2.28,1.81-2,1,.19,1.2,1.19,1.21,2.13Z"/>
  <path class="cls-7" d="m252.5,209.15c-.23,1.84.63,3.9-1.07,5.46.24-1.84-.74-3.92,1.07-5.46Z"/>
  <path class="cls-9" d="m146.02,169.2c.13.29.09.56-.13.8-2.29-3.87-.71-7.93.13-11.94v11.14Z"/>
</svg>