<?xml version="1.0" encoding="UTF-8"?>
<svg id="Capa_1" data-name="Capa 1" xmlns="http://www.w3.org/2000/svg" viewBox="0 0 303.49 309.67">
  <defs>
    <style>
      .cls-1 {
        fill: #c2a4fc;
      }

      .cls-1, .cls-2, .cls-3, .cls-4, .cls-5, .cls-6, .cls-7, .cls-8, .cls-9, .cls-10, .cls-11, .cls-12, .cls-13, .cls-14, .cls-15, .cls-16, .cls-17, .cls-18, .cls-19, .cls-20, .cls-21, .cls-22, .cls-23 {
        stroke-width: 0px;
      }

      .cls-2 {
        fill: #2b2486;
      }

      .cls-3 {
        fill: #be9cfa;
      }

      .cls-4 {
        fill: #f9f6fc;
      }

      .cls-5 {
        fill: #2a2386;
      }

      .cls-6 {
        fill: #d0d9f1;
      }

      .cls-7 {
        fill: #f7f4fd;
      }

      .cls-8 {
        fill: #1e1778;
      }

      .cls-9 {
        fill: #2c2589;
      }

      .cls-10 {
        fill: #c1a0fb;
      }

      .cls-11 {
        fill: #c09ffa;
      }

      .cls-12 {
        fill: #2c258a;
      }

      .cls-13 {
        fill: #cdd7ee;
      }

      .cls-14 {
        fill: #b798f8;
      }

      .cls-15 {
        fill: #c2a1fb;
      }

      .cls-16 {
        fill: #191879;
      }

      .cls-17 {
        fill: #ba97f9;
      }

      .cls-18 {
        fill: #322b92;
      }

      .cls-19 {
        fill: #2f2890;
      }

      .cls-20 {
        fill: #d7dffa;
      }

      .cls-21 {
        fill: #d8dffa;
      }

      .cls-22 {
        fill: #bd9bfa;
      }

      .cls-23 {
        fill: #b897f9;
      }
    </style>
  </defs>
  <path class="cls-21" d="m303.47,167.66c-1.52,15.57-5.47,30.66-10.71,45.27-3.62,10.09-9.37,19.33-15.14,28.46-7.13,11.29-16.22,20.79-25.33,30.42-4.69,4.97-10.54,7.88-15.78,11.84-10.76,8.13-22.91,13.44-35.23,18.4-5.97,2.4-12.41,4.8-18.71,4.99-14.55.43-28.99,5.08-43.75.87-4.62-1.32-9.84-.9-14.79-1.45-6.25-.69-12.17-2.71-18.07-4.26-11.76-3.08-22.99-8.37-33.09-15.15-15.89-10.66-29.87-23.7-41.75-38.76-9.71-12.31-16.53-26.22-22.18-40.87C1.32,187.67-.43,167.18.08,146.36c.27-10.97,2.18-22.08,5.49-32.29,6.65-20.53,16.19-39.87,30.26-56.72,18.47-22.13,40.82-38.66,67.99-48.38,11.38-4.07,23.28-6.14,35.26-7.9,14.63-2.15,29.13-.81,43.28,2.03,18.83,3.78,36.34,11.5,52.13,22.72.08.64.54,1.37.11,1.9-2.92,3.63-6,7.05-5.92,12.26.02,1.48-2.09,2.48-3.88,2.36-3.28-.21-6.44-1.14-9.61-1.92-2.16-.53-1.75-2.24-1.56-3.98.53-4.94-1.49-6.56-6.31-5.22-3.48.97-7.09,1.21-10.64,1.77-3.36.53-3.9,1.97-1.75,4.55,1.26,1.51,2.37,3.13,3.64,4.64,5.41,6.44,6.19,14.31,2.83,21.15-4.19,8.52-5.54,16.88-4.4,26.01.16,1.31,1.06,2.96-.74,3.99-3.26.59-4.37-1.91-5.79-3.98-7.6-12.38-13.6-25.71-22.07-37.58-3.92-5.66-8.73-10.32-15.44-12.37-11.55-3.52-22.77,1.59-28.8,12.94-6.02,11.31-10.44,23.34-15.09,35.23-3.03,7.75-7.58,12.5-16.02,14-7.41,1.32-14.87,2.44-22.24,3.97-6.11,1.18-12.27,2.19-18.12,4.46-17.03,6.61-22.49,21.46-13.53,37.35,4.79,8.51,12,15.11,18.44,22.29,4.27,4.75,8.87,9.21,13.55,13.56,3.33,3.1,4.62,6.68,3.89,11.03-1.9,11.31-3.22,22.7-4.3,34.1-.89,9.37.22,18.32,6.53,25.91.5.54,1.01,1.08,1.54,1.6,9.68,8.31,20.52,7.7,31.75,4.14,2.02-.64,4.04-1.26,5.88-2.36.84-.5,1.69-.96,2.6-1.33,8-2.67,15.25-6.89,22.65-10.83,8.36-5.95,16.53-5.25,25.01.1,5.83,3.67,12.51,5.67,18.99,7.99,7.46,2.53,14.94,4.79,22.86,5.66,15.13,1.67,26.99-8.42,27.58-23.71.52-13.4-1.67-26.53-4.54-39.46-1.84-8.29-.5-14.81,5.57-20.5,2.23-1.97,3.77-4.53,5.74-6.72,5.52-6.44,10.7-13.12,15.59-20.06,6.06-8.59,9.73-17.66,7.52-28.37.45-2.55,2.51-3,4-1.82,3.85,3.07,8.41,1.62,13.02,2.89-.51-2.87-2.67-3.88-4.29-5.25-4.98-4.22-5.02-6.36-.09-10.35,1.54-1.25,3.37-2.59,2.91-4.77-.55-2.56-3.06-2.02-4.91-2.18-4.04-.34-6.37-3.29-8.75-5.89-2.91-3.19-5.91-5.56-10.55-5.09-2.2.22-3.86-.84-4.23-3.2-.68-4.33-3.65-5.28-7.45-5.53-5.23-.35-5.68-1.26-3.6-5.98.33-.75.66-1.49.78-2.31.19-1.42-.13-3.28,1.69-3.71,2.11-.5,3.34,1.19,4.24,2.7,1.44,2.44,3.1,4.54,5.44,6.21,3.93,2.8,6,2.65,9.94-1.48-3.74-.76-6.19-2.7-6.87-6.49-.24-1.31-1.71-1.91-2.65-2.82-2.93-2.82-6.16-5.31-7.34-9.6-.67-2.45-2.71-4.18-5.44-4.37-5.96-.41-8.36-4.69-10.06-9.43-1.03-2.87-.74-5.93,1.68-8.22,2.53-2.39,5.41-3.73,8.91-2,6.74,5.02,13.43,10.11,18.73,16.74.64,1.57,2.14,2.5,2.94,3.95.99.98,1.98,1.96,2.98,2.94.62,1.58,2.13,2.5,2.93,3.95,2.42,1.33,2.96,4.22,4.94,5.91.26,2.08,1.9,3.33,2.98,4.92h0c.61,1.02,1.37,1.95,2,2.96.77.41.94,1.13.96,1.92.63,1.17,1.43,2.09,2.9,2.1,1.65,3.92,3.31,7.84,4.96,11.76-.38,2.32,1.51,3.87,2,5.9h0c.77,1.59,1.03,3.4,1.98,4.93.3.34.61.68.91,1.02-.8,2.92.27,7.19,2.29,9.34.2.21.34.45.72.44.61.01,1.89-.89,1.59.55-.99,4.79.79,9.01,2.29,13.32-1.13,3.75.84,7.19,1.05,10.81v-.03c1.13,8.89,1.69,17.8,1.47,26.77-.05,1.91-.53,3.92.46,5.77Z"/>
  <path class="cls-20" d="m242.39,31.71c-3.88.37-7.9.66-9.65,4.95-1.3,3.19,1.35,9.7,4.76,12.17,1.02.74,2.1,1.47,3.59,1.24,4.24-.66,6.44,2.21,7.6,5.43.98,2.72,2.37,4.59,4.42,6.62,2.53,2.5,6.44,4.09,6.53,8.99.04,2.29,3.61,1.98,6.26,1.67-.25,2.97-1.26,5.55-4.07,5.96-2.47.36-5.61,2.83-7.72-1.18-1.1-2.09-4.47-1.88-5.16-4.86-.51-2.18-1.88-4.1-4.64-5.13-.36,2.81.81,5.86-2.29,7.85-1.25.8-.33,2.43,1.43,2.55,1.47.1,2.97-.09,4.42.09,3.28.42,6.32,1.51,6.28,5.5-.03,3.6,2.18,3.81,4.51,3.18,4.23-1.14,6.83,1.66,9.04,4,3.35,3.57,5.97,7.69,11.79,7.03,2.01-.23,3.81.97,3.98,2.88.23,2.58-1.63,4.61-3.5,6.1-5.23,4.17-5.3,4.89.04,8.78.66.48,1.38.92,1.9,1.53,1.28,1.51,4.06,2.79,2.7,5.06-1.21,2.02-3.42,1.05-5.11-.32-.68-.55-1.7-.56-2.3.02-2.27,2.19-3.64.6-5.29-.93-1.38-1.28-2.98-3.17-4.89-.5-.75.21-1.32-.11-1.6-.74-4.45-10.18-13.02-14.72-23.25-16.98-.47-.09-.92-.22-1.38-.35-1.64-.56-3.36-.34-5.04-.57-2.82-.62-5.69-.7-8.56-.86-7.73-1.27-15.59-1.6-23.29-3-3.17-.58-7.1-.55-7.91-5.06-.61-9.8-1.73-19.27,3.71-28.75,4.09-7.12,3.59-15.51-3.16-22.1-.91-.88-1.25-2.32-2.09-3.3-1.22-1.42-3.69-2.28-2.76-4.65,1.03-2.64,3.77-1.86,5.92-2.45,3.58-.98,7.48-.12,10.87-2.39,1.81-1.22,3.75-.05,5.23,1.49,2.38,2.48,2.81,5.08-.05,8.06,3.92.95,7.28,1.94,10.71,2.53,2.59.44,4.63-1.34,3.88-3.63-1.27-3.89.29-5.71,3.21-7.64,1.35-.89,2.05-2.76,3.04-4.19,3.03,1.44,5.66,3.4,7.89,5.9Z"/>
  <path class="cls-20" d="m296.6,110.48c-3.02-1.19-6.27-2.07-8.37-4.72-.62-.79.59-1.98,1.55-1.93,2.36.12,2.7-1.91,3.8-3.14,1.01,3.26,2.01,6.52,3.02,9.78Z"/>
  <path class="cls-6" d="m303.47,167.66c-.32-.72-.96-1.45-.92-2.15.56-10.16-1.05-20.25-1.03-30.38,1.54,4.99,1.99,10.11,1.96,15.31-.04,5.74-.01,11.49-.02,17.23Z"/>
  <path class="cls-13" d="m301.54,135.15c-1.04-3.54-2.97-6.99-1.05-10.81.12,3.63,1.57,7.12,1.05,10.81Z"/>
  <path class="cls-20" d="m277.88,70.12c-1.7-1.21-3.81-2.17-2.98-4.92,1.29,1.46,2.72,2.83,2.98,4.92Z"/>
  <path class="cls-20" d="m290.69,94.75c-1.16-1.8-3.49-3.2-2-5.9.87,1.9,2.23,3.63,2,5.9Z"/>
  <path class="cls-20" d="m269.97,59.3c-1.19-1.16-3.53-1.47-2.93-3.95,1.55.89,2.87,1.96,2.93,3.95Z"/>
  <path class="cls-20" d="m264.06,52.4c-1.2-1.15-3.52-1.48-2.94-3.95,1.56.89,2.87,1.96,2.94,3.95Z"/>
  <path class="cls-20" d="m283.74,77.09c-2.62,1.58-2.52-.58-2.9-2.1.97.7,1.93,1.4,2.9,2.1Z"/>
  <path class="cls-20" d="m292.67,99.68c-1.62-1.26-2.07-2.99-1.98-4.94,1.56,1.28,2,3.02,1.98,4.94Z"/>
  <path class="cls-20" d="m279.88,73.08c-1.37-.52-2.03-1.51-2-2.97,1.05.73,3.08.8,2,2.97Z"/>
  <path class="cls-11" d="m195.98,92.84c4.58,5.1,11.06,3.71,16.77,4.81,4.9.94,9.9,1.36,14.86,2.01,1.85,5.53,1.1,6.32-2.83,10.1-4.56,4.38-10.46,5.61-15.73,8.32-1.17.6-2.5,1.07-3.17,2.24-1.67,2.92-3.33,3.8-6.62,1.67-2.38-1.54-3.89.7-4,3.49-.23,5.7,5.37,8.65,5.85,13.96.16,1.84,2.26,2.06,4.03,1.86,1.96-.22,3.7.22,4.3,2.36.62,2.18-.97,3.28-2.5,4.31-2.13,1.45-5.04,1.74-6.38,4.35-.37.62-.89,1.05-1.59,1.25-3.19.23-5.55-2.18-8.52-2.67-.46-.11-.91-.25-1.36-.4-4.88-1.01-9.53.35-14.21,1.33-7.67-1.09-9.74.88-9.3,8.91-.18,3.69,1.18,6.22,5.14,6.78.47.17,1.27.53,1.22.71-1.24,3.8,2.57,6.3,2.43,9.9-.1,2.59.1,5.07-2.87,6.04-2.46.8-3.8-.32-4.72-2.77-.53-1.42-2.02-2.54-3.36-3.51-2.05-1.5-4.24-1.7-5.33.83-1.86,4.32-5.64,5.86-9.55,6.93-2.95.81-5.35,2.17-7.53,4.17-1.03.1-1.84-.39-2.62-.96-1.67-1.23-3.35-2.86-5.54-1.34-2.18,1.52-1.29,3.66-.67,5.65,1.64,3.35,1.66,6.28-2.17,8.18-1.2.51-2.29,1.2-3.45,1.78-1.69.84-3.43,2.47-5.33.99-1.76-1.36-1.25-3.52-.93-5.44.18-1.12.54-2.2.95-3.25,2.91-6.75,1.85-10.54-4.68-15.3-2.63-1.91-5.43-3.61-8.09-5.51-2.12-1.51-4.47-1.69-7.01-1.41-5.28.6-6.12-.08-6.55-5.11-.13-1.52-.55-2.83-1.25-4.15-1.61-3.05-3.72-6.82-.48-9.31,3.24-2.48,6.79-.3,9.49,2.45.3,1.62-.85,2.68-1.55,3.9-1.18,2.05-3.22,4.18-.81,6.42,2.29,2.13,4.46.32,6.49-.99.43-.22.88-.34,1.36-.39.33,0,.71-.05.95.13,7.3,5.59,14.58,4.84,21.84-.08.66,0,1.29.16,1.91.39,1.79.67,3.61.99,4.88-.84,1.24-1.8.19-3.45-.76-5.01-4.46-7.32-11.17-10.27-19.52-9.89-1.46.07-2.91.49-4.4.22-1.85-.61-3.44-1.84-5.46-2.11-1.52-.2-2.98-1.1-3.39-2.55-1.42-4.99-4.94-9.26-4.94-14.72,0-4.08-1.96-6.8-5.85-8.12-3.21-1.08-5.15-3.32-5.98-6.6-.45-1.78-1.18-4-3.03-4.15-5.95-.48-9.06-5.37-13.52-8.11,8.41-1.74,16.82-3.53,25.24-5.21,5.32-1.06,8.39-4.31,10.41-9.25,4.87-11.96,9.89-23.86,15.11-35.66,9.9-22.41,35.36-23.43,47.82-3.06.43,1.04-.32,1.49-1.03,1.86-2.53,1.34-2.28,3.07-.43,4.61,2.58,2.16,2.99,5.06,3.95,8.05,2.8,8.73,6.75,16.9,16.12,20.62,1.26.5,2.36,1.1,3.07,2.28,1.61,1.33,2.16,3.95,4.84,3.98Z"/>
  <path class="cls-3" d="m140.93,189.33c.52-1.34.6-2.53,2.41-3.45,2.31-1.17,4.98-1.74,7.13-2.2,4.13-.89,5.36-3.51,6.89-6.49,1.6-3.12,4.17-2.32,6.18-.87,1.94,1.39,4.04,3.26,4.78,5.37.54,1.55.76,1.87,2.17,1.74,1.72-.16,2.88-1.03,2.81-2.74-.07-1.76-.59-3.5-.86-5.25-.37-2.44-2.58-4.26-2.29-6.91.92-2.88,2.81-5.19,4.81-7.27,7.76-8.07,20.37-4.78,23.66,6.07-.18,3.04-4.13,3.01-4.87,6.06,2.98.27,5.86.55,8.69.65,4.14.15,7.62-3.03,8.57-7.2.54-2.39.99-4.81,1.1-7.24.14-3.06-2.27-5.08-5.05-3.96-4.14,1.67-5.64-.73-7.07-3.71,1.07-2.5,1.09-2.44,4.41-3.96,1.84-.84,4.64-1.42,4.1-4.02-.61-2.9-3.03-1.2-4.87-1.05-3.24.25-4.13-2.4-4.5-4.75-.37-2.35-.22-4.46-3.25-5.22-1.93-.49-2.01-2.36-1.51-4.09.27-.92,1.02-1.96.22-2.76-1.24-1.23-4.35-2.22-.75-3.9,2.14-1,4.6-4.93,7.33-.48,1.1,1.8,1.93,1.15,2.71-.42,2.24-4.53,6.3-6.08,10.99-6.34,1.43-.08,2.49-.7,3.46-1.57,1.1-.98,1.95-2.43,3.22-3,4.75-2.11,6.71-5.6,6.04-10.68,3.01-.16,5.97.08,8.86,1,1.47,1.24,3.46-.15,4.95.99h0c.46,1.11-.13,2.12-.93,2.48-4.76,2.17-7.31,7.94-13.28,8.14-.42.01-.7.62-.87,1.09-.57,2.28.27,4.07,2.43,4.63,9.91,2.54,13.93,9.83,15.76,19,1.88,3.08,1.03,5.24-2.23,6.58-.38.24-.78.45-1.17.68-2.06,1.22-2.76,3.93-5.49,4.57-1.77.42-1.25,2.14-.42,3.18,2.19,2.76,3.33,5.85,3.77,9.32.21,1.69,1.88,2.56,2.92,3.79,1.1,1.3,2.83,2.46,1.49,4.57-1.57,2.02-2.48,4.6-4.93,5.88-4.46,1.17-9.11,2.06-10.12,7.78-.21,1.21-1.46,1.66-2.36,2.38-5.43,4.35-4.62,10.8,1.69,13.73,7.33,3.4,7.22,3.36,4.13,11.26-1.18,3.01-2.53,6.07-2.11,9.51.23,1.82-.26,3.61-1.08,5.24-1.11,2.2-1.08,4.24-.12,6.58,2.29,5.59-.02,11.36-5.51,13.94-2.13,1-4.1,1.93-5.32,4.09-1.59,2.82-3.93,3.21-6.7,1.71-4.34-2.34-8.64-3.17-12.83.33-.37.31-.91.61-1.36.51-3.75-.82-7.23-.57-10.24,2.16-.27.25-.93-.09-1.33-.42-5.78-1.22-11-3.89-16.35-6.24-1.04-.46-2.14-.88-3.06-1.54-7.95-5.76-15.89-5.29-23.86-.07-3.31.94-2.49-1.63-2.46-3.12.06-2.7.07-5.26-2.81-7.16-1.26,1.86-2.45,3.72-4.63,4.71-7.07,3.21-12.28,8-12.82,16.37-.64.34-1.27.68-1.91,1.02-1.93,1-2.31-.18-2.28-1.71.03-1.33-.06-2.47-1.01-3.61-3.93-4.71-8.8-4.14-11.87,1.51-.7,1.28-.94,2.78-1.89,3.95-1.67,2.03-4.1,3.88-6.28,2.24-3.6-2.73-7.54-2.47-11.5-2.93-1.57-.18-3.25-.41-4.6-1.46l-.99-.98c2.83-2.31,1.81-4.12-.87-5.44-2.16-1.06-4.03-2.1-4.15-4.91-.07-1.71-1.74-3.52-.17-5.11,1.9-1.93,3.2.41,4.67,1.1,1.95.91,3.48.11,5.05-.86,2.03-1.25,3.71-1.58,5.37.91,1.34,2.01,4.24,2.38,5.77,4.45.68.92,1.76,1.72,2.99,1.03,1.51-.84,1.13-2.37.57-3.5-2.13-4.32-.81-8.28.94-12.28,1.01-2.3,2.69-3.44,5.07-2.72,3.11.94,4.89.47,6.5-2.82,1.3-2.66,4.42-4.26,6.29-6.81,1.69-2.3,1.81-4.23.37-6.74-2.84-4.94-2.13-11.88,1.46-16.12,1.59-1.88,3.49-2.44,5.41-.28.45,2.82-3.19,6.47.27,8.2,2.18,1.09,4.52-3.2,7.61-3.27.51.46.75,1.04.79,1.72.3,4.53,2.98,6.21,7.27,4.56,1.52-.59,2.78-1.43,1.5-3.23-1.29-1.81-.59-2.62,1.25-3.06.97-.15,1.92-.06,2.86.16,1.38.43,2.81.66,4.22.99,3.06.93,6.07.55,9.05-.33,5.97-.78,10.76-3.68,14.61-8.22,1.5-1.77,3.26-3.81.87-5.93-2.19-1.94-4.29-.76-5.9,1.22-2.81,3.47-6.58,5.26-10.77,6.4-2.88.25-5.76.2-8.64.08-2.98-.65-5.88-1.42-6.26-5.2Z"/>
  <path class="cls-22" d="m122.17,195.25c-3.15-.69-5.08-.54-5.42,3.75-.18,2.33-2.25,4.61-2.21,7.44.02,1.21-.1,2.3.79,3.14,4.92,4.64,1.81,8.26-1.3,12.1-1.94,2.4-6.02,3.12-5.38,7.76.23,1.7-2.37.35-3.71.38-2.03.05-4.59-2.5-5.89-.24-1.79,3.11-3.83,6.53-2.69,10.54.04.16.15.29.2.45.74,2.5,3.38,5.34.1,7.42-2.96,1.88-4.52-.95-6.19-3.03-1.58-1.97-5.53-1.34-5.69-5.01-.75.25-1.74.27-2.21.77-3.57,3.87-6.76,2.34-10.28-.57,1.01,2.91-1.57,6.99,3.99,8.05,1.85.35,4.23,2.65,4.7,4.48.69,2.71-2.65,1.76-4.1,2.65-7.72-7.67-8.34-17.42-7.41-27.3,1.1-11.67,2.91-23.27,4.42-34.91.45-3.49-.61-6.18-3.27-8.72-10.06-9.62-19.95-19.45-28.55-30.42-6.22-7.93-10.63-16.48-7.59-27.18,1.89-6.67,5.59-11.8,11.61-15.14,7.7-4.27,16.06-6.38,24.8-7.07,2.56-.22,4.64.01,5.79,3.01.67,1.74,2.43,3,4.72,2.93,4.25-.12,6.73,1.91,7.32,6.22.43,3.11,2.41,4.81,5.39,5.62,4.36,1.18,6.23,4.07,6.49,8.63.2,3.61.17,7.58,3.5,10.26.91.73.63,1.65.53,2.67-.22,2.4,1.37,4,3.43,3.85,2.38-.17,3.54,1.58,5.35,2.2-2.67,3.41-6.68,5.21-9.79,8.1-.5.06-.89-.1-1.18-.52-.89-.39-1.89-.62-2.65-1.19-2.14-1.59-5.14-2.74-6.49-.62-1.02,1.61-.88,5.07,1.09,7.19,1.53,1.65,2.47,3.17,1.78,5.67-.81,2.96.81,4.66,3.77,3.61,4.69-1.66,8.18.03,11.61,2.99,3.49,3.01,7.41,5.21,10.59,8.96,3.82,4.52,2.62,7.38,0,11.06Z"/>
  <path class="cls-10" d="m243.39,169.67c-.02-.16.03-.4-.06-.47-5.44-4.24-5.43-11.54-9.35-16.67-1.87-2.44-2.75-5.2,2.21-5.29,2.67-.05,2.01-4.61,5.23-4.18.68,1.32-.43,2.51-.29,3.8.14,1.3.8,2.13,2.11,2.3.87.11,1.61-.31,2.03-1.08.62-1.13.47-2.21-.51-3.09-.97-.88-2.49-.84-3.35-1.92,1.5-1.4,5.07-1.98,2.06-5.17,5.74-1.72,6.63-3.25,5.33-9.14-2.17-9.8-11.05-16.38-21.23-15.72-.98.06-1.95.28-2.83-.35.28-1.01.91-1.94,1.93-1.97,6.68-.21,9.67-6.32,14.74-9.08,11.96,1.57,20.94,7.22,25.59,18.76,3.02,11.34-1.57,20.64-7.85,29.54-4.86,6.89-9.73,13.78-15.77,19.73Z"/>
  <path class="cls-15" d="m185.21,254.37c3.37-3.25,7.11-4.83,11.71-2.65,5.21-5.66,10.59-3.25,15.96-.3,1.54.85,2.78.2,3.25-1.07,1.26-3.46,4.02-4.53,7.15-5.83,4.85-2.02,6.32-8.14,3.67-12.87-.47-.85-1.65-1.78-1.11-2.58,4.51-6.63.66-15.78,6.82-21.99,1.75-1.77,1.71-4.33-1.6-5.22-1.1-.3-2.26-.43-3.31-.85-3.56-1.4-6.57-4.04-6.77-7.67-.19-3.44.38-7.66,4.95-8.98,1.45-.42,1.5-1.42,1.71-2.6.52-2.95,6.33-7.57,9.37-7.43.51.02.98.79,1.47,1.21-1.36,1.84-2.65,3.73-4.08,5.51-2.29,2.84-3,5.8-2.32,9.55,2.73,15.09,6.11,30.12,5.46,45.63-.59,14.1-11.12,24.4-24.44,24.71-9.56.22-19.08-2.2-27.85-6.58Z"/>
  <path class="cls-10" d="m77.87,256.31c3.68-.46,7.3,1.43,11.07.14,1.29-.44,2.25,1.05,3.25,1.89,3.64,3.04,7.23,1.96,8.21-2.8.98-4.78,4.98-6.07,8.41-7.88,1.62-.85,7.67,5.71,7.56,7.77-.05,1.04-1.55,2.65.94,2.89-13.38,7.13-30,8.12-39.44-2.01Z"/>
  <path class="cls-1" d="m191.15,88.85c-5.91-.79-9.59-5.23-13.94-8.57-1.7-1.31-3.15-2.92-2.83-5.39.23-1.81-.72-3.11-1.96-4.29-.96-.9-2.04-1.86-1.9-3.3.37-3.89-.75-6.64-4.18-9.12-3.27-2.37-2.12-4.52,3.13-6.77,8.52,11.73,14.71,24.81,21.68,37.44Z"/>
  <path class="cls-10" d="m119.22,257.3c-1.46-5.74,1.25-10.61,8.2-15.43,2.84-1.97,8.01-1.62,7.52-7.3-.08-.88,1.57-.7,2.4.03,2.45,2.16,4.07,4.63,3.4,8.13-.27,1.41-1.41,3.23,1.21,3.77-7.26,4.27-14.59,8.38-22.73,10.8Z"/>
  <path class="cls-20" d="m284.66,86.27c.09,1.66-.34,2.71-1.46,3.28-1,.51-2.18.69-3.14,1.26-4.88,2.91-6.8.76-7.14-4.1-.15-2.09-1.66-2.56-3.27-3.05-.61-.18-1.32-.71-.96-1.41.33-.66,1.34-1.69,1.59-1.57,4.27,2.02,9.26,1.55,13.38,3.92.59.34.8,1.32,1,1.68Z"/>
  <path class="cls-10" d="m241.41,101.65c-1.67-.21-3.57.67-4.95-.99,1.67.21,3.54-.52,4.95.99Z"/>
  <path class="cls-12" d="m198.1,167.56c-3.59-9.3-13.34-11.45-19.12-7.95-2.15,1.3-3.96,2.92-5.1,5.16-.85,1.68-2,2.95-3.71,3.72-4.66-.41-6.77-2.69-5.48-7.46,1.51-5.18,4.78-8.57,10.06-9.94,5.05-1.82,10.09-3.61,15.47-1.21-2.59.99-5.23.42-7.84.5,2.61-.25,5.26.61,7.84-.5,3.29-.2,5.63,2.11,8.43,3.19,4.32,1.32,6.5,4.8,8.06,8.57,1.06,2.56.49,5.24-2.14,6.87-2.35,1.46-4.63,1.51-6.47-.95Z"/>
  <path class="cls-2" d="m103.29,157.51c2.49-3.71,6.3-5.64,10.13-7.53,10.22-1.74,18.73.76,24.67,9.81,1.58,2.41,3.35,4.82.56,7.37-2.54,2.32-5.11,1.42-7.47-.55-.76-.49-1.52-.97-2.12-1.66-6.75-6.79-11.01-6.8-18.92-.02-.78.73-2.02.79-2.62,1.8l-.29-.16c-3.11-2.24-4.34-5.29-3.94-9.05Z"/>
  <path class="cls-17" d="m198.1,167.56c2.56.8,5.26,1.57,7.1-1.13,1.9-2.81.49-5.2-1.52-7.41-1.75-1.92-3.36-3.96-5.03-5.95.46-.39.92-.78,1.38-1.17,2.41,1.1,3.75,5.46,7.8,1.56,1.33-1.28,4.73,1.73,5.69,4.22,1.8,4.66-2.83,14.55-7.38,16.82-4.39,2.19-8.8-.47-13.24.25-1.5.24-1.9-1.64-.55-2.79,1.84-1.56,3.83-2.94,5.75-4.4Z"/>
  <path class="cls-22" d="m133.95,182.48c-3.41-.22-5.42-1.78-7.1-3.87-.98-1.22-.91-2.57.34-3.43,3.31-2.27,6.86-4.29,10.84-4.88,2.76-.41,5.29,1,6,3.89.82,3.33-2.05,5.03-4.19,6.47-1.77,1.19-4.25,1.34-5.89,1.81Z"/>
  <path class="cls-5" d="m140.93,189.33c1.55,1.93,3.26,3.61,5.87,3.96.12.2.23.4.35.6-.17.45-.47.77-.9.98-1.16.49-2.92.02-3.4,1.52-.59,1.83,1.36,1.88,2.33,2.58.75.55,2.15.99,1.49,2.08-.67,1.12-2.05.53-3.14.22-.88-.04-1.76-.08-2.64-.12-4.61-.95-7.29-4.32-9.87-7.83-1.4-2.65-2.1-5.34.88-7.33,2.9-1.93,5.21-.64,7.16,1.81.49.61,1.23,1.02,1.86,1.52Z"/>
  <path class="cls-22" d="m131.03,193.33c3.29,2.61,6.58,5.22,9.87,7.83-.42.21-1.61-.13-.89.93.69,1.02,3.35.84,2.15,2.97-.85,1.52-2.17,2.9-4.2,2.96-1.62.05-3.25,0-4.88.04-3.2.06-4.53-1.34-3.66-4.56.29-1.08.43-2.21.64-3.32,3.71-1.8,1.74-4.41.97-6.85Z"/>
  <path class="cls-18" d="m103.29,157.51c1.31,3.02,2.63,6.03,3.94,9.05-1.7,3.83-4.87,3.76-7.57,1.97-2.81-1.86-2.05-4.7-.13-7.14.99-1.26,1.95-2.55,2.93-3.83.28.05.56.03.84-.05Z"/>
  <path class="cls-22" d="m107.52,166.73c-.27-1.48.77-1.77,1.85-2.01,6.92,2.58,13.84,2.39,20.76-.05.35.65.7,1.3,1.05,1.94-8.71,6.53-12.14,6.63-21.83.68-.53-.32-1.21-.38-1.82-.56Z"/>
  <path class="cls-23" d="m174.75,151.1c-3.89,2.76-7.22,6.1-10.06,9.94-1.58-3.71-.28-7.01,2.08-9.69,2.29-2.6,5.27-1.54,7.98-.25Z"/>
  <path class="cls-4" d="m224.74,112.69c11.28-4.08,23.66,4.8,25.7,18.43.85,5.71-1.34,7.85-6.97,6.77-.48-1.73-1.03-3.44-1.42-5.18-1.54-6.92-5.75-11.48-12.57-13.03-4.21-.96-5.41-3.13-4.75-6.99Z"/>
  <path class="cls-9" d="m156.65,193.31c3.84-1.79,7.61-3.51,10.08-7.37,1.57-2.44,4.21-2.24,6.48-.55,2.43,1.8,2.53,4.22.89,6.46-4.08,5.6-9.37,9.42-16.47,10.25-.72-.72-1.72-.33-2.55-.61-2.86-2.3-6.09-4.17-8.28-7.23h0c3.18-1.33,6.66.37,9.84-.95Z"/>
  <path class="cls-19" d="m146.8,194.26c4.05.88,6.09,4.37,8.87,6.89-2.45,1.87-5.36.51-7.98,1.15-1.47-.01-2.94,0-4.16-1.02.79-.09,1.59-.18,2.41-.27-.94-2.41-5.59-.46-4.79-4.66.77-4.06,3.58-1.95,5.66-2.09Z"/>
  <path class="cls-16" d="m147.69,202.3c2.4-2.23,5.33-.67,7.98-1.15.79.03,1.53.18,1.96.95-3.3.89-6.61,1.17-9.94.19Z"/>
  <path class="cls-19" d="m156.65,193.31c-3.12,1.94-6.57.54-9.84.95,0-.32,0-.65,0-.97,3.28,0,6.57.01,9.85.02Z"/>
  <path class="cls-7" d="m241.41,143.06c1.58.02,3.35-.62,4.6.74,1.41,1.55,1.89,3.41.51,5.28-1.16,1.57-2.74,2.4-4.63,1.51-1.93-.91-3.02-2.54-2.29-4.73.34-1.03,1.2-1.88,1.83-2.81,0,0,0,0,0,0Z"/>
  <path class="cls-8" d="m190.21,149.89c-2.78,2.2-5.85.38-8.8,0,2.93,0,5.87,0,8.8,0,0,0,0,0,0,0Z"/>
  <path class="cls-14" d="m130.13,164.67c-5.45,4.57-16.67,4.6-20.76.05,4.14-7.36,15.84-8.69,20.76-.05Z"/>
</svg>