<?xml version="1.0" encoding="UTF-8"?>
<svg id="Capa_1" data-name="Capa 1" xmlns="http://www.w3.org/2000/svg" viewBox="0 0 363.88 361.15">
  <defs>
    <style>
      .cls-1 {
        fill: #2b268d;
      }

      .cls-1, .cls-2, .cls-3, .cls-4, .cls-5, .cls-6, .cls-7, .cls-8, .cls-9, .cls-10, .cls-11, .cls-12, .cls-13, .cls-14, .cls-15, .cls-16, .cls-17, .cls-18, .cls-19, .cls-20, .cls-21, .cls-22, .cls-23, .cls-24, .cls-25, .cls-26, .cls-27, .cls-28, .cls-29, .cls-30, .cls-31, .cls-32, .cls-33, .cls-34, .cls-35, .cls-36, .cls-37, .cls-38, .cls-39, .cls-40, .cls-41, .cls-42, .cls-43, .cls-44, .cls-45 {
        stroke-width: 0px;
      }

      .cls-2 {
        fill: #b09af9;
      }

      .cls-3 {
        fill: #88b3a1;
      }

      .cls-4 {
        fill: #d9d9da;
      }

      .cls-5 {
        fill: #d4d2d4;
      }

      .cls-6 {
        fill: #cac5c9;
      }

      .cls-7 {
        fill: #b8a2fa;
      }

      .cls-8 {
        fill: #b6a1fa;
      }

      .cls-9 {
        fill: #e4cee3;
      }

      .cls-10 {
        fill: #2a2485;
      }

      .cls-11 {
        fill: #bca4fa;
      }

      .cls-12 {
        fill: #ebd4e8;
      }

      .cls-13 {
        fill: #e5e2e5;
      }

      .cls-14 {
        fill: #fefdfe;
      }

      .cls-15 {
        fill: #75ac94;
      }

      .cls-16 {
        fill: #f5dff3;
      }

      .cls-17 {
        fill: #dfd9df;
      }

      .cls-18 {
        fill: #bea9fa;
      }

      .cls-19 {
        fill: #b9a4fa;
      }

      .cls-20 {
        fill: #261f84;
      }

      .cls-21 {
        fill: #f5e4f4;
      }

      .cls-22 {
        fill: #f8f4fb;
      }

      .cls-23 {
        fill: #73a890;
      }

      .cls-24 {
        fill: #f4e1f2;
      }

      .cls-25 {
        fill: #bfabfb;
      }

      .cls-26 {
        fill: #f4def2;
      }

      .cls-27 {
        fill: #bca6fb;
      }

      .cls-28 {
        fill: #7bae96;
      }

      .cls-29 {
        fill: #ebd9e8;
      }

      .cls-30 {
        fill: #211d7f;
      }

      .cls-31 {
        fill: #6da68d;
      }

      .cls-32 {
        fill: #241d80;
      }

      .cls-33 {
        fill: #e5cce3;
      }

      .cls-34 {
        fill: #76aa91;
      }

      .cls-35 {
        fill: #2c278b;
      }

      .cls-36 {
        fill: #e7d3e6;
      }

      .cls-37 {
        fill: #f3effc;
      }

      .cls-38 {
        fill: #b39ef9;
      }

      .cls-39 {
        fill: #282383;
      }

      .cls-40 {
        fill: #b099f7;
      }

      .cls-41 {
        fill: #7aae95;
      }

      .cls-42 {
        fill: #e9d3e9;
      }

      .cls-43 {
        fill: #fdf1fb;
      }

      .cls-44 {
        fill: #bda7fb;
      }

      .cls-45 {
        fill: #dbdada;
      }
    </style>
  </defs>
  <path class="cls-26" d="m167.35,361.15l-1.21-1.1c-.43-.25-.57-.5-.43-.76.14-.26.28-.38.42-.38-1.14-1.47-2.79-1.19-4.29-1.13-28.93,1.11-54-10-77.74-24.89-5.81-3.65-12.06-7.61-16.49-12.32-7.7-8.19-15.9-15.9-23.78-23.87-7.72-7.8-13.11-17.03-19.43-25.7-2.1-2.88-3.12-6.42-4.71-9.6-4.32-8.61-8.5-17.4-11.44-26.54-2.47-7.69-5.25-15.52-5.21-23.85-1.31-1.33.12-3.34-1.17-4.67-2.74-5.32.25-10.65,0-15.98-.25-5.5-.05-11.03-1.18-16.55v14.89c-1.61-10.31-.06-20.43.82-30.65.74-8.62,5.27-16.27,5.15-24.94,0-.37.18-.75.33-1.11,4.42-10.75,7.46-22.37,13.56-32.06,11.52-18.3,23.08-36.79,39.49-51.5,16.22-14.53,33.92-26.48,54.19-34.87,14.78-6.12,30.01-10.02,45.57-13.07,2.07-.41,4.24-.26,6.36-.37,11.24.94,22.49.93,33.73,0,6.91-.94,13.49,3.58,20.48,1.24,12.79,6.73,27.18,9.21,40.25,15.42,9.88,4.7,19.9,9.07,28.54,15.77,19.28,14.96,36.25,32.22,48.55,53.43,9.06,15.63,17.06,31.86,20.97,49.73.89,4.06,2.55,8.1.86,12.35-1.25,1.86-.07,4.04-.79,5.87-.02.87,1.28-.24.57.07-.46-2-.68-4,.23-5.95,4.3,1.64,2.2,5.03,1.86,7.67-.38,2.96-1.59,5.84.52,8.61l-.03-.03c-.02.8-.03,1.6-.05,2.4-.47.36-.98.41-1.52.19-2.32-1.51-1.38-3.75-1.69-5.75,2.61,5.6-1.32,12.05,2.66,17.48.33,5.72-.7,11.48.58,17.16,0,.39.02.78.03,1.17-.02,1.36.04,2.72-.04,4.07-.08,1.49.37,3.68-1.51,3.93-2.04.27-1.79-2.06-2.22-3.41-1.46-4.56-5.55-2.16-8.18-3.5-1.35,1.77.89,4.41-1.78,5.31-2.57.87-4.64-.34-6.13-2.23-1.39-1.76-1.75-2.1-3.35.11-1.64,2.26-3.71.48-4.23-1.53-1.71-6.6-8.3-10.22-9.97-16.8-.16-.63-.89-.71-1.45-.39-1.14.66-1.91,1.99-1.08,2.89,4.16,4.54,2.9,9.37,1.81,14.63-.71,3.41-1.3,5.91-4.49,8.06-2.97,2-3.45,5.52-.49,8.47,1.11,1.11,2.22,2.16,2.74,3.67.65,1.87,1.23,3.87-.16,5.54-1.41,1.72-3.22.6-4.84.1-2.6-.8-5.26-1.39-7.93-1.82-4.01-.64-5.54-3.75-7.45-6.71-2.02-3.15-2.81-5.94.49-8.69.89-.75.67-1.56.08-2.53q-4.24-6.98,1.04-13.26c.38-.45.82-.82,1.96-1.92-8.14,4.03-15.94,6.52-22.91,10.82-4.05-.21-4.43-3.68-5.7-6.38-.87-5.5,2.77-8.98,8.76-8.36,6.26.64,6.29.64,6.4-5.95.03-1.86,1.01-3.25,1.9-4.72,5.4-6.44,9.82-13.54,14.11-20.73,2.27-1.28,1.6-3.19,1.05-5.08-.33-1.69-.24-3.37.09-5.04,1.35-8.23-1.07-15.9-3.42-23.58-5.15-13.76-13.22-25.11-26.21-32.63-7.38-4.27-15.19-6.47-23.73-6.06-6.49-.41-12.56,1.37-18.55,3.56-6.58,2.4-7.72,1.71-7.89-5.44-.1-4.26-.76-8.41-1.64-12.54-2.54-9.95-8.11-17.83-16.33-23.9-21.65-14.83-45.74-14.64-66.09-2-17.57,10.91-23.82,27.66-21.94,47.82.13,1.34.56,2.65.56,4.02-.12,2.08-.76,3.76-3.11,4.15-4.39-.28-8.45-2.12-12.81-2.65-4.43-.54-8.71-.03-12.98,1.01-13,3-22.74,10.61-29.66,21.73-9.02,14.48-12.86,30.17-9.41,47.19,3.42,16.85,13.88,27.24,30.06,32.23,2.22.69,4.51,1.12,6.79,1.61,5.55,1.2,6.42,2.86,3.38,7.42-3.41,5.11-5.24,10.72-6.71,16.6-2.49,9.94-.5,19.16,3.77,28.16.91,1.92,3.15,3.87.48,6.13-4.68,1.6-9.65.12-14.39,1.44-3.08.86-4.93,2.21-3.86,5.73,5.47,17.93,13.25,34.41,29.15,45.65,9.8,6.93,20.53,11.6,32.5,13.34,4.16.61,8.07-.87,12.13-.85,2.11.01,4.31-.27,6.03,1.43.94,2.34-.64,3.97-1.79,5.58-2.44,3.42-2.2,6.22,1.41,8.54,4.86,1.95,8.51.49,11.22-3.85,1.01-1.61,2.09-3.19,3.18-4.75,1.78-2.65,3.29-5.47,4.9-8.21,1.24-1.71,1.59-4.28,4.33-4.58,2.61.9,4.75,2.49,6.7,4.4,4.02,3.93,8.8,6.77,13.46,9.86,5.76,3.81,12.45,7.09,14.17,14.95.59,2.7,3.21,2.94,5.36,3.77,2.09.81,5.28,0,5.77,3.49h-.02c-4.79.75-9.3,2.87-14.22,3.01-2.26.73-4.67.53-6.96,1.07-.43.19-.83.45-1.18.77-.33.33-.67.65-1.01.98-.38-.41-.75-.82-1.13-1.23-10.48-.86-20.97-.99-31.45.04,0,.42,0,.83,0,1.25.4.21.54.42.42.65-.12.23-.25.35-.38.35Z"/>
  <path class="cls-16" d="m223.27,354.27c-1.99-1.75-4.62-1.72-6.98-2.28-3.54-.83-5.23-2.35-6.17-6.33-1.48-6.23-7.51-9.33-12.55-12.16-7.54-4.23-13.74-9.84-19.9-15.65-1.45-1.88-.43-3.63.36-5.33,2.9-6.23,4.96-12.76,6.92-19.33,3.31-10.73,4.25-21.99,7.28-32.78,2.13-1.99,3.7-.13,4.84,1.1,7.04,7.59,15.39,12.58,25.84,13.7.79.09,1.33.7,1.73,1.39,1.45.74-2.69.4-.26,1.65,3.87,1.99,7.52,4.4,10.84,7.27.11.58,0,1.12-.31,1.62-5.68,3.25-12.73,3.23-17.94,7.59-8.82,5.85-14.88,14-19.43,23.37-2.43,5-1.76,6.5,3.28,8.22,28.99,9.9,55.31-5.93,65.99-31.1,1.36-3.22.6-5.19-2.94-5.98-2.25-.5-4.59-.78-6.62-2.04-.39-.39-.57-.86-.55-1.37.08-.13.15-.42.28-.45.53-.12.75-.42.39-.64-3.75-2.28-7.93-2.92-12.21-3.05-3.03-.09-5.5-.69-5.15-4.56,2.03-3.44,6.07-2.84,9.02-4.46,2.85-1.57,5.91-2.76,8.63-4.58,8.89-6.14,16.33-13.56,21.53-23.18,6.5-12.02,6.96-24.35,2.7-37.09-.65-1.95-1.93-3.92-.43-6.05.14-2.17,1.35-4.25,3.24-4.34,7.65-.36,12.87-6.59,20.07-7.9,1.11-.2,2.28-1.11,2.95.32.49,1.05-.48,1.9-1.41,2.16-3.26.92-3.63,4.62-6.34,6.3-1.95,1.21-1.25,3.85.84,5.37,1.55,1.13,3.15,2.19,4.67,3.24-.27,2.19-2.14,2.25-3.34,3.06-1.43.96-2.7,2.43-1.51,3.81,3.03,3.51,3.53,9.94,10.44,9.21,1.64-.17,3.39.85,5.09.84,1.66,0,3.27,3.86,4.6.62.88-2.15.06-5.13-2.55-6.39-2.15-1.04-4.31-2.83-3.05-4.65,1.6-2.31-1.6-7.48,4.18-7.23.66.03,1.53-.48,1.99-1,2.53-2.84-.73-6.61,1.83-9.87,2.41-3.07.46-6.29-2.43-8.29-2.13-1.47-1.54-2.83-.55-4.36,1.23-1.89,3.13-3.28,5.32-2.78,2.34.53.99,2.42.6,3.81-.47,1.68.38,2.36,1.87,2.96,2.02.81,3.9,1.96,3.02,4.75-.38,1.21.25,1.92,1.36,1.99,3.7.25,3.83,2.29,2.96,5.22-.34,1.13.5,2.5,1.81,2.47,1.78-.04,1.34-1.48,1.03-2.58-.27-.95-.67-1.97.62-2.38,1.3-.41,2.24.32,2.86,1.41.66,1.15.98,2.67,1.92,3.44,1.25,1.02,3,2.62,4.62,1.23,1.5-1.3-.48-2.3-1.21-3.25-1.25-1.62-.48-3.02,1.03-2.84,3.38.4,6.78.86,10.12,1.38,2.99.46.45,4.49,2.02,6.56,1.56-2.18-.59-5.2,1.78-7.07,0,0,0,.01,0,.01,1.47,2.56-.35,5.56,1.11,8.12-.3.72-.57,1.44-.89,2.15-3.41,7.42-3.5,15.75-5.92,23.53-2.45,7.91-4.85,15.94-8.37,23.41-2.38,5.05-5.39,10.12-7.95,14.96-2.24,4.24-5.48,8.15-7.53,12.67-1.99,4.39-5.66,8.49-8.96,12.42-8.41,10-17.17,19.77-27.7,27.55-9.47,7-18.54,15.02-29.5,19.39-7.99,3.18-14.94,8.43-23.5,10.5-6.46,1.56-13.05,1.05-19.43,2.59Z"/>
  <path class="cls-42" d="m199.9.13c-2.9,2.27-6.31,1.17-9.4,1.04-8.11-.35-16.32,1.47-24.33-1.05,11.24,0,22.49,0,33.73,0Z"/>
  <path class="cls-33" d="m167.3,358.91c3.3-2.33,7.06-1.19,10.54-1.05,6.97.28,14.06-1.49,20.91,1.01-10.48.01-20.96.03-31.45.04Z"/>
  <path class="cls-45" d="m167.35,361.15c-.02-.33-.03-.67-.04-1,9.23,0,18.46,0,27.69,0,0,.33,0,.67.01,1h-27.66Z"/>
  <path class="cls-4" d="m363.31,193.42v-26.52c.19,0,.38,0,.57,0v26.52c-.19,0-.38,0-.57,0Z"/>
  <path class="cls-9" d="m360.74,166.71c.37,0,.74,0,1.11.01,0,9.69.02,19.38.03,29.07-2.47-6.08-.52-12.43-1.16-18.62-2.35-3.49-.51-6.98.02-10.46Z"/>
  <path class="cls-29" d="m208.09,356.58c4.86-2.04,9.98-2.4,15.16-2.32-2.8.99-4.42,4.74-8.17,3.49-.24,0-.49,0-.73,0-1.93-.16-3.93.35-5.77-.6-.16-.18-.33-.37-.49-.56Z"/>
  <path class="cls-14" d="m199.93,358.85c0-.36,0-.73,0-1.09,2.45-1.13,5.01-.45,7.53-.43.65.35.86.88.62,1.58-.81.38-1.63.76-2.44,1.13-1.69-1.42-4.04.31-5.72-1.19Z"/>
  <path class="cls-6" d="m166.13,358.91c0,.38,0,.76.01,1.14-2.27,0-4.55,0-6.82,0-.01-.38-.03-.76-.04-1.14h6.85Z"/>
  <path class="cls-13" d="m363.01,205.1c-2.14-2.47-.68-5.42-1.11-8.12,2.28,2.45.74,5.42,1.11,8.12Z"/>
  <path class="cls-29" d="m208.09,358.91c0-.39,0-.78,0-1.16.26-.17.51-.33.77-.5,2.08.12,4.23-.62,6.23.5,0,0,0,0,0,0-2.05,2.09-4.64.88-6.99,1.17Z"/>
  <path class="cls-5" d="m199.93,358.85c1.92.34,4.13-.73,5.72,1.19-1.92.02-3.85.03-5.77.05.02-.41.03-.83.05-1.25Z"/>
  <path class="cls-4" d="m361.93,164.35v-5.89c1.36,2.95,1.62,4.47-.03,5.86,0,0,.03.03.03.03Z"/>
  <path class="cls-17" d="m1.87,206.33c1.7,1.23.94,3.07,1.17,4.67-2.59-1.01-.62-3.15-1.17-4.67Z"/>
  <path class="cls-7" d="m258.2,269.22c-5.13,4.23-11.52,5.7-17.52,8.04-5.38,2.81-10.78,2.98-16.18.06-4.63-1.71-9.59-2-14.26-3.93-7.11-2.93-11.46-8.96-17.22-13.37-3.01-.3-3.21-4.99-6.81-4.34-4.98.72-8.23-2.77-10.92-5.72-2.11-2.31.6-4.4,3.32-5.26,6.26-1.97,6.55-2.75,3.04-8.05-.64-.97-1.26-1.95-1.9-2.92-2.84-4.36-4.43-4.4-6.72.07-1.27,2.48-3.04,4.47-4.95,6.4-.97.98-2.06,1.72-3.55,1.72-4.49,0-15.7-8.11-17.21-12.36-1.3-3.64-.87-6.53,3.1-8.03,2.93-1.11,4.52-3.41,6.09-5.94,1.98-3.2,4.34-6.11,8.86-4.55,1.18,4.14,3.83,6.03,8.19,5.37,5.54-.84,10.61,1.76,15.96,2.27,1.15.11,2.32.13,3.48.04,2.6-.2,6.18.63,6.93-2.65.68-2.95-3.74-2-4.8-4.11.52-4.36,5.18-4.73,7.3-7.56.67-.55,1.41-.91,2.31-.81,1.71.44,2.94,1.98,4.66,2.26,3.75.61,5.19-2.15,4.79-4.87-.77-5.24,2.19-7.78,5.78-10.34,2.67-1.91,5.51-3.6,8.05-5.66,4.53-3.66,4.4-5.88-.31-9.29-.83-.6-.99-1.62-1.17-2.57-.36-4.42-.17-8.85-.17-13.27,0-3.58-.9-6.87-2.83-9.84-3.91-6.01-10.86-6.47-15.52-1.07-1.24,1.44-1.94,3.37-3.83,4.22-3.31.05-6.14-2.13-9.91-2.14,1.28,6.97.39,13.1-6.09,17.29-3.57,2.31-6.56,2.23-9.06-1.28-1.38-1.94-3.01-3.45-4.98-4.78-4.92-3.32-5.57-5.46-2.43-10.65,2.15-3.55,3.1-6.16-1.58-8.18-1.22-.53-1.76-2.03-2.59-3.09-1.09-1.38-2.32-3.03-4.28-2.21-2.07.87-1.63,3.05-1.11,4.61,1.22,3.71,1.1,6.85-2.55,9.11-.49.26-1.01.4-1.56.44-1.21-.05-2.15-.71-3.13-1.32-8.11-5.09-13.33-3.29-16.76,5.76-.28.73-.59,1.41-1.22,1.91-.53.21-1.02.13-1.48-.19-.86-1.63-2.74-.89-4.01-1.73-3.67-2.43-4.07-5.43-.65-8.28,2.26-1.89,3.94-4.26,6-6.3,2.9-2.87,3.27-5.4-.37-8.11-3.14-2.34-2.63-5.38.34-7.15,6.86-4.09,8.92-11.43,12.31-17.71,1.57-2.9,2.74-5.77,5.34-7.94,2.15-1.79,5.54-3.6,3.58-6.96-1.87-3.21-5.23-5.27-9.25-4.92-3.32.29-6.02,2.53-9.2,3.46-3.93,1.15-3.06,4.87-3.67,7.79-.72,3.46-2.86,5.52-6.45,5.53-3.77.02-6.72-1.73-8.57-5.04-1.35-2.41,3.57-3.92,1.06-6.59-6.58-24.89,9.92-52.05,35.61-59.48,18.59-5.37,35.79-2.86,52.08,7.24.79.49,1.36,1.32,2.03,2,1.1,1.08,2.3,2.05,3.47,3.03,2.49,2.1,3.12,4.02.62,6.71-1.99,2.14-3.68,4.89-1.49,7.79,2.16,2.86,5.1,5.02,8.93,4.06,2.32-.58,3.98-.84,4.82,1.83,2.3,4.83,2.44,10,2.23,15.17-.15,3.55.35,5.14,4.39,3.13,6.64-3.3,13.75-4.96,21.25-4.28-2.94,4.66-5.33,9.59-7.47,14.65-.61,1.43-1.38,2.97-.02,4.3,1.38,1.36,2.98.62,4.26-.23,4.32-2.84,6.7-1.4,7.77,3.28.71,1.07,1.48,2.09,2.45,2.94,5.41,3.24,8.86,9.06,15,11.34,1.4,1.1,2.35,2.44,2.45,4.28.06,2.6-1.66,4.16-3.33,5.78-2.74,2.65-2.02,4.7,1.22,6.16,2.63,1.19,5.39,2.19,6.59,5.2.15.35.27.71.39,1.08.69,2.08,1.63,3.95,4.08,4.31,1.31.2,2.26-.57,2.66-1.72.84-2.43-.87-3.92-2.25-5.49-2.63-2.02-6.08-3.96-.85-6.95.68-.48,1.41-.82,2.23-.97,3.35.39,5.71-.47,7.08-4.04,1.28-3.34,4.54-4.18,7.88-4.38,3.11,7.89,5.93,15.81,3.53,24.5-1.74,6.08-7.73,7.9-12.18,8.86-7.88,1.69-12.93,6.56-16.91,12.21-4.18,5.94-9.75,10.47-14,16.24-1.94,2.63-2.72,4.79-1.14,7.91,1.67,3.3,2.25,7.02,2.15,10.74-.13,4.65,1.64,8.32,5.41,10.95,3.85,2.69,4.85,5.85,2.15,9.91-.65.97-1.31,2.04-1.39,3.18-.52,7.36-3.41,13.3-9.64,17.6-2.04,1.41-2.01,4.09-2.28,6.4-.4,3.43-1.71,6.12-4.79,8.18-6.25,4.19-6.02,5.94.75,9.87.54.31.74.82.54,1.44Z"/>
  <path class="cls-19" d="m121.9,94.48c.88.62,1.46,1.66,1.03,2.5-3.1,6.09,2,6.98,5.48,7.73,4.79,1.03,6.54-2.18,6.27-6.62-.27-4.35,1.15-7.07,6.06-7.26,1.38-.05,2.72-1.28,4.07-1.99,4.45-2.36,12.54-.54,14.89,3.73,1.2,2.19,1.67,5.5-.75,6.91-8.85,5.16-9.7,15.49-15.24,22.75-1.58,2.07-1.98,4.4-5.3,5.22-3.11.77-5.03,3.55-.54,5.9,5.09,2.67,4.13,5.9.68,8.98-2.85,2.54-4.37,6.24-8.12,8.09-2.42,1.2-.23,5.71,3.74,5.84,2.79.09,1.23,1.44,1.63,2.21.6,6.56,1.7,13.16-4.06,18.4-1.41,1.29-1.68,3.48-1.88,5.42-.39,3.89,1.55,5.97,5.45,5.42,3.68-.51,7.27-1.29,7.85,3.9.86,7.72-.69,10.34-6.54,10.6-3.8.17-4.87,2.26-4.29,5.31.66,3.43,1.63,6.76.95,10.31-.22,1.18.15,2.47,1.39,2.91,1.69.59,2.53-.69,3-1.99.99-2.72,2.53-5.21,3.06-8.14,1.09-5.91,2.06-6.59,8.23-5.95,4.42.46,8.83,1.31,13.16-.5,1.9.13,3.28,1.26,4.68,2.38,1.14,1.02,2.4,1.98,2.05,3.81-1.07,1.68-2.4,1.7-3.9.59-3.91,1.11-6.97,3.12-8.32,7.24-.54,1.65-1.64,2.95-3.32,3.84-2.11,1.12-6.27.42-5.43,4.52.81,3.96,2.18,7.99,6.71,9.45,2.36.76,4.63,1.31,6.68,3.06,3.35,2.86,8.28.17,10.29-5.62.83-2.38.74-4.99,4.32-5.05,3.28-.05,4.49,2.11,5.12,4.57.66,2.58,3.37,3.42,4.1,6.11,1.15,4.25,1.1,6.9-4.23,6.84-2.08-.03-4.71-.42-5.12,2.46-.41,2.84,2.67,2.17,4.09,3.18,1.92,1.38,4.04,2.45,6.08,3.66,1.72,2.53-.23,4.34-1.33,6.23-2.24,3.86-5.55,6.82-8.73,9.88-10.18,8.09-21.54,12.99-34.77,12.82-14.09-.88-27.11-4.67-38.06-14.06-4.11-3.53-7.7-7.48-10.33-12.25,1.15-1.17.17-2.2-.35-3.11-9.78-16.88-7.89-33.16,2.54-48.96,1.65-2.5,1.6-3.52-1.7-4.14-25.39-4.76-37.93-16.08-40.63-41.91-2.46-23.53,9.69-56.3,41.34-64.03,4.54.75,9.13-.81,13.65.23,1.36.31,3.42-.52,3.82,1.65.31,1.7-.74,3.09-2.27,3.65-5.14,1.86-5.14,4.2-1.21,7.59,1.6,1.38,1.95,3.72,2.34,5.82.46,2.5,1.1,4.69,4.44,3.45,2.84-1.06,6.39-1.56,5.42-5.99-.58-2.65-2.05-4.97-3.15-7.43-1.33-2.98-1.52-5.68,2.55-6.68,2.42-.06,2.35-1.81,2.38-3.5Z"/>
  <path class="cls-41" d="m92.73,257.84c5.25,2.53,7.34,8.2,11.83,11.66,9.63,7.44,20.27,11.65,32.31,12.67,1.51.13,2.98.74,4.46,1.12,4.77,2.76,6.86,7.59,9.26,12.15,3.48,6.62,6.16,13.54,7.13,21.02-.82,4.2-6.02,2.99-7.64,6.27,1.62.23,3.48-.49,4.89.68,1.24,1.03,2.34,2.37-.49,2.86-2.05-2.39-4.8-1.15-7.06-.96-27.64,2.36-47.36-10.54-62.37-32.29-5.96-8.65-9.25-18.6-12.4-28.56-1.09-3.44.06-5.03,3.37-5.84,5.54-1.35,11.12-.99,16.71-.79Z"/>
  <path class="cls-11" d="m258.2,269.22c-3.79-.14-6.79-1.97-7.72-5.49-.99-3.71,2.5-5.89,5.05-6.82,3.77-1.37,4.76-3.93,4.62-7.05-.23-4.87,2.08-8.08,5.8-10.5,3.53-2.3,5.28-5.09,5.27-9.55,0-2.88.48-6.16,2.86-8.56,2.63-2.65,1.55-5.16-1.01-6.77-5.23-3.27-7.56-7.46-6.96-13.82.29-3.07-.57-6.82-2.27-9.36-2.41-3.61-1.61-5.95,1-8.55,7.99-7.95,13.88-17.77,22.43-25.24,1.61-1.4,3.31-3.78,5.14-3.38,6.48,1.42,9.41-5.83,15.23-5.76.62,0,1.25-1.72,1.88-2.65-.06,1.91-.13,3.83-.19,5.74.06,1.67.44,3.42-1.14,4.7-3.64,7.62-8.46,14.45-13.92,20.85-5.6,6.22-12.77,9.83-20.72,12.28.51,2.27,2.47,3.47,3.26,5.36,1.54,2.36,3.09,4.73,4.63,7.1,4.05,10.77,6.74,21.73,3.37,33.2-4.37,14.87-13.52,26.12-26.62,34.25Z"/>
  <path class="cls-27" d="m259.45,104.92c-1.36-5.1-3.7-5.67-7.89-2.32-2.45,1.95-7.09-.99-5.82-3.35,3.2-5.93,3.35-13.7,10.1-17.57,15.64-.04,27.87,6.7,38,18.34,5.52,6.35,9.74,13.21,12.15,21.22-3.39,2.38-7.13,4.05-8.58,8.8-.98,3.18-4.34.7-6.65.53-1.14-13.1-7.79-22.57-19.2-28.79-6.31-3.44-8.41-2.82-12.11,3.15Z"/>
  <path class="cls-23" d="m186.06,293.73c-1.4,8.53-5.59,16.09-8.41,24.12-1.09,1.7-2.18,3.4-3.27,5.09-5.56-.57-12.2,1.49-14.88-6.12,1.32-5.99,4.22-11.37,6.82-16.83,1.6-3.35,1.15-7.72,4.8-10.07,3.12.55,6.22.05,9.11-.91,4.76-1.59,5.94.61,5.82,4.71Z"/>
  <path class="cls-7" d="m119.52,97.98c-2.49,2.02-3.19,4.22-.82,6.87.63.7,1.02,1.64,1.41,2.51,3.62,8.13,1.56,11.81-7.28,13.08-2.43.35-3.56-.7-3.79-3.1-.41-4.24-.66-8.45-5.67-10.4-2.08-.81-1.69-2.87-.09-4.19,1.31-1.08,2.57-2.38,4.48-2.48,1.53-.07,2.86-.87,2.56-2.43-.36-1.87-2.21-.85-3.4-1.03-4.31-.63-8.83,1.25-13-1.11,8.82-2.47,17.29-1.13,25.59,2.28Z"/>
  <path class="cls-31" d="m160.3,316.97c1.31,4.3,5.36,3.15,8.32,4.16,1.91.65,3.84,1.21,5.77,1.82-1,3.01-2.73,5.59-4.64,8.07-1.44.5-2.87.96-4.43.86-3.84-.25-6.08,1.68-6.97,5.3-.68,2.76-1.8,4.69-5.09,3.13-5.59-5.3-5.59-5.39,1.22-14.01,1.22-1.23.77-2.1-.74-2.23-2.03-.18-4.09-.04-6.03-.04.99-5.43,6.2-4.85,9.35-7.14,1.07.32,2.16-.15,3.23.09Z"/>
  <path class="cls-44" d="m227.97,67.65c-.98-.07-1.08-1.82-2.78-.92-5.7,3.03-9.77-.86-12.82-4.51-2.77-3.31-.05-7.1,2.47-9.66,1.88-1.9,1.82-2.78.04-4.4-1.25-1.13-2.18-2.61-3.26-3.94,8.53,5.66,13.99,13.45,16.35,23.42Z"/>
  <path class="cls-16" d="m350.11,122.74c3.07,6.91,4.66,12.52,5.88,18.24.63,2.98-1.93,4.45-3.52,6.24-1.23,1.39-2.87.59-4.23-.25-2.64-1.62-2.42-3.74-.8-5.87,1.96-2.58,2.28-4.39-1.79-4.1-1.48.11-2.25-.12-2.3-1.62-.03-1,.25-2.25,1.37-2.21,6.88.26,4.87-5.1,5.38-10.44Z"/>
  <path class="cls-16" d="m276.81,194.66c-.48-.32-1.02-.58-1.43-.97-5.07-4.78-5.13-5.04,1.25-6.92,6.66-1.96,11.66-6.69,17.65-9.74-.56,1.83-3.1,3.14-1.32,5.61,1.21,1.68,1.62,3.71-.11,5.18-1.73,1.47-3.93,2.66-6.22,1.17-2.29-1.49-4.39-.69-6.51.1-2.53.95-3.77,2.8-3.3,5.59Z"/>
  <path class="cls-15" d="m153.26,340.3c1.5-.12,2.86-.04,3.55-2.04,3.01-8.72,3.19-8.76,12.95-7.24-3.35,5.55-5.82,12.35-14.52,10.38-.71-.16-1.32-.73-1.97-1.11Z"/>
  <path class="cls-16" d="m360.74,166.71c0,3.49-.02,6.98-.02,10.46-3.35-1.31-8.78-1.98-1.88-6.38.42-.27.66-1.8.38-2.03-4.03-3.36-.49-6.79-.48-11.43,1.36,3.86.18,6.94,2,9.38Z"/>
  <path class="cls-16" d="m337.5,151.19c-1.39-.16-2.14-1.02-2.19-2.27-.1-2.18,1.27-3.04,3.26-3.11,1.05-.03,2.14.37,1.86,1.54-.39,1.62-.89,3.39-2.92,3.84Z"/>
  <path class="cls-12" d="m141.31,354.43c-3.4-.89-6.8-1.79-11.51-3.02,5.36-1.44,8.41,1.31,11.51,3.02Z"/>
  <path class="cls-16" d="m312.93,212.8c-2.95,2.11-4.15.84-5.57-.71,2.06-1.37,3.33.17,5.57.71Z"/>
  <path class="cls-16" d="m354.42,181.21c-1.84.7-3.2,1.12-4.55-.19,1.34-1.9,2.66-1.87,4.55.19Z"/>
  <path class="cls-16" d="m308.19,156.17c.27-1.59-.44-3.42,1.14-4.7,1.75,2.08,2.38,3.89-1.14,4.7Z"/>
  <path class="cls-29" d="m208.09,357.74c-2.72,0-5.44.01-8.16.02,2.45-2.27,5.45-.72,8.16-1.18,0,0,.02.02.02.02.37.26.49.52.36.78-.13.25-.26.38-.39.38h0Z"/>
  <path class="cls-36" d="m359.55,148.07v6.72c-.91-2.27-2.04-4.57,0-6.71,0,0,0,0,0,0Z"/>
  <path class="cls-16" d="m331.28,154.71c-.21.31-.4.93-.76,1.04-.82.26-1.49-.26-1.65-1.03-.08-.36.33-1.08.69-1.23.88-.38,1.3.33,1.72,1.22Z"/>
  <path class="cls-28" d="m257.2,286.6c.19-.01.39-.06.58-.03,13.43,2.49,14.54,2.16,8.04,14.05-10.53,19.26-26.37,29.91-48.55,30.13-6.57.06-13.02-1.58-19.27-3.72-3.24-1.11-4.77-3.02-3.16-6.64,4.79-10.8,11.03-20.4,21.46-26.64,3.58-.64,5.88.9,7.52,4.05,1.06,2.03,2.25,4.39,4.99,4.34,3.04-.05,2.98-3.04,4.19-4.9,2.18-3.34,1.84-7.45,3.74-10.83,1.42-1.02,3.09-1.18,4.75-1.38.56,0,1.08.13,1.56.41,2.37,2.27,4.6,3.71,7.79.81,1.77-1.61,4.32-1.26,6.37.35Z"/>
  <path class="cls-31" d="m186.06,293.73c-1.44-2.1-1.64-5.61-6.14-3.05-1.38.79-5.93,3.34-8.16-.87-1.71-6.97.49-13.2,3.6-19.26,3.44-5.17,9.22-8.73,10.58-15.33,1.31-1.32,2.53-3.4,4.09-.14.82,1.72,1.97,3.3,2.97,4.94-1.6,11.38-2.88,22.84-6.94,33.71Z"/>
  <path class="cls-34" d="m237.21,286.71c1.05,5.27-2.58,9.31-3.82,13.98-1.09,4.13-5.47,4.58-8.45,1.23-2.65-2.98-3.82-7.5-8.65-8.17,5.22-4.74,11.95-5.62,18.41-7.17.87-.6,1.7-.55,2.51.13Z"/>
  <path class="cls-21" d="m224.49,277.32c5.39-.02,10.79-.04,16.18-.06.31,2.12.91,3.23,3.68,3.08,5.48-.28,11.05,0,15.18,4.96-.94.12-1.86.24-2.79.35-4.99,1.06-9.96.26-14.93-.23h.03c-2.23,1.11-4.5.86-6.78.18-4.87-.91-8.2-4.39-11.81-7.31-.79-.64.69-.75,1.24-.97Z"/>
  <path class="cls-3" d="m241.82,285.42c5.02-2.6,9.94.88,14.93.23.16.31.31.63.45.95-3.81-1.16-6.21,2.74-10.02,2.63-3.2-.09-4.5-1.23-5.36-3.81Z"/>
  <path class="cls-3" d="m235.06,285.6c2.26-.06,4.52-.12,6.78-.17-1.15,1.85-3.04,1.06-4.64,1.29-.84-.04-1.67-.08-2.51-.12.12-.33.24-.66.37-.99Z"/>
  <path class="cls-43" d="m208.08,357.75c.02-.38.02-.77.03-1.15,2.33.36,4.94-.96,6.98,1.15-2.33,0-4.67,0-7,0Z"/>
  <path class="cls-8" d="m162.38,205.19c-4.56,3.53-9.61,1.31-14.34.87-4.03-.38-5.71-.48-5.74,4.63-.03,3.85-2.65,7.74-4.43,11.47-.78,1.64-2.44,1.45-4.04.6-1.71-.91-3.11-2.2-2.48-4.07,1.26-3.73.63-6.93-.74-10.58-1.81-4.79,1.48-8.48,6.46-7.31,4.35,1.02,4.72-1.07,4.53-4.18-.09-1.51-.49-2.9.08-4.5,1.35-3.77-1.94-4.29-3.76-3.47-4.05,1.84-7.36,1.71-9.39-2.26-1.95-3.8-.46-8.68,2.05-10.65,4.81-3.77,4.01-8.26,4.1-12.94.03-1.52-.27-3.14,1.1-4.32,0,0,.14.11.14.11,1.97,2.1,1.4,4.75,1.43,7.2.06,4.94,1.03,9.66,3.04,14.13,1.85,4.1,5.13,6.26,9.72,6.07,4.65-.2,7.47-2.77,8.93-7.08.93-2.75,1.17-5.73,2.78-8.24,3.73-1.45,6.73,1.22,10.87,2.38-2.13-4.78-5.86-7.31-8.16-10.86,1.28-5.11-1.48-8.17-5.39-10.65,2.55-2.73,2.7-5.55,1.39-9.11-.74-2.01-1.39-5.7,1.7-6.55,2.45-.67,5.3.49,6.59,3.51.52,1.21,1.26,3.02,2.22,3.25,8.08,1.93,4.6,5.71,1.79,9.58-2.88,3.97-2.34,7.1,2.44,9.17,1.38.6,2.89,1.46,3.73,2.64,1.53,2.14,2.42,5.81,5.63,4.59,3.46-1.31,7.03-3.5,8.08-7.66.69-2.75,1.58-5.57.08-8.44-.58-1.12-1.6-2.56-.35-3.74,1.58-1.49,2.76.13,4.03.88,2.27,1.34,5.32.88,7.22,3.11.73.74.98,1.66,1.07,2.66-.9,4.26-.53,8.7-1.72,12.93-1.03,1.29-2.07,1.16-2.36-.4-.4-2.14-.16-4.34-.14-5.49.26,1.71-.75,4.47.64,7.1.8,1.52,1.27,3.32-.45,3.97-1.73.65-2.54-1.19-3.09-2.68-.2-.53-.38-1.08-1.02-1.25-.18.05-.48.03-.54.15-4.37,8.02-13.09,10.82-19.52,16.34-3.15,2.71-8.51,2.3-9.93,7.25-5.27,2.56-5.38,6.97-4.26,11.83Z"/>
  <path class="cls-20" d="m162.74,170.21c-.82,3.36-1.39,6.82-2.53,10.07-1.69,4.8-5.15,7.51-10.45,7.64-5.65.14-8.99-3.05-11.12-7.75-3.12-6.88-3.29-14.2-2.71-21.58.72-1.97,1.16-4.09,2.19-5.88,4.55-7.94,11.83-8.29,19.63-1.07,5.39,3.26,4.68,9.08,5.96,14.08.21,1.61.36,3.21-.97,4.49Z"/>
  <path class="cls-32" d="m203.58,155.02c.04-.74.08-1.48.11-2.23,4.9-9.23,10.57-11.85,17.2-7.83,4.49,2.73,6.29,7.14,6.89,12.11.66,5.38.36,10.78-.05,16.16-1.11,9.78-4.71,12.64-15.54,12.36-.63-.05-1.24-.19-1.83-.4-3.84-2.7-6.86-5.9-6.75-11.03.65-3.05,1.02-5.76,5.7-4.89,2.58.48,3.61-1.64,2.11-4.71-1.9-3.9-6.55-5.33-7.86-9.55Z"/>
  <path class="cls-2" d="m211.62,184.35c10.24.34,12.01-.87,16.11-11.11.24.63-.11,1.81.9,1.75,5.68-.35,4.84,3.35,3.94,6.62-1.19,4.36-5.69,5.48-8.72,8.04-3.94,3.32-10.46,4.76-7.91,12.57.65,1.99-1.78,4.83-4.25,5.62-3.24,1.02-5.08-1.75-7.11-3.67-.2-1.63.69-2.94,1.26-4.36.83-2.09,1.2-4.23-1.08-5.61-2.05-1.24-3.64-.05-4.96,1.53-.49.59-.96,1.2-1.49,1.76-1.68,1.52-3.59,2.71-5.47,3.97-1.58.89-3.27,1.44-5.08,1.63-3.07.09-6.15.28-9.22-.15-.61-.14-1.17-.4-1.68-.76-.48-.45-.65-1-.51-1.64.73-1.01,1.83-1.42,2.93-1.82,3.88-2.83,7.41-6.11,11.18-9.09,5.84-4.6,12.13-5.26,19.02-4.37.69.09,2.29,1.4,2.13-.9Z"/>
  <path class="cls-22" d="m259.45,104.92c.34-6.49,2.41-8.16,8.28-6.22,12.63,4.17,19.82,13.53,23.98,25.67.78,2.28-.76,4.11-.95,6.19-.38.37-.75.75-1.12,1.12-7.33,1.54-8.56.43-10.43-9.35-.07-1.58-.85-2.71-2.22-3.45-4.65-4.46-9.02-9.27-15.3-11.57-.75-.8-1.49-1.59-2.24-2.39Z"/>
  <path class="cls-38" d="m164.98,210.96c1.3-.04,2.7.18,3.52-1.24,3.7-1.58,6.94.93,10.44,1.26,3.42.32,6.76.87,10.13-.12,2.08-.18,4.22-1.5,6.22.24.67.33,1.34.91,2.03.94,2.69.1,5.81.64,5.51,3.69-.3,2.98-3.14,4.33-6.46,4.62-9.54.85-18.51-3.52-28.13-2.66-4.28.39-2.96-4.04-3.25-6.73Z"/>
  <path class="cls-18" d="m279.21,122.33c.73,1.3,1.85,2.52,2.13,3.91.96,4.74,3.89,6.14,8.3,5.45-5.29,2.96.19,3.34,1.15,4.8-2.12,1.54-3.9,3.75-6.92,3.5-1.19-3.17-4.36-3.44-6.87-4.68-4.81-2.37-5.13-5.04-.89-8.42,1.54-1.23,3.02-2.39,3.1-4.56Z"/>
  <path class="cls-1" d="m195.28,211.1c-1.94.35-3.89.71-5.83,1.06-3.57-2.12-.84-4.56-.4-6.93.41-2.26,2.75-3.04,3.53-4.98,1.62-1.21,3.23-2.42,4.85-3.63,3.29,1.89,7.05,3.45,5.8,8.45-1.7,3.26-5.49,3.76-7.94,6.03Z"/>
  <path class="cls-39" d="m203.22,205.08c-.19-4.01-4.55-5.17-5.8-8.45,1.97-3.81,5.09-6.97,9-3.77,4.78,3.91,1.01,7.85-1.83,11.3-.45.31-.91.61-1.36.92Z"/>
  <path class="cls-37" d="m283.87,139.98c2.16-1.46,3.67-4.19,6.92-3.5,1.09,2.09,4.19,3.27,3.08,6.34-.72,1.99-1.65,4.25-4.31,3.88-3.73-.52-5.7-2.86-5.69-6.72Z"/>
  <path class="cls-40" d="m162.52,165.78c-1.5-4.74-1.81-9.89-4.77-14.14.47-.03.93-.07,1.4-.1,7.9,2.3,8.64,3.62,5.83,10.49-2.58.1-.45,3.28-2.45,3.75Z"/>
  <path class="cls-25" d="m261.69,107.3c7.14,1.16,11.94,5.42,15.3,11.57-6.53-1.97-9.8-8.24-15.3-11.57Z"/>
  <path class="cls-24" d="m175.37,270.55c-1.2,6.42-2.4,12.84-3.6,19.26-3.82,9.05-7.64,18.1-11.46,27.15-1.12,1.5-2.22,2.12-3.23-.09-3.2-12.15-8.02-23.54-15.74-33.57,12.59-.93,23.85-5.41,34.04-12.75Z"/>
  <path class="cls-10" d="m192.58,200.26c.02,3.04-2.12,5.22-3.28,7.76-.77,1.67-.47,2.79.16,4.15-7.36,2.41-14.15-.12-20.96-2.44-.78-.75-1.57-1.5-2.35-2.25,3.56-2.16,6.72-5.05,10.94-5.99.27-.14.5-.09.69.14,3.49,1.01,6.99.92,10.5.05,1.43-.47,2.87-.94,4.3-1.41Z"/>
  <path class="cls-35" d="m177.08,201.47c-.68.25-1.82.34-1.98.79-1.57,4.28-5.14,4.93-8.96,5.21-1.25-.76-2.51-1.52-3.76-2.28-4.48-7.01-3.62-9.59,3.68-11.14,4.89-.1,7.14,4.01,10.4,6.51.22.3.43.61.63.92Z"/>
  <path class="cls-7" d="m176.45,200.55c-4.86.05-6.5-5.03-10.4-6.51-1.62-3.31.25-4.5,2.94-6.13,8.05-4.88,17.8-7.41,22.98-16.49,1.24-2.17,3.91-3.51,5.94-5.26,1.81,2.09-.33,5.01,2.72,6.89-.19-4.7-1.53-9.05-.22-13.53,1.87,3.05-.87,6.82,1.95,9.45,3.17.58,1.9,2.97,1.95,4.81.4,4.43,3.63,7.23,6.05,10.5-1.38,3.43-4.29,1.46-6.32,1.46-5.8-.03-11.9-2.47-15.62,4.99-.98,1.98-4.34,2.94-6.03,5.15-1.07,1.4-2.07,2.77-2.29,4.56-1.22.03-2.44.06-3.67.08Z"/>
  <path class="cls-30" d="m204.32,173.81c-.65-1.6-1.3-3.21-1.95-4.81-.03-4.7-.47-9.43,1.21-13.98,5.13,2.41,7.96,7.11,11.13,11.39.91,1.23-4.84,6.33-6.11,5.21-4.03-3.56-2.44,2.45-4.28,2.18Z"/>
  <path class="cls-7" d="m162.52,165.78c.04-1.08.12-2.17.12-3.25-.02-3.91,1.51-.56,2.33-.5,4.38,1.92,6.2,6.47,9.53,9.49,1.82,1.65-.56,3.54-2.19,3.12-3.39-.89-6.76-2.16-9.59-4.43-.07-1.48-.14-2.95-.22-4.43Z"/>
  <path class="cls-8" d="m180.12,200.47c-1.68-3.25.91-5.38,2.57-7.07,3.23-3.3,7.82-5.15,9.27-10.27.55-1.94,2.14-.14,3.32.24,4.93,1.57,9.89,3.38,15.09.94.42.01.83.03,1.25.04.76.52,1.53,1.04,2.29,1.56-14.49-2.63-24.63,4.84-33.8,14.56Z"/>
  <path class="cls-1" d="m188.27,201.66c-3.51,1.82-7.01,1.89-10.5-.05,3.5.02,7,.03,10.5.05Z"/>
  <path class="cls-32" d="m205.22,168.01c-.75-3.42-.86-5.23-.09-7.65.87,2.44.72,4.31.09,7.65Z"/>
</svg>