<?xml version="1.0" encoding="UTF-8"?>
<svg id="Capa_1" data-name="Capa 1" xmlns="http://www.w3.org/2000/svg" viewBox="0 0 357.7 355.78">
  <defs>
    <style>
      .cls-1 {
        fill: #ecadf6;
      }

      .cls-1, .cls-2, .cls-3, .cls-4, .cls-5, .cls-6, .cls-7, .cls-8, .cls-9, .cls-10, .cls-11, .cls-12, .cls-13, .cls-14, .cls-15, .cls-16, .cls-17, .cls-18, .cls-19, .cls-20, .cls-21, .cls-22, .cls-23, .cls-24, .cls-25, .cls-26, .cls-27, .cls-28, .cls-29, .cls-30, .cls-31, .cls-32, .cls-33, .cls-34, .cls-35, .cls-36, .cls-37, .cls-38, .cls-39 {
        stroke-width: 0px;
      }

      .cls-2 {
        fill: #e49bf4;
      }

      .cls-3 {
        fill: #e8a4f5;
      }

      .cls-4 {
        fill: #e7a1f4;
      }

      .cls-5 {
        fill: #f0d8ef;
      }

      .cls-6 {
        fill: #6ca48c;
      }

      .cls-7 {
        fill: #df97f4;
      }

      .cls-8 {
        fill: #2c2589;
      }

      .cls-9 {
        fill: #2d258c;
      }

      .cls-10 {
        fill: #e499f3;
      }

      .cls-11 {
        fill: #362d97;
      }

      .cls-12 {
        fill: #e29df4;
      }

      .cls-13 {
        fill: #de70db;
      }

      .cls-14 {
        fill: #e195f5;
      }

      .cls-15 {
        fill: #2e268a;
      }

      .cls-16 {
        fill: #e094f3;
      }

      .cls-17 {
        fill: #e9a3f5;
      }

      .cls-18 {
        fill: #1e1d7b;
      }

      .cls-19 {
        fill: #2a2385;
      }

      .cls-20 {
        fill: #80b099;
      }

      .cls-21 {
        fill: #352e99;
      }

      .cls-22 {
        fill: #7eb097;
      }

      .cls-23 {
        fill: #ead2e8;
      }

      .cls-24 {
        fill: #e19bf5;
      }

      .cls-25 {
        fill: #dd6cd9;
      }

      .cls-26 {
        fill: #80b49c;
      }

      .cls-27 {
        fill: #e8d2e6;
      }

      .cls-28 {
        fill: #e59df5;
      }

      .cls-29 {
        fill: #74a990;
      }

      .cls-30 {
        fill: #d98ef4;
      }

      .cls-31 {
        fill: #dc90f4;
      }

      .cls-32 {
        fill: #da69d6;
      }

      .cls-33 {
        fill: #efd6ef;
      }

      .cls-34 {
        fill: #7baf96;
      }

      .cls-35 {
        fill: #e49af4;
      }

      .cls-36 {
        fill: #589a80;
      }

      .cls-37 {
        fill: #f4ddf3;
      }

      .cls-38 {
        fill: #7aae94;
      }

      .cls-39 {
        fill: #dd66da;
      }
    </style>
  </defs>
  <path class="cls-37" d="m163.95,353.46c-5.47,1.2-11.47.25-16.26-.73-8.55-1.75-17.28-4.26-25.57-7.58-5.86-2.34-12.8-2.23-17.76-6.33-5.71-4.72-13.27-5.15-19.05-10.65-5.74-5.46-12.93-9.98-19.61-14.75-7.96-5.68-14.28-13.06-20.84-20.11-8.79-9.45-14.8-20.99-22.28-31.37-3.22-4.47-3.51-9.26-6.05-13.46-5.77-9.55-10.74-19.97-11.54-30.79-.96-12.94-6.62-25.28-4.49-38.48,1.89-11.68.03-23.8,3.63-35.23,8.86-28.16,18.98-55.61,38.56-78.7,25.31-29.85,56.49-49.94,94.29-59.91,2.1-.55,4.13-.71,6.23-.72,1.75-1.34,4.09.3,5.82-1.17l-.03.02c2.13-1.44,4.84.42,6.94-1.2,3.64-1.82,7.77-1.05,11.54-2.21,2.92,1.23,5.98.51,8.96.49,3.72-.02,7.11.11,9.77,3.33,1.38,1.67,4.1,2.77,5.56,1.02,2.85-3.41,6.7-2.81,10.2-3.69,6.66,1.56,13.45,2.45,20.07,4.33,13.89,3.94,27.26,8.91,40.17,15.51,6.81,3.48,13.74,6.76,19.26,11.9,4.9,4.57,12.28,6.42,14.94,13.5.34.9,1.74,1.41,2.65,2.1,15.36,11.52,26.64,26.4,35.77,43.11,1.52,2.79-.03,6.6,2.56,8.5,7.21,5.28,6.9,14.2,10.84,21,1.86,3.21-.73,6.37.75,9.42,3.35,6.91,4.45,14.25,5.72,21.8.7,4.18-1.61,8.58,1.27,12.65,3.09,4.36,1.08,9.69,1.37,14.58.29,4.97.62,10.05-.07,14.94-.89,6.25-3.36,12.29-4.11,18.55-1.3,10.96-6.1,20.83-8.76,31.34-1.34,5.31-4.89,9.4-7.35,14.08-9.95,18.98-23,35.59-38.18,50.77-7.14,7.15-16.01,11.65-23.42,18.21-4.93,4.36-11.68,6.03-16.72,9.68-8.71,6.31-19.17,6.35-28.23,10.58-9.75,4.55-20.33,3.6-30.45,5.54-1.72.33-2.52,4.43-4.98,1.29-7.53-1.28-15.12-.2-22.67-.6-2.81-.15-5.69.63-8.43-.54Z"/>
  <path class="cls-33" d="m201.93,1.24c-2.74,1.79-6.55.96-8.68,4.99-1.26,2.39-6.28,2.02-7.98-.74-2.91-4.73-6.98-4.29-11.33-4.33-2.18-.02-4.61.88-6.5-1.07,11.51-.09,23.03-.41,34.49,1.15Z"/>
  <path class="cls-27" d="m163.95,353.46c8.58,0,17.16-.04,25.74.02,1.83.01,3.87-.62,5.36,1.12-8.58,0-17.16.04-25.74-.02-1.83-.01-3.87.63-5.36-1.12Z"/>
  <path class="cls-23" d="m155.9,2.29c-2,2.21-4.62.84-6.94,1.2,2.02-2.09,4.64-.74,6.94-1.2Z"/>
  <path class="cls-23" d="m149,3.48c-1.62,1.98-3.86.89-5.82,1.17,1.64-1.88,3.86-.87,5.82-1.17Z"/>
  <path class="cls-14" d="m234.26,89.86c2.67,3.9,5.29-.53,7.94-.04,11.39-1.69,15.74.7,20.46,11.3.65,1.46,1.59,2.57,2.9,3.45,13.45,9.02,19.14,22.74,22.14,37.77.99,4.99.33,10.29-4.02,14.32-2.63,2.44-3.13,6.07-3.95,9.42-1,4.1-1.92,8.18-4.83,11.53-2.15,2.47-1.63,4.86.89,6.97,1.29,1.09,3.87,2.11,1.01,4.28-2.94,1.44-6.02,2.41-9.58,2.38.6,1.69,1.09,3.07,1.57,4.45-3.18,4.65-4.65,9.52-5.43,15.36-.81,6.13-3.3,12.4-5.12,18.58-1.25,4.24-4.97,6.23-8.8,7.58-5.04,1.79-6.65,5.29-7.33,10.4-.8,5.95.04,11.52,1.29,17.18-8.79,4.48-17.95,6.06-27.63,3.46-4.32-1.48-4.79-2.86-1.75-5.96,2.7-2.76,6.01-4.75,9.47-6.44,3.22-1.58,5.4-3.82,6.79-7.32,2.23-5.6,6.76-10.15,7-16.75.1-2.67,3.18-3.46,5.56-4.36,6.47-2.43,10.98-10.2,9.41-16.82-.76-3.2.31-4.9,2.63-6.81,5.19-4.27,5.43-6.73,1.78-12.13-1.18-1.75-2.46-3.47-2.91-5.57-.62-2.94-2.32-4.72-5.2-5.49-1.11-.3-2.13-.86-3.09-1.5-5.89-3.94-5.58-9.74.74-12.97,1.87-.95,3.98-1.42,5.59-2.88,1.04-.94,1.97-2.03,1.07-3.47-.67-1.08-1.9-1.25-3.08-.97-2.23.53-4.36,1.47-6.65,1.81-2.13,1.09-3.83,1.01-4.56-1.68-.57-3.6-3.35-3.02-5.8-3.05-1.93-.02-3.75.89-5.69.75-2.43-.17-3.97-.71-2.98-3.91,2.57-8.3,1.19-10.69-7.25-13.25-1.94-.59-3.33-1.81-4.86-2.95-2.07-1.54-4.3-1.48-6.51-.36-2.56,1.3-2.04,3.18-1.07,5.34.99,2.21-.55,3.45-2.42,3.55-4.96.27-7.15,3.55-9.43,7.33-4.89,8.09-13.56,10.18-22.02,5.66-2.7-1.45-3.4-3.98-3.46-6.81-.03-2.88.26-5.82-1.96-8.17-4.98-3.84-10.05-3.53-15.33-.56-2.38,1.33-4.73,3.45-7.84,1.72-1.18-1.65-.46-3.33.03-4.95,1.13-3.78.44-7.26-3.28-8.69-3.69-1.42-6.08,1.38-7.68,4.43-2.8,5.34-6.55,9.86-11.25,13.62-2.83,2.6-3.36,5.72-1.06,8.68,2.28,2.94,5.77,4.15,9.21,2.45,5.19-2.55,10.4-1.63,15.68-1.04,1.52.17,3.18.42,3.51,2.33.3,1.73-.85,2.86-2.09,3.8-1.55,1.18-3.4,1.8-5.27,2.13-3.64.63-4.62,2.84-3.98,6.16-1.76,2.2-4.75.21-6.94,2.39-2.69,2.69-3.85,5.69-4.46,9.17-2.85,3.31-3.94,6.86-5.33,17.73,5.46-2.61,10.75-4.64,16.64-2.67,1.59.53,2.24-1.07,2.36-2.53.14-1.76-.48-3.39-.98-5.03-1.25-4.07.22-6.95,4.26-7.89,3.18-.74,4.21-2.19,4.49-5.43.58-6.64,3.2-8.74,9.69-8.33,2.3.15,3.93-.32,5.57-2.04,3.07-3.22,10.13-3.47,13.53-.63,2.78,2.32,2.48,5.17.34,7.58-2.52,2.84-5.3,5.54-9.34,6.24-2.8,0-6.09-3.63-8.27.08-2.1,3.59,1.14,6.34,3.22,8.98,3.74,4.77,9.4,6.23,14.68,8.34,2.26,1.42,4.9.57,7.28,1.21.91.25,2.02.47,2.12,1.61.1,1.19-1.04,1.73-1.89,1.71-10.35-.33-15.87,7.39-22.46,13.33-1.57,1.42-3.21,2.7-5.17,3.57-7.12,3.13-9.11,7.79-6.63,15.45.24.73.61,1.49.51,2.22-.72,5.07.33,8.7,6.47,8.74.92,0,1.54,1.05,1.94,1.97-.38,7.34-3.17,9.43-9.83,6.95-6.8-2.53-13.95-4.74-17.05-12.44-.92-2.29-2.64-2.22-4.75-1.71-6.86,1.66-14.06,2.11-20.33,5.84-1.57.93-3.24,1.15-4.87,0-18.19-15.18-24.13-43.89-8.76-63.34,1.75-2.22,5.03-4.65-.91-6.76-33.8-12.03-39.32-47.87-23.05-74.84,7.12-11.81,16.66-20.6,30.36-23.56,11.76-2.54,23.13-.66,33.93,6.19-1.31-16.67,3.28-30.58,15.94-41.13,12.37-10.3,26.6-13.67,42.38-10.71,2,3.68,3.67,7.5,5.11,11.44,2.2,6.03,5.32,11.32,11.61,14.19,3.7,1.69,5.76,5.01,6.3,9.04.58,4.31,2.66,7.47,6.46,9.56,1.17.64,2.62,1.3,3.06,2.5,1.97,5.39,6.69,7.44,11.28,9.69Z"/>
  <path class="cls-16" d="m242.26,158.92c2.38.23,4.52-.42,6.61-1.53,2.72-1.45,5.18-.28,6.46,1.89,1.23,2.09-.62,3.94-2.38,5.18-1.39.97-2.89,2.05-4.49,2.39-3.37.73-5.87,2.45-6.03,5.88-.15,3.29,2.6,5.36,5.33,6.02,4.63,1.13,7.45,3.05,7.69,8.25.07,1.63,1.88,3.25,3.03,4.77,3.77,4.98,3.08,9.75-2.44,13.1-2.75,1.67-4.52,2.93-1.81,6.01.45.51.58,1.42.6,2.15.17,5.44-6.59,14.55-12.11,16.01-3.12.83-5.32,1.61-4.25,5.72.71,2.73-1.63,4.94-2.86,7.28-1.75,3.33-4.75,6.07-4.9,10.15-.07,1.75-1.47,1.92-2.6,2.6-4.41,2.65-8.81,5.33-13.07,8.23-2.93,2-2.14,3.86.73,5.25-9.56-.06-16.89-5.13-23.94-10.73-2.51-2-4.76-4.34-7.13-6.52-3.55-.4-3.45-6.07-7.3-5.45-3.08.49-4.02,4.48-7,5.56-.16.06-.38-.03-.57-.06-1.18.4-2.36.8-3.54,1.2-.93-.44-1.51-1.28-2.22-1.96-1.79-1.67-3.89-2.13-6.25-1.61-.26,0-.51,0-.77,0-7.34-.1-9.98-2.58-10.02-11.03-.02-5.04-1.5-9.38,1.33-14.44,1.16-2.09,1.57-3.27,3.92-3.35,2.63-.1,4.63-1.54,6.44-3.34,3.49-3.46,6.91-7.02,10.57-10.3,4-3.59,9.14-3.83,15.04-3.73-3.67-2.17-7.39.58-9.95-2.34,3.53-2.63,7.77-.58,11.51-1.78.54-.21,1.09-.36,1.65-.5,3.93-.46,6.95-3.29,10.72-4.19,3.68,2.62,6.43,2.54,9.08-1.85,1.73-2.87,5.05-3.03,8.03-.96,2.8,1.94,5.31,4.29,8.18,6.1,2.07,1.31,4.69,2.72,5.26-1.62.84-2.03,1.47-4.25,4.22-4.48,2.19,2.49,2.59,6.27,5.8,8.03,3,1.65,5.97,3.19,7.88-1.38.04-.4.16-.77.37-1.08,4.61-6.61,3.31-9.47-4.95-10.8-.94-.68-1.4-1.72-2.04-2.64-3.82-5.53-4.76-5.8-10.92-3.21-.7.3-1.42.44-2.18.33-2.6-1.51-1.25-3.21-.1-4.71,1.43-1.86,3.42-2.96,5.66-3.67,8.14-2.58,9.69-4.66,9.7-12.87Z"/>
  <path class="cls-34" d="m106.2,295.96c-3.69-5.06-5.08-11.04-6.66-16.92-1.05-3.88.92-6.09,4.64-6.14,25.73-.35,49.08,8.92,56.45,38.11,2.26,8.96,2.09,8.73-8.92,10.51-14.52,2.34-26.1-2.96-36.14-12.87-.73-1.85-.42-3.69-.19-5.6.68-5.68-1.27-7.35-6.79-5.95-1.22.31-1.64-.67-2.38-1.14Z"/>
  <path class="cls-38" d="m221.58,324.76c-10.81,4.71-21.62,4.17-32.43-.01.5-1.04,2.8-1.05,1.71-3-.65-1.17-1.56-1.39-2.86-1.11-2.27.49-.34,2.21-1.03,3.13-1.51-.05-3.02-.1-4.54-.15-5.46-2.68-6.04-10.08-1.09-13.93.12,2.44.24,4.88.36,7.31l1.09,1.17c9.64-20.82,24.6-33.91,47.99-34.78,1.69,3.36.77,6.78.23,10.19-.99,6.24.18,7.54,6.59,7.07,3.1-.23,6.2-.67,8.34,2.32.48.66.35,1.45-.24,2.08-1.57,3.97-4.64,6.72-7.73,9.45-3.73.61-7.61.06-11.24,1.53-4.42,1.8-6.23,4.81-5.14,8.72Z"/>
  <path class="cls-2" d="m276.8,188.86c.03-.69.35-1.77.03-2.02-6.69-5.28-6.67-5.24-1.52-12.1,2.49-3.32,2.37-7.54,3.53-11.31,1.13-3.69,2.66-6.7,5.35-9.71,3.55-3.97,2.3-9.46,1.66-14.53-1.37-10.85-9.15-18.67-13.31-28.21-1-2.29-4.75-3.68-7.51-4.8-2.27-.92-3.38-2.41-4.03-4.43-2.74-8.44-6.26-11.21-15.36-11.88-1.14-.08-2.29-.03-3.44-.04,12.67-4.24,24.59-2.64,35.8,4.57-.61,3.6-3.11-.07-4.3,1.09,3.76,3.09,6.7,6.75,8,11.54.2.74.29,1.72.85,2.1,6.23,4.31,5.35,11.24,6.69,17.42,1.11,5.11,3.57,9.07,8.48,12.16,3.99,2.52,9.55,5.3,8.47,12.04-.23,1.4-.2,2.37-2.12,2.66-7.53,1.12-11.1,7.62-15.93,12.33-1.77,1.72-.97,3.72.55,5.64,1.7,2.16,4.34,3.86,4.25,7.12-4.43,4.92-9.3,9.17-16.12,10.38Z"/>
  <path class="cls-35" d="m243.4,264.8c-6.35-7.26-2.48-15.47-1.8-23.22.26-2.97,3.77-4.58,6.82-5.49,6.74-2,10.05-6.59,9.92-13.54-.05-2.88,1.29-5.15,2.5-7.5,1.33-2.58,2.27-4.89,1.28-8.07-1.15-3.69,3.17-10.23,6.68-11.28,11.41,13.38,9.73,38.52.03,48.45-2.12,1.84-4.22.68-6.38.04-4.96-1.46-8.85.63-12.17,4.06-2.19,2.26-1.4,4.88-.45,7.43.69,1.87,2.28,3.67.55,5.77-1.67,2.48-4.08,3.39-6.96,3.35Z"/>
  <path class="cls-4" d="m292.92,178.49c-2.13-2.41-4.23-4.86-6.41-7.23-1.72-1.87-1.73-4.32-.23-5.66,5.66-5.08,9.17-13.17,18.26-13.62,1.69-.08,1.13-1.39.97-1.96-.37-1.39.69-2.71-1.39-4.25-9.38-6.93-19.4-13.81-17.05-28.02.12-.7-.03-1.92-.46-2.15-7.98-4.24-5.8-16.44-15.3-19.47-.89-.28-1.43-1.35-.86-2.4.55-1.02,1.4-.89,2.44-.65,1.72.39,2.94,2.77,5.12,1.31,12.31,6.44,19.66,17.11,24.41,29.64,5.81,15.33,7.05,30.68-1.56,45.66-2.04,3.55-4.53,6.55-7.93,8.8Z"/>
  <path class="cls-29" d="m181.33,309.68c-1.5,4.79-3.59,9.63,1.09,13.93-1.84,2.6-.88,5.56-.97,8.35-.16,4.83-2.47,7.47-7.32,7.6-4.97.13-7.68-2.64-7.77-7.66-.36-21.36,1.65-42.62,2.45-63.93.03-.69.57-1.36.87-2.04.19.17.39.35.58.52.9,1.46.53,2.92.09,4.42-.21.72,0,1.52-.18,2.27.35-.76-.02-1.61.3-2.38,3.74,2.4,8.21.63,12.11,2.13-.48,12.26.27,24.56-1.26,36.78Z"/>
  <path class="cls-10" d="m165.11,249.86c.96.53,1.13,1.44,1.18,2.41-18.55,17.03-49.01,13.42-65.74-4.68,6.24-2.05,12.08-5.13,18.73-6.23,2.86-.48,6.06.01,8.8-1.97,1.68-1.21,2.95.75,3.31,2.08,2.6,9.61,11.49,10.85,18.77,13.81,5.73,2.32,5.4-3.49,6.89-6.58,2.92-1.28,5.47.08,8.06,1.15Z"/>
  <path class="cls-28" d="m234.26,89.86c-5.36-.05-9.68-1.67-11.32-7.43-.2-.7-.63-1.65-1.19-1.88-7.02-2.83-9.68-8.53-10.63-15.52-.35-2.56-2.56-3.86-4.65-4.66-7.87-2.99-10.23-10.22-13.18-16.91-1.19-2.71-1.04-5.93-3.96-7.9-.93-.62.95-1.26,1.12-2.12,7.94.94,15.27,3.5,21.86,8.08.33,2.89-3.53,4.02-2.92,7.08.3,1.53.55,3.15,1.66,4.2,7.57,7.2,10.45,17.6,17.42,25.24,2.83,3.1,6.74,5.72,6.87,10.64-.36.39-.71.78-1.07,1.17Z"/>
  <path class="cls-22" d="m245.69,305.06c-1.35-3.87-4.37-3.63-7.5-3.02-7.82,1.52-9.86-.55-8.7-8.35.51-3.41,1.89-6.75,1.28-10.3,6.62-.95,12.88,1.2,19.23,2.37,2.89.53,4.16,2.63,2.72,5.62-2.23,4.62-3.62,9.67-7.03,13.69Z"/>
  <path class="cls-6" d="m182.59,272.9c-2.82.56-5.59,1.3-8.37,2.03-2.95.77-1.45-3.4-3.32-4.34-1.23-1.24-.07-3-.95-4.31,0,0-.27-.34-.27-.34.05-4.96.1-9.91.15-14.87.14-.13.29-.26.4-.41,7.6-10,7.73-9.99,14.47.35-.82,7.28-.32,14.7-2.11,21.89Z"/>
  <path class="cls-3" d="m235.33,88.69c-3.94-5.03-7.48-10.47-11.99-14.91-2.23-2.2-2.65-4.91-4.27-7.18-3.13-4.37-5.15-9.32-9.38-13.17-3.9-3.54-2.43-7.79,2.63-11.91,1.67-.03,2.8.78,3.48,2.27.46.61,1.17,1.3,1.15,1.92-.31,11.83,8.39,18.35,15.24,25.93,1,1.11,2.09,2.19,3.2,3.22h0c.89,3.86.87,7.72.01,11.58-.02.75-.03,1.5-.05,2.25Z"/>
  <path class="cls-17" d="m250.36,261.45c-.06-1.34-.57-2.44-1.17-3.68-1.69-3.46-4-6.99-.11-10.79,4.23-4.13,10.2-6.23,14.28-4.05,1.82.97,3.56,1.14,5.45,1.22-4.67,7.35-10.48,13.48-18.46,17.31Z"/>
  <path class="cls-1" d="m235.38,74.86c-7.06-2.61-10.11-9.41-15.02-14.27-4.91-4.87-4.58-10.79-4.57-16.8,11.62,7.15,17.72,17.78,19.59,31.07Z"/>
  <path class="cls-20" d="m221.58,324.76c-2.91-2.28-2.63-6.39,1.35-8.53,4.59-2.47,9.64-4.55,15.03-1.72-4.28,5.3-9.9,8.46-16.38,10.25Z"/>
  <path class="cls-5" d="m354.51,171.45c2.51,7.23,2.19,14.53.95,21.74-.25,1.46-1.78,4.89-4.3,3.1-2.15-1.53-5.96-4.68-3.14-7.32,5.29-4.97,6.65-10.72,6.49-17.51Z"/>
  <path class="cls-26" d="m106.2,295.96c.18.04.37.14.55.12,2.46-.21,4.1-4.62,7.36-1.15,2.83,3.01,4.12,5.92,2.29,10.03-.43.96-.28,2.5-.86,3.69-3.99-3.59-7.19-7.76-9.35-12.69Z"/>
  <path class="cls-29" d="m186.96,323.77c.08-1.54-3.15-1.23-2.04-2.35,1.42-1.43,2.87-4.3,5.47-3.21,1.92.81,2.52,3.49,2.47,5.35-.05,1.98-2.44.71-3.72,1.18-.73-.33-1.46-.65-2.18-.98Z"/>
  <path class="cls-1" d="m235.38,86.44c0-3.86,0-7.72-.01-11.58,1.78,3.86,1.74,7.72.01,11.58Z"/>
  <path class="cls-7" d="m135.18,173.88c-2.2-5.83-1.68-6.77,4.43-8.22,1.29-.31,2.59-.67,3.79-1.23,1.36-.63,3.03-1.47,2.63-3.24-.39-1.74-2.21-.92-3.43-1.12-5.26-.85-10.23-.61-15.41,1.46-3.71,1.48-7.99.52-10.32-3.63-2.27-4.04-1.65-7.64,2.18-10.5,1.46,2.03.97,4.77,2.73,6.8,2.57,2.96,5,4.15,8,.7.82-.31,1.66-.34,2.52-.17,11.25,3.83,21.99,2.42,32.33-3.11,1.16-.62,2.3-1.35,3.71-1.23.28,4.71.99,7.82,7.53,6.78,3.29-.53,7.01,3.03,10.96-.31,1.97-1.67,3.92-3.36,4.73-5.58,2.07-5.63,5.7-8.35,12.58-7.27-1.96-3.28-5.38-6.13-.74-8.75,4.01-2.25,7.94-3.1,11.08,1.45.74,1.06,1.74,1.27,2.91,1.5,9.46,1.82,12.51,8.63,7.14,16.76,3.72,1.49,7.02-1.1,10.51-.77,3.25.3,5.15,1.18,4.9,4.72-.4.39-.88.57-1.44.57-2.92-1.94-5.98-3.06-9.48-1.6-7.65,1.39-14.24-1.4-20.7-5.01-2.23-1.25-4.33-3.4-7.35-2.24-3.58,3.03-.58,5.21.99,7.56,4.7,4.39,10.55,6.72,16.37,9.1,3.32,1.2,7.51-.93,10.29,2.54-1.24,2.06-3.17,1.98-4.99,2.16-5.85-.7-7.3,3.66-8.67,7.81-1.17,3.55-2.51,6.76-6.44,8.01-2.27.81-3.99-.19-5.56-1.7-3.5-3.55-6.59-2.3-10,.44-7.18,5.75-15.78,6.56-22.85,2.14-2.76-1.72-6.22-3.4-5.29-7.81,2.17.03,3.34-1.64,4.85-2.78,2.68-2.01,6.79-3.44,5.41-7.71-1.25-3.87-5.83-1.68-8.54-3.3-.54-.33-2.02-.22-2.18.1-2.89,6.13-8.3,4.36-13.32,4.94-3.55.41-4.6,4.84-3.87,7.93.98,4.14-.37,5.06-4.05,5.4-5.22.49-6.31,2.35-4.32,7.08.94,2.24,1.15,4.46.88,6.73-.27,2.29-2.26,3.82-4.01,2.72-5.36-3.34-9.84-1.11-14.51,1.3-1.27.66-2.65,2.14-4.17.95-1.73-1.35-.04-2.76.42-4.08,1.46-4.15,2.28-8.45,2.83-12.8.36-2.84,1.66-4.12,4.58-3.13.24-.03.48-.06.71-.1,1.82-.26,3.83.33,5.32-1.27,2.94-2.28,3.94-5.49,4.33-8.99Z"/>
  <path class="cls-8" d="m164.83,180.88c6.25,10.54,19.08,12.3,28.24,3.87,4.86-4.47,6.94-4.35,11.09.68,2.03,5.42-1.9,7.23-5.57,9.21-3.42,1.67-6.44,4.25-10.45,4.59-2.91-1.42-6.07-.02-9.05-.7,2.71.54,5.62-.7,8.21.86-4.22,1.73-8.59,1.12-12.93.8-7.62-1.98-13.99-5.73-18.12-12.7-1.65-2.78-2.86-5.66.25-8.15,3.22-2.58,5.97-1.27,8.32,1.55Z"/>
  <path class="cls-31" d="m198.59,194.63c2.18-2.87,5.89-4.82,5.57-9.21,1.12.57,1.84,2.43,3.55,1.12,4.3,1.23,4.87-2.47,6.18-4.88,2.31-4.26,3.68-9.19,8.79-11.24h5.67c-4.47-2.25-8.43.3-11.43-2.29,3.81-3.06,8.49-.67,12.56-1.99,4.56-.49,6.73-4.05,9.22-7.2.42,0,.83-.02,1.25-.02.77,3.88,1.53-.71,2.3,0,3.24,5.37-.44,12.98-6.69,13.81-6.12.81-8.36,2.68-8.28,6.91,1.17,1.03,2.87.82,4.09,1.75.64.57.98,1.2.46,2.03-1.67,1.3-3.96,1.14-5.65,2.5-3.83,3.1-3.49,6.5.96,8.43.87.38,1.77.64,2.43,1.37,1.69,3.83.4,4.96-3.51,4.06-4.36-1.01-7.04-4.5-10.25-7.06-3.6-2.87-6.17-2.38-8.69.94-4.31,5.68-4.28,5.7-8.54.97Z"/>
  <path class="cls-15" d="m168.34,150.39c-11.19,9.1-23.51,10.32-36.73,5.27,1.64-3.58,2.41-7.77,6.59-9.62,7.59-.33,15.24-.07,22.13-4.31,1.69-1.04,3.96-1.31,5.9.1,2.7,2.36,3.28,5.24,2.12,8.56Z"/>
  <path class="cls-24" d="m129.52,155.19c1.13,5.57-3.33,4.24-5.09,3.16-3.78-2.32-7.34-5.48-5.36-10.94,5.25-3.77,8.8-8.96,11.59-14.61,2.04-4.13,6.11-5.2,8.96-3.81,3.26,1.59,6.17,5.25,3.91,10.04-.72,1.53-.97,3.28-1.43,4.93,1.15.89,2.28,1.9.06,2.71-1.22.45-2.63.11-3.94.15-.76-.05.21.07-.55,0q-9.47-.84-8.13,8.38Z"/>
  <path class="cls-39" d="m122.17,171.61c-.02,3.07-7.75,10.35-10.67,10.31-3.92-.06-5.92-3.06-4.07-6.49,2.21-4.09,4.89-7.8,10.41-7.3,2.33.21,3.84,1.39,4.32,3.48Z"/>
  <path class="cls-30" d="m137.39,146.3c1.33-1.26,5.07,2.32,4.69-2.35,3.79.56,6.34-2.3,9.25-3.76,5.58-2.81,10.2-1.32,14.89,1.65-1.31.11-2.96-.26-3.87.41-7.43,5.43-15.98,4.99-24.48,5-.46-.03-.68-.18-.67-.44,0-.33.07-.49.19-.49Z"/>
  <path class="cls-13" d="m135.18,173.88c3.37,4.96-1.58,7.13-3.46,10.33-2.3.94-4.6.89-6.9.03h0c-4.09-5.36,1.71-7.02,3.76-10.1,2.1-3.17,4.33-2.18,6.61-.27Z"/>
  <path class="cls-12" d="m231.9,183.06c-.38-.38-.76-.76-1.14-1.14.19-3.47,2.25-3.41,4.6-2.27,3.5,1.69,6.15,4.21,6.96,8.22.73,3.16-3.75,5.63-1.19,9.02,1.45,1.36,3.3.74,4.96,1.03.25.04.51.08.76.12.75.08,1.79-.11,2.19.31,1.1,1.17-.31,1.53-.98,1.96-6.48,4.2-13.54-.11-15.01-9.15-.76-2.65-.32-5.46-1.15-8.1Z"/>
  <path class="cls-25" d="m239.96,198.03c-4.19-3.63,1.13-6.07,1.15-9.18,1.13-.88.03-2.53,1.17-3.41,3.86-2.17,6.41-.49,8.31,2.88,2.66,4.71-.46,7.26-3.74,9.72,0,0,0,0,0,0-2.3.89-4.6.91-6.9-.02Z"/>
  <path class="cls-32" d="m231.9,183.06c3.62,2.24,2.43,5.16,1.15,8.1-1.16,1.52-2.31,3.04-3.47,4.56-3.7.18-7.6.37-7.95-4.71-.3-4.37,4.36-7.8,10.27-7.94Z"/>
  <path class="cls-14" d="m166.41,225.77c-.57,8.95-.63,9.14-1.67,8.81-3.66-1.17-8.74-1.34-8.45-6.66.24-4.39,4.18-6.37,8.18-6.58,3.19-.17,2.77,2.36,1.94,4.43Z"/>
  <path class="cls-14" d="m242.28,185.44c-.07,1.25.13,2.58-1.17,3.41.24-5.13-4.18-6.43-7.33-8.64-1.44-1.01-2.36.5-3.02,1.72-1.68.03-3.35.05-3.47-2.29,7.98-5.42,11.76-3.96,14.99,5.81Z"/>
  <path class="cls-14" d="m165.11,249.86c-2.79.36-5.41-.49-8.06-1.15,3.3-3.92,5.65-1.19,8.06,1.15Z"/>
  <path class="cls-18" d="m187.31,199.38h-9.49c3.49-1.09,7.01-2.33,10.33-.16l-.39.23-.45-.07Z"/>
  <path class="cls-36" d="m169.96,266.28c1.52,1.17.68,2.86.95,4.31,0,1.44,0,2.87,0,4.31-.32.01-.63.02-.95.04v-8.65Z"/>
  <path class="cls-9" d="m231.15,167.16c-4.6,2.36-9.46.99-14.22.97-5.75-2.42-11.76-4.35-16.13-9.19-.61-3.13,1.59-6.64-1.27-9.46,2.51-1.76,4.59-1.18,7.11.51,6.89,4.64,14.23,8.21,22.98,6.58-.93,3.66-3.53,1.52-5.77,1.58,3.46.59,4.45,3,3.78,5.58-1.19,4.58-5.31,1.82-7.74,2.63-1.06.08-.07,1.3-.35.59-.08-.2.04-.39.32-.34,3.74.75,7.67-2.49,11.3.54Z"/>
  <path class="cls-19" d="m231.15,167.16h-13.54c2.82-3.04,7.91,1.23,8.76-3.77.35-2.09.18-5.34-5.32-4.32,3.8-2.09,6.67-.17,8.56-2.5,3.91-2.57,6.91-1.67,9.1,2.36-.47,4.63-2.81,7.54-7.56,8.22Z"/>
  <path class="cls-21" d="m137.39,146.3c.16.31.32.63.49.94-1.4,3.32-3.67,6-6.27,8.43-.7-.16-1.4-.32-2.1-.47-1.21-1.83-3.02-3.25-2.51-5.97.96-5.14,3.22-5.84,10.39-2.92Z"/>
  <path class="cls-16" d="m222.68,170.43c-3.79,3.97-6.16,8.89-9.08,13.45-1.33,2.08-2.4,5.16-5.88,2.66,4.13-.71,4.75-4.01,5.9-7.29,1.5-4.27,2.7-9.35,9.07-8.83Z"/>
  <path class="cls-14" d="m213.45,144.27c2.03.43,2.8,2.12,2.78,3.77-.02,1.92-1.4,3.19-3.48,2.66-1.5-.38-3.77-.45-3.33-2.91.37-2.03,1.94-3.15,4.03-3.52Z"/>
  <path class="cls-11" d="m199.52,149.48c6.6,2.32,2.64,6.07,1.27,9.46-2.32-2.9-5.25-5.72-1.27-9.46Z"/>
  <path class="cls-14" d="m124.82,184.24c2.3,0,4.6-.02,6.9-.03-2.29,1.8-4.59,1.76-6.9.03Z"/>
  <path class="cls-16" d="m239.96,198.03c2.3,0,4.6.01,6.9.02-2.3,1.76-4.6,1.78-6.9-.02Z"/>
</svg>