<?xml version="1.0" encoding="UTF-8"?>
<svg id="Capa_1" data-name="Capa 1" xmlns="http://www.w3.org/2000/svg" viewBox="0 0 330.19 331.09">
  <defs>
    <style>
      .cls-1 {
        fill: #272285;
      }

      .cls-1, .cls-2, .cls-3, .cls-4, .cls-5, .cls-6, .cls-7, .cls-8, .cls-9, .cls-10, .cls-11, .cls-12, .cls-13, .cls-14, .cls-15, .cls-16, .cls-17, .cls-18, .cls-19, .cls-20, .cls-21, .cls-22, .cls-23, .cls-24, .cls-25, .cls-26, .cls-27, .cls-28, .cls-29, .cls-30, .cls-31, .cls-32, .cls-33, .cls-34 {
        stroke-width: 0px;
      }

      .cls-2 {
        fill: #d0c1f1;
      }

      .cls-3 {
        fill: #282187;
      }

      .cls-4 {
        fill: #ddcefb;
      }

      .cls-5 {
        fill: #ddcffb;
      }

      .cls-6 {
        fill: #af97fa;
      }

      .cls-7 {
        fill: #d0bff2;
      }

      .cls-8 {
        fill: #b49efb;
      }

      .cls-9 {
        fill: #b39afa;
      }

      .cls-10 {
        fill: #decffb;
      }

      .cls-11 {
        fill: #b39bfa;
      }

      .cls-12 {
        fill: #ab94fa;
      }

      .cls-13 {
        fill: #dcccfb;
      }

      .cls-14 {
        fill: #251f7f;
      }

      .cls-15 {
        fill: #d9c9f9;
      }

      .cls-16 {
        fill: #2d278e;
      }

      .cls-17 {
        fill: #261f84;
      }

      .cls-18 {
        fill: #dfd4f7;
      }

      .cls-19 {
        fill: #ad95fa;
      }

      .cls-20 {
        fill: #27227f;
      }

      .cls-21 {
        fill: #b59dfb;
      }

      .cls-22 {
        fill: #ded1fb;
      }

      .cls-23 {
        fill: #2f2a8f;
      }

      .cls-24 {
        fill: #cdbeee;
      }

      .cls-25 {
        fill: #f7f4fb;
      }

      .cls-26 {
        fill: #272187;
      }

      .cls-27 {
        fill: #dbccfb;
      }

      .cls-28 {
        fill: #b29afa;
      }

      .cls-29 {
        fill: #493fa3;
      }

      .cls-30 {
        fill: #d0bdf1;
      }

      .cls-31 {
        fill: #272080;
      }

      .cls-32 {
        fill: #ddcefa;
      }

      .cls-33 {
        fill: #171174;
      }

      .cls-34 {
        fill: #d1c1f3;
      }
    </style>
  </defs>
  <path class="cls-5" d="m241.43,19.21c13.53,7.58,25.92,16.73,36.78,27.8,4.83,4.91,9.13,10.35,13.6,15.6,3.57,4.21,8.18,8.02,10.24,12.9,2.15,5.07,5.12,9.83,7.87,14.19,4.31,6.81,5.03,14.92,9.97,21.53,2.5,3.34,3.36,9.13,4.29,13.93,1.77,9.07,3.44,18.18,3.76,27.46,2.53,9.3-.31,18.7.5,28.02-.21.58-.63.94-1.23,1.09-2.09-3.99-.22-8.17-.9-11.86-.14.88-.11,2.22.02,3.49.49,4.65-.18,8.17-6.16,7.73-2.05-.15-2.36,1.83-2.93,3.27-3.42,8.71-10.8,14.24-16.8,20.87-1.25,1.38-2.99,1.63-4.89,1.38-8.57-1.14-9.04-.79-10.63,7.21-.26.53-.66.89-1.2,1.09-.61-.03-1.06-.31-1.35-.84-2.98-13.37-4.99-14.75-19.43-13.56-3.91.32-7.76-.64-11.66-.72-16.82-2.81-32.46-8.81-47.08-17.53-1.37-.82-2.88-1.39-3.95-2.63-5.27-5.3-11.22-9.82-16.92-14.64-12.14-15.97-23.88-32.15-26.98-52.74-1.32-8.8-.89-17.64-.34-26.47,2.34-13.83,7.65-26.5,15.35-38.16,2.16-3.28,1.7-6.74,1.81-10.23,3.61-6.53,6.97-8.3,13.28-6.68,2.49.64,3.35-.68,4.58-2.41,2.49-3.52,3.88-7.98,8.31-9.95,5.88-2.61,8.82-1.91,12.36,3.55,1.14,1.76,2.55,2.18,4.4,2.35,3.47.31,6.6-.91,9.82-1.86,5.07-1.49,10.45-1.54,15.5-3.17Z"/>
  <path class="cls-32" d="m114.35,322.41c-26.48-8.4-49.84-22.16-69.11-42.11-11.72-12.13-21.59-25.74-29.02-41.23-4.98-10.38-9.17-20.82-11.87-31.94.93-4.55-2.6-8.52-1.71-13.07,5.1-4.71,8.68-10.47,11.68-16.66.45-.94,1.46-1.7,1.6-2.72.73-5.44,2.96-8.82,9.25-7.99,1.83.24,2.93-1.76,3.99-3.18,1.17-1.57,2.36-3.1,4.1-4.09,4.6-2.61,6.82-1.37,6.84,3.88.01,2.79.11,5.58.06,8.36-.36-4.5.39-8.97-.44-13.5-.3-1.67-1.32-4.53,2.44-4.15,1.09,1.54,1.18,3.34,1.09,5.1-.76,14.49,2.19,28.49,5.55,42.44,5.36,17.46,14.32,32.93,25.88,46.98,1.12,1.37,2.28,2.69,3.71,3.76,11.54,12.36,24.73,22.43,40.29,29.26,2.28,1,4.52,2.08,6.93,2.75,8.59,2.44,16.69,6.57,25.77,7.24,1.8.62,3.68.68,5.55.76.8.05,1.59.19,2.36.37,2.04.91,4.7.14,6.31,2.27-.41,1.87-1.98,1.82-3.32,2.05-7.58,1.31-15.2,4.6-22.01-2.72-1.75-1.88-5.61-1.87-8.47-2.84-2.83-.96-3.07.51-2.42,2.71.25.85.58,1.67.91,2.5,2.54,6.49.11,11.82-6.6,13.54-3.45.88-3.58,3.51-4.27,6-.78,2.84-1.11,6.01-5.09,6.23Z"/>
  <path class="cls-10" d="m41.74,153.73c-2.24,4.16-.54,8.65-1.07,12.95-.25,2.07.46,4.22-1.08,7.63,0-4.7-.13-8.02.04-11.33.19-3.7-1.26-4.26-4.46-3.01-1.77.69-3.16,1.58-4.01,3.21-2.14,4.12-4.71,6.89-10.04,4.99-2.44-.87-2.88,1.45-2.84,3.29.08,3.08-1.04,5.68-3.41,7.43-2.55,1.9-1.43,4.96-2.85,7.19-2.23,3.51-5.74,5.58-8.73,8.23-.2-.06-.4-.11-.6-.16-.74-.47-.93-1.36-1.49-1.96-.01-1.07-.03-2.15-.04-3.22,1.18-1.77.13-3.8.67-5.58-.01-.78-.65-.3-.57-.12.67,1.53.73,3.14-.11,4.68-2-2.25-.64-5.01-1.13-7.49.01-.25.02-.5.03-.75.26-1.03.82-1.83,1.82-2.26,2.32-.48,4.13-1.37,5.17-3.87,1.55-3.74,4.49-6.24,8.32-7.72,4.36-1.68,7.58-4.41,8.44-9.37.37-2.13,1.81-3.81,3.24-5.4.96-1.06,1.99-2.2,1.83-3.7-.2-1.85.95-4.27-.94-5.41-1.68-1.02-3.24.78-4.71,1.69-.6.37-1.13,1.06-1.77,1.13-7.82.88-11.57,7.12-16.27,12.14-1.11,1.19-2.1,3.12-4.33,1.76-.72-2.31.48-4.82-.73-7.08,1.03-8.7,1.91-17.38,4.14-25.95,6.63-25.4,18.7-47.79,35.55-67.86,11.17-13.32,24.26-24.22,38.92-33.35,2.08-1.3,4.45-2.12,6.69-3.17.82-.58,2.11-.72,2.18.24.27,3.94,3.62,8.16-.84,11.8-1.2.98-1.59,2.36-.72,3.81.9,1.49,2.25,1.28,3.74,1.07,6.92-.97,8.42.86,6.19,7.51-1.41,4.2-1.46,8.7-3.02,12.86-.91,2.9-3.8,3.94-5.58,6.02-5.52,5.54-11.51,10.65-15.99,17.17-1.93,2.64-4.01,5.17-5.66,8-11.64,17.57-19.2,36.66-21.56,57.7-.26,2.28-.43,4.63-2.41,6.26Z"/>
  <path class="cls-27" d="m91.92,58.69c1.09-5.01,1.44-10.18,3.35-15.02.55-1.4,1.63-2.94-.34-4.19-1.43-.91-2.87-1.42-4.37-.16-2.3,1.92-4.46,1.29-5.8-.95-1.29-2.14-2.03-4.8,1.14-6.25,2.71-1.24,2.87-3.31,1.3-5.07-1.62-1.81,1.51-4.75-1.78-5.76,8.87-6.76,19.33-10.2,29.66-13.74C126.95,3.48,139.2.86,151.78.04c9.23.79,18.47.85,27.7-.04,12.15.6,23.73,3.91,35.25,7.48.31,3.15,2.88,1.44,4.38,2.04.68.03,1.36.05,2.04.08.72,1.8,2.55,2.68,3.53,4.33,1.64,2.77,3.33-1.86,5.09-.12,4.24,1.05,7.76,3.63,11.67,5.4-2.28,4.64-6.92,2.51-10.41,3.39-5.54,1.39-10.94,3.97-16.96,3.06-1.89-.29-3.53-.24-3.61-2.78-.09-2.94-1.69-4.62-4.67-4.72-3.49-.11-7.53.7-8.76,3.66-1.43,3.44-5.36,5.02-5.65,9.18-.11,1.65-2.93,2.95-4.37,1.81-6.99-5.55-9.17,1.5-12.87,4.59-6.91-3.27-14.04-5.1-21.75-3.47-4.99,1.06-10.04,1.86-14.97,3.2-14.38,4.19-27.73,10.48-39.88,19.3-1.64,1.19-3.15,2.99-5.61,2.27Z"/>
  <path class="cls-13" d="m114.35,322.41c3.63-1.89,3.6-5.64,4.17-8.88.6-3.36,1.93-5.02,5.54-4.88,3.24.13,7.27-6.38,5.99-9.31-1.4-3.2-4.5-7.17-2.27-9.73,2-2.29,5.81,1.42,8.94,2.06,3.49.71,6.84,1.43,9.36,4.91,1.42,1.96,5.09,3.43,7.91.61,1.58-1.58,3.5-1.46,5.44-1.45,1.67,0,3.34,0,5.66,0-2.15-1.85-4.6-.16-5.89-2.13.86-1.02,2.07-1.47,3.3-1.43,9.9.32,19.67-1.48,29.53-1.67,2.16.72-.36,3.96,2.7,4.65,1.86.41,3.6,1.14,4.87-.36,2.54-2.99,6.53-3.54,9.35-6.03,2.56-2.26,5.4-1.58,7.89.09,2.61,1.75,4.83,4.3,3.86,7.58-1.35,4.59-2.28,8.7.67,13.19,1.45,2.22-.05,5.19-2.46,6.29-2.58,1.19-3.66-1.15-4.5-3.22-1.3-3.18-3.82-3.28-6.06-1.61-2.9,2.16-5.93,3.85-9.33,5-1.02.35-2.01,1.13-2.23,2.17-1.65,8.05-8.17,8.91-14.57,10.02-8.65.96-17.31,1.44-25.98.59-3.36-1.77-6.3-4.22-10.37-4.77-2.66-.36-3.61-3.09-4.16-5.62-.56-2.63-1.33-5.2-4-6.52-1.5-.74-3.09-.94-4.47.26-1.47,1.28-1.13,2.87-.42,4.37,1.19,2.48,3.24,4.15,5.54,5.55,1.81,1.1,3.17,2.37,1.82,4.7-2.6,1.68-5.09-2.02-7.69-.14-5.58-.42-10.7-2.79-16.14-3.77-.68-.12-1.34-.34-2.01-.52Z"/>
  <path class="cls-4" d="m183.77,327.76c1.35-1.64,3.2-1.96,5.2-2.19,3.43-.41,5.11-2.83,5.97-5.92.13-.47-.28-1.08-.16-1.55.76-2.89,16.04-10.42,18.85-9.37,1.56.58,2.15,1.74,2.16,3.3,0,1.78.76,3.81,2.51,3.03,1.72-.77,3.62-3.69,2.07-5.24-4.35-4.35-2.89-8.46-.9-13.04,1.44-3.3-1.22-5.49-3.35-6.97-1.99-1.38-4.58-2.37-7.1.39-2.83,3.1-7.07,4.45-10.46,7.01-3.62,2.74-5.16-1.66-6.97-3.6-1.26-1.35,1.79-.83,1.78-2.11.69-2.02,2.54-2.34,4.24-2.76,7.77-1.93,15.26-4.66,22.69-7.58,2.33-.88,4.6-1.91,6.69-3.3,2.4-1.64,5.19-2.63,7.53-4.39,4.83-3.76,10.35-6.63,14.35-11.43,1.35-.86,2.72-1.56,4.34-.7,3.51,4.62,8.26,6.12,13.22,4.15,4.81-1.91,7.98.59,7.34,5.77-.85,6.98-3.33,9.29-10.81,9.31-3.92.01-4.54,3.24-5.55,5.51-1.3,2.89,1.89,2.56,3.49,3.24,3.52,1.49,3.86,4.24,1.16,7.57-3.98,4.92-9.26,8.12-14.6,11.22-1.37.8-2.89,1.31-3.86,2.66-11.3,7.09-23.45,12.04-36.66,14.08-2.82.43-5,3.48-8.23,1.92-3.38-1.26-6.39.7-9.59,1.07l-1.14.93c-1.22-1.1-3,.14-4.21-1Z"/>
  <path class="cls-22" d="m284.15,214.59c0-9.93,1.53-11.13,11.86-9.03,1.2.24,2.35.12,2.94-.65,5.97-7.76,15.66-12.82,17.36-23.67.34-2.14,1.86-2.12,3.14-1.8,5.65,1.37,6.9-1.42,6.37-6.27-.19-1.73-.03-3.49,1.04-5.27,0,4.53,0,9.06-.25,14.12-.63,2.21,0,4.61-.41,6.95.39-2.47-.26-5.05.41-6.95,2.38-3.77,1.12-7.39,1.25-10.81.23-6.19.07-12.39.08-18.58.61-.06,1.67-.8,1.73.12.25,4.19.91,8.51.18,12.57-1.46,8.15.04,16.35-1.14,24.43-.44,3.04-.8,6.28-2.91,8.85-1.01-1.25-.36-2.49-.37-2.62-.12,1.38-1.1,3.75-1.39,6.17.8-.55-.67-2.93,1.74-2.5-1.72,10.69-4.73,20.95-9.43,30.75-2.82,5.88-4.22,12.6-7.77,17.94-4.78,7.2-9.12,14.9-15.79,20.73-1.49,1.94-2.7,1.06-3.75-.43-1.74-2.46-2.19-5.23-1.52-8.11,1.34-5.75.01-10.7-3.56-15.43-4.45-5.89-4.19-7.58-.2-13.79,1.72-2.69,3.84-5.12,5.41-7.87,2.52-4.42,1.58-6.45-3.24-7.75-.71-.19-1.3-.53-1.78-1.08Z"/>
  <path class="cls-5" d="m284.15,214.59c.53,0,1.07-.07,1.59.01,2.18.36,5.71-1.2,6.26,1.06.68,2.77.69,6.73-1.61,8.92-2.89,2.76-4.06,6.54-6.78,9.33-2.42,2.49-2.49,5.55-.21,8.12,5.27,5.94,7.64,12.31,5.27,20.37-.73,2.49-.46,6.44,4.12,6.67-1.79,5.11-5.67,8.5-9.67,11.8-1.56.56-2.6,1.63-3.18,3.16-5.1,6.55-11.6,11.54-18.44,16.07-5.79,3.84-10.65,9.28-17.91,10.67,2.25-4.82,7.55-5.72,11.37-8.45,3.09-2.21,4.29-5.81,7.45-7.88,1.13-.75.79-3.52-2.19-4.08-6.66-1.27-6.16-1.34-3.16-6.85,2.12-3.88,3.77-5.52,8.21-3.93,2.35.84,5.02-1.11,5.6-3.1.83-2.86,3.21-5.76,1.21-9.11-1.33-2.22-2.63-1.75-4.76-.84-3.21,1.38-7.13,5.63-9.84-.9-.34-.82-1.51-.85-2.42-.62-1.15.3-2.54,1.45-3.38.14-.95-1.49,1.26-2.32,1.46-3.7.31-4.58,4.49-6.49,6.91-9.52,4.61-5.78,9.35-11.43,13.09-17.84.45-.77,1.07-1.39,1.97-1.65,1.67.34,3.24.04,4.07-1.5.92-1.71-1.24-1.67-1.79-2.59-.74-1.98.2-3.35,1.63-4.54,3.29-2.19,2.75-6.52,5.13-9.22Z"/>
  <path class="cls-32" d="m139.98,326.67c-.03-1.44-.03-2.77-1.96-3.19-2.76-.61-4.3-2.96-5.76-5.02-1.73-2.45-3.43-5.52.03-7.88,3.41-2.32,6.4-.56,8.87,2.02.67.7,1.09,1.87,1.19,2.87.55,5.42,2.54,8.93,8.93,8.22,2.26-.25,2.69,2.45,3.64,4.07-.83,1-1.96,1.02-3.12.96-2.16-.36-4.34-.99-6.48.1-1.18,0-2.43.23-3.21-1.02-.52-.73-1.63-.36-2.14-1.12Z"/>
  <path class="cls-13" d="m145.33,328.82c1.89-1.91,4.28-.71,6.43-1.04,7.53,1.24,15.11.16,22.65.56,2.08.11,4.23-.57,6.22.54-9.8,3.12-19.66,2.55-29.57.64-1.88-.36-3.82-.48-5.73-.7Z"/>
  <path class="cls-7" d="m180.63,328.88c-7.96-.02-15.93,0-23.89-.08-1.7-.02-3.59.59-4.98-1.02,1.06,0,2.12,0,3.18-.01,9.61,0,19.22,0,28.83,0,1.44.17,3.09-.49,4.21,1-2.45.04-4.9.07-7.35.11Z"/>
  <path class="cls-5" d="m229.76,13.8c-1.01.68-2.5,1.13-2.95,2.08-1.74,3.63-3.05,2.11-3.04-.44.02-2.62-3.75-3.07-2.63-5.84,2.67,1.81,6.2,1.87,8.62,4.21Z"/>
  <path class="cls-2" d="m179.48,0c-3.74,2.25-7.85,1-11.74.93-5.31-.09-10.76,1.32-15.96-.89,9.23-.01,18.47-.03,27.7-.04Z"/>
  <path class="cls-34" d="m3.29,194.3c-.22,3,.98,5.74,1.66,8.57.37,1.55.93,3.01-.59,4.25-.72-3.18-1.45-6.37-2.17-9.55-.7-1.45-1.43-2.91,1.11-3.26h0Z"/>
  <path class="cls-13" d="m189.12,327.84c3.11-1.13,6.06-3.66,9.59-1.07-3.02,1.89-6.37.91-9.59,1.07Z"/>
  <path class="cls-30" d="m139.98,326.67c.89.05,1.7.23,2.14,1.12-3.24-.1-6.61,1-9.62-1.1,2.48-2.67,4.99.65,7.48-.02Z"/>
  <path class="cls-5" d="m325.79,199.65c-1.35.62-.66,2.27-1.69,3.29-1.46-3.14,1.56-5.63.83-8.54,1.33,1.27.65,2.81.88,4.2,0,.35,0,.7-.02,1.05Z"/>
  <path class="cls-5" d="m219.1,9.52c-1.87,1.25-3.75,1.42-5.49-.16-.11-.1.72-1.23,1.11-1.88,1.46.68,2.92,1.36,4.38,2.04Z"/>
  <path class="cls-32" d="m3.29,194.3c-1.27.78-1,2.09-1.11,3.26-4.06-1.11-.6-3.6-.98-5.39.7.71,1.39,1.42,2.09,2.12Z"/>
  <path class="cls-15" d="m.12,151.62c1.99,2.25.62,4.97,1.04,7.44-.17.13-.33.26-.5.39-.17-.12-.35-.24-.52-.36,0,0-.14-.05-.14-.05.04-2.48.08-4.95.12-7.43Z"/>
  <path class="cls-4" d="m279.94,284.03c-.34-2.46.7-3.54,3.18-3.16-.75,1.36-1.81,2.42-3.18,3.16Z"/>
  <path class="cls-32" d="m1.14,187.94v-5.14c.87,2.09,1.89,4.19.02,6.16-.03-.34-.03-.68-.02-1.02Z"/>
  <path class="cls-6" d="m249.02,262.66c-2.9,6.02-9.28,7.88-14.03,11.69-3.45-.74-1.98-4.43-3.72-6.22-.92-.95-1.22-2.98-3.04-2.34-1.4.5-.88,2.1-.92,3.31-.29,8.81-6.07,12.92-13.92,9-6.13-3.06-11.4-2.93-17,.53-2.61,1.61-5.49,2.18-8.64,2.19-3.89.01-7.83.83-11.48,2.06-3.98,1.34-7.47,1.3-11.34-.26-3.73-1.5-7.39-2.13-10.04,2.6-1.7,3.02-4.09,1.95-7.46-.66-6.58-5.09-11.77-11.43-17.01-18.16-4.15,5.71-7.77,10.66-3.46,17.38,1.04,1.63-.49,2.06-1.98,1.29-11.18-3.22-20.81-9.4-30.2-15.98-6.39-4.48-11.73-10.14-16.87-15.98.04-9.21,1.84-11.02,11.92-10.96,4.52.03,9.04,1.33,13.27-1.6,1.31-.91,3.11-.1,4.66.4-.35-.65.44-.1.23-.35-3.4-3.87-1.22-6.03,2.29-7.75.94-.46,2.07-.48,3.13-.59,4.69-.51,8.44-2.08,10.21-7.07.98-2.77,3-4.67,5.67-1.13,3.47,3.2,7.54,4.93,12.27,5.1,2.08.06,4.15.04,6.22.02,7.69-.32,12.96-4.52,17.02-10.64.74-1.06,1.45-2.15,2.9-2.29,1.9.25,1.52,2.19,2.38,3.18,2.07,2.37,4.78,2.63,7.16.89,2.48-1.81.62-3.84-.62-5.51-4.23-5.71-4.51-5.96.29-10.43,4-3.73,2.24-6.75-.03-10.1,2.82-2.21,5.61-4.1,3.83-8.72-.97-2.51,1.04-4.66,3.93-5.17,1.9-.33,3.98-1.01,5.72-.58,3.8.93,7.08-.17,10.44-1.49,12.81,8.38,26.47,14.81,41.49,18.14,2.93.65,5.83,1.4,8.74,2.11.14,2.43-2.09,1.85-3.63,2.8,5.34,2.2,8.75,6.5,12.36,10.43,3.76,4.09,3.9,8.19.49,12.55-2.3,2.95-3.83,6.27-4.06,9.66-.3,4.35-2.33,7.07-5.2,9.95-6.67,6.7-6.93,10.65-1.99,18.7Z"/>
  <path class="cls-28" d="m91.92,58.69c12.55-9.48,26.21-16.86,41.21-21.67,1.16-.37,2.4-.51,3.61-.75,1.3-.51,2.63-1.2,3.33.79,1.2,3.41,3.63,4.03,6.72,2.84,2.4-.93,5.07-2.08,6.58.81,1.71,3.3,4.86,6.83,2.23,10.76-3.24,4.85-3.31,8.85.62,13.38,2.53,2.92,2.43,6.42-.38,9.66-3.71,4.28-5.55,9.76-8.93,14.34-2.74,3.72.96,5.48,3.66,7.47.87-6.42,4.22-11.58,5.84-17.42,1.56,2.23,1.4,4.38.67,6.55.21,10.07-.99,20.21,1.32,30.19,3.37,14.55,9.81,27.63,19.45,39.01,2.62,3.09,3.18,7.58,6.98,9.75.38,1.54-1.12,2.22-1.72,1.84-4.62-2.91-9.21.48-13.78-.17-1.58-.18-3.01-.93-4.57-1.18-5.36-.84-8.2,1.31-9.91,7.52-.31,1.16-.24,2.32.04,3.48.51,2.41.07,4.92.86,7.29.48,1.88,1.1,3.72,2.07,5.41,1.61,3.35,4.03,5.97,7.17,7.94.78.49,1.68.52,2.53.72,1.65.38,3.94.29,3.52,2.91-.39,2.42-2.08,3.59-4.6,3.35-1.24-.12-2.44-.41-3.64-.7-9.13-2.2-16.16,5.06-17.37,12.31-.81,4.85-2.72,6.53-7.26,5.96-2.09-.46-4.13-1.07-5.94-2.27-1.94-1.92-2.68-4.54-3.8-6.9-1.61-3.38-.18-6.3,2.58-8.38,2.92-2.2,5-4.96,6.65-8.12.53-1.02,1.73-2.2.34-3.25-1.16-.87-2.45-.06-3.39.71-3.06,2.51-7.06,4.23-6.97,9.44-3.19-1.29-2.5-4.09-3.97-5.46-1.18-2.07-2.05-4.22-1.9-6.67,2.64-3.71,3.18-7.42,1.39-11.9-1.47-3.67-.71-7.7,2.38-12.34-3.13,1.89-5.15,3.09-7.42,3.73-6.66,1.88-9.95.87-13.99-4.32-1.62-2.08-1.78-4.4.56-5.41,11-4.74,11.13-14.1,10.24-23.73-.36-3.86-.45-7.16,2.11-10.48,2.57-3.33.58-6.5-1.94-8.96-2.31-2.25-4.44-4.55-5.93-7.44-1.62-3.14-2.01-6.07,1.05-8.61,1.11-.92,2.35-1.85,1.28-3.52-.8-1.25-1.93-2.16-3.48-2.14-1.93.03-1.94,1.61-2.29,3.02-1.61,6.47-12.15,9.81-17.02,5.08-2.44-2.37-4.93-3.2-8.03-3.21-5.67-.03-13.52-5.79-15.45-11.35,1.21-2.9,3.34-5.14,5.33-7.48,4.51,2.29,7.81,6.68,13.13,7.57.04,9.07.83,9.51,8.94,4.9,1.01.19,2,.38,3.07.27,5.19-.56,5.34-.88,2.35-5.24-.19-1.43.77-2.24,1.65-3.12,5.89-5.89,5.88-6.15-.55-11-.68-.78,2.39-.44.24-2.62-3.79-3.84-9.38-3.98-12.82-7.84.94-2.63,4.2-2.94,5.34-5.35Z"/>
  <path class="cls-11" d="m249.02,262.66c-.51.14-1.17.56-1.51.37-2.44-1.34-4.2-11.91-2.44-14.16,1.09-1.39,2.02-2.94,3.29-4.13,3.55-3.34,6.86-6.49,6.63-12.14-.2-5.05,4.75-8.19,5.99-12.93.56-2.15.63-3.78-.93-5.31-4.39-4.31-7.2-10.58-14.3-11.54-.69-.09-1.48-.13-1.64-1.01-.19-1.1.63-1.57,1.45-1.91,1.75-.72,3.99.54,5.48-1.33,5.39-.19,10.75.81,16.19.14,10.13-1.24,17.5,4,15.74,15.86.15,3.58-1.4,6.61-3.16,9.56-1.29,1.17-1.92,2.65-2.11,4.35.06,1.8-.6,3.23-2.11,4.24-6.13,10.64-14.25,19.73-22.45,28.74-1.37.4-2.75.81-4.12,1.21Z"/>
  <path class="cls-21" d="m157.09,85.44v-5.22c-1.95,3.63-.6,8.32-4.86,11.05-1.3.83.11,2.54.94,3.71.96,1.37.03,2.3-.92,3.18-1.13,1.04-1.84.1-2.71-.52-6.55-4.68-7.09-5.97-2.03-12,3.53-4.2,4.03-10,8.55-13.69,2.37-1.94.43-5.15-1.22-7.15-4.01-4.88-4.34-8.64-.7-13.32,3.15-4.05-.61-7.18-1.86-10.36-1.2-3.04-3.61-.42-5.37.29-3.96,1.61-6.79.32-7.91-4.12-.44-1.75-1.54-.65-2.25-1.03,9.01-3.33,18.33-4.71,27.91-4.18,3.98.22,6.65,2.94,9.48,5.32,1.67,4.79-.06,8.7-2.65,12.75-6.68,10.43-11.77,21.57-13.55,34-.07.46-.55.87-.84,1.3Z"/>
  <path class="cls-1" d="m237,124.18c-1.6-7.39-6.98-10.56-13.69-12.21-2.17-.53-4.4-1.34-4.47-3.84-.07-2.51,2.06-3.51,4.27-3.98,8.29-1.75,13.37-6.68,15.1-15.03.38-1.85,1.47-3.43,3.33-3.78,2.55-.49,2.95,2.04,4.06,3.5,2.66,3.43,4.31,7.36,5.58,11.47,2.78,2.35,6.4,2.87,9.56,4.4,1.63.79,3.4,1.52,3.23,3.71-.15,1.86-1.73,2.42-3.27,3.07-4.97,2.09-10.75,3.13-12.82,9.26-1.61,1.55-3.21,2.63-5.78,1.97-1.68-.43-3.82-.44-5.1,1.47Z"/>
  <path class="cls-8" d="m169.9,165.41c1.16-.94,2.6.06,3.96-.76,2.53-1.54,5.25-2.94,7.77.5.6.82,2.35.48,3.22-.75,5.33,4.64,10.65,9.27,15.98,13.91-2.27,2.96-4.46,4.85-8.79,2.85-2.18-1.01-5.49-.03-8.16.6-2.72.64-2.55,3.13-1.99,5.2,1.49,5.46.98,6.41-4.53,7.36-1.05.22-1.54-.42-1.93-1.23-.2-5.39.96-10.87-.99-16.16-.49-1.96-1.07-3.89-2.08-5.66-.62-2.03-3.22-3.24-2.46-5.85Z"/>
  <path class="cls-23" d="m277.56,141.4c1.19.24,1.87,1.11,2.13,2.15.93,3.77,3.01,6.32,6.92,7.25,1.04.25,2.03.82,2.07,2.1.05,1.55-1.1,2.23-2.32,2.47-3.68.71-5.26,3.27-6.12,6.56-.38,1.43-.93,2.81-2.74,2.67-1.44-.11-2.13-1.27-2.38-2.52-.73-3.72-3.03-5.74-6.57-6.85-2.23-.7-4.52-2.7-1.04-4.13,4.14-1.69,7.01-3.83,8.12-8.2.21-.82.9-1.51,1.95-1.5Z"/>
  <path class="cls-20" d="m237,124.18c.83-2.42,2.76-3.88,5-3.05,2.42.89,3.68.95,5.02-1.5.46-.84.6.66.86,1.12-.67,2.16-1.32,4.33-2.03,6.47-.69,2.07-1.72,4.1-4.14,4.21-2.63.12-3.31-2.22-4.02-4.2-.35-.97-.46-2.03-.68-3.05Z"/>
  <path class="cls-18" d="m251.18,100.31c-3.73-2.91-4.13-7.44-5.58-11.47.23-.52.54-1.84.84-1.3,1.55,2.8,3.9,4.11,6.55,5.78,2.65,1.67,1.24,5.21-1.8,6.99Z"/>
  <path class="cls-29" d="m214.26,144.16c-1.88-.24-2.91-1.26-2.93-3.1-.03-2.1,1.14-3.23,3.19-3.32,1.97-.08,2.9,1.16,2.8,2.95-.11,1.84-.88,3.38-3.06,3.46Z"/>
  <path class="cls-22" d="m279.82,224.12c.47-3.38,1.44-6.59,3.17-9.56.39,0,.78.02,1.17.03-.13,3.77-.73,7.33-4.33,9.53Z"/>
  <path class="cls-6" d="m65.23,88.6c2.62,4.32,7.81,5.76,10.84,9.84,1.7,2.28,5.21-1.35,8.03.48,1.53.99,4.07-.14,4.79,2.93.36,1.52,2.47,2.3,4.47,2.2,2.94-.14,5.6-1.49,8.64-1.59,2.08-.07,3.1-2.68,2.31-5.09-.85-2.57.77-4.01,2.71-4.2,3.12-.31,5.32,1.89,6.8,4.35,1.22,2.02-.14,3.27-2.13,3.9-3.34,1.06-3.39,3.8-2.08,5.98,1.59,2.63,2.76,5.5,5.62,7.54,5.58,3.98,5.81,7.89,1.54,13.39-1.4,1.8-1.23,3.39-.76,5.43,1.66,7.18.5,14.29-2,20.99-1.07,2.88-4.47,4.69-7.58,5.68-3.46,1.1-3.37,2.23-.89,4.49,6.03,5.51,11.14,5.73,17.97.49.87-.67,1.59-2.36,2.99-.83,1.02,1.11.63,2.34-.28,3.36-3.43,3.86-3.07,8.09-.93,12.26,2.22,4.31-.69,7.08-2.59,10.22-2.62-.52-3.35-2.99-4.77-4.72-3.75-4.58-7.97-6.51-11.32-5.03-3.75,1.66-5.41,6-4.55,12.04.22,1.58.73,3.11.73,4.73-.21,5.02-3.74,8.71-5.47,13.13-1.04,2.64-10.67,3.56-13.92,1.8-1.39-.76-2.58-1.86-4.26-2.09-3.49-.49-4.45-2.45-3.29-5.69.94-2.65.03-2.85-2.73-3.12-8.47-.83-16.66,1.37-25.01,1.46-4.77-14.04-6.9-28.48-6.41-43.3.06-1.96.03-3.91.03-5.87,2.21-21.82,8.54-42.28,20.31-60.91.94-1.48,2.11-2.82,3.18-4.22Z"/>
  <path class="cls-19" d="m48.12,202.9c.18-.76.15-2.42.49-2.18,3.23,2.25,6.86.75,9.26-.36,5.97-2.74,11.75,2.26,17.77-.73,2.88-1.43,2.77,2.71,2.11,4.23-1.41,3.29-3.16,6.02,2.78,4.93.41-.08,1.11.28,1.37.65,3.57,5.21,8.48.95,12.67,1.76.61.12,2.08-.84,2.06-1.26-.18-4.92,5.29-7.56,4.93-12.49,2.44-.07,2.44,2.16,3.24,3.56,1.04,1.83,1.74,3.88,3.17,5.46,2.56,2.84,5.55,5.2,9.65,4.02,4.08-1.17,5.51-4.56,5.99-8.49.23-1.88-.23-3.92,1.24-5.52,1.94.82.75,2.92,1.66,4.18,1.14-5.58,5.73-7.85,9.99-10.33,1.24-.72,2.82-.47,3.85.82,1,1.26.14,2.47-.53,3.4-2.53,3.52-4.04,7.74-8.26,10.12-2.8,1.58-3.89,4.79-1.51,7.73,1.38,1.7,1.57,3.8,2.7,5.52-.84,2.71-3.3,4.5-4.13,7.21-1.18-.95-2.57-3.19-3.42.09-1.91,7.33-7.58,8.39-13.81,8.58-2.14.07-3.13,1.36-3.85,3.09-.96,2.29,1.22,2.01,2.2,2.72,1.34.96,1.91,2.25.78,3.61-1.32,1.57-2.13-.11-2.99-.78-.87-.68-2.16-1.63-2.82-1.04-5.85,5.19-12.81,1.22-19.13,2.44-3.96.76-7.27,1.31-6.26,6.58.18.92-.28,2.12-1.37,2.7-4.38-2.08-6.41-6.39-9.07-9.98-9.08-12.27-16.71-25.34-20.73-40.24Z"/>
  <path class="cls-9" d="m124.98,285.08c.42-.22.84-.45,1.26-.67-4.07-4.98-2.33-9.25.12-14.7,3.09-6.89,4.72-5.11,8.25-.87,1.16,1.4,1.89,2.84,2.77,4.32,1.64,2.74,3.45,5.33,6.71,6.53,2.15.79,3.83,1.96,4.82,4.48,1.02,2.59,4.67,3.11,5.15.39,1.2-6.79,7.4-5.07,9.16-3.96,7.3,4.63,13.62-.45,20.32-.63,7.38-.2,13.73-3.14,20.27-6.15,3-1.38,6.28,1.6,9.33,2.94,6.69,2.94,11.45,1.13,12.95-4.68.46-1.77-.42-3.09-.59-4.63-.23-2.03.74-3.56,2.5-4.27,1.83-.74,2.15,1.23,3.11,2.14,2.65,2.48,2.3,6.16,3.88,9.04-2.05,2.18-4.95,2.89-7.45,4.29-2.48.39-4.62,1.43-6.39,3.22-8.7,4.82-18.46,6.57-27.77,9.62-11.34,1.59-22.71,2.57-34.17,2.12-.7,0-1.39-.02-2.09-.03-1.62-1.26-3.75.18-5.38-1.02-9.66.16-18.06-4.18-26.76-7.47Z"/>
  <path class="cls-13" d="m151.74,292.55c1.82.19,3.84-.63,5.38,1.02-1.81-.22-3.85.73-5.38-1.02Z"/>
  <path class="cls-32" d="m1.16,159.06c2.95-3.54,7.84-5.47,8.77-10.68.08-.48.47-1.2.83-1.28,6.23-1.34,11.59-4.73,17.35-7.16.6-.25,1.6.43,2.41.68-1.79,3.17,1.78,7.03-1.2,9.97-2.59,2.55-4.31,5.24-4.96,9.07-.66,3.9-4.41,5.91-7.96,7.16-4.34,1.53-7.46,4.17-8.74,8.54-1.11,3.79-4.01,2.71-6.51,2.92-.25-.28-.35-.58-.29-.88.06-.31.12-.47.19-.47,1.94-1.32,3.47-2.76,3.72-5.41.26-2.64,1.55-5.05,2.94-7.34.82-1.34,2.09-2.78.74-4.31-1.43-1.61-2.88-.38-4.22.49-1.02.66-1.98,1.59-3.36.84-.26-.76-.36-1.49.26-2.13h.02Z"/>
  <path class="cls-6" d="m86.58,64.04c4.9,1.79,10.02,2.56,13.72,7.37,2.17,2.81-.72,2.31-.88,3.39.33,1.54-.84,2.23-1.8,2.88-4.22,2.83-8.33,5.74-11.34,9.95-.6.83-1.59,1.38-2.77,1.01-6.53,1.3-9.41-3.69-12.95-7.53,4.28-6.69,10.06-11.97,16.02-17.08Z"/>
  <path class="cls-24" d="m1.14,159.07c0,.71,0,1.42.01,2.13,2.59,5.34,2.55,10.68,0,16.02,0,.36,0,.71,0,1.07-.04.84-.17,1.63-1.03,2.07,0-7.09,0-14.17.01-21.26.33-.02.67-.02,1-.02Z"/>
  <path class="cls-5" d="m218.37,21.7c-.09.82-.55,1.39-1.28,1.43-1.22.07-1.92-.71-2.15-1.84-.2-.98.13-1.85,1.28-1.64,1.07.19,1.77,1.04,2.15,2.06Z"/>
  <path class="cls-6" d="m221.15,281.86c1.52-3,2.71-3.6,6.39-3.22-1.79,1.76-3.98,2.71-6.39,3.22Z"/>
  <path class="cls-5" d="m326.71,181.46v8.3c-.66-2.78-1.66-5.58,0-8.3Z"/>
  <path class="cls-22" d="m287.09,273.94c-.17,1.91-1.35,2.93-2.49,3.56-2.1,1.17-.68-1.27-1.34-1.54-1.1-.45-2.28-.7-3.42-1.06-2.72-.88-6.41-2.02-4.87-5.39,1.55-3.41,4.78-.86,7.23.18,2.18.93,3.74,2.51,4.89,4.26Z"/>
  <path class="cls-4" d="m273.86,262.64c-3.89,1.15-6.05-3.18-9.66-3.78-.81-.14-1.31-1.21-.89-2.16.47-1.07,1.45-1.49,2.57-1.5,4.56-.03,7.72,2.94,11.1,5.36.32.23.35,1.4.07,1.86-.73,1.15-1.86.49-3.18.22Z"/>
  <path class="cls-22" d="m275.59,232.71c.2-1.67.78-3.14,2.11-4.24,1.67-.82,3.26-.66,4.04,1.09.66,1.51-.83,2.28-1.9,2.71-1.31.53-2.48,4.12-4.25.44Z"/>
  <path class="cls-4" d="m272.05,249.24c-.26.27-.63.86-1.16,1.17-.48.28-1.07-.04-.88-.66.18-.61.57-1.28,1.07-1.62.42-.29.93.13.97,1.12Z"/>
  <path class="cls-12" d="m176.09,192.87c.42.48.84.95,1.26,1.43,5.21,3.77,5.28,6.32.3,10.94-2.74,2.54-5.58,4.72-.41,8.14,1.93,1.28,4.85,4.53,1.98,7.54-3.01,3.15-6.85,1.96-10.33.4-2.17-.96.87-3.48-1.18-4.61-1.17-1.23-.48-2.65-.42-4,.08-1.83.01-3.73-2.11-4.3-2.29-.62-3.57.9-4.43,2.8-.43.96-.62,2.01-1.11,2.96-3.99,7.1-10.34,9.15-17.95,8.22-1.5-.18-3.83.3-3.75-2.49,3.8.11,6.7.51,5.67-5.57-1.08-6.39,11.16-14.76,18.12-13.33,1.03.21,2.04.54,3.06.79,2,.5,4.7,1.72,5.04-1.48.36-3.42-2.76-1.14-4.21-1.71-.85-.33-1.66-.5-2.05-1.41,4.29-1.08,8.5-2.43,12.51-4.32Z"/>
  <path class="cls-16" d="m137.94,219.9c8.29,3.41,14.89,1.31,21.1-6.7,1.87,2.44,5.88,2.35,6.89,5.82-3.89,6.77-9.69,10.61-17.47,11.47-2.48-.62-4.96-.86-7.42.12-4.95,0-8.97-2.14-12.46-5.47-.94-3.73.98-5.83,4.13-7.21,1.74.66,3.48,1.31,5.22,1.97Z"/>
  <path class="cls-31" d="m165.93,219.03c-2.16-2.11-6.84-1.22-6.89-5.82-.2-4.35,2.1-7.09,6.21-6.44,4.47.71,4.16,4.43,2.97,7.93-.22.66-.34,1.35-.5,2.03-.6.77-1.19,1.54-1.79,2.31Z"/>
  <path class="cls-19" d="m106.82,250.13c-.13.84.24,3.11-1.74,2.46-1.95-.64-4.2-1.97-4.47-4.57-.23-2.23,1.39-2.39,3.11-2.47,3.16-.16,3.28,1.87,3.1,4.58Z"/>
  <path class="cls-33" d="m141.04,230.62c2.44-1.75,4.92-1.57,7.42-.12-2.46.6-4.94.58-7.42.12Z"/>
  <path class="cls-17" d="m124.83,196.5c.03,1.94.22,3.89.07,5.81-.34,4.26-1.68,8-6.21,9.55-4.7,1.6-8.23-.61-11.26-3.85-2.81-3.01-3.97-7-5.88-10.54-.04-3.19-1.53-6.19-1.14-9.47.48-3.98,2.01-7.42,5.86-8.83,3.76-1.38,7.28-.18,10.26,2.61,2.65,2.48,4.05,5.8,6.18,8.63.42,2.13.87,4.25,2.11,6.09Z"/>
  <path class="cls-25" d="m83.52,88.64c4.4-5.65,9.93-10,15.91-13.84,2.68-.19,4.88.61,5.9,3.27,1.07,2.77-.72,4.64-2.43,6.38-1.45,1.47-3.07,2.76-4.61,4.13-.89,2.64-2.68,4.4-5.29,5.34-2.11.89-2.33,3.96-5,4.26-2.08.23-3.66-.51-5.13-1.95-2.91-2.86.38-5.07.65-7.6Z"/>
  <path class="cls-14" d="m173.27,170.76c1.36,1.47,1.92,3.25,2.02,5.21.66,1.86.77,3.7-.17,5.57-1.02-.7-1.1-2.38-2.73,0-3.51,5.12-7.96,9.8-15.41,7.47-1.5-1.44-2.14-3.21-2.09-5.27-1.61-2.65,1.02-6.08-1.56-8.56-.68-.81-.72-1.59.11-2.33,1.89-.13.19-4.13,2.43-2.85,2.12,1.21,1.79,3.92.31,6.46,2.22-2.26,4.32-4.16,6.58-5.83,3.43-2.53,7.05-3.04,10.52.12Z"/>
  <path class="cls-26" d="m156.98,189c.32-.14.66-.43.97-.41,7.33.42,11.04-4.85,15.09-9.58.41-.47.96-.02,1.99,2.03.11-2.13.18-3.6.25-5.07,2.55,5.53,2.02,11.2.8,16.91-3.11,4.51-7.34,5.78-12.51,4.32-2.68-2.35-5.77-4.35-6.6-8.19Z"/>
  <path class="cls-3" d="m173.27,170.76c-7.81-3.64-11.53,3.35-17.2,6.73v-6.8c-1.5.49-1.3,2.17-2.63,2.16,2.31-9.78,6.88-11.85,16.46-7.44.97,1.88,3.08,3.04,3.37,5.35Z"/>
  <path class="cls-6" d="m92.99,93.93c1.28-2.26,3.09-3.99,5.29-5.34,2.83.04,3.57,2.19,3.54,4.26-.03,2.26-2.38,1.76-3.67,1.66-1.71-.13-3.85,2.72-5.16-.57Z"/>
  <path class="cls-3" d="m153.33,175.18c3.13,2.38.96,5.72,1.56,8.56-2.06-2.57-.81-5.75-1.56-8.56Z"/>
  <path class="cls-25" d="m62.06,135.62c1.34-7.89,2.34-16.2,7.04-23.31,1.67-2.52,3.61-5.8,7.64-3.5,3.97,2.27,2.4,5.35.86,8.23-3.31,6.18-4.48,12.99-5.71,19.74-.57,3.15-1.8,5.88-4.96,5.71-3.44-.19-4.75-3.24-4.86-6.87Z"/>
  <path class="cls-15" d="m1.16,177.22c0-5.34,0-10.68,0-16.02.82-.64,1.84-1.15,2.43-1.96,1.93-2.61,4.46-2.41,6.36-.68,1.74,1.59.81,3.75-.55,5.66-2,2.8-3.62,5.66-3.36,9.5.19,2.76-2.35,3.55-4.88,3.49Z"/>
</svg>