<?xml version="1.0" encoding="UTF-8"?>
<svg id="Capa_1" data-name="Capa 1" xmlns="http://www.w3.org/2000/svg" viewBox="0 0 318.44 318.23">
  <defs>
    <style>
      .cls-1 {
        fill: #ac95fa;
      }

      .cls-1, .cls-2, .cls-3, .cls-4, .cls-5, .cls-6, .cls-7, .cls-8, .cls-9, .cls-10, .cls-11, .cls-12, .cls-13, .cls-14, .cls-15, .cls-16, .cls-17, .cls-18, .cls-19, .cls-20, .cls-21, .cls-22, .cls-23, .cls-24, .cls-25, .cls-26, .cls-27, .cls-28, .cls-29, .cls-30, .cls-31, .cls-32, .cls-33, .cls-34, .cls-35, .cls-36, .cls-37, .cls-38, .cls-39, .cls-40, .cls-41, .cls-42, .cls-43, .cls-44, .cls-45, .cls-46, .cls-47 {
        stroke-width: 0px;
      }

      .cls-2 {
        fill: #5046c5;
      }

      .cls-3 {
        fill: #bea6fa;
      }

      .cls-4 {
        fill: #aa94fa;
      }

      .cls-5 {
        fill: #2a2387;
      }

      .cls-6 {
        fill: #b097fa;
      }

      .cls-7 {
        fill: #f5f3fa;
      }

      .cls-8 {
        fill: #d3c3f1;
      }

      .cls-9 {
        fill: #b79df8;
      }

      .cls-10 {
        fill: #ddcefb;
      }

      .cls-11 {
        fill: #af97fa;
      }

      .cls-12 {
        fill: #dccdfb;
      }

      .cls-13 {
        fill: #ac93f7;
      }

      .cls-14 {
        fill: #dfcffa;
      }

      .cls-15 {
        fill: #b39bfa;
      }

      .cls-16 {
        fill: #292286;
      }

      .cls-17 {
        fill: #ded0fb;
      }

      .cls-18 {
        fill: #dfd1fb;
      }

      .cls-19 {
        fill: #f4f1fc;
      }

      .cls-20 {
        fill: #af98fb;
      }

      .cls-21 {
        fill: #2c258a;
      }

      .cls-22 {
        fill: #e5dbf7;
      }

      .cls-23 {
        fill: #5246c7;
      }

      .cls-24 {
        fill: #a48df8;
      }

      .cls-25 {
        fill: #5f52d1;
      }

      .cls-26 {
        fill: #a890f8;
      }

      .cls-27 {
        fill: #a98ff8;
      }

      .cls-28 {
        fill: #564bcb;
      }

      .cls-29 {
        fill: #dfd1fa;
      }

      .cls-30 {
        fill: #5e52ce;
      }

      .cls-31 {
        fill: #baa4fb;
      }

      .cls-32 {
        fill: #d5c8f2;
      }

      .cls-33 {
        fill: #5a4ecc;
      }

      .cls-34 {
        fill: #b39dfb;
      }

      .cls-35 {
        fill: #cdbded;
      }

      .cls-36 {
        fill: #ccc2e9;
      }

      .cls-37 {
        fill: #af98fa;
      }

      .cls-38 {
        fill: #af98f7;
      }

      .cls-39 {
        fill: #e3d9f7;
      }

      .cls-40 {
        fill: #b09afb;
      }

      .cls-41 {
        fill: #b89ff9;
      }

      .cls-42 {
        fill: #d6c5f8;
      }

      .cls-43 {
        fill: #5548bd;
      }

      .cls-44 {
        fill: #b099fa;
      }

      .cls-45 {
        fill: #b39af9;
      }

      .cls-46 {
        fill: #ae97fa;
      }

      .cls-47 {
        fill: #aa92fa;
      }
    </style>
  </defs>
  <path class="cls-17" d="m127.43,4.03C135.15,1.43,143.31,1.38,151.23,0c.69,1.53-.44,2.95-.22,4.48.55,3.94,2.79,5.01,6.3,3.04,5.59-3.12,11.6-5.3,17.59-7.5,9.47,2.08,19.15,3.03,28.46,6.04,21.53,6.96,40.66,17.98,58.29,32.16,5.69,4.58,11.23,9.41,15.67,14.85,4.34,5.33,9.65,10.3,12.23,17.01.12,1.41.81,2.44,2.05,3.11,4.09,7.06,8.62,13.79,11.82,21.47,1.76,4.24,2.85,9.26,6.38,12.81.19.2-.43,1.2-.68,1.83,1.14,7.02,3.48,13.73,5.19,20.6.6-.34,1.2-.68,1.8-1.02.51,1.24-.49,2.09-.8,3.12-.55,5.48.9,10.76,1.54,16.13,0,6.96,0,13.92,0,20.86.05.57-.15,1.04-.59,1.4-2.56-.25-1.89-2.38-2.18-3.89-.32-1.62.35-3.4-1.11-5.38-2.21,3.06-4.92,5.33-8.54,6.26-.77.2-1.54.99-1.38,1.93.24,1.38,1.47,1.17,2.44,1.11,3.09-.18,6.11-.03,8.86,1.62.03,3.19-2.85,3.6-4.78,4.63-5.82,3.12-11.19,6.48-14.32,12.76-1.74,3.48-5.65,5.41-7.67,8.91-.86,1.49-2.74,1.26-4.26.75-1.78-.6-3.49-1.44-5.51-1.31,2.91.25,5.34,1.31,6.96,3.84,1.62,2.53,2.6,5.32,2.46,8.28-.15,3.3-1.98,5.41-5.46,5.75-4.14.4-8.31-2.18-10.01-6.19,1.39-1.38,2.9-.38,4.36-.21,1.28.14,2.5.02,2.96-1.38.45-1.37-.47-2.25-1.46-2.99-.69-.52-1.49-.83-2.26-1.21-5.9-2.86-6.29-8.25-.89-12.11,1.42-1.01,3.04-1.5,4.71-1.94,4.41-1.17,6.54-4.17,5.71-8.66-.62-3.34.51-4.79,3.72-5.28,1.83-.28,4.19-.83,2.94-3.51-.95-2.02-2.95-3.12-5.12-1.58-4.37,3.08-8.47,4.24-12.83-.15-1.35-1.36-2.94-.42-3.55,1.39-1.92,5.72-5.92,9.92-10.16,13.93-.96.91-1.26,1.86-1.24,3.17.06,4.66-1.94,6.12-6.44,4.81-1.67-.49-3.16-1.31-4.18-2.81-.15-2.24,1.96-3.04,2.95-4.56.94-1.45,1.87-2.87,2.03-4.64.09-1.01.28-2.15-.58-2.9-1.02-.88-1.85.03-2.73.51-5.25,2.87-5.32,2.88-6.72-2.99-.33-1.38-.79-2.13-2.24-2.25-2.23-.19-4.06.42-5.29,2.38-.96,1.52-1.75,3.29,0,4.58,2.29,1.68,2.57,3.83,2.38,6.33-.3,3.98-1.49,4.77-5.28,3.36-2.1-.78-4.08-3.05-6.39-.41-3.52.55-6.55-.46-9.13-2.87-.98-4.9.63-8.03,5.55-10.03,6.01-2.44,10.28-8.02,16.9-9.69,1.93-.48.91-7.1-1.29-9.03-3.59-3.15-9.84-2.29-12.62,1.58-3.13,4.35-5.51,9.94-12.72,8.04-1.26-.33-1.28,1.33-1.82,2.12-2.47,3.61-5.48,6.51-9.86,7.66-.34-.06-.65-.2-.94-.37-2.02-1.25,1.68-4.46-1.03-4.63-4.91-.31-8.15-5.46-13.41-4.13-5.3-1.59-8.23-6.09-11.57-9.87-13.27-15.05-22.41-32.43-28.28-51.59-.97-3.18-1.34-6.37-1.15-9.66.15-3.5,2.7-4.43,5.49-5.15,1.67-.43,3.55-.78,3.85-2.87.26-1.85-1.54-2.03-2.68-2.63-1.64-.87-2.01-2.59-2.85-4.22q-1.2,6.57-4.1,7.38c-1.14-2.08-.87-4.26-.52-6.46.7-2.12.77-4.3.66-6.5.11-9.88,4.17-18.51,8.59-27.03,1.22-2.06,2.36-4.17,3.26-6.4,2.52-6.28-.24-10.86-7.01-11.65-4.34-.51-8.5.55-12.67,1.51-7.12,1.7-13.97,4.21-20.79,6.82-.87.41-1.76.8-2.63,1.22-.85.42-1.71.84-2.55,1.28-6.92,3.14-13.05,7.52-19.14,11.98-1.64,1.2-3.13,2.71-5.25,3.13-2.97.14-5.8-.38-8.43-1.8-1.2-.65-2.52-1.34-2.5-2.97.02-1.6,1.23-2.26,2.51-2.91,5.73-2.88,5.83-3.67,1.15-8.01-1.26-1.17-2.52-2.32-3.64-3.62-1.33-1.53-3.12-3.09-1.65-5.37,1.29-2.01,3.51-2.1,5.56-1.67,2.85.6,5.67,1.28,8.6,1.19.66-.02,1.39.2,2.04-.86-4.31-2.1-9.68-2.98-11.14-8.63,7.51-6.37,16.78-9.35,25.6-13.17,2.8-1.21,5.72-2.16,8.58-3.22,5.17.67,9.56-2.07,14.31-3.22Z"/>
  <path class="cls-12" d="m113.07,311.5c-10.99-3.78-21.88-7.35-32.17-13.36-9.94-5.81-18.64-13.13-28.18-19.34-2.33-1.51-3.84-4.27-5.73-6.45.39-4.92,4.83-6.18,7.87-8.71.86-.72,2.62-.75,2.37-2.3-.22-1.37-1.78-1.42-2.86-1.83-.96-.37-1.97-.61-2.96-.89-5.73-1.62-7.08-4.43-4.27-9.84,1.73-3.34,3.99-6.37,4.38-10.3.11-1.18.93-2.47,2.1-2.76,4.27-1.07,8.02-4.16,12.78-3.33,1.55.24,2.74,1.04,3.63,2.32.33.61.47,1.27.5,1.95-.03,1.57,1.08,2.01,2.33,2.32,2.27,1.28,3.73,3.02,3.38,5.82-3.99,5.91-6,5.96-9.1.04-1.02-1.96-2.23-3.12-4.44-2.2-2.2.91-1.75,2.69-1.09,4.36.83,2.12,1.39,4.31.87,6.55-.98,4.2,1.3,4.69,4.58,4.32,1.58-.18,3.19-.41,4.29-1.54,3.19-3.29,7.33-4.29,11.56-5.16,3.84.69,6.17,3.72,9.09,5.85,4.01,3.07,8.02,6.13,12.5,8.5,10.75,6.7,22.37,11.26,34.67,14.17,3.43.85,6.91,1.44,10.39,2.01,18.75,2.72,37.15,1.71,55.02-5.04,9.72-3.07,18.45-8.02,26.54-14.15,6.57-4.42,12.26-9.82,17.39-15.82,4.88-5.23,8.72-11.22,12.54-17.22.96-1.51,1.35-3.59,3.62-3.9,1,.26,1.93.72,2.82,1.22,2.67,1.52,6.05,2.87,5.92,6.41-.12,3.25-2.73,5.34-5.72,6.63-.68.11.35.84,0,.25-.11-.18.06-.19.39-.32,2.01-.76,3.72.05,5.3,1.11,1.77,1.19,3.58,1.86,5.77,1.62,1.56-.17,3.23,0,3.7,1.93.49,2-.75,3.2-2.29,4.15-.88.55-1.85.92-2.88,1.05-4.82.57-7.08,3.95-8.28,8.04-.8,2.72-2.13,4.53-4.68,5.63-5.88,2.53-6.08,8.18-7.15,13.31-.68,3.27,3.89,2.35,4.09,4.98-7.43,5.95-14.58,12.27-23.31,16.4-3.74,1.77-7.26,3.99-10.96,5.86-13.15,6.63-27.32,10.23-41.53,13.61-3.11.74-6.58-1.13-9.86.18-9.62-.77-19.23-.8-28.84.03-4.66,2.11-9.05-2.65-13.71-.53.07-.48.14-.96.2-1.43-6.82-1.56-13.5-3.84-20.57-4.2Z"/>
  <path class="cls-29" d="m78.94,23.65c3.49,3.27,6.7,6.91,12.17,6.87,1.15,0,1.42,1.79,1.13,3.05-.29,1.27-1.44,1.7-2.38,1.31-3.15-1.31-6.67.41-9.87-1.61-1.45-.92-4.35-1.14-5.53,1.1-1.04,1.98,1.26,2.92,2.34,4.07,1.64,1.73,3.36,3.48,5.33,4.8,1.94,1.3,2.31,2.93,1.88,4.87-.45,2.04-1.85,3.21-3.98,3.41-1.49.14-3.56-.16-3.57,1.94,0,1.8,2.13,2.06,3.46,2.57,2.02.78,4.19,1.14,6.3,1.67.69,2.39-1.32,3.18-2.65,4.27-2.73,2.24-5.24,4.65-7.16,7.63-10,10.37-17.05,22.62-22.74,35.74-8.32,18.54-10.78,38.11-10.35,58.2-.06,3.24-.37,6.49.24,9.71.16.5.27,1.01.36,1.52.74,4.01-1.37,5.94-4.9,7.23-3.6,1.32-7.32.8-11.09,1.33,5.03,2.24,8.17,7.26,13.79,8.48,1.79.39,3.1,2.05,4.15,3.71,2.8,4.44,2.34,8.51-1.29,10.89-3.4,2.23-9.02,1.35-10.52-3.04-2.76-8.05-11.05-8.7-16.06-13.61-2.8-2.74-4.67,1.02-6.27,3.14-1.79,2.37-2.9,5.81-7.05,4.14h0c-.2-3.48,1.8-7.24-1.32-10.34-1.07-7.17,1.07-12.7,7.78-16.23,4.45-2.35,7.6-6.32,11.1-9.81,1.94-1.93,1.46-3.32-1.41-3.58-2.95-.27-5.62-.35-7.76,2.52-2.26,3.03-5.89,4.61-8.87,6.89-1.2.92-2.95,1.88-3.02-1.07.8-2.21,1.63-4.4,2.44-6.6,1.25-3.39.64-5.9-3.02-7.18-1.82-10.32,2.48-19.74,4.52-29.46,4.36-20.76,14.6-39.03,26.1-56.39,6.47-9.76,15.04-18.23,24.3-25.72,2.39-1.93,4.68-3.99,7.02-5.99,4.45.33,8.55.13,9.45-5.62.12-.77,1.22-1.12,1.88-1.65,2.34,0,2.58-3.43,5.1-3.13Z"/>
  <path class="cls-14" d="m4.68,197.02c2.43-.49,4.16-1.43,5.41-4.01,3.48-7.18,5.88-7.45,11.75-2.12,1,.91,2.1,1.85,3.33,2.35,4.3,1.75,8.23,3.3,9.38,8.9.56,2.72,3.79,4.76,7.47,4.14,2.85-.48,4.07-2.59,4.7-4.9.78-2.85-3.67-8.84-7.31-9.3-3.08-.38-5.11-1.66-6.72-4.05-1.17-1.73-2.89-2.34-4.87-2.39-1.7-.04-2.62-.83-2.35-2.57.29-1.9,1.32-2.61,3.29-1.95,3.19,1.07,6.29.58,9.54-.24,3.76-.95,5.17-2.93,4.61-6.6,2.87.51,2.3,3.04,2.63,4.83,2.25,12.02,6.23,23.46,11.35,34.53,2.91,5.4,5.77,10.84,9.3,15.88.48,1.14,1.09,2.26.45,3.54-4.58-.43-7.93,3.51-12.44,3.52-.52,0-1.53,1.27-1.48,1.87.45,5.05-3.58,8.14-5.11,12.28-1.11,3-1.68,5.73,3.32,6.47,2.99.44,7.74.14,8.65,3.95.97,4.07-4.41,2.47-6.12,4.78-1.79,2.42-4.96,3.61-6.47,6.42-5.9-4.98-10.9-10.81-15.37-17.04-4.72-6.57-9.32-13.26-13.39-20.24-2.91-4.99-4.73-10.61-7.26-15.83-3.42-7.05-5.86-14.34-6.29-22.21Z"/>
  <path class="cls-18" d="m261.65,281.6c-6.98-1.64-6.1-3.13-5.14-7.55,1.32-6.1,3.32-10.95,9.75-12.9,1.34-.41,1.28-1.76,1.64-2.91,1.54-4.93,3.25-9.78,9.83-9.81,1.09,0,2.24-.79,3.25-1.4.92-.56,1.44-1.52.95-2.64-.41-.93-1.49-1.19-2.18-.84-3.04,1.58-5.2.18-7.23-1.87-2.81-2.85-6.3.96-9.64-1.13,2.41-2,5.65-1.55,7.78-4.14,2.67-3.26,1.76-4.83-.89-6.96-1.61-1.29-4.24-1.14-5.02-3.56-1.51-2.12.05-3.85.85-5.57,1.36-2.9,2.61-5.82,3.06-9.02.36-1.61.78-3.2,2.29-4.18,1.5.23,1.82.99,1.03,2.26.6,1.29,1.61,2.19,2.79,2.94,4.7,2.98,8.74,3.07,10.56.21,1.95-3.06-.48-10.54-3.92-12.77-1.63-1.06-2.98.14-4.41-.04-1.32-.17-2.94-.66-2.67-2.45.24-1.6,1.8-1.3,2.95-1.25,2.91.13,13-2.94,15.02-4.63.26-.22.64-.41.74-.7,3.64-10.12,13.36-13.23,21.24-18.46-.04-.88.27-1.59,1.03-2.06h1.01c1.15,1.16-.1,2.92,1.01,4.09,1,5.05-.49,9.87-1.64,14.65-2.8,11.58-5.41,23.34-10.23,34.18-3.27,7.35-6.42,15.07-11.82,21.37-.67-.16.19.08-.49-.03-.82-.13-1.53-.55-2.32-.75.49.74,1.68.77,1.83,1.84-.99,2.93-2.51,5.47-5.16,7.2-1.37,2.67-3.75,4.62-5.15,7.26-1.46,1.67-2.1,3.99-4.16,5.17-.88-.18-.74.64-1.03,1.04-4.74,5.57-9.8,10.82-15.51,15.41Z"/>
  <path class="cls-14" d="m1.61,165.02c.1.63.25,1.76.98,1.25,3.21-2.22,7.35-4.04,9.13-7.15,3.16-5.54,7.7-3.41,11.6-3.11,3.1.24,2.75,3.14.75,4.86-4.89,4.2-8.89,9.38-14.89,12.37-5.46,2.72-4.33,8.69-5.51,13.46.69,1.19.7,2.04-1.01,2.04.74-2.36-1.02-4.13-1.71-6.03-2.4-6.62.61-13.19-.37-19.73,1.77-.03,1.73.85,1.03,2.06Z"/>
  <path class="cls-42" d="m174.91.03c-5.56,5.22-13.96,5.14-19.48,10.5-1.39,1.35-2.55-.09-3.41-1.08-1.81-2.09-3.28-4.39-2.21-7.33.28-.77.94-1.41,1.43-2.11,7.89,0,15.78.02,23.68.03Z"/>
  <path class="cls-39" d="m1.61,165.02c-.02-.85-.2-1.62-1.03-2.06,0-3.79,0-7.57,0-11.36,3.54-1.74,5.14.48,4.99,3.29-.19,3.64-.88,7.44-3.96,10.12Z"/>
  <path class="cls-17" d="m73.84,26.78c-.49.87-1.29,1.69-1.44,2.61-.93,5.88-4.36,7.53-9.89,4.65,3.61-2.68,7.11-5.52,11.32-7.26Z"/>
  <path class="cls-10" d="m314.3,129.91c-.51.45-1.02.29-1.17-.25-1.66-6.37-3.29-12.76-4.86-19.16-.08-.31.54-.79.83-1.19,3.38,6.45,4.82,13.39,5.19,20.6Z"/>
  <path class="cls-8" d="m113.07,311.5c4.46-1.6,8.48,1.04,12.74,1.46,2.62.26,5.13,1.69,7.88,1.88.08,0,.2.28.19.41-.01.16-.15.3-.23.45-7.04-.5-13.88-2-20.57-4.2Z"/>
  <path class="cls-35" d="m147.15,317.67c2.93-2.01,6.25-1.02,9.33-.9,6.5.25,13.1-1.23,19.51.88-9.61,0-19.23.02-28.84.03Z"/>
  <path class="cls-22" d="m2.66,188.73c.82-.44.99-1.2,1.01-2.04,5.44,2.95,2.81,6.68,1,10.33-1.5-2.56-1.53-5.48-2.01-8.29Z"/>
  <path class="cls-36" d="m317.34,174.27c-1.47-1.08-.83-2.69-1.01-4.09,0-7.56.02-15.13.03-22.69.32-.43.63-.41.93.01l.05,26.77Z"/>
  <path class="cls-10" d="m317.29,147.5h-.47s-.47-.01-.47-.01c-.83-5.13-3.12-10.15-1.05-15.48.69,3.65,1.48,7.3,1.04,11.07,1.7.33.45-1.82,1.76-1.78.63,2.17.38,4.24-.81,6.2Z"/>
  <path class="cls-32" d="m127.43,4.03c.17.03.34.04.5.09.16.05.31.13.47.2-5.05,1.21-9.7,4.53-15.29,2.93,4.92-.4,9.31-3.18,14.31-3.22Z"/>
  <path class="cls-12" d="m292.67,245.53c-1.43-1.45-3.74,1.02-4.92-1.1-.2-.35.22-1.5.6-1.65,2.14-.83,3.84.12,5.29,1.68-.32.35-.65.71-.97,1.06Z"/>
  <path class="cls-12" d="m282.36,259.98c.03-3.62,3.15-5.04,5.15-7.26-.53,3.26-2.49,5.51-5.15,7.26Z"/>
  <path class="cls-10" d="m291.6,73.19c-1.72-.35-3.1-.93-2.05-3.11.68,1.04,1.36,2.07,2.05,3.11Z"/>
  <path class="cls-12" d="m277.17,266.19c.01-1.1-2.26-1.69-.98-2.77.65-.55,1.56.83,2.01,1.73-.34.35-.69.69-1.03,1.04Z"/>
  <path class="cls-10" d="m272.24,80.9c-1.76,4.48-5.35,7.77-7.79,12.37,4.37.39,5.78-1.59,5.74-6.02,2.62,3.95,4.79,4.88,7.72,1.85.79-.82,2.96-.41,4.49-.4,3.2.02,3.67,1.41,1.71,3.78-1.19,1.43-2.85,2.51-2.91,4.68-.03.92-.65,1.9-1.63,1.33-5.68-3.3-5.81,2.35-6.14,4.63-.56,3.87-2.32,4.37-5.45,4.16-2.4-.16-5.07-.37-5.25,3.23-.06,1.22-.06,2.48,1.11,3.24,1.43.93,2.04-.32,2.94-1.11,3.24-2.85,7.23-2.15,9.13,1.77,1.8,3.71,4.08,6.61,8.37,7.5.89.19,2.17,1.02,2.35,1.78,1.66,6.81,8.04,11.95,6.7,19.92-.41,2.43,1.56,4.77,3.63,6.5,4.21,3.52,4.11,7.26-.33,10.39-1.64,1.16-.47,1.96.1,2.92.47.79,2.02,1.32,1.06,2.46-.87,1.04-2.48,1.01-3.24.02-2.82-3.67-7.45-3.76-11.07-5.84-2.3-1.32-4.93-3.27-7.59.12-1.09,1.39-3.25.93-4.85.2-4.59-2.08-10.89-1.44-12.75-7.92-8.1-1.66-4.08-6.5-2.91-10.72,1.04-3.72,1.27-7.62,4.06-10.81,1.29-1.48,1.11-3.91-1.93-3.49-2.07.29-2.2-1.19-2.88-2.24-1.78-2.75-4.28-4.22-7.51-4.74-1.36-.22-2.52-.33-2.83,1.2-.43,2.15-1.48,2.33-3.59,2.37-3.1.05-4.52,1.54-3.77,5.45,1.02,5.34-2.48,16.2-8.2,18.38-2.4.91-3.57.33-4.18-1.99-.26-.98-.26-2.55-.88-2.85-7.49-3.72-8.57-13.51-16.24-16.99-1.1-.5-2.35-1.02-2.21-2.51.56-6.12-2.2-4.28-4.8-1.91-1.74,1.58-3.12,2.68-5.08.41-.61-.71-1.66-1.75-2.46-.36-.73,1.28.18,2.51,1.42,2.76,1.83.36,3.74.23,5.62.38,1.44.12,3.38-.54,3.74,1.68.38,2.3-1.48,2.89-3.15,3.32-7.31,1.86-8.25,3.15-7.52,11.32.1,1.11.27,2.02-.72,2.71-.76.53-1.6.6-2.42.13-1.33-.74-1.17-1.77-.84-3.08.34-1.34,1.92-3.17.03-4.12-2.07-1.04-2.87,1.17-3.78,2.53-.82,1.22-1.86,2.56-3.25,1.54-1.56-1.15-.95-2.73.46-3.87,1.05-.86,2.03-2.18,3.22-2.42,6.02-1.22,3.38-3.74.84-5.82-2.89-2.36-5.97-4.38-7.85-7.82-.89-1.62-2.45-2.61-4.8-1.87-2.8.88-4.08-1.55-4.81-3.52-.78-2.11,1.49-2.61,2.81-3.66,4.28-3.4,10.32-5.51,8.53-13.19-.75-3.22,10.61-13.84,14.08-14.15,3.64-.33,6.32,2.7,9.7,2.73,6.8.06,8.39,7.03,13.25,9.6.46.24.71,1.17.79,1.81.32,2.4-.65,6.36,2.92,5.94,3.6-.43,9.24,1.67,10.3-4.88.19-1.16,1-2.43,2.3-2.55,7.27-.71,2.61-3.7.72-5.07-5.6-4.04-5.86-8.97-3.32-14.66,1.37-3.07.01-5.97-1.3-8.29-1.65-2.92-.28-4.91,1.27-6.36,1.73-1.62,2.18,1.66,3.22,1.83,3.65.59,7.21-.62,10.65-1.73,2.27-.73,3.85-3.75,6.87-1.8,3.5,2.26,6.97,4.67,7.64,9.11.54,3.54,1.58,5.33,5.64,4.23,2.37-.64,4.29.73,3.31,3.51-1.74,4.91,1.94,2.74,3.78,2.97Z"/>
  <path class="cls-46" d="m145.08,83.5c0,2.41,0,4.81,0,7.22,2.48,2.16-.66,5.05.96,7.33-.33,8.5,3.22,15.99,6.35,23.52,7.05,16.94,17.01,31.95,30.39,44.61,1,.94,1.91,2,3.45,2.01,4.92,2.63,9.79,5.32,13.11,10.05.03.51-.06,1-.25,1.47-2.82,2.44-5.12,5.61-9.1,6.4-1.81-.28-2.93-1.64-4.25-2.71-10.65-8.58-24.59-5.26-30.3,7.19-.77,1.68-.9,3.69-2.47,4.99-1.75,1.25-3.49.85-5.24,0-6.1-3.54-6.13-3.56-2.79-9.49,1.49-2.63,1.73-5.34.06-7.79-1.64-2.41-4.08-.95-6.16-.52-3.41.69-6.98,1.85-9.35-1.8-2.24-3.45-1.05-6.99.71-10.25,2.24-4.16,6.22-6.83,9.29-10.29,2.91-3.27,4.21-6.52,2.86-10.77-1.04-3.27-.47-6.14,2.69-8.06,3.71-2.25,1.57-3.39-.88-4.18-5.13-1.67-8.25-5.27-10.45-10-1.33-2.86-1.49-5.57.07-8.37,1.42-2.55,2.55-5.24,4.18-7.69,1.72-2.57,2.11-5.44.84-8.34-.58-1.32-1.63-2.32-3.23-2.04-1.74.31-1.95,1.66-1.82,3.16.06.68.04-.18.09.51.24,3.03,1.24,6.41-2.31,8.18-2.58,1.29-9.41-1.07-11.16-3.67-2.26-3.35-3.38-6.95-.22-10.37,3.29-3.56,4.45-8.06,6.03-12.41,1.07-2.96-.23-5.44-2.7-6.45-2.52-1.04-5.64-3.63-8.24.02-1.3,1.83-2.84,2.79-4.72,1.44-2.23-1.6-5.79-2.11-5.74-5.91.03-2.75,1.47-4.59,4.12-5.2,2.28-.52,4.11-1.57,5.69-3.27,1.46-1.58,1.9-3.22.77-5.13-2.66-4.54-3.17-9.74-4.47-14.7.7-.35,1.41-.71,2.11-1.06.71-.27,2.05.79,2.04-.97,6.83-3.59,14.06-6,21.68-7.22,3-.93,4.98-1.14,3.34,3.19-.68,1.8-.68,4-.86,6.03-.15,1.63-.95,3.55.73,4.76,1.65,1.19,3.24.05,4.74-.74.9-.47,1.73-1.11,2.71-1.41,3.94-1.2,6.84,1.21,6.94,5.74-2.57,6.57-6.09,12.75-7.51,19.79-.48,2.35-.8,4.64-.75,7.01-1.29,1.92.23,4.28-.98,6.21Z"/>
  <path class="cls-1" d="m110.89,42.18c3.09,1.5,2.36,4.75,3.04,7.23.5,1.81.88,3.63,1.75,5.31,3.1,5.95.53,10.74-6.32,11.57-2.07.25-3.05,1.48-3.41,3.24-.36,1.79-.22,3.52,2.26,3.72,1.41.11,1.77,1.51,2.7,2.22,1.08.83,2.33,1.19,2.92-.39.58-1.58.72-4.3,2.68-3.64,2.96,1,6.58.32,8.89,2.9,2.13,2.38,4.05,4.38,1.83,8.48-2.31,4.26-3.32,9.09-6.96,12.85-2.76,2.86.62,9.56,4.88,10.46.83.17,1.72.02,2.57.13,4.49.61,6.63-1.35,5.01-5.58-1.4-3.67-.88-6.06,2.76-6.47,3.68-.41,4.93,2.45,5.51,5.93.9,5.35-3.32,8.42-5.05,12.55-3.26,7.79.07,15.82,8.21,18.3.98.3,1.96.61,2.89,1.02,1.56.68,2.57,2.01,2.45,3.61-.11,1.46-1.69,1.35-2.86,1.62-2.82.65-4.61,2.94-3.5,5.29,4.35,9.23-2.5,13.66-7.57,18.84-2.16,2.21-4.42,4.2-5.33,7.32-.74,2.55-1.43,5.05.58,7.27,1.96,2.17,4.32,1.54,6.67.67.63-.23,1.35-.23,2.02-.36,2.23-.44,4.81-2.35,6.52.42,1.73,2.8,3.02,6.7.66,9.13-4.13,4.25-3.13,6.72,1.44,9.12-3.15,1.89-5.56.16-7.72-1.81-1.93-1.76-.85-3.71.19-5.57.88-1.57,1.29-3.22-.14-4.71-.64-.67-1.55-.75-2.38-.42-1.97.78-2.32,2.39-1.87,4.21.78,3.12-.94,4.9-3.36,6.14-2.74,1.4-5.22,3.13-7.62,5.03-1.59.4-3-.15-4.4-.77-.65-.21-1.25-.52-1.94-.65-1.95-.36-5.16.49-5.5-1.6-.44-2.71,3.06-1.67,4.65-2.65,2.4-1.49,3.47-3.77,1.97-6.09-1.82-2.83-3.94-5.62-7.21-7.12-4.89-2.24-5.96-3.98-4.94-9.1.8-4.02,2.55-7.81,3.49-11.82.52-2.25,2.47-2.99,4.56-3.65,5.71-1.79,6.36-2.9,5.66-8.73-.25-2.12.07-4.24.96-6.03,2.29-4.61,2.48-9.27,2.24-14.35-.25-5.26-1.89-9.38-5.81-12.56-5.02-4.08-8.6-8.56-8.01-15.68.33-3.89-3.38-5.77-6.22-7.6-3.37-2.18-6.08-4.77-8.43-8.09-2.87-4.05-2.86-7.77-.99-12.04,1.85-4.22,1.1-5.32-4.09-6.4,2.18,6.35-2.11,12.32-.63,18.6-1,1.35-2.41,1.87-4.02,1.98-1.23-.13-2.82-.41-2.5-1.9,1.08-5.05-2.55-6.95-5.7-9.3-1.12-.84-3.04-1.19-2.56-3.31,1.73-5.36,7.5-6.98,10.41-11.26,7.94-5.62,15.26-12.23,24.67-15.51Z"/>
  <path class="cls-15" d="m198.71,179.46l.04-1.13c.66-.54,1.39-.43,2.13-.21,5.39,3,11.35,4.9,16.38,8.58,2.86,1.76,5.98,2.76,9.32,3.09,6.65.51,12.97,3.21,19.74,2.96,3.67.79,7.36,1.41,11.15,1.15,6.32-.43,10.86,2.16,13.38,8.06.16,5.97-.06,6.15-5.11,3.66-1.29-.64-2.56-1.24-3.87-.38-1.66,1.09-1.02,2.7-.72,4.21.2.98.99,1.84.6,2.95-7.03,3.87-14.97,4.86-22.51,7.14-2.83.33-5.5,1.47-8.33,1.79-.34-.06-.82-.12-.91-.37-2.71-7.94-9.34-9.6-16.53-10.38-.86-.09-1.67-.34-2.35-.89-.48-.89-.27-1.82.44-2.29,3.49-2.29,3.68-5.89,4-10.31-8.89,3.78-13.81-4.58-21-6.51-2.58-.69-2.31-3.43-1.11-5.66,1.24-2.31,3.65-3.48,5.27-5.43Z"/>
  <path class="cls-10" d="m269.91,203.19c-1.84-5.99-6.39-7.9-12.11-8.21-3.88-.21-7.88.79-11.62-1.05-.82-2.04-1.26-3.82,2.06-3.11,1.71-.09,2.68,1.45,4.15,1.89,4.05,1.22,5.55-.14,4.51-4.19-.34-1.31-.41-2.49.73-3.23,5.87-3.8,9.64-8.87,11.64-15.73.89-3.04,4.68-1.75,5.95.01,3.46,4.81,6.68,2.64,9.92.24,1.65-1.23,2.67-3.02,5.09-.95,1.72,1.48,4.15,2.7,3.67,5.06-.46,2.28-2.96,3.44-5.28,3.27-3.86-.28-3.55,1.18-2.23,3.86,1.58,3.22-2.08,9.48-5.77,9.68-3.19.17-5.69,1.34-7.56,3.74-2.81,3.61-2.02,6.41,2.2,7.65,1.4.41,2.38,1.3,3.58,1.91,2.22,1.12,3.2,2.91,1.84,5.02-1.14,1.76-3,2.77-5.34,1.53-1.04-.55-2.24-.8-3.36-1.19-.02-.84-.19-1.6-1-2.06-1.2-1.16.12-2.97-1.07-4.13Z"/>
  <path class="cls-29" d="m217.25,186.71c-5.97-1.8-11.74-3.99-16.51-8.21-.35-.25-.46-.5-.33-.74.12-.24.24-.36.36-.36,1.98.03,2.89-1.63,4.23-2.63,2.46-1.84,4.82-3.49,5.79-6.82,1.4-4.83,4.02,2.05,6.97-.53,2.91-2.55,5.64-5.24,6.95-8.48,2.08-5.16,6.59-3.62,9.48-3.41,2.31.17,6.02,1.06,7.19,5.8,1.45,5.92.56,7.56-5.3,9.22-6.07,1.72-10.16,7.75-16.59,9.76-2.23.7-.87,4.42-2.24,6.39Z"/>
  <path class="cls-29" d="m248.24,190.81c-2.1.1-2.08,1.61-2.06,3.11-6.88.25-13.36-1.4-19.61-4.13-.94-3.34,1.32-2.83,3.1-2.37.89.23,1.49,1.58,2.39,1.83,1.46.4,3.93,2.35,4.29.43.38-2.01,2.16-5.58-.88-6.77-3.02-1.19-3.17-2.87-2.27-5.07,1.1-2.65,2.39-5.55,6.01-5.34,2.88.17,6.93-.54,4.97,4.85-.31.85-.27,2.14.83,2.73,1.34.72,2.24-.25,3.13-1.04,1.61-1.43,3.42-4.04,5.5-1.96,1.78,1.77,1.25,4.91.21,7.27-1.17,2.66-3.17,4.8-5.6,6.47Z"/>
  <path class="cls-34" d="m154.33,50.49c-2.57-5.66-4-6.08-8.93-3.06-1.94,1.19-4.04,2.72-6.59,1.32-2.8-1.54-.89-3.89-1.04-5.91-.21-2.73,1.5-5.15.85-8.02-.35-1.56.22-1.69-1.89-1.89,3.91-1.84,8.09-1.93,12.31-2.05,7.1-.19,12.86,6.85,8.64,13.97-1.11,1.88-1.63,4.11-3.35,5.63Z"/>
  <path class="cls-10" d="m315.31,170.18c-.02.85-.2,1.62-1.03,2.06-3.35.56-6.59-1.6-10.06-.15-1.52.63-3.45-.57-3.57-2.1-.18-2.26,2.05-3.94,3.71-4.35,3.14-.77,5.82-1.26,6.45-5.14.16-.99,1.81-1.62,3.06-1.41,1.59.27,1.43,1.69,1.44,2.87.03,2.74.01,5.48.01,8.22Z"/>
  <path class="cls-10" d="m146.04,98.04c-1.83-2.24-.7-4.88-.96-7.33,1.62-2.7,2.03-5.68,2.06-8.75,0-1.05.12-2.23,1.46-2.29,1.34-.06,1.62,1.09,1.57,2.15-.17,3.07.85,4.94,4.29,4.87,1.54-.03,2.11,1.16,1.81,2.48-.49,2.19-1.16,4.25-3.97,4.67-2.67.4-6.18-.16-6.26,4.2Z"/>
  <path class="cls-10" d="m200.77,177.4c0,.36-.02.73-.03,1.09-.67-.05-1.33-.11-2-.16-3.73-3.92-9.17-5.76-12.51-10.16,1.95-1.3,3.58-1.02,5.5.42,2.37,1.77,4.78,3.45,8.28,2.88,2.35-.38,3.39,1.23,1.62,3.53-.52.67-1.98,1.1-.85,2.39Z"/>
  <path class="cls-10" d="m314.21,143.75c-.37,1.99-1.58,3.43-3.91,3.63-1.09.1-2.21-.31-2-1.61.41-2.54,2.85-3.09,4.7-3.99.83-.4,1.17.85,1.2,1.97Z"/>
  <path class="cls-10" d="m225.18,92.47c.02.81-.45,1.26-1.19,1.2-.4-.03-.97-.39-1.1-.74-.28-.73.17-1.33.88-1.49.76-.18,1.2.33,1.41,1.04Z"/>
  <path class="cls-10" d="m145.08,83.5c.2-2.09-.78-4.37.98-6.21-.3,2.08.83,4.38-.98,6.21Z"/>
  <path class="cls-1" d="m115.05,40.15c.48.18,1.68.08,1.11.8-.71.9-2.02,1.85-3.15.17.68-.32,1.36-.65,2.04-.97Z"/>
  <path class="cls-4" d="m90.27,81.7c-2.14-2.76-1.04-5.93-.84-8.84.23-3.26,3.35-6.58-.69-9.57-.15-.11.2-1.41.63-1.69,1.92-1.26,4.04-1.27,5.62.4,1.58,1.68,4.75,2.77,2.84,6.22-3.72,6.73-1.67,14.29,4.82,18.36,2.31,1.45,4.83,2.72,6.76,4.58,1.95,1.89,4.02,3.76,3.04,7.47-1.34,5.06,2.06,8.69,5.68,11.6,5.16,4.15,8.03,8.51,7.93,15.92-.06,4.96-.39,9.21-2.27,13.72-1.02,2.43-2.12,5.2.08,8.2,1.56,2.12-3.01,7.35-6.96,7.54-3.67.18-4.74,1.91-4.93,5.09-.27,4.28-3.59,7.76-3.13,12.32.26,2.54.76,3.96,3.69,4.49,4.97.89,7.32,5.37,9.42,9.16,1.84,3.32-2.05,6.82-7.94,7.78,2.28,1.41,5.24-.68,7.28,1.53-.97,1.15-2.35,1.42-3.66,1.3-4.78-.44-8.87,1.34-12.84,3.64-2.27.91-4.63.69-6.99.52-2.24-.16-4.12.35-4.5,2.94-.31,2.07-.43,4.18,2.34,4.76,1.21.26,1.59,1.09,1.71,2.18,0,.46-.05.92-.15,1.37-.37,1.49-.76,2.99.71,4.18,3.1,2.05,5.28,1.35,6.68-2.1.44-1.09.44-2.89,2.51-2.24,1.53,3.27,4.98,4.73,7.04,7.76,2.16,3.18,5.68,5.78,8.84,8.36,1.15.94,3.38,1.14,3.36,2.82-.03,2.06-2.57,1.85-3.86,2.88-3.82,1.92-7.94,2.64-12.13,3.03-2.07-.14-3.39-1.15-4.26-3.11-1.39-3.12-7.07-5.33-10.13-4.22-1.55.56-.73,1.61-.72,2.52.03,5.56-1.85,7-7.21,5.58-5.19-1.37-10.22-4.1-15.84-1.78-1.15.47-1.91-.41-2.64-1.13-.98-.72-1.96-1.44-2.94-2.17-.36-1-.72-2-1.08-3,.76-2.76,3.06-4.97,2.32-8.31-1.02-4.63-3.81-6.98-8.56-6.27-1.3.2-2.3.36-3.01-.93-6.61-11.49-10.01-24.06-12.37-36.97-.21-1.15.05-2.42-1.03-3.29,0,0,.01.02.01.02-1.47-3.35.39-7.02-1.04-10.37-.55-18.32,1.61-36.22,8.01-53.5.84-2.26,1.58-4.52,3.17-6.38,2.19-.43,2.93,1.45,4,2.66,1.41,1.59,2.88,2.99,5.09,3.22,3.67.39,5.08,2.46,4.63,5.99-.05.51-.18,1.01-.36,1.5-1.11,2.63-3.06,2.94-5.48,1.97-1.28-.52-2.32-1.49-3.6-1.98-2.03-.77-4.41-2.2-5.86.6-1.43,2.76,0,4.98,2.34,6.58,1.91,1.3,4.29,1.06,6.43,1.67,2.26.65,4.33,1.38,4.28,4.28-.04,2.73-1.86,3.81-4.14,4.54-2.32.75-5.8.15-6.25,3.44-.52,3.82,3.09,4.38,5.66,5.59.93.44,1.63,1.26,2.49,1.82,3.03,1.98,4.72,1.21,5.2-2.39.16-1.18-.08-2.41.2-3.59.57-2.4,1.85-3.66,4.45-2.55.79.34,1.55.78,2.38.97,1.46.33,3.32,1.23,4.13-.57.66-1.49-1.18-2.2-2.15-3.09-3.51-3.21-3.41-4.19.63-6.61,3.81-2.29,3.93-4.1.08-6.6-1.65-1.07-2.45-2.27-2.5-4.13,1.7-7.38,3.48-14.72,9.72-19.88,1.7-.45,2.89.69,4.23,1.38,1.36.7,2.64.65,3.75-.44,1.2-1.17,1.13-2.5.06-3.62-1.75-1.84-1.46-3.64-.25-5.54.17-.4.37-.8.55-1.2.44-1.19.67-2.37-.27-3.46-.77-.95-2.26-1.34-2.21-2.9Z"/>
  <path class="cls-28" d="m238.79,218.59c7.7-2.34,15.4-4.68,23.1-7.02,2.64-2.12,5.23-2.21,7.76.18-.17,5.22-3.37,9.39-4.9,14.13-4.86,7.47-8.89,15.53-15.69,21.59-5.66-2.92-11.3-3.16-16.75.42-2.5,1.64-4.84,3.1-8.08,2.1-2.29-.71-3.76,1.25-5.35,2.5-5.95,4.7-7.59,4.58-12.58-1.06-1.35-1.53-2.82-2.74-4.88-1.61-1.87,1.03-4.3,1.66-4.23,4.58.1,4.17-1.64,7.26-5.46,9.1-.97.47-1.48,1.37-2.08,2.22-2.89,4-3.11,3.98-5.38-.19-1.44-2.64-6.09-3.23-8.35-.41-4.66,5.84-10.05,6.83-16.91,4.61-3.09-1-5.68.89-6.46,4.32-.61,2.67-1.83,4.79-4.56,5.86,3.29.4,6.66-.33,10.01,2.29-3.33,1.46-6.22,1.03-9.11.54-3.55.23-6.88-.75-10.18-1.9-.41-.74-.13-1.39.53-1.68,3.51-1.54,4.8-5.1,2.9-8.46-.67-1.18-1.72-2.25-1.67-3.67.22-6.82-3.8-9.71-9.82-10.82-.35-.34-.59-.76-.72-1.23-.21-1.95.84-2.65,2.61-2.68,1.95-.03,3.45-.91,4.53-2.53,1.07-1.53,1.27-3.24.68-4.93-1.51-4.35.48-6.5,4.49-7.49,2.48-.48,4.94-1.11,7.46-1.37,2.55-.14,4.46.68,6.23,2.77,3.69,4.37,7.96,4.64,12.8,1.34,3.24-2.21,3.17-3.84-.32-5.9-.74-.44-1.55-.74-1.9-1.62.07-.54.34-.94.8-1.22,3.79-1.02,7.48-2.49,11.46-2.69,1.76-.01,3.54.03,5.27-.41.75-.1,1.48-.02,2.16.34,1.06,1.42,1.4,3.03,1.31,4.77-.29,5.67.02,5.96,5.78,5.41,2.61.16,5.16,1.35,7.83.43,1.36-.19,2.36-.96,3.2-2,.35-.32.74-.55,1.18-.71.95-.25,1.88-.16,2.79.2,3.43,2.27,6.59,2.38,9.3-1.15,1.34-1.86,3.08-2.39,5.28-1.76,2.69.77,4.95.02,6.69-2.19.3-.34.64-.64,1.01-.91.4-.22.8-.42,1.21-.62,1.34-1.15,2.1-3.11,4.46-2.76,2.72.41,5.79.7,6.81-2.6,1.06-3.4-2.57-4.24-4.22-6.14Z"/>
  <path class="cls-33" d="m148.88,282.74h7.45c0-.4,0-.8,0-1.21-1.84,0-3.7.17-5.52-.05-1.61-.19-3.17-.81-5.05-1.32,3.28-1.67,5.5-3.52,5.62-7.44.11-3.38,5.91-5.8,9.06-4.19,4.79,2.45,10.37,1.31,13.34-3.32,2.89-4.49,6.53-3.47,10.41-2.31.47.14,1.12.34,1.3.71.63,1.29-1.6,3.99,1.37,3.92,2.01-.05.88-3.29,2.17-4.22,2.35-1.69,5.89-1.89,6.41-5.68.09-.63.99-1.47.81-1.76-3.95-6.29,3.09-5.87,5.24-7.73,2.77-2.4,4.82.96,6.43,3.07,3.31,4.33,5.09,4.62,9.23,1.09,2.82-2.4,5.12-6.38,9.73-2.88.3.23,1.41-.16,1.83-.58,4.68-4.57,10.2-5.37,16.48-4.53,2.43.33,3.51.95,3.85,3.17-4.56,6.46-10.52,11.4-17.04,15.72-2.87-5.37-7.41-3.84-11.51-2.4-5.41,1.91-10.89,3.99-13.57,9.83-1.05,2.29-3.58,3.05-5.47,4.87,1.38,1.02,4.23-1.24,4.44,1.92-18.44,7.88-37.55,8.55-57.03,5.31Z"/>
  <path class="cls-11" d="m69.57,235.23c7.25-1.9,14.05-.48,20.82,2.39,2.83,1.2,4.85-2.05,3.4-5.68-1.2-3-1.79-4.72,2.57-3.25,1.55.52,3.38.33,5.07.28,3.46-.1,6.18.41,5.75,4.93-.17,1.73,1.31,2.18,2.78,2.31.13,2.49-2.1,2.36-3.49,3-2.69,1.24-5.1,2.74-6.96,5.14-1.46,1.89-2.31,3.67-1.17,6.11,1.28,2.72.78,5.02-2.31,6.25-1.49,1-3.18,1.23-4.92,1.26-2.63-2.13-5.27-4.26-7.9-6.39-3.41-1.37-5.78-3.78-7.2-7.16-1.1-1.96-2.07-4.03-4.22-5.12-.99-.39-1.7-1.04-1.98-2.1-.08-.65-.16-1.3-.24-1.95Z"/>
  <path class="cls-33" d="m130.88,255.8c7.07.06,10.44,3.21,10.81,10.15.05.96-.69,2.16.4,2.82,4.77,2.91,2.09,6.46.88,9.84-.71,1.98-3.59.04-4.28,2.22-12.5-2.83-24.3-7.36-34.98-14.56-.38-.45-.4-.92-.04-1.39.72-.53,1.6-.85,2.41-.56,5.07,1.84,9.58,2.14,12.94-3.27,1.03-1.65,3.1-.88,4.74-.31,4.27,1.07,4.53-3.62,7.12-4.95Z"/>
  <path class="cls-25" d="m205.91,277.43c-.58-.29-1.15-.81-1.74-.82-1.56-.04-3.68,2.08-4.5.11-.8-1.92,1.53-3.03,3.22-3.95,1.01-.56,2.32-1.2,2.73-2.14,3.48-7.9,10.65-9.93,18.02-12.07,2.6-.75,5.04-.24,7.4-.18,4.95.14-1.38,3.53.97,4.81-7.77,6.45-16.49,11.17-26.11,14.23Z"/>
  <path class="cls-14" d="m76.01,244.4c2.73,2.06,5.13,4.44,7.2,7.16-6.67,1.04-10.71,7.91-18.12,7.79-3.82-.06-5.39-.74-4.14-4.5,1.08-3.24.05-5.98-1.15-8.9-.67-1.62-1.28-3.9,1.54-4.52,2.32-.51,4.77-2.25,6.56,1.36,3.07,6.2,3.23,6.12,8.12,1.61Z"/>
  <path class="cls-43" d="m103.8,265.03c-.03.41-.05.83-.08,1.24-4.73-1.98-8.48-5.44-12.61-8.32.89-1.89,3.15-.96,4.39-2.12,2.37-1.22,3.39.5,4.25,2.11,1.12,2.1,2.57,3.91,4.11,5.69.25.47.23.94-.06,1.39Z"/>
  <path class="cls-14" d="m69.82,237.18c.66.7,1.32,1.4,1.98,2.1-1.99.56-2.76-.05-1.98-2.1Z"/>
  <path class="cls-20" d="m65.66,116.68c.17-3.16-.04-5.51-4.46-5.49-4.34.03-5.33-4.83-8.14-7.15,5.46-13.07,12.28-25.27,22.75-35.09,2.01,1.48,3.96,3.06,6.06,4.42,3.11,2.01,5.14,4.25,3.09,8.22-.35.68.75.83,1.38.93.33,1.42-.6,2.23-1.49,3.03-8.55,7.65-14.09,17.1-16.91,28.19-.32,1.25-.36,2.85-2.27,2.92Z"/>
  <path class="cls-14" d="m41.88,163.93c1.93,3.3.58,6.93,1.04,10.37-2.16-3.28-.6-6.93-1.04-10.37Z"/>
  <path class="cls-44" d="m56.31,214.54c1.02.5,1.7-.01,2.67-.45,3.27-1.47,8.08.96,9.52,4.5,1.96,4.83.71,9.69-2.95,11.47-4.19-4.51-6.73-10-9.25-15.52Z"/>
  <path class="cls-31" d="m269.65,211.76c-2.59-.06-5.17-.12-7.76-.18-2.6-1.72-4.05-4.53-2.03-6.81,3.55-4.01,6.57-.36,9.2,2.09,1.24-1.31.69-2.55.85-3.66,1.49,1.08.87,2.71,1.07,4.13-.44,1.48-.88,2.96-1.33,4.43Z"/>
  <path class="cls-6" d="m186.32,229.03c-.7.03-1.4.07-2.1.1-.68.41-1.39.38-2.11.11-2.49-2.6-3.4-7.22-8.99-5.66-1.61.45-.88-3.73-2.66-5.03-3.85-2.66-5.56-.26-6.97,2.91-2.98,6.67-8.5,8.99-15.39,8.95-1.04,0-2.1,0-2.43-1.33,1.14-3.3,3.25-1.64,4.28-1.51-4.75-2.24-8.62-7.34-13.91-10.56-1.29-.78-2.3-2.08-3.73-2.64-3.49-1.35-3.28-3.32-1.15-5.73.86-1.45,1.15-3.08,1.49-4.7,3.36-3.6,9.07-4.13,12.59-.59,3.22,3.24,6.37,5.67,11.24,4.39,2.02-.53,3.4,1.39,5.48,1.8.47-3.43-2.33-5.58-3.03-8.43.81-3.16,1.81-6.25,3.95-8.82.89-.55,2.09-1.17,2.84-.41,4.22,4.32,7.7,1.44,11.23-1.01,1.25-.87,2.34-2.03,4.05-1.92,6.65,2.13,7.09,1.98,9.39-3.04,2.62-2.36,4.97-5.06,8.34-6.45.1,2.92-3.17,3.23-4.21,5.54-1.33,2.94-1.12,4.32,2.01,5.29,1.74.54,3.69.38,5.18,1.91,4.23,4.34,9.27,5.66,15.36,3.05-.04,5.92-.64,11.01-5.96,14.13-1.57,2.22-4.06,3.12-6.41,3.84-7.63,2.34-12.54,7.05-14.12,15-1.28.95-2.71,1.13-4.24.81Z"/>
  <path class="cls-4" d="m159.43,200.92c2.76,2.14,3.19,5.57,4.65,8.42.43.85.37,1.66-.37,2.33-1.01.91-2.06.55-2.68-.33-1.89-2.71-4.34-2.74-7.2-1.99-3.74.97-5.89-1.35-8.16-3.89-3.68-4.11-7.68-4.32-12.03-1.1-3.34-1.81-6.57-3.75-8.55-7.18,1.06-1.46,2.02-3.12,3.74-3.82,4.07-1.65,8.19-2.92,5.61-8.96-.66-1.54,1.58-2.9,3.11-3.57,1.39-.61,3.08-.79,4.23.67,1.25,1.58,1.58,3.47.95,5.35-2.27,6.72-2.21,6.85,5.42,8.09,1.41.1,2.82.93,4.24.03,1.48,3.01,4.04,4.74,7.04,5.95Z"/>
  <path class="cls-5" d="m159.43,200.92c-4.61.7-7.05-1.17-7.05-5.95,2.32-7.06,5.8-13.31,13.11-16.21,10.02-3.98,18.07-.42,24.88,7.15.97,3.53-2.08,6.73-5.76,5.84-1.26-.3-2.35-1.28-3.52-1.95-6.48-2.53-12.55-2.62-17.63,3.02-2.02,2.36-1.14,6.16-4.04,8.09Z"/>
  <path class="cls-7" d="m65.66,116.68c2.26-9.54,6.26-18.22,12.27-26.03,2.43-3.16,5.73-5.28,8.4-8.11,1.31-.28,2.63-.56,3.94-.83.97.62,1.94,1.25,2.91,1.87,1.39,1.62.8,3.37.31,5.11l-.03.02c-2.7,3.17-4.78,6.9-8.51,9.1-4.92,5.67-7.48,12.44-9.1,19.64-.84,2.64-1.75,5.42-5.22,5.14-2.89-.23-5.21-1.5-5-5.04.07-.29.08-.58.02-.87Z"/>
  <path class="cls-21" d="m125.09,197.18c3.11,2.09,6.38,3.97,8.55,7.18-.34,1.61-.68,3.21-1.02,4.82-3.14,2.44-6.11,2.19-9.15-.32-2.83-2.34-6.15-2.7-9.64-1.8-3.31.45-4.5,3.75-7.02,5.25-1.27,1.19-.62,2.92-1.17,4.29-1.31,3.28-4.79,3.64-8.89,1-1.17-1.67-.9-3.38-.13-5.1l-.02.03c.07-5.48,2.12-9.82,7.16-12.44,5.28-3.82,11.14-5.17,17.57-4.12,1.09.93,2.36,1.3,3.78,1.21Z"/>
  <path class="cls-4" d="m126.13,155.29c-.15-.28-.46-.64-.54-1.05-.09-.5.17-1.02.77-.77.36.15.69.64.79,1.04.13.55-.26.85-1.02.78Z"/>
  <path class="cls-3" d="m190.34,228.15c-.5-5.68,1.9-10.06,6.74-12.67,4.47-2.41,9.32-4.09,14.01-6.1,3.23-.13,6.34.27,9.5,1.13,5.5,1.5,9.23,4.45,10.29,10.25.71.67.98,1.53,1.11,2.45.03,2.69.68,5.49-1.26,7.86h0c-2.67-.49-5.13-2.13-8.12-.9-1.64.68-2.53-1.25-4.29-2.73,1.31,3.37,1.69,6.16,0,8.8-3.74,4.67-5.84,4.89-10.39,1.09-1.2-1.33-1.6-2.95-1.76-4.96-.16,1.89.09,3.63-1.18,4.97l.02-.02c-1.78,1.51-3.88.99-5.88.99.6.92,2.91-.36,2.59,1.88-2.89,1.16-5.62.98-8.17-.91-3.48-3.02-5.4-6.49-3.22-11.15Z"/>
  <path class="cls-2" d="m230.86,222.39c0-.54,0-1.08.01-1.63,2.39-1.62,5.01-2.44,7.92-2.17,4.14-.37,6.15,2.52,6.04,5.66-.11,3.34-3.38,5.8-6.54,4.5-3.44-1.41-4.23,2.29-6.65,2.12-.25-.41-.29-.83-.11-1.28.27-2.01.4-4.01-.1-6.01-.23-.38-.42-.78-.57-1.2Z"/>
  <path class="cls-41" d="m103.59,264.17c-2.89-.58-3.7-3.13-4.64-5.3-.74-1.7-1.56-2.84-3.44-3.03,1.51-1.02,3.41-2.05,2-4.23-3.78-5.87,1.27-8.2,4.35-11.35,2.23-2.28,5.73-2.04,8.1-4.05,4.21-.7,8.47-1.2,12.38-3.1,3.02-.58,6.02-1.69,9.07-.15.73.37,1.32.88,1.66,1.64.31,3.4-2.82,5.21-3.78,8.13-.98,2.97-2.64,5.54.33,8.24,1.1,1-.08,2.71.96,3.8.1.34.2.69.3,1.03-.5,3.89-2.31,6.42-6.6,6.39-.54-2.19,1.2-3.8,1.51-5.8.39-2.46-.13-4.39-2.14-5.87-2.77-2.04-4.77-1.28-5.55,2.09-.23,1.01-.22,2.04-.2,3.06.1,4.35-2.46,6.85-6.33,7.45-2.63.4-5.25,1.3-7.98,1.05Z"/>
  <path class="cls-20" d="m65.64,117.55c4.26,5.74,6.04,5.73,10.22-.1.29,1-.54,2.41,1.46,2.72,2.3.36,4.47,1.55,4.58,4.13.13,3.02-2.66,4.97-4.7,5.53-3.15.85-3.06,1.62-.98,3.25,2.19,1.71,6.5,2.87,4.15,6.21-1.74,2.46-5.74,1.25-8.41-.6-2.32-1.6-3.11-.6-3.22,1.63-.07,1.35.22,2.71.36,4.07.26,2.4-1.75,3.1-3.16,4.26-1.79,1.47-2.81,0-3.86-1.07-1.7-1.72-3.4-2.97-6.05-3.39-2.86-.46-3.45-3.55-3.72-6.07-.28-2.51,1.98-2.84,3.76-3.41.49-.16.96-.39,1.46-.48,2.58-.45,6.24.12,5.83-3.98-.37-3.72-4.18-2.55-6.53-3.31-1.25-.4-2.67-.08-3.91-.94-3.37-2.33-4.74-6.91-2.43-9.83,2.66-3.37,5.74-.79,8.17.42,2.39,1.2,4.19,3.68,6.99.97Z"/>
  <path class="cls-37" d="m131.9,234.03c-3.15-.71-6.32-1.15-9.56-.92.64-1.33,2.2-.69,3.12-1.42-5.63-3.91-11.33-7.73-14.55-14.08-1.04-2.04-5.14-1.69-4.12-5.3.82-3.11,2.58-5.35,5.83-6.16,2.89-1.14,4.58.38,5.75,2.73,2.49,5.01,6.2,7.41,12.05,7.84,6.94.51,9.08,3.6,8.26,9.38-3.85,1.28-7.13,3.06-6.78,7.94Z"/>
  <path class="cls-24" d="m103.74,200.09c-3.45,3.54-5.53,7.86-7.16,12.44-.16-.77.04-2.35-.61-2.15-5.49,1.68-4.07-3.27-4.15-5.06-.13-2.53.46-5.89,4.89-5.29,2.28.31,4.69.95,7.04.07Z"/>
  <path class="cls-40" d="m84.95,97.81c1.88-3.93,5.32-6.4,8.51-9.11.58,1.73-3.26,3.24-.12,5.22,1.91,1.21,2.73,3,.66,5.06-1.89,1.88-3.77,2.99-6.22,1-.92-.75-1.88-1.45-2.82-2.18Z"/>
  <path class="cls-1" d="m93.5,88.68c-.1-1.7-.2-3.41-.31-5.11,2.01,1.59,1.65,3.32.31,5.11Z"/>
  <path class="cls-24" d="m96.6,212.49c.04,1.7.09,3.4.13,5.1-1.84-1.65-1.69-3.36-.13-5.1Z"/>
  <path class="cls-16" d="m131.9,234.03c-2.04-5.3-.32-7.69,5.78-8.06,2.92.65,6,.9,8.31,3.16,9.76.37,13.13-1.64,17.02-10.21,1.71-3.75,4.25-4.12,8.72-1.25,1.67,5.98.42,10.94-5.06,14.42l-.13-.02c-2.66,4.97-7.75,3.89-12.02,4.73-1.43.28-3.01-.46-4.44.38-2.74.38-5.48.77-8.22,1.15-2.65,1.16-4.88-.08-7.13-1.25-.91-.51-1.58-1.24-1.92-2.24-.31-.27-.61-.54-.92-.82Z"/>
  <path class="cls-23" d="m150.09,237.18c3.84-1,7.65-2.21,11.54-2.9,1.93-.34,3.47-1.06,4.92-2.21.86,1.09,2.15.83,3.29,1.12,3.03.78,3.69,3.19,2.58,5.58-2.57,5.57-14.33,6.41-17.51,1.09-1.35-2.25-2.69-2.73-4.82-2.68Z"/>
  <path class="cls-45" d="m132.82,234.85c.65.42,1.31.84,1.96,1.26-1.54,5.48,1.07,10.07,3.2,14.76-1.18,3.74-5.54,1.45-7.39,3.91-.13-.11-.28-.2-.4-.32-7.2-7.62-1.89-13.55,2.63-19.6Z"/>
  <path class="cls-27" d="m166.68,232.09c2.72-4.45,6.52-8.51,5.06-14.42,2.07,1.26.65,3.49,1.41,5.11,3.39-2.75,7.7.16,9.05,6.11-.79,1.13-2.32.13-3.17,1.1-4.28-.26-8,2.77-12.36,2.1Z"/>
  <path class="cls-9" d="m218.33,236.25c.18-2.49.68-4.97-1-7.26-.78-1.06-1.52-2.58.16-3.5,1.72-.94,2.47.41,2.82,1.81.48,1.89,1.44,2.71,3.25,1.6,3.25-2,5.36-.47,7.16,2.17-1.13,4.06-4.04,5.12-7.73,4.17-1.89-.49-3.47-1.06-4.66,1Z"/>
  <path class="cls-13" d="m137.98,250.86c-4.73-5.22-7.05-9.34-3.2-14.76,2.36.74,4.73,1.49,7.09,2.23-3.01,1.23-4.74,2.91-2.81,6.42,1.19,2.18.6,4.31-1.08,6.11Z"/>
  <path class="cls-30" d="m190.34,228.15c-.5,4.17,1.8,7.53,3.22,11.15-2.11,1.94-4.33,1.72-6.45.14-1.89-1.41-2.55-3.38-1.05-5.38,1.31-1.74-1.66-3.48.26-5.04,1.1-1.4,2.6-.95,4.02-.88Z"/>
  <path class="cls-38" d="m205,237.36v-9.56c2.61,3.46,3.01,6.43,2.95,9.55-.98,0-1.96,0-2.95.01Z"/>
  <path class="cls-38" d="m201.73,240.21c-.65-1.26-2.23-.5-3.16-1.47,1.85-2.01,4.22-1.43,6.45-1.4-.27,1.9-1.3,2.94-3.29,2.87Z"/>
  <path class="cls-9" d="m231.71,230.02c-.09.28-.11.57-.07.86-.3.09-.61.16-.93.2.05-2.89.1-5.79.15-8.69.28.14.57.28.86.4.78,2.41.8,4.82-.01,7.23Z"/>
  <path class="cls-30" d="m179.03,229.99c.79-1.13,2.05-.91,3.17-1.1.67.08,1.34.16,2.01.24-1.53,1.5-3.44.68-5.18.86Z"/>
  <path class="cls-45" d="m103.59,264.17c2.37-.79,4.07-2.56,7.32-2.07,2.67.41,6.32-1.87,5.76-6.24-.38-2.95-.24-6.03,2.22-7.82,2.04-1.48,4.21.27,6.02,1.6,3.01,2.21,2.86,4.96,1.86,8.25-.53,1.74-1.37,3.03-2.47,4.3-2.36-.9-4.16-1.88-5.92,1.66-1.67,3.36-5.48,4.26-9.29,2.78-1.72-.67-3.34-1.62-5.27-1.59-.04-.29-.11-.58-.21-.86Z"/>
  <path class="cls-47" d="m146,229.13c-3.17,0-5.95-1.04-8.31-3.16,1.69-6.22-3.25-8.15-7.04-7.88-7.98.56-11.35-4.23-14.33-9.92-.95-1.82-2.19-1.85-3.69-2.02,4.17-2.01,8.23-1.34,11.52,1.53,2.74,2.4,5.34,2.74,8.47,1.5-.78.83-1.56,1.66-2.38,2.53,7.7,4.36,14.22,10.1,20.78,15.97-1.32,1.02-3.82-.64-5.02,1.46Z"/>
  <path class="cls-26" d="m163.46,192.83c4.16-7.22,10.85-8.36,17.63-3.02-2.84.43-4.26,3.07-6.67,4.31-3.41,1.76-6.21,3.08-8.68-1.07-.61-1.02-1.5-.33-2.28-.22Z"/>
  <path class="cls-28" d="m231.71,230.02c0-2.41,0-4.82.01-7.23,1.63,2.41,1.64,4.82-.01,7.23Z"/>
  <path class="cls-19" d="m64.48,131.6c.03-4.25,2.31-5.69,5.3-5.64,2.82.05,4.23,2.1,4.06,4.9-.18,2.9-1.7,5.12-4.73,5.02-2.82-.09-4.81-1.73-4.63-4.28Z"/>
</svg>