<?xml version="1.0" encoding="UTF-8"?>
<svg id="Capa_1" data-name="Capa 1" xmlns="http://www.w3.org/2000/svg" viewBox="0 0 349.04 351.08">
  <defs>
    <style>
      .cls-1 {
        fill: #272486;
      }

      .cls-1, .cls-2, .cls-3, .cls-4, .cls-5, .cls-6, .cls-7, .cls-8, .cls-9, .cls-10, .cls-11, .cls-12, .cls-13, .cls-14, .cls-15, .cls-16, .cls-17, .cls-18, .cls-19, .cls-20 {
        stroke-width: 0px;
      }

      .cls-2 {
        fill: #94b7fa;
      }

      .cls-3 {
        fill: #d5e1fb;
      }

      .cls-4 {
        fill: #9fbffc;
      }

      .cls-5 {
        fill: #e9eaea;
      }

      .cls-6 {
        fill: #231f81;
      }

      .cls-7 {
        fill: #cfdcf1;
      }

      .cls-8 {
        fill: #c3d2ea;
      }

      .cls-9 {
        fill: #96b9fa;
      }

      .cls-10 {
        fill: #ccd9f8;
      }

      .cls-11 {
        fill: #d5e0fa;
      }

      .cls-12 {
        fill: #d6e2fa;
      }

      .cls-13 {
        fill: #251f83;
      }

      .cls-14 {
        fill: #f6f6fb;
      }

      .cls-15 {
        fill: #8db2f8;
      }

      .cls-16 {
        fill: #2b268e;
      }

      .cls-17 {
        fill: #95b8fa;
      }

      .cls-18 {
        fill: #ecf1fd;
      }

      .cls-19 {
        fill: #eaebeb;
      }

      .cls-20 {
        fill: #a3c1fb;
      }
    </style>
  </defs>
  <path class="cls-11" d="m346.76,161.5c.37,0,.75,0,1.12.01h-.01c-.01,6.77-.02,13.55-.03,20.33-2.15,4.69-.57,9.82-1.69,14.64-.54,2.33-.64,4.74-1.1,7.09-3.63,4.27-8.81,6.03-13.69,8.22-1.78.8-3.83.48-4.99-1.41-1.41-2.3.05-4.05,1.7-5.31,3.11-2.4,6.6-4.28,9.23-7.32,3.02-3.48,2.77-5.61-1.63-6-6.91-.62-9.02-4.16-8.54-10.41.12-1.53-.39-3.13-1.64-4.05-4.82-3.57-3.15-7.19-.52-11.16,1.31-1.97,3.94-4.14.97-6.84-.55-.5-1.3-.72-2.45-.22.97,2.33,1.54,4.81.18,7.27-1.42,2.58-3.11,3.45-5.93,1.76-5.56-3.33-7.76-2.71-11.75,2.91.92,1.31,2,.43,2.98.15,2.41-.69,5.02-1.46,6.61,1.11,1.38,2.23,2.16,4.97.77,7.5-1.4,2.55-4.05,2.35-6.52,2.08-1.12-.12-2.22-.36-3.33-.59-3.34-1.36-5.96-3.87-9.05-5.63-1.76-1-2.63-2.6-2.89-4.58-2.59-19.95-21.09-35.11-41.55-34.5-1.32.04-2.64.05-3.74-.87-1.66-2.14-.6-5.09-2.16-7.27-1.6-4.62-2.81-9.37-4.62-13.93-4.21-11.42-12.39-19.58-22.1-26.34-23-16-54.42-14.92-76.34,2.49-4.78,3.79-8.26,8.73-11.5,13.79-2.01,3.12-4.21,4.47-7.94,3.25-15.89-5.17-29.95-1.09-42.81,8.74-1.47,1.13-2.8,2.57-4.87,2.6-4.74-4.66-8.78-10.02-16.46-10.69-2.75-.24-4.79-7.94-3.86-11.02.85-2.82,2.97-3.67,5.66-3.64,6.75.08,11.87-4.03,17.4-6.96,2.22-1.17,3.82-10.29,2.74-12.62-.43-.93-1.27-1.92-2.09-1.25-3.03,2.47-7.3,2.03-10.22,4.48-2.42,2.03-5.1,3.53-4.22,8.03.89,4.54-1.72,6.84-6.72,6.96-6.62.16-11.68,3.88-17.07,6.81-2.41,1.31-1.91,3.89-.98,6.08,3.13,7.42,1.52,14.23-2.36,20.88-1.8,3.08-3.77,6.06-5.35,9.28-2,4.06-5.54,5.55-9.89,4.71-3.71-.72-6.1-3.42-4.77-6.89,1.71-4.44.07-6.56-2.92-9.53-2.96-2.94-4.79-7.16-3.45-11.82,1.84-8.05,6.16-15.05,10.09-22.09,16.07-28.78,38.37-51.54,67.1-67.91C112.24,8.87,136.51,1.4,162.62,0c6.39,4.75,12.79.85,19.19,0,15.77.22,30.81,3.82,45.91,8.3,19.87,5.9,36.94,16.8,52.91,29.02,12.35,9.45,23.39,20.85,32.53,33.95,10.34,14.82,18.05,30.75,25.04,47.33,4.01,9.53,4.95,19.45,7.03,29.2.34,1.61,5.06,2.21,1.44,4.67-.76,3.01-.9,6.02.1,9.01Z"/>
  <path class="cls-3" d="m307.15,180.83c1.17-1.34,2.44.03,3.68-.11,1.8-.21,4.38.49,4.77-1.81.35-2.04-.12-4.64-1.22-6.37-1.07-1.69-3.41-1.11-5.07,0-2.04,1.37-4.37,2.44-5.85-.06-1.42-2.39,1.43-3.56,2.78-4.82,4.89-4.54,7.6-4.63,12.25-.61.96.83,1.94,1.59,2.82.53,1.55-1.86,2.86-4.08,1.6-6.58-.55-1.08-1.83-1.79-3.13-3,3.11-1.46,6.02-2.07,8.23.48,2.13,2.46,1.3,4.81-1.1,7.19-1.15,1.13-1.69,3.2-2.93,4.63-1.38,1.58-1.15,3.42.66,4.26,4.38,2.02,4.32,5.73,4.02,9.54-.32,4.06,1.22,6.06,5.46,5.65,1.3-.13,2.53.17,3.78.79,5.34,2.64,5.49,3.07,1.3,7.28-2.88,2.89-5.5,6.03-9.55,7.6-1.4.54-3.68,2.04-2.53,4.32,1.18,2.32,3.2,1.06,4.95.46,4.35-1.5,7.43-5.69,12.43-5.79,1.07.89.07,2.43,1.06,3.34-.88,4.29-1.62,8.62-2.67,12.86-6.45,25.99-17.9,49.58-34.99,70.19-7.65,9.23-16.93,16.98-25.73,25.16-8.05,7.48-17.61,12.87-26.96,17.38-14.72,7.11-30.11,13.28-46.81,15.86-17,2.63-33.79,1.87-50.75,1.41-11.84-.32-23.17-2.51-34.04-6.83-1.16-.46-4.61,3.09-3.93-1.55-1.65-2.1-.81-3.95.78-5.49,1.48-1.44,3.34-.9,4.66.18,3.95,3.21,6.7,2.54,8.67-2.13.67-1.6,2.96-1.68,3.6-3.44-3.95,1.17-12.79-1.4-15.23-4.42-.2-.25-.35-.4-.34-.44.34-5.27-1.07-8.7-7.4-8.67-1.54,0-.81-2.86-.28-4.48.45-1.39,1.54-3,.26-4.22-1.46-1.39-3.39-.47-4.72.39-5.05,3.27-9.67,1.77-14.32-.81-2.28-1.26-3.2-3.22-2.83-5.65.59-3.86,3.92-6.77,3.34-11.29-.25-1.97,5.5-2.34,7.02.37,2.27,4.05,5.08,4.97,9.19,3.78.87-.25,1.82.23,2.71.58,1.73.68,2.3,4.23,4.17,3,2.93-1.92,7.2-2.41,8.65-5.95,1.77-4.32,5.01-6.38,9.04-7.79,1.79-.63,3.98-1.25,3.31-3.72-.65-2.42-2.77-2.19-4.67-1.55-1.84.62-3.69.51-5.58.48-2.94-.03-5.88-.04-6.57-3.77-.66-3.59-.3-6.84,3.87-8.25,6.19-.38,12.27,1.51,18.52.71,3.18-.4,6.33-.65,9.31-1.9,4.17-2.14,8.7-3.58,12.52-6.41,2.38-1.77,4.85-1.73,7.35-.13,2.06,1.32,4.32,2.27,6.53,3.32,9.77,4.36,19.76,7.16,30.55,4.47,1.6-.45,3.21-.85,4.78-1.39,5.39-2.45,11.23-3.99,15.96-7.78,7.12-9.12,15.25-9.27,26.34-6.41,26.7,6.86,55.67-17.36,55.88-45,.02-2.63-.03-5.25.01-7.87-.11-3.48,1-6.49,3.95-8.61-2.11-2.17-4.37-.48-6.17-1.41-2.77-2.69-6.11-5.07-5.41-9.7Z"/>
  <path class="cls-12" d="m126.46,269.95c-3.03,2.4-3.48,6.31-1.47,8.43,2.19,2.31,6.57,2.18,9.57.66,3.61-1.83,6.26-.8,7.33,2.2,1.18,3.32-.83,5.05-4.62,5.95-3.18.75-7.34,1.6-7.83,6.66-.2,2.06-2.36,3.85-4.79,4.24-1.57.25-2.84.68-3.73,2.12-2.08,3.37-3.82,3.31-5.1-.61-.81-2.48-2.88-3.17-4.96-2.34-4.02,1.61-6.94,1.84-8.14-3.39-.56-2.45-2.87-2.73-5.07-2.32-1.38.26-2.16,1.72-1.15,2.4,3.89,2.6.5,3.63-.87,5.14-3.23,3.58-2.78,6.51,1.41,8.8,3.65,1.99,7.17,3.74,11.3.61,2.13-1.61,5.56-2.92,7.6-1.11,1.97,1.76.5,4.87-.83,7.17-.49.84-1.09,1.62-.48,2.55.86,1.29,2.03.72,2.97.15,2.22-1.35,4.01-.37,5.58,1.06,1.64,1.5.77,3.02-.34,4.47-1.36,1.77-.86,3.18,1.1,4.02,3.24,1.4,6.56,2.62,9.78,4.07,1.38.62,1.62-.03,1.78-1.08.19-1.24.58-2.26,2.14-1.64,1.05.42,2.08.95,2.23,2.27.15,1.22-.14,2.42-1.35,2.79-2.75.85-3.74,2.83-4.95,5.33-1.47,3.05-4.32,3.71-7.38,1-4.57-4.06-5.39-3.64-6.54,2.72-6.2-.14-11.35-3.32-16.91-5.51-8.9-3.49-15.92-10.15-24.67-13.78-.19-.08-.16-.7-.24-1.06.5-.71,1.27-1.09,2.17-1.48-1.29-.4-2.24.39-3.29.38-9.48-5.47-17.51-12.5-24.93-20.63-7.4-8.1-14.95-16.06-21.22-25.04-5.37-7.7-9.93-15.94-14.05-24.43-7.52-15.48-11.58-31.9-14.51-48.74-2.49-14.33-2.44-28.58-1.15-43.04,1.38-15.44,5.37-30.14,10.19-44.72.28-.85.85-1.61,1.29-2.4,2,4.7,1.34,10.8,7.69,13.19,2,.75,2.44,3.22,1.12,5.37-1.98,3.26-2.88,6.77,1.58,8.26,4.01,1.34,7.99.23,9.73-4.32,1.45-3.77,4.1-6.84,5.81-10.35,2.75-5.62,4.92-11.69,1.46-18-2.26-4.12-.69-6.89,3.18-9.07,3.55-1.99,7.07-3.89,10.88-5.28,1.39-.51,2.61-1.47,4.27-.96,2.53.77,5.23.63,6.01-2.2.76-2.77,2.3-6.41-2.89-7.56,6.48-3.62,12.47-7,18.5-10.3,2.23-1.22,3.27-.13,4.12,2.06,2.47,6.38-1.71,16.69-8.22,18.48-2.81.77-5.34,1.33-7.29,3.6-1.33,1.55-2.93.89-4.66.53-5.27-1.09-7.02.91-5.65,6.12,1.11,4.22,2.52,7.62,8.22,7.23,3.47-.23,7.57.41,7.61,5.88.01,1.35,1.88,2.69,2.9,4.03-.24,1.43-1.14,2.27-2.44,2.77-3.65-.13-.27,2.99-1.76,3.87-5.51,11.32-9.4,22.95-7.21,35.81.54,3.19-1.27,4.84-3.81,6.13-5.89,3.01-11.27,6.64-15.58,11.81-16.97,20.37-13.69,49.14,7.5,65.19,2.54,1.93,5.36,3.48,7.71,5.65,1.74,4.92,3.19,10.03,9.95,10.17,3.67.08,7.05-.33,9.86-2.99,4.01-3.8,6.39-3.77,10.29.22,2.48,2.54,4.43,5.54,6.99,8.03,5.62,5.48,7.06,5.67,13.39,1.24,1.08-.76,2.1-1.57,3.51-1.61,4.04,1.1,8.19,1.95,11.3,5.1Z"/>
  <path class="cls-10" d="m181.8,0c-6.66,5.44-15.25,5.44-19.19,0,6.4,0,12.79,0,19.19,0Z"/>
  <path class="cls-7" d="m345.54,207.75c-1.27-.82-1-2.13-1.06-3.34.15-6.65,1.79-13.21,1.17-19.92-.14-1.51.61-2.47,2.18-2.66.01,3.76.02,7.52.04,11.28h0c-1.75,4.72-1.61,9.75-2.34,14.64Z"/>
  <path class="cls-3" d="m76.73,320.79c.6-.65,1.09-1.61,1.83-1.88,1.47-.53,3.75-1.22,4.25.61.58,2.13-1.68,2.25-3.32,2.34-.54.03-1.09.02-1.63.02-.37-.37-.75-.73-1.12-1.1Z"/>
  <path class="cls-8" d="m346.76,161.5c-1.78-2.99-1.69-5.99-.1-9.01.03,3,.06,6.01.1,9.01Z"/>
  <path class="cls-19" d="m347.88,161.51v-5.46c1.21,1.88,1.71,3.73-.01,5.45,0,0,.01,0,.01,0Z"/>
  <path class="cls-5" d="m347.87,193.12c1.54,1.28,1.33,2.81.68,4.67-1.2-1.58-.45-3.2-.67-4.68,0,0,0,0,0,0Z"/>
  <path class="cls-9" d="m60.94,250.73c-18.4-9.8-28.28-24.82-27.09-45.96.88-15.61,8.53-27.6,21.69-36.04,1.73-1.11,3.47-2.33,5.38-3.02,3.14-1.14,3.18-2.83,2.79-5.98-1.61-12.82,1.22-24.79,8.52-35.58.87-1.02.49-2.91,2.27-3.31.75-.77,1.5-1.54,2.25-2.31,10.48-9.14,22.26-14.95,36.56-14.68,4.41.08,8.51,1.29,12.57,2.68,2.17.74,3.38.56,4.56-1.53,9.43-16.65,24.12-25.73,42.65-28.81,31.25-5.2,61.33,13.48,70.84,37.88-3.04,4.32-4.66,9.86-10.31,11.96-.93.35-1.42,1.26-1.6,2.2-.78,3.96-3.69,4.87-7.11,5.02-4.67.2-9.32.13-14,.91-4.09.69-5.58-1.91-4.06-5.93,1.05-2.79-1.14-5.95-4.13-5.9-.94.02-1.97.17-2.52,1.01-.68,1.04.26,1.72.88,2.35,2.83,2.87,2.32,5.31-.94,7.34-3.42,2.13-4.56,5.31-4.48,9.13.07,3.26-.92,5.9-4.18,7.28-1.93.82-2.76,2.39-2.91,4.45-.19,2.64-1.01,5.16-1.58,7.72-2.28,10.2-9.11,13.28-18.06,8.19-.98-.56-2.02-1.01-3.16-1.15-2.76-.59-5.6-.61-8.39-.91-4.15-.44-7.07-2.22-8.65-6.1-.28-.7-.58-1.41-1.13-1.93-.72-.69-1.6-.95-2.58-.62-.38.13-.71.38-.78.75-.24,1.23.69,1.65,1.57,1.89,2.68.75,4.55,2.55,6.2,4.63.91,1.15.64,2.05-.8,2.51-.56.05-1.13.02-1.67-.13-9.59-2.7-14.98.95-15.86,10.88-.43,4.86-.17,9.7,1.3,14.44,2.45,7.87,7.27,10.16,14.98,7.01.87-.36,1.73-.69,2.7-.58,2.74,2.96,4.01,7.17,8.31,8.91,1.5.6.39,2.19-1.01,2.8-3.15.09-5.03,2.72-7.67,3.85-1.62-.16-1.6-2.06-2.68-2.62-2.34-1.21-5.15-2.59-6.78.68-3.88,7.81-8.23,15.53-5.59,24.94.91,3.25-5.77,11.65-9.14,12.27-3.35.61-8.22-3.63-9.67-8.08-1.23-3.78.4-7.76-1.27-11.57-.75-1.73,2.3-1.48,2.87-2.9.01-.39-.21-.88-.54-.82-6.42,1.22-12.88,1.33-19.4,1.27-5.28-.05-7.27,4.38-8.92,8.24-1.48,3.46,5.03,8.33,9.03,6.63,4.23-1.8,7.52-1.28,10.64,2.05,3.77,4.03,3.83,5.97-.25,9.79-1.21,1.13-2.11,2.69-3.92,3.08-7.1-7.63-15.98-5.01-24.41-3.93-3.99.51-7.82.52-11.75-.05-3.63-.52-6.91-1.69-9.58-4.29Z"/>
  <path class="cls-17" d="m107.22,258.74c.02-1.65.89-2.83,2.13-3.78,1.83-1.4,5.17-2.51,2.6-5.44-2.38-2.71-4.29-7.15-9.52-4.88-1.98.86-4.02,3.34-6.09,2-2.78-1.8-4.97-4.53-7.31-6.96-.42-.44-.62-1.4-.48-2.01,1.27-5.43,9.8-11.64,15.2-10.32,4.49,1.09,8.46.61,12.61-.88,2.32-.83,5.39-1.6,6.25,1.47,1,3.61-2.9,2.7-4.99,3.83,2.09,1.14,3.83,1.85,2.17,5-2.28,4.33,1.51,11.47,6.23,13.14.67.24,1.47.5,2.12.35,2.73-.61,7.79-9.84,7.43-12.72-.82-6.56-1.39-13.14,3.77-18.54.62-.65,1.28-1.64,1.27-2.46-.03-6.24,3.2-6.11,8.32-5.62,4.27.41,1.83,3.66,3.46,4.81,2.62,3.13,5.63,5.96,7.41,9.73.22,1.07.36,2.16.56,3.23.3,1.7.66,3.02,2.99,3.08,2.82.07.52-2.68,2.05-3.14,3.39-.74,6.61.68,9.93.79,6.15.2,11.79-1.26,16.65-5.22,1.57-1.28,2.88-2.95,5.02-3.41,2.11-.05,2.25,1.44,2.43,3,.15,1.31.99,2.05,2.32,1.75,1.46-.33,1.36-1.6,1.21-2.71-.22-1.66-.72-3.27-1.01-4.93-1.08-6.26-.09-7.91,5.96-9.86,1.07-.34,2.17-.55,3.24-.87,5.24-1.53,5.61-2.53,2.55-6.77,1.67-6.77,4.44-13.31,3.01-20.63-.72-3.7-1.74-7.18-3.57-10.43.04-1.15-.31-1.91-1.36-2.74-4.13-3.27-3.89-5.74.58-8.32.64-.37,1.41-.51,2.05-.9,1.34-.82,2.45-1.83,2.13-3.59-.14-.78-.87-1.28-1.63-1.34-2.33-.17-1.9,1.88-2.32,3.14-.56,1.7-1.29,3.1-3.28,3.4-.94.14-2.12.45-2.29,1.38-.88,4.91-4.72,5.52-8.62,6.63-4.19,1.2-.19,4.39-1.03,6.52-.52,2.97.14,6.27-2.38,8.69-.51.2-1.04.25-1.58.19-2.05-.48-2.01-3.01-3.96-3.96-1.68,1.81,1.04,4.4-.99,6.03-4.93-.87-9.62-2.14-12.71-6.63-1.82-2.64-4.79-4.1-7.04-6.31-1.25-1.23-3.32-2-2.73-4.39,1.39.53,2.92.84,4.14,1.62,7.17,4.57,13.52,1.79,15.14-6.78.62-3.25,2.43-6.25,1.74-9.8-.31-1.58.82-3.08,2.39-3.4,4.64-.94,5.18-4.04,4.87-7.99-.33-4.15,1.47-7.24,5.3-9.08,3.18-1.53,3.29-3.19.33-5.27-1.41-.99-4.81-2.55-1.94-4.14,1.96-1.09,5.46-4.42,8.27-.73.9,1.18,1.45,2.28,2.95,2.99,2.54,1.21,2.11,2.89-.24,3.96-1.3.59-2.55,1.02-1.97,2.74.48,1.41,1.84,2.35,3.09,1.84,5.72-2.31,11.8-.41,17.57-1.73.53-.12,1.55-.07,1.56-.16.41-5.45,6.51-6.16,8.35-9.83,1.62-3.24,3.97-5.14,6.36-7.34,1.51,4.53,3.02,9.06,4.54,13.6,1.03,1.53.37,3.26.54,4.89.24,2.29-.27,3.19-3.08,2.87-6.12-.71-10.68,4.76-9.3,10.56.39,1.64,1.71,1.82,2.96,2.07,4.48.88,8.94-2.62,9.43-7.32.19-1.78-.99-3.72.62-5.33,21.48-2.75,43.44,12.86,46.21,35.35.24,1.94,1.07,2.94,2.6,3.92,2.98,1.92,5.8,4.09,8.69,6.16,1.17,3.42,3.84,5.9,5.62,8.94,3.82,2.51,2.21,6.84,3.44,10.22,1.84,23.28-7.88,40.52-28.29,51.15-12.23,6.37-25.54,7.26-38.47,1.49-4.13-1.84-6.31-.95-9.02,2.08-2.17,2.43-4.06,5.51-7.7,6.24-1.9.57-2.58-1.11-3.65-2.02-1.01-.86-2.24-2.27-3.33-1.8-5.09,2.17-10.88-1.28-15.89,2.5-3.6,2.71-13.29-.7-17.62-5.59-1.99-2.25-3.62-4.76-5-7.45-2.69-5.25-10.83-7.53-15.94-4.56-1.16.67-2.75,1.64-2.36,2.86,1.13,3.47,2.95,6.65,2.28,10.61-.18,1.06,1.84.71,2.86.38,2.51-.8,5.16-.97,7.68-1.71,1.35-.39,3.61.04,3.19,1.02-1.48,3.42-.07,8.12-4.35,10.3-6.36-3.89-12.51-4.96-18.65.69-1.53,1.41-4.01,1.8-6.05,2.65-1.65,1.09-3.69.13-5.43,1.14-1.32.77-3.02,1.04-4.05-.5-1.16-1.71-1.28-4.15.28-5.2,5.49-3.67,5.29-10.64,9.31-15.16,2.09-2.35,1.89-5.29-1.37-7.12-.66-.37-1.91-.73-2.04-.12-1.36,6.63-9.74-.03-11.31,6.05-.75,2.92-1.91,5.71-3.23,8.41-1.43,2.93-3.81,5.12-7.08,4.67-6.42-.88-12.19.91-17.94,3.25-3.22-.49-5.72-1.73-5.81-5.51Z"/>
  <path class="cls-9" d="m249.65,135.39c1.64,4.57,1.49,8.75-2.52,12.19-3.21,2.76-6.74,2.52-10.46,1.44-2.25-.65-3.38-1.71-1.7-3.95.84-1.12.94-2.36,1.1-3.67.87-7.19,4.93-9.55,12.4-6.96,0-2.34,0-4.56,0-6.77,2.09,2.32.61,5.18,1.18,7.73Z"/>
  <path class="cls-9" d="m180.6,265.47c2.57-2.97-.4-7.84,3.81-10.49-3.87,2.03-8.27.73-11.79,3.08-.98.66-2.19.69-3-.45-.76-1.07-1.68-2.32-.57-3.56,2.23-2.48,1.33-4.45-.85-6.19-3.19-2.54-1.51-4.42.74-6.24,6-4.87,16.32-2.48,19.63,4.55,2.94,6.24,7.47,10.53,14.25,12.46,3.51,1,6.43,1.2,8.9-2.14,1.11-1.51,2.76-3.71,4.38-.01.69,1.6,2.33.83,3.46.23,5.88-3.14,9.93-.77,13.16,4.23-4.37,4.49-10.34,5.74-15.88,7.86-4.79,1.34-8.29-3.01-12.84-2.95,2.43,2.22,5.98,2,8.4,4.11-11.35,3.77-21.74.77-31.81-4.49Z"/>
  <path class="cls-9" d="m112.86,263.16c5.46-2.77,10.89-4.49,17.37-3.59,7.89,1.1,7.23-6.76,9.48-11.16,1.54-3.03-.5-9.36,6.69-4.11,2.34,1.71,5.33-1.4,4.24-5.36,10.16,3.34,10.88,5.58,4.51,13.59-1.1,1.38-1.35,3.02-1.75,4.68-.65,2.7-1.26,5.51-4.48,6.63-2.23.77-2.55,2.73-1.86,4.65.77,2.15,2.39.88,3.79.66,1.66-.26,3.36-.23,5.04-.33-7.94,3.63-16.21,2.76-24.49,1.8-1.65-.19-3.3-.45-4.94-.67-3.98-1.01-7.76-2.5-11.33-4.53-.8-.71-2.79-.22-2.27-2.25Z"/>
  <path class="cls-17" d="m212.41,269.96c-4.21.25-7.75-2.02-12.31-2.85,3.25-3.22,6.46-5.16,9.31-1.32,2.14,2.88,5.6.58,7.43,3.01-1.37.81-2.81,1.34-4.43,1.16Z"/>
  <path class="cls-11" d="m316.21,199.98c-1.15-3.41-2.29-6.81-3.44-10.22,2.93.03,6.33-2.37,8.63,1.94-2.79,2.01-6.14,3.88-5.19,8.28Z"/>
  <path class="cls-3" d="m112.86,263.16c.76.75,1.52,1.5,2.27,2.25-1.42,1.21-2.74,2.55-4.27,3.59-3.97,2.7-7.87,3.36-11.48-.73-3.33-3.77-6.6-7.62-10.14-11.18-2.24-2.25-4.09-3.3-6.9.55-3.52,4.82-9.34,4.38-14.83,3.03-5.33-1.31-6.72-5.09-6.57-9.95,11.36,4.35,22.84,4.96,34.33.71,2.62-.97,4.15-.27,5.86,1.55,1.9,2.04,4.05,3.84,6.09,5.74,1.47,1.99,2.79,4.19,5.64,4.43Z"/>
  <path class="cls-3" d="m113.58,334.83c-.12,2.11-1.82,1.42-2.88,1.86-1.95.81-3.34.03-4.01-1.68-.73-1.87,1.08-2.34,2.17-2.26,1.73.12,3.72.24,4.71,2.08Z"/>
  <path class="cls-3" d="m106.46,289.61c-1.62-.49-3.29-1.03-3.55-3.06-.16-1.22.37-2.47,1.72-2.35,1.71.15,3.32.96,3.6,2.98.17,1.23-.34,2.19-1.76,2.43Z"/>
  <path class="cls-3" d="m120.61,287.48c-.19,1.09-.91,1.53-1.95,1.55-1.01.02-2-.24-1.87-1.42.11-.94.94-1.56,1.97-1.66,1.12-.11,1.71.45,1.85,1.53Z"/>
  <path class="cls-11" d="m74.5,120.84c-.76,1.1-1.51,2.21-2.27,3.31.73-1.89-3.59-1.5-1.77-3.69,1.28-1.54,2.71-.08,4.04.39Z"/>
  <path class="cls-2" d="m166,167.14c7.39,5.83,13.02,14.02,22.59,16.94,3.09.04,3.89,1.86,3.67,5.56.75-3.19-1.54-5.84.85-7.82.41,0,.81.02,1.22.02,1.25,1.1,1.28,2.63,1.37,4.1.42,6.67,2.38,12.73,6.89,17.8-.41,3.54-3.71,3.69-5.85,3.96-7.56.98-13.84,3.83-17.54,9.33.84-.68,2.39-.4,3.85,1.12.16.58.01,1.06-.43,1.46-1.75,1.03-3.82.95-5.68,1.63-3.94.97-7.44-.27-10.81-2.14-3.12-1.92-5.95-4.11-7.2-7.78.8-.36,2.68-1.56,1.07-1.59-6.22-.13-5.87-5.19-7.62-8.73-.57-4.72,1.79-8.98,2.11-13.66.46-6.78-2.77-12.62-3.28-19.05-1.25-3.8-1.27-3.75-6.16-5.38-1.38-.46-3.8.29-3.64-2.37.1-1.62,1.35-2.69,2.78-3.2,1.58-.56,4.18-.97,4.5.68,2.01,10.51,10.56,7.99,17.31,9.11Z"/>
  <path class="cls-6" d="m151.22,168.3c6.33,10.69,6.8,21.59,1.17,32.7-8.16,6.12-15.94,3.55-18.94-6.25-1.85-6.03-2.26-12.12-.84-18.31,2.42-10.58,9.19-13.56,18.62-8.14Z"/>
  <path class="cls-1" d="m158.93,211.33c2.35,2.21,4.71,4.43,7.06,6.64.05.18.14.35.16.54.17,2-3.98,3.64-.88,5.67,2.54,1.67,4.73.94,5.43-2.6.25-1.28,1.94-.79,2.97-.73,2.46.15,4.8-.53,7.2-.77.71-.25,1.47-.39,1.97-1.03l.03-.02c1.52-2.92,4.3-4.6,6.7-6.61,2.91-2.42,6.25-3.08,8.91.11,2.47,2.97,2.25,6.17-1.11,8.68-9,10.21-20.06,11.82-32.48,7.8-2.64.29-4.15-1.35-5.52-3.23-2.72-3.08-6.46-5.47-6.96-10.08,1.53-2.41,3.02-4.89,6.51-4.38Z"/>
  <path class="cls-14" d="m94.66,135.39c-2.85,2.07-4.67,4.86-5.51,8.22-.9,3.65-3.24,5.15-6.67,4.11-3.63-1.11-4.19-4.31-3.21-7.39,2.67-8.44,8.29-14.65,15.87-19,4.72-2.71,9.63-5.34,15.37-2.67,2.97,1.75,3.21,3.98,1.14,6.6-2.6,1.14-5.21,2.28-7.81,3.42-2.84,2.53-5.51,5.29-9.17,6.71Z"/>
  <path class="cls-4" d="m94.66,135.39c2.41-3.12,5.09-5.87,9.17-6.71,4.69,2.23,6.62,7.5,3.79,10.41-2.66,2.74-5.43,2.95-8.33.32-1.51-1.37-3.08-2.68-4.63-4.01Z"/>
  <path class="cls-20" d="m111.64,125.25c.3-2.32.45-4.61-1.14-6.6,2.76-.13,5.15,2.55,8.08,1.06,2,2.1,3.98,4.23,6.68,5.48-4.53,3.09-9.07,3.08-13.62.07Z"/>
  <path class="cls-18" d="m125.26,125.19c-4.43.86-6.09-1.65-6.68-5.48,2.52-2.07,4.97-5.46,8.21-1.1,1.9,2.56-.6,4.47-1.53,6.58Z"/>
  <path class="cls-13" d="m202.22,204.29c-7.94-5.61-7.73-14.09-7.88-22.44.76-3,1.52-6.01,2.28-9.01,2.79-8.6,10.17-10.6,16.95-4.59,6.86,8.7,5.87,18.25,2.96,27.97-.48,1.59-1.37,3.06-2.07,4.58-3.05,5.29-6.52,6.29-12.23,3.5Z"/>
  <path class="cls-15" d="m202.22,204.29c4.68.93,8.88.2,12.23-3.49.47,2.29,3.38-2.12,3.54,1.32.12,2.57-.86,4.54-3.13,5.45-2.56,1.03-5.3,1.65-8,2.3-3.6.87-5.07,2.71-3.7,6.48.69,1.9.87,3.99,1.21,6.01.3,1.77,1.19,3.63-.98,5.02-1.68,1.07-2.79-.27-4.15-.66-3.12-.9-1.06-2.72-.88-4.27.04-.36-.63-.81-.97-1.21,1.62-3.06,3.15-6.18-.73-8.7-3.59-2.33-5.82.04-7.9,2.59-1.56,1.91-3.46,3.29-5.87,3.93-1.51-1.98-3.93-.39-5.11-1.09,4.05-11.78,16.06-9.31,24.44-13.65Z"/>
  <path class="cls-9" d="m213.56,168.24c-8.32-3.94-11.05-3.21-16.95,4.59-1.52-1.7-.63-4.57-3.5-5.67,2.53-1.63,4.85-1.28,6.9-1.91,2.38-.73,5.94-.35,4.88-4.97-.35-1.54,1.58-3.39,3.35-2.87,3.26.97,2.32-1.7,3.31-2.86,1.1-1.29-1.17-4.66,2.13-3.96,1.72.37,4.85-.22,5.07,2.38.2,2.31-1.04,4.71-3.33,6.03-.59.34-1.46.2-2.2.28-2.01.23-2.84,1.95-3.37,3.39-.76,2.07,1.81,1.87,2.6,2.92.54.71,4.47.31,1.11,2.65Z"/>
  <path class="cls-9" d="m193.11,181.82v9.11c-1.4-3.45-2.61-5.44-4.52-6.86-.02-.18-.07-.37-.05-.55.27-2.38-4.52-5.3.02-6.97,4.52-1.67,2.81,3.64,4.56,5.27Z"/>
  <path class="cls-9" d="m159.38,225.78c1.84,1.08,3.68,2.16,5.52,3.23-.06,1.03,2.4,1.41.53,3.08-1.44,1.28-3.02,1.31-4.58,1.43-1.48.11-1.77-1.34-1.56-2.42.35-1.79-1.26-3.59.09-5.32Z"/>
  <path class="cls-9" d="m227.99,159.8c-.54,1.96-2.16,2.58-3.82,2.62-1.7.04-2.75-1.1-2.6-2.89.13-1.5,1.17-2.45,2.61-2.36,1.67.11,3.29.67,3.82,2.63Z"/>
  <path class="cls-9" d="m168.92,232.1c1.73-.73,2.87-.83,4.03-.03-1.16.85-2.31.7-4.03.03Z"/>
  <path class="cls-16" d="m181.82,220.22c-1.44,1.73-3.44.94-5.21,1.16-1.83.22-4-1-4.86,2.3-.33,1.25-1.82,4.48-4.84,3.07-1.78-.83-4.49-1.02-4.87-3.19-.47-2.71,2.3-3.92,3.96-5.57,3.66,1.27,7.21,3.06,11.29,2.3,1.5-.94,3.01-.83,4.53-.06Z"/>
  <path class="cls-15" d="m181.82,220.22c-1.51.02-3.02.04-4.53.06,1.52-1.95,3.7-.9,5.57-1.23-.35.39-.69.78-1.04,1.17Z"/>
</svg>