<?xml version="1.0" encoding="UTF-8"?>
<svg id="Capa_1" data-name="Capa 1" xmlns="http://www.w3.org/2000/svg" viewBox="0 0 378.4 381.02">
  <defs>
    <style>
      .cls-1 {
        fill: #f1f1fb;
      }

      .cls-1, .cls-2, .cls-3, .cls-4, .cls-5, .cls-6, .cls-7, .cls-8, .cls-9, .cls-10, .cls-11, .cls-12, .cls-13, .cls-14, .cls-15, .cls-16, .cls-17, .cls-18, .cls-19, .cls-20, .cls-21, .cls-22, .cls-23, .cls-24, .cls-25, .cls-26, .cls-27, .cls-28, .cls-29, .cls-30 {
        stroke-width: 0px;
      }

      .cls-2 {
        fill: #97bafa;
      }

      .cls-3 {
        fill: #95b8fb;
      }

      .cls-4 {
        fill: #ccd9f4;
      }

      .cls-5 {
        fill: #d6e1fa;
      }

      .cls-6 {
        fill: #d5e1fb;
      }

      .cls-7 {
        fill: #9cbdfb;
      }

      .cls-8 {
        fill: #262185;
      }

      .cls-9 {
        fill: #a0c0fb;
      }

      .cls-10 {
        fill: #93b8fb;
      }

      .cls-11 {
        fill: #2d2a91;
      }

      .cls-12 {
        fill: #9cbcfb;
      }

      .cls-13 {
        fill: #282485;
      }

      .cls-14 {
        fill: #8eb4fc;
      }

      .cls-15 {
        fill: #a3c1fc;
      }

      .cls-16 {
        fill: #95b9fa;
      }

      .cls-17 {
        fill: #f8f9fc;
      }

      .cls-18 {
        fill: #eaeffd;
      }

      .cls-19 {
        fill: #94b8fb;
      }

      .cls-20 {
        fill: #29258c;
      }

      .cls-21 {
        fill: #2b278d;
      }

      .cls-22 {
        fill: #cbd8f2;
      }

      .cls-23 {
        fill: #d4e1fb;
      }

      .cls-24 {
        fill: #92b6fb;
      }

      .cls-25 {
        fill: #252382;
      }

      .cls-26 {
        fill: #90b4f9;
      }

      .cls-27 {
        fill: #eaebfb;
      }

      .cls-28 {
        fill: #a0bffb;
      }

      .cls-29 {
        fill: #d4e0fb;
      }

      .cls-30 {
        fill: #e9effd;
      }
    </style>
  </defs>
  <path class="cls-29" d="m.03,174.68c1.62-9.83,2.61-19.81,4.97-29.46,9.4-38.42,28.95-71.02,58.78-96.93C87.81,27.43,115.78,13.98,146.68,5.69,166.43.4,186.25-.86,206.12.51c25.25,1.74,48.92,9.69,71.21,22.14,14.67,8.2,28.08,18.09,40.38,29.17,6.04,5.44,13.32,10.67,17.42,17.49,8.53,14.18,19.37,27.11,24.82,43.08-1.32.59-2.24.37-3.59-.81-2.66,5.9-2.67,12.58-5.54,18.55-1.94,4.03,2.02,9.16-1.74,13.4-.52.58,2.26.99,3.31,1.92,2.92,2.6,2.63,5.22-1.06,6.25-4.21,1.18-8.4,1.82-11.13-3.13-.94-1.7-2.71-3.65-4.97-2.62-7.98,3.61-11.3-3.79-16.49-6.72-.65-.37-.95-1.3-1.4-1.98-3.88-5.84-5.99-6.06-9.45-.22-2.05,3.45-4.4,3.68-6.88,1.53-4.52-3.92-9.7-3.3-14.92-3.02-6.81-.75-13.49-2.62-20.45-2.2-2.83.17-4.25-1.74-4.95-4.44-8.34-31.82-30.48-48.11-61.8-50.82-23.38-2.02-42.67,8.1-55.79,28.34-1.4,2.16-2.16,4.96-5.3,5.44-5.13-.31-10.15-1.85-15.34-1.4-1.24-.03-2.49-.06-3.73-.07-2.07-.01-4.16-.16-6.14.7-2.24.83-4.49,1.65-6.72,2.5-17.06,6.47-29.47,25.02-28.4,43.53.3,5.19-.85,7.47-5.95,9.15-17.45,5.75-28.44,21.52-29.64,41.4-.14,2.4.31,4.91-1.2,7.08-1.73.85-2.11-.28-2.19-1.6-.12-2.2-.03-4.41.06-6.66-.88,8.9-1.11,17.59,7.3,23.56,2.61,1.73,3.99,4.52,5.82,6.89,5.59,7.28,13.18,11.66,21.39,15.21.39.44.57.97.55,1.56-2.89,4.23-1.93,6.94,2.59,9.66,6.19,3.73,10.74,9.57,16.04,14.46.18,1.94-.8,3.5-1.78,4.99-4.18,6.32-5.61,13.53-6.96,20.78-.29.34-.94.59-.97.47-1.53-5.47-7.23-9.32-6.69-15.43.74-8.43-.75-9.03-7.6-13.55-7.66-5.06-16.18-8.96-23.04-15.07-5.38-4.78-5.04-5.91.91-9.91,3.1-2.08,2.42-3.72.89-6.47-4.02-7.25-10.38-11.01-17.88-13.55-3.51-1.19-5.61-1.1-4.85,3.46.23,1.39.13,2.83.15,4.26.06,4.24-1.89,6.68-6.27,6.2-3.65-.4-7.24.27-10.86.13-.4-1.22-.79-2.45-1.19-3.67-1-8.24-1.47-16.58-4.82-24.35-.43-4.08-.86-8.16-1.28-12.24,1.42-9.74,1-19.49.03-29.24Z"/>
  <path class="cls-23" d="m253.76,371.05c-24.74,9.33-50.51,10.8-76.54,9.62-8.38-.38-16.9-1.05-24.97-3.1-3.91-.99-8.17-2.13-11.94-4.08-2.37-1.3-2.97-3.47-2.06-5.71,2.11-5.21-.85-5.1-4.6-5.05-7.6.11-10.54-2.04-12.15-8.3-1.67-6.46-.1-8.02,6.61-6.55.78.17,1.57.52,2.48-.38-3.35-2.97-5.79-6.6-7.49-10.82-1.03.48-1.12,1.71-1.24,2.59-.91,6.4-3.34,10.87-10.98,9.61-1.17-.19-2.23.86-3.35,1.31-4.51,1.83-8.68-1.08-6.71-5.24,2.53-5.34,1.95-9.84.09-14.81-.33-.87.35-1.98-.22-3.4-3.7.94-5.94,4.68-9.73,5.44-1.78.36-3.57,1.41-5.2.04-1.87-1.58-.63-3.39.18-4.95,1.52-2.93,1.74-6.24,2.88-9.28.8-2.13,1.56-4.2,3.91-5.12,1.72-.67,3.57-.74,5.33-1.22,7.05-1.92,9.3-4.67,10.13-12.49-.2-6.87-4.6-12.03-7.34-17.85-1.12-2.37-2.91-4.44-3.1-7.2.06-3.4-2.89-3.99-5.02-5.32-3.4-2.12-7.24-3.83-7.47-8.68-.1-2.15-1.97-2.2-3.38-2.88-1.5-.71-2.42-1.69-.44-3.01,5.06-1.72,10.43.2,15.48-1.38,1.75-.51,3.56-.85,5.28-1.43,4.13-1.39,7.11-.35,10.15,3.02,19.38,21.43,53.32,24.95,77.04,8.25,2.45-1.73,4.71-4.01,8.16-3.33,9.66,6.88,20.5,10.56,32.27,10.83,10.95.25,21.14-2.86,30.3-9.03,2.49-1.68,4.65-3.98,7.9-4.25,6.64.68,12.72,2.22,16.14,8.93,1.09,2.14,3.3,3.96,5.54,4.53,6.16,1.57,9.1,6.41,12.13,11.11,2.29,3.55,4.3,7.05,7.72,9.89,4.02,3.35,2.08,12.05-2.61,14.7-2.49,1.41-4.56,1.17-6.51-.93-2.34-2.52-4.19-5.45-6.6-7.91-.81-.88-1.4-1.9-1.88-2.99-1.65-5.48-4.92-10.15-7.68-15.07-2.85-5.08-3.14-5.05-6.56-.08-2.26,3.59-4.33,7.28-6.32,11.02-1.74,3.27-2.66,6.77-2.58,10.46.17,8.01,7.64,13.02,15.28,10.56,2.94-.95,4.79-3.77,7.95-4.17,5.53.36,11.28.32,12.69,7.61.2,1.03,1.11,1.82,2.16,1.93,7.66.78,8.96,6.5,9.89,12.55.21,1.38.9,2.72.41,4.17-2.12.61-2.27,3.75-4.85,3.75-5.6-7.65-17.33-5.06-22.57,5.35-2.7,5.37-6.1,8.88-11.85,10.23-1.38.33-2.85.74-3.73,1.91-2.48,3.31-5.1,3.53-8.19.8-1.96-1.73-3.93-1.42-4.84,1.04-1.72,4.66-6.48,7.92-6.14,13.52.03.46-.78.87-1.28,1.22Z"/>
  <path class="cls-6" d="m294.07,296.63c3.87.36,4.31,4.34,6.57,6.41,3,2.75,7.62,2.89,8.57-1,.87-3.57,2.99-7.95-2.54-11-5.26-2.9-5.6-10.06-10-14.08-.75-.69-.62-2.7-1.88-2.9-7.49-1.2-11.48-6.53-15.55-12.16-2.49-3.45-7.78-1.58-10.88-4.45,1.75-7.93,4.89-9.99,12.79-8.41,31.58,6.31,59.73-22.56,52.54-53.9-2.72-11.87-10.29-19.88-20.58-25.7-1.88-1.79-2.12-4.34-3.04-6.57-3.93-11.26-10.25-20.5-21.55-25.59-1.07-.48-2.12-1.25-1.86-2.76,5.01-.97,9.86-1.59,14.22,2.29,1.94,1.73,4.62,4.35,5.69-1.25.57-3,3.63-4.25,6.53-4.71,3.33-.53,3.94,2.21,4.67,4.51,1.92,6.06,9.3,5.85,12.28,10.72.2.33,1.86.32,2.16-.06,5.11-6.55,7.33-.02,10.07,2.42,1.98,1.76,8.2,3.21,10.24,1.58,1.9-1.52.17-2.36-.59-3.4-1.72-2.35-4.19.14-6.18-.84,4.91-8.92,3.93-19.12,6.71-28.45.9-3.03,3.62-5.34,3.17-8.77,2.96-.39.56,5.15,4.31,3.84.93.57,1.16,1.48,1.17,2.49-.34,2.49,1.07,4.27,2.48,6.05,3.89,7.78,7.77,15.56,8.52,24.43-.7,5.02,2.01,9.63,1.77,14.6.27-.39.26-.93.68-1.23,1.98,1.74.94,4.07,1.2,6.15-.52,3.57,1.89,8.27-4.42,9.53-1.57.31-.36,2.66,1.22,2.83,4.67.5,4.29,3.74,4.46,7.08.65,13.08-1.31,26.06-1.22,39.12,2.97,2.6-1.03,3.91-1.05,5.72-.1,7.51-2.38,14.67-4.63,21.52-1.71,5.21-4.3,10.4-6.43,15.64-10.47,25.8-25.49,48.43-46.5,66.9-1.12-1.35-2.52-2.38-2.49-4.55.08-6.02-1.63-10.66-9.07-10.23-1.54.09-2.92-1.08-2.84-2.6.34-6.44-3.92-6.88-8.63-7.06-.88-.03-1.74-.78-2.61-1.19-.71-4,.3-7.6,2.5-10.93Z"/>
  <path class="cls-5" d="m92.72,313.67c-4.35,5.04-2.67,12.38-8.11,18.25,5.65-.88,9.39-1.9,12.4-5.28,1.17-1.31,2.77-3.6,5.03-2.49,2.52,1.24.15,3.75.53,5.01,1.81,6.01,2.95,11.45-.4,17.56-1.07,1.95,1.75,5.08,4.94,1.94,1.98-1.95,4-2.33,6.62-1.37,3.31,1.21,5.57-.93,5.56-3.68-.02-4.08,2.69-6.98,3.28-11.65,2.95,5.69,3.87,11.68,9.98,14.16,2.43.99,1.38,3.01-.72,3.92-.68.3-1.6-.03-2.39.11-2.45.41-5.57-5.44-7.17.15-1.53,5.35,3.14,10.73,8.51,10.96,2.22.1,4.52.28,6.68-.13,4.54-.86,4.61,1.31,3.1,4.35-1.35,2.72-2.04,5.28-.25,8.01-6.11-.92-12.52-.98-17.14-6.09-.36-1.32-1.57-.88-2.42-1.19-5.59-1.27-11.97-.48-15.86-6.15.35-.89,1.1-1.49,1.6-2.28-1.28-.5-1.69,1.21-2.81,1.1-3.51,1.62-5.22-1.83-7.57-2.99-20.65-10.13-36.22-26.39-51.56-43.01-13.52-14.65-21.88-32.43-31.25-49.6-2.28-4.17-2.32-9.7-5.01-13.45-1.66-2.32-2.11-3.48-.99-5.66,2.99-2.75,6.63-2.22,10.06-1.6,4.35.79,5.87-.44,5.62-5.03-.68-12.21-.87-11.12,10.78-7.41,8.51,2.71,11.52,9.6,16.41,15.12,2.73,3.09-.29,5.06-3.1,6.18-4.25,1.7-6.05,2.5-1.39,7.07,3.4,3.34,6.96,4,10.53,5.89,6.73,3.56,11.78,9.82,19.19,13.14,3.43,1.53,3.21,7.4,1.94,11.63-.33,1.1-1.76,2.55-.36,3.1,5.61,2.2,4.04,7.77,5.93,11.68,3.77,2.74,6.58,6.45,9.82,9.72Z"/>
  <path class="cls-6" d="m253.76,371.05c-1.63-7.44,5.12-11.52,7.11-17.54,1.09-3.29,3.95-1.89,5.38-.31,2.63,2.91,4.46,4.96,6.69-.32.86-2.05,3.65-1.44,5.53-2,4.79-1.43,8.03-3.77,9.61-9,2.38-7.86,12.36-12.29,20.44-10.11,2.97.8,4.02,2.39,3.84,5.2-6.84,7.52-14.87,13.62-23.75,18.4-2.2,1.18-3.27,3.32-5.5,4.2-2.01.79-3.34,3.82-6.16,1.73-.31-.4-.65-.86-1.21-.71-.45.11-.4.45.06.72-.39.89-.67,2.5-1.18,2.58-7.39,1.15-13.23,6.78-20.84,7.18Z"/>
  <path class="cls-29" d="m375.81,223.44c-2.56-3.91-1.72-8.42-1-12.31,1.75-9.5.44-18.97.97-28.43.13-2.27.06-3.86-3.16-3.33-2.66.44-5.2-1.09-4.83-3.98.29-2.29,1.45-5.58,5.26-3.52,1.98,1.07,1.35-.58,1.47-1.3.31-1.92-.68-4.11,1.25-5.67.56-.79,1.12-1.57,1.95-2.73-1.04,16.13,2.42,31.94-.57,47.75-.44,2.29-.26,4.95.48,7.16.94,2.81.13,4.64-1.83,6.37Z"/>
  <path class="cls-4" d="m1.28,216.16c1.86.78,3.16,2.59,3.05,4.16-.46,6.85,4,13.24,1.77,20.2-2.22-8-3.73-16.13-4.82-24.35Z"/>
  <path class="cls-22" d="m.03,174.68c1.94,9.75,3.28,19.5-.03,29.24.01-9.75.02-19.49.03-29.24Z"/>
  <path class="cls-29" d="m374.57,158.73v3.47c-.9-5.63-5.03-10.82-2.45-16.83,2.74,4.1,1.8,8.88,2.45,13.37Z"/>
  <path class="cls-23" d="m103.67,358.89c.08-.18.11-.39.24-.53,1.08-1.2.81-3.77,3.21-3.53.71.07,1.89,1.31,1.84,1.94-.17,2.33-2,3.06-4.07,3.3-.41-.39-.81-.78-1.22-1.17Z"/>
  <path class="cls-23" d="m275.78,361.29c-.86.32-1.72.65-3.71,1.39,1.68-2.59,2.58-4.19,4.98-3.44.16.05-.06,1.34-.11,2.05,0,0-.58.01-.58.01h-.58Z"/>
  <path class="cls-29" d="m363.6,120.93c-2.65-1.27-3.76-3.17-2.48-6.05.83,2.02,1.65,4.03,2.48,6.05Z"/>
  <path class="cls-23" d="m120.74,366.21c1.51-1.16,2.69-.13,3.93.57-.5.2-1,.41-1.51.61-.99-.02-1.88-.25-2.42-1.19Z"/>
  <path class="cls-16" d="m286.67,134.52c7.89,3.81,14.82,8.71,19.55,16.34,2.26,3.64,3.49,7.65,4.92,11.61,1.32,1.81-.54,4.87,2.39,6.04,25.15,10.16,30.16,45.12,12.55,65.22-12.78,14.59-28.05,20.97-47.02,16.37-7.22-1.75-7.53,4.39-10.7,7.36-9.91,7.56-20.66,13.67-33.33,14.16-13.61.53-26.86-1.39-37.41-11.46-3.32-.94-5.15-3.67-7.31-6.04-5.06-5.54-11-4.28-13.46,2.81-.4,1.16-.54,2.37-.78,3.56-1.19,5.8-5.16,7.53-10.13,4.34-2.41-1.55-4.61-3.57-5.8-6.15-1.97-4.27-4.85-5.53-9.29-4.19-4.77,1.45-8.55,1.09-10.47-4.78-1.16-3.55-4.71-5.46-8.42-6.4-3.94-1-7.53-2.44-7.65-7.31-.13-5.2,2.88-8.66,7.48-9.92,9.8-2.69,10.63-11.45,13.26-18.84,1.1-3.1-1.97-4.83-4.71-5.09-9.43-.9-12.54-8.96-16.91-15.18-2.99-4.26-.39-9.24,4.67-10.27,3.24-.66,6.24-1.6,9.09-3.22,1.23-.69,2.83-1.31,3.95-.09,1.23,1.34-.06,2.63-.8,3.78-.97,1.5-2.65,2.62-2.37,4.73-.35,5.25,4.31,5.39,7.34,7.19-.38.43.41,1.72.68,2.2,3.65,6.64,10.52,7.22,16.72,9.26,2.73.9,3.26,3.32,1.76,5.97-4.04,7.2-8.39,14.17-14.24,20.3,4.68,1.08,6.6-4.69,10.94-4.3.27.02-.28-1.61-.05-2.47.39-1.45.26-3.49,2.82-2.55,1.67,4.27,2.22,8.79,2.97,13.26.5,3.67-.56,6.63-3.38,9.24-1.65,1.52-4.02,3.85-1.56,6.22,2.37,2.28,4.95.75,7-1.18,1.77-1.67,3.33-3.6,5.88-4.15,4.05.17,7.77,1.92,11.82,2.23,13.46,1.04,26.07-11.11,24.37-23.64-2.23-3.18-5.87-2.88-9.07-3.66-2.7-1.13-6.22.35-8.36-2.58-.15-.6-.23-1.59.16-1.7,7.58-2.09,12.43-9.16,20.86-10.37,5.94-.85,11.79-4.38,15.48-10.01.3-.46,1.08-.49,1.69-.57,4.19.11,5.55,3.55,7.54,6.31,1.44,2.01,3.22,4.37,5.93,2.81,2.9-1.67,1.19-4.3.2-6.46-3.97-8.7-11.58-12.81-22.43-12.19-9,.51-15.31,5.3-18,13.68-2.25,4.25-5.88,7.45-8.73,11.26-2.13,2.85-5.57,3.72-9.18,2.22.09-3.57-.77-6.18-4.17-8.56-4.14-2.9-2.51-9.92,2.33-11.79,4.72-1.83,9.41-3.58,13.8-6.19,3.39-2.02,4.48-5.03,4.96-8.53.24-1.74-1.14-1.79-2.36-2.03-3.98-.81-7.18.15-9.36,3.8-2.77,4.64-6.15,8.56-11.84,9.64-1.68.14-2.64-1.06-3.73-2.02-3.44-6.27-8.84-9.58-15.81-10.69-1.72-.28-3.61-.55-4.96-1.95-.04-2.89,1.82-1.57,2.83-1.94-.49-.68-1.64-.04-2.55.16-2.81.62-4.98-.11-5.71-2.98-.72-2.8.93-5.04,3.37-5.72,4.23-1.18,7.22-2.86,7.93-7.75.37-2.56,3.75-2.78,5.98-4.71-3.07-2.39-3.92-6.8-5.9-8.93-4.83-5.19-4.72-11.55-7.13-17.22-2.45-5.74-8.05-4.04-12.86-3.21-2.27.09-4.49-.09-6.31-1.61-1.39-1.16-3.32-2.62-2.5-4.4.87-1.9,3.06-1.12,4.75-.44,3.43-3.67,5.53-8.27,8.72-12.18,10.58-13,24.09-20.24,40.54-21.94,30.29-3.13,53.03,9.16,68.88,34.71,3.09,4.98,5.27,10.52,6.14,16.4.34,2.27.79,4.07,3.55,3.79,7.17-.72,14.07.75,20.92,2.55Z"/>
  <path class="cls-2" d="m142.74,116.1c10.1-2.65,15.53,1.45,15.65,11.86,0,.78-.65,2.21-.57,2.24,7.41,2.86,4.16,14.75,13.54,15.87-.16,2.47-2.35,2.65-3.85,3.29-3.01,1.3-6.24,1.82-4.6,6.68.79,2.35-2.27,2.97-4.07,3.66-1.29.49-2.86.21-4.16.68-1.77.65-3.29,1.95-3.19,4.01.11,2.27,1.87,2.91,3.89,2.93,1.41.01,2.82,0,4.42,0-.64,2-3.2.76-3.59,2.62.28.58.16,1.1-.28,1.55-6.23,1.49-11.58,4.51-15.97,9.2-.82.88-1.76,1.69-3.15,1.34-2.92-4.59,4.26-4.47,3.52-8.37-4.27,1.61-7.84,4.79-13.03,4.79-3.81,0-4.88,6.01-1.81,9.87,2.63,3.31,5.88,6.07,7.98,9.89.97,1.77,3.35,1.89,5.45,2.11,8.1.85,9.51,3.46,6.47,10.89-1.8,4.41-2.56,9.13-6.3,12.79-1.86,1.81-3.24,2.9-5.88,3.27-4.39.61-7.16,3.53-7.52,8.13-.39,5.03,3.22,5.55,7.01,6.47,4.82,1.17,8.91,3.89,9.96,9.17.57,2.89,2.19,3.1,4.33,2.78,2.39-.35,4.89-.57,7.08-1.49,3.07-1.29,4.59-.15,5.6,2.53,1.41,3.75,4.06,6.6,7.13,8.91,3.89,2.93,7.2,1.25,7.66-3.58.76-7.91,4.08-11.33,10.6-11.16,2.4.06,4.09.65,5.56,2.83,2.01,2.99,4.63,5.56,6.99,8.32-2.2-.11-3.88,1.06-5.43,2.37-23.16,19.6-63.91,15.05-82.35-8.63-1.32-1.69-2.38-2.33-4.53-1.59-2.45.84-5.09,1.13-7.64,1.66-4.63.47-9.33,2.1-13.39-2.04-1.61-1.64-3.81-.52-5.62.35-1.8.86-3.52,2.13-5.5.45-10.81-1.94-18.09-8.9-24.42-17.2-1.21-1.59-2.38-3.21-3.56-4.82-3.44-4.71-5.99-9.7-4.91-15.81-.34-11.33,1.39-21.99,7.71-31.9,6.12-9.59,14.37-15.83,25.04-18.99,2.67-.79,3.25-1.3,2.89-4.35-2.37-20.14,12.73-43.53,30.22-47.4-.6,4.84,3.38,7.52,5.27,11.2.08.58-.06,1.1-.41,1.57-.71.52-1.51.74-2.37.79-4.02-.6-7.77-.77-7.72,4.97-.3,1.74-1.42,3.03-2.42,4.39-2.87,4.44-6.62,8.62-4.37,14.59,1.39,3.01.17,5.62-1.26,8.21-1.56,2.67-4.79,5.11-1.13,8.48,4.64,2.26,8.62-.12,11.88-2.63,2.69-2.08.22-4.66-1.48-6.65-1.62-1.9-4.79-2.44-4.9-5.64,2.78-3.54,5.19-7.28,6.75-11.54,3.99-3.26,7.41-7.46,13.04-8.06,3.75,6.6,9.55,7.59,15.04,2.55,1.46-1.34,2.57-3.12,4.73-3.51,1.87-.26,3.55.52,5.3.94,4.06.98,6.79-1,8.13-4.47,1.44-3.72-.07-6.61-3.77-8.35-1.44-.68-3.86-.3-3.69-3Z"/>
  <path class="cls-3" d="m92.72,313.67c-5-1.5-7.62-5.39-9.82-9.72-1.59-10.37,4.8-18.19,8.6-26.84.44-.39.96-.6,1.54-.66,5.67,2.11,9.08,5.77,8.59,12.24-.28,3.69,1.12,6.42,5.01,7.1,2.02.35,2.42,1.82,3.07,3.25-.39,10.11-5.46,14.47-16.99,14.62Z"/>
  <path class="cls-16" d="m136.64,131.96c-1.42.57-1.93,1.94-2.82,3.01-3.74,4.47-10.95,5.66-15.68,2.69-2.25-1.41-1.48-3.44-.94-5.39.11-.24.23-.48.34-.72,2.15-1.41,4.96-1.45,6.86-3.35,1.17-1.37.93-2.6-.39-3.71-2.44-1.81-5.06-1.89-7.87-1.04-1.63.5-3.35,1.42-5.02,0-3.47-2.92-8.63-5.08-4.98-11.18,1.74-1.49,3.91-1.87,6.05-2.31,1.27-.93,2.73-.43,4.11-.54.56.08.98.37,1.22.89-.52.86-.58,1.62.53,2.08,2.86,2.46,6.68,3.4,9.46,5.97.45.27.87.59,1.28.92,1.45,1.44,3.23,2.51,4.66,3.98.8,1.23.86,2.8,1.78,3.98.46.59.88,1.2,1.24,1.85.41.93.93,1.85.19,2.86Z"/>
  <path class="cls-12" d="m136.64,131.96c-.4-.84-.79-1.69-1.19-2.53,1.23-1.2,3.07-.82,4.42-1.72,1.28-.86,2.03-1.98,1.6-3.54-.28-1.02-1.06-1.7-2.17-1.81-1.33-.13-2.28.51-2.97,1.62-.84,1.35-.7,3.17-2.02,4.29-1.96-1.19-1.15-3.15-1.36-4.83-1.67-1.15-3.13-2.59-4.86-3.66-2.7-3.88-7.85-4.09-10.98-7.32-.83-.41-.83-.82,0-1.22,1.2-1.66,3.38-1.36,4.88-2.44,5.45-.17,10.85,0,15.91,2.42-1.16,0-2.32,0-3.63,0q2.68,4.8,8.46,4.9c1.78,2.3,5.14.37,7.03,2.75,2.6,3.29,4.02,6.8,1.48,10.47-2.3,3.31-5.22,6.18-10,3.98-1.44-.66-3.06-.91-4.6-1.34Z"/>
  <path class="cls-5" d="m92.57,277c-.36.02-.72.06-1.07.11-7.07-.9-8.72-8.66-14.37-11.38-1.25-.6-2.27-1.66-3.44-2.44-5.39-3.57-5.43-4.26-.42-9.39,2.51-.15,5.46-2.95,7.27,1.2,3.68,1.19,7.4,1.77,6.82,7.54-.17,1.66,4.13,3.7,6.78,5.21,1.79,1.02,6.84.84,4.59,5.63-2.26.8-4.23,2.12-6.15,3.52Z"/>
  <path class="cls-5" d="m40.26,214.9c1.64,5.27,3.27,10.54,4.91,15.81-3.97-.61-4.33-4.89-7.01-6.96-3.09-2.39-2.37-5.43-.79-9.09,1.31-3.04.27-7.1.27-12.24,2.68,4.96-.2,9.21,2.63,12.47Z"/>
  <path class="cls-9" d="m80.53,255.1c-2.16-2.01-4.84-.87-7.27-1.2-.04-.39-.07-.78-.11-1.17,2.6.62,3.87-1.82,5.89-2.58,3.28-1.23,5.96-1.82,8.32,1.94,2.51,4.01,6.9.92,10.31,1.87-5.57,2.51-11.43.67-17.14,1.13Z"/>
  <path class="cls-12" d="m117.12,110c-1.65-.01-3.3-.02-4.95-.04,1.77-1.89,4.07-.96,6.16-1.13.27,1.09.05,1.66-1.21,1.16Z"/>
  <path class="cls-2" d="m117.12,110c.4-.39.81-.78,1.21-1.16,1.22-.02,2.45-.04,3.67-.06-1.24,1.58-2.95,2.24-4.88,2.44v-1.22Z"/>
  <path class="cls-24" d="m164.67,326.53c-.11,8.54-6.74,14.64-14.36,13.99-7.98-.68-13.47-7.33-12.36-15.05,1.32-9.19,7.4-16.09,11.69-23.83,1.08-1.94,3.52-1.98,4.53-.02,4.24,8.24,9.68,16.03,10.5,24.91Z"/>
  <path class="cls-10" d="m229.46,315.23c.37,5.76-1.96,10.03-7.19,12.29-4.82,2.09-9.61,2.67-14.13-1.35-5.35-4.75-5.94-10.74-3.8-16.65,2.26-6.25,5.73-12.1,8.94-17.97,1.73-3.16,3.94-3.87,6.22-.11,4.51,7.45,9.37,14.73,9.95,23.78Z"/>
  <path class="cls-19" d="m294.07,296.63c.2,3.88-.94,7.46-2.5,10.93-5.38,6.17-12.46,7.78-18.25,4.14-6.17-3.87-8.33-12.71-4.27-20.57,2.28-4.43,4.19-9.23,7.87-12.85,2.41,2.14,4.48,4.53,5.41,7.69,1.55,5.26,5.16,7.8,10.51,8.12.41.84.82,1.69,1.22,2.53Z"/>
  <path class="cls-14" d="m292.85,294.09c-2.17,1.43-8.03.61-9.24-1.68-2.42-4.61-4.48-9.41-6.69-14.13.48-2.44,1.58-5.21,3.91-5.39,2.63-.2,3.46,2.97,4.46,5.06,2.55,5.36,7.05,9.82,7.56,16.13Z"/>
  <path class="cls-7" d="m92.57,277c1.09-2.85,2.15-5.75,6.15-3.52,3.06,6.05,6.08,12.11,9.19,18.13,1.22,2.36,2.2,4.71,1.8,7.44-1.05-1.41-2.6-1.31-4.12-1.71-3.28-.87-6.26-2.91-5.47-6.87,1.38-6.86-2.51-10.4-7.56-13.47Z"/>
  <path class="cls-29" d="m314.26,157.88c-1.91.54-3.38-.54-2.86-1.95.9-2.46,3.83-.32,5.65-1.67.94-.7,2.67.12,2.26,1.69-.73,2.75-3.54.98-5.05,1.93Z"/>
  <path class="cls-29" d="m360.99,149.49c-.08.87-.56,1.8-1.37,1.34-.71-.4-1.09-1.53-1.4-2.41-.07-.21.76-1.07,1.12-1.03,1.13.12,1.56,1.04,1.65,2.1Z"/>
  <path class="cls-29" d="m313.53,168.51c-3.91-.78-1.9-3.91-2.39-6.04,1.88,1.59.87,4.32,2.39,6.04Z"/>
  <path class="cls-23" d="m90.2,341.62c-2.14,2.09-4.71,4.14-7.76,4.38-1.55.12-3.86-1.9-3.54-4.11.58-3.97,3.83-3.91,6.96-3.8,2.18.08,3.91.61,4.34,3.53Z"/>
  <path class="cls-8" d="m166.24,231.83c-1.61-4.7-3.05-9.42-2.64-14.49.01-5.6,1.74-7.85,6.76-8.71,2.2-.38,4.41-.25,6.59.18,5.51,1.8,11.81.22,16.88,3.9,2.67,1.73,6.12.18,8.75,2.08-.09,4.02-3.22,1-4.35,2.02,4.55.21,9.18,2.05,14.07,1.73,2.68,8.74-2.46,14.8-7.93,19.92-8.86,8.3-19.26,7.88-29.78,2.97-4.83-1.42-7.05-5.11-8.36-9.6Z"/>
  <path class="cls-2" d="m176.68,210.1c-6.02-.58-11.62-.41-13.08,7.24-1.13,6.53-6.34,9.08-11.49,11.62-1.76.87-3.81,1.03-4.86-.88-1.26-2.31,1.37-2.38,2.46-3.27,4.43-3.57,6.75-8.75,10.1-13.14.71-.93.87-2.27,1.48-3.31,3.54-5.96,2.91-7.72-4.1-7.92-4.91-.14-8.25-1.71-10.06-6.13-1.09-2.66-3.35-2.52-5.63-2.82.74-1.69,3.21-.53,3.61-2.41,2.22-6.79,6.59-9.55,15.28-9.65,4.76.83,8.47,3.18,10.83,7.5,1.08,1.98,2.34,3.75,4.98,3.5,1.21-.14,2.37-.41,3.31-1.25,1.13-1.16.68-2.68.94-4.04.03-.24.07-.49.11-.73,5.38-3.13,8.93-7.92,12.5-12.89,3.5-4.87,8.64-.81,13.01-1.73.49,13.77-10.36,15.78-19.46,19.15-3.02,1.12-3.86,2.09-4.16,5.31-.32,3.37.57,4.96,3.43,5.96,5.47,1.91,4.8,4.46.78,7.37.62,2,.05,3.19-2.22,3.02-2.59-.19-5.23.54-7.76-.5Z"/>
  <path class="cls-13" d="m203.91,193.71c.61-9.83,17.03-17.59,29.18-13.35,6.85,2.4,11.84,6.83,14.67,13.7,1.23,2.98,1.84,5.58-1.42,7.33-3.57,1.91-6.28.5-8-2.93-1.47-2.92-2.77-5.94-6.42-6.77-1.2-1.09-2.59-.15-3.88-.37-1.92-.54-3.78-.26-5.6.45-3.01.76-5.35,2.62-7.81,4.4-4.49,3.25-7.74,2.4-10.71-2.46Z"/>
  <path class="cls-26" d="m203.91,193.71c3.39,3.89,6.87,4.72,10.67.48,2.26-2.52,5.12-3.88,8.56-3.91,1.71.31,3.42.33,5.13-.04,1.36.1,2.65.39,3.64,1.45-1.67,4.06-13.62,10.97-19.43,11.42-1.56.12-3.51.41-4.54,1.4-4.07,3.89-8.59,6.84-14.09,8.21-5.8-.31-11.57-.89-17.16-2.6,3.26-1.09,7.62,2.15,9.98-2.52,5.06.44,9.17-.82,11.01-6.14,1.15-3.32,5.69-3.93,6.24-7.73Z"/>
  <path class="cls-20" d="m161.05,180.76c-7-.46-12.23,2.46-15.93,8.32-5.4.74-8.88-.78-8.3-7.06,5.19-5.82,10.66-11.16,19.2-11.26,1.96.32,3.99.19,5.88.99,1.47.63,3.2,1.01,2.98,3.14-.2,1.93-1.21,3.34-3.14,3.95-.63.2-1.1,1.53-.69,1.92Z"/>
  <path class="cls-25" d="m161.05,180.76c-1.08-1.97-3.44-.58-5.25-2.13,1.28-.14,2.15-.35,3.01-.31,2.56.12,4.76-.85,4.85-3.43.1-2.75-2.62-2.44-4.52-2.66-1.25-.14-2.42-.26-3.11-1.48.08-.27.15-.55.2-.83,9.24.54,17.59,2.7,21.89,12.15.32.28.65.72.47,1q-2.86,4.55-1.65,8.76c-3.32,1.57-5.23-.18-6.37-2.98-1.79-4.42-5.18-6.77-9.52-8.1Z"/>
  <path class="cls-2" d="m166.24,231.83c2.79,3.2,5.57,6.4,8.36,9.6-1.6,1.78-3.01,3.78-4.83,5.3-2.79,2.33-6.01,3.64-9.35.97-3.77-3.02-.5-5.52,1.05-7.75,1.81-2.61,4.88-4.4,4.77-8.13Z"/>
  <path class="cls-11" d="m212.32,218.54c-2.8,2.93-5.9,1.12-8.85.47-2.32-.51-4.57-1.36-7.21-2.17,2-1.57,4.95.36,6.34-2.05,3.48.62,7.67-.57,9.73,3.75Z"/>
  <path class="cls-21" d="m176.93,191.84c-.46-.63-.81-1.42-1.41-1.88-4.11-3.11-4.93-5.42,1.37-6.19,1.03-.13,1.14-.89,1.21-1.69.82.78,1.64,1.55,2.45,2.33h0c.88,2.04.98,4.07-.05,6.09-1.19.45-2.38.9-3.57,1.34Z"/>
  <path class="cls-17" d="m108.67,124.69l2.19-.14c5.83-.47,6.79.66,6.21,7.36,0,0,.12.36.12.36-4.08,2.75-8.16,5.5-12.24,8.25-3.11-1.28-7.62-.88-7.38-6.17.83-1.19,1.66-2.39,2.49-3.58,1.51-3.95,5.08-4.98,8.61-6.08Z"/>
  <path class="cls-28" d="m91.55,157.71c.77-2.45,3.24-4.63,1.19-7.52,2.06-1.34,3.54-.38,4.85,1.23,1.57,3.25,6.05,3.27,7.45,6.81.57,1.45,2.06,2.64,1.48,4.39-.73,2.19-2.29,4.93-4.39,4.37-4.09-1.08-7.9,6.33-11.78.16,6.83-2.7,7.01-4.1,1.2-9.45Z"/>
  <path class="cls-1" d="m97.59,151.42c-1.62-.41-3.23-.82-4.85-1.23-2.87-6.65,1.32-11.14,4.83-15.84,1.1,3.68,6.28,2.48,7.38,6.17-1.69,4.15-2.44,8.94-7.36,10.91Z"/>
  <path class="cls-27" d="m117.07,131.9c-1.65-2.81-.5-7.98-6.21-7.35.08-.37.16-.73.25-1.1,4.77-1.09,9.53-4.11,14.29.02,1.43,1.98,1.16,3.99.12,6.02-2.6,1.55-5.26,2.92-8.45,2.41Z"/>
  <path class="cls-30" d="m91.55,157.71c4.78-.39,6.25,2.89,5.8,6.49-.49,3.97-3.75,4.1-7.01,2.96-3.06-3.59-1.64-6.61,1.2-9.45Z"/>
  <path class="cls-15" d="m108.67,124.69c-2.87,2.03-5.74,4.06-8.61,6.08-1.1-5.98,1.63-7.91,8.61-6.08Z"/>
  <path class="cls-16" d="m144.44,148.33c-2.64-.63-5.73-.62-6.27-3.74-.28-1.6,1.72-2.48,2.94-2.39,3.7.28,2.61,3.73,3.32,6.13Z"/>
  <path class="cls-18" d="m134.32,128.25c-.05-1.19-.23-2.4-.14-3.58.22-2.91,2.29-4.25,4.8-4.43,2.48-.18,4.04,1.63,4.63,3.92.77,2.96-1.37,4.24-3.53,5.47-1.64.94-3.09-.1-4.63-.21-.38-.39-.76-.78-1.14-1.17Z"/>
  <path class="cls-2" d="m117.12,112.44c3.53,2.63,9.47,1.65,10.98,7.32-3.72-2.34-8.59-2.97-10.98-7.32Z"/>
  <path class="cls-2" d="m128.1,119.76c2.46.1,3.81,1.68,4.86,3.66-2.46-.11-3.79-1.71-4.86-3.66Z"/>
  <path class="cls-2" d="m125.52,129.5c-.04-2.01-.08-4.02-.12-6.02,2.23,1.96,2.07,3.98.12,6.02Z"/>
  <path class="cls-16" d="m180.51,190.49c.02-2.03.04-4.06.05-6.09,1.8,2.04,1.86,4.07-.05,6.09Z"/>
  <path class="cls-16" d="m228.27,190.24c-1.69,2.06-3.4,2.07-5.13.04,1.7-1.11,3.41-.96,5.13-.04Z"/>
</svg>