<?xml version="1.0" encoding="UTF-8"?>
<svg id="Capa_1" data-name="Capa 1" xmlns="http://www.w3.org/2000/svg" viewBox="0 0 359.48 363.56">
  <defs>
    <style>
      .cls-1 {
        fill: #f5f0fc;
      }

      .cls-1, .cls-2, .cls-3, .cls-4, .cls-5, .cls-6, .cls-7, .cls-8, .cls-9, .cls-10, .cls-11, .cls-12, .cls-13, .cls-14, .cls-15, .cls-16, .cls-17, .cls-18, .cls-19, .cls-20, .cls-21, .cls-22, .cls-23, .cls-24, .cls-25, .cls-26, .cls-27, .cls-28, .cls-29, .cls-30, .cls-31, .cls-32, .cls-33, .cls-34, .cls-35 {
        stroke-width: 0px;
      }

      .cls-2 {
        fill: #bea2fb;
      }

      .cls-3 {
        fill: #e6dde5;
      }

      .cls-4 {
        fill: #292280;
      }

      .cls-5 {
        fill: #292281;
      }

      .cls-6 {
        fill: #a893f7;
      }

      .cls-7 {
        fill: #b29cfa;
      }

      .cls-8 {
        fill: #292486;
      }

      .cls-9 {
        fill: #f5dff4;
      }

      .cls-10 {
        fill: #bea3fb;
      }

      .cls-11 {
        fill: #bba0fb;
      }

      .cls-12 {
        fill: #292382;
      }

      .cls-13 {
        fill: #b6a2fa;
      }

      .cls-14 {
        fill: #b49ffa;
      }

      .cls-15 {
        fill: #b9a5fb;
      }

      .cls-16 {
        fill: #f4def3;
      }

      .cls-17 {
        fill: #dcd1fc;
      }

      .cls-18 {
        fill: #ad97f9;
      }

      .cls-19 {
        fill: #2e278b;
      }

      .cls-20 {
        fill: #b39dfa;
      }

      .cls-21 {
        fill: #db72d4;
      }

      .cls-22 {
        fill: #b09bfa;
      }

      .cls-23 {
        fill: #baa0fb;
      }

      .cls-24 {
        fill: #bea3fc;
      }

      .cls-25 {
        fill: #2e278c;
      }

      .cls-26 {
        fill: #2f278c;
      }

      .cls-27 {
        fill: #f4dff3;
      }

      .cls-28 {
        fill: #dd6acf;
      }

      .cls-29 {
        fill: #d76bd1;
      }

      .cls-30 {
        fill: #db6dd0;
      }

      .cls-31 {
        fill: #b59efa;
      }

      .cls-32 {
        fill: #2f288d;
      }

      .cls-33 {
        fill: #bc9ffb;
      }

      .cls-34 {
        fill: #bda2fb;
      }

      .cls-35 {
        fill: #bda3fb;
      }
    </style>
  </defs>
  <path class="cls-16" d="m16.16,253.97c-2.51-1.28-2.04-4.37-3.23-5.91-3.93-5.07-1.29-12.73-7.13-16.82-.43-.3-.43-1.48-.34-2.21.53-4.14-1.02-8.23-1.92-11.91-1.54-6.26-1.27-12.81-3.54-18.86.89-10.01.89-20.03,0-30.04.25-9.12,3.77-17.64,5.4-26.5,1.97-10.71,6.3-21.29,10.73-31.55,10.21-23.65,24.53-44.48,43.23-62.06,16.41-15.42,35.53-26.89,56.55-35.12C139.46,3.77,163.81-.73,189.13.1c10.52.35,21.01,1.74,31.16,3.98,7.4,1.63,14.76,4.63,22.06,7.25,4.34,1.56,7.87,6.07,13.46,4.52,1.24-.34,3.47,1.03,4.53,2.24,5.82,6.63,14.45,8.84,21.26,13.85,3.78,2.78,7.36,5.83,11.02,8.77,6.83,5.48,13.01,11.74,19.59,17.48,2.57,2.24,5.05,6.32,7.33,9.72,2.31,3.45,6.06,5.54,8.51,8.64,3.43,4.33,6.9,9.25,8.18,14.45.8,3.28,3.04,4.17,4.28,6.3,4.85,8.34,8.68,17.26,11.37,26.48,2.04,7.02,2.07,14.62,3.95,21.7,3.74,14.08,2.95,28.41,3.59,42.7.6,13.23-3.45,25.68-5.31,38.47-.78,5.36-1.16,11.24-5.26,15.67-3.46.25-3.94-2.55-4.65-4.81-1.34-4.29-2.73-8.41-7.02-10.81-2.56-1.43-1.95-4.36-2.55-6.68q-7.17,2-10.46-4.29c-1.69,3.92-3.96,4.96-7.44,2.15-1.64-1.33-3.5-.25-4.27,1.5-.91,2.06,1.12,2.47,2.39,3.21,2.49,1.44,4.6.73,6.98-.65,3.37-1.94,4.94-.76,4.82,3.13-.21,6.85-2.01,8.15-8.36,5.91-2.58-.91-4.97-1.62-7.77-.29-2.35,1.12-2.5.79-7.76-1.69-.06,6.39,4.22,14.56-6.41,16.53-3.28-.14-5.69-2.25-8.29-3.82-9.38-5.66-11.78-4.79-15.1,5.76-2.3,3.39-4.66,3.99-6.56-.2-1.93-4.24-7.45-6.14-7.42-11.6,1.94-7.12,6.74-12.96,9.01-19.94,4.2-12.61,7.16-25.4,6.19-38.84-.14-1.9.21-3.83-.59-5.65-.68-2.02-1.41-4.03-1.72-6.16-.92-3.37-.87-6.88-1.62-10.28-.44-1.59-.85-3.18-1.42-4.73-.92-2.75-1.91-5.47-3.56-7.9-1.9-5.28-5.36-9.69-8.08-14.5-.78-1.88-1.85-3.58-3.08-5.19-1.7-1.88-3.2-3.92-4.87-5.83-1-.93-2.06-1.8-2.94-2.85-32.82-32.89-83.43-34.85-116.49-14.85-4.27,2.31-8.06,5.32-11.86,8.29-.58.54-1.18,1.06-1.8,1.57-4.18,2.46-6.95,6.31-9.87,10.02-1.47,1.48-2.52,3.29-3.78,4.94-2.85,3.81-5.64,7.67-7.73,11.96-1.6,2.95-3.1,5.95-4.44,9.03-.18.5-.39.99-.61,1.48-1.34,3.62-2.02,7.42-3.11,11.11-.78,4.17-1.37,8.37-2.19,12.53-1.63,5.66.57,11.63-1.37,17.25-2.78,2.18-3.02-.45-2.8-1.87.46-3.02-.21-6.1.44-9.09-.68,2.67.44,5.63-1.46,9.58-3.69-6.24-5.7-12.77-11.37-16.41-2.46-8.37-8.85-10.3-16.56-10.08-2.51.07-4.98-.42-7.46-.67-3.96-.39-7.52.38-8.43,4.98-.86,4.37,1.21,6.98,5.59,7.81,1.31.25,2.68.53,3.23,2.04,1.95.72-3.45.12-.22,1.66,5.03,2.4,6.16,7.23,2.97,10.84-1.52,1.72-3.27,4.3-5.85.76-1.36-1.86-2.67-.02-3.8.73-1.28.85-2.28,2.06-3.6,2.89-1.29.82-2.82,1.2-4.68,2.52,4.5,1.35,7.89,3.19,10.58,6.74,2.28,3.01,6.32,2.05,9.72.98,2.04-.64,4.37-1.72,5.62.81,1.49,3.03,1.26,6.43.23,9.59-.85,2.58-2.99,1.85-4.86,1.27-2.47-.77-4.47.32-6.55,1.41-2.66,1.4-3.53,2.86-1.89,5.93,3.54,6.64,2.01,12.85-4.15,16.95-2.65,1.76-2.8,3.34-1.22,5.64.75,1.11,1.87,1.97,2.3,3.29.83,2.52.06,4.6-2.05,6.07-2.27,1.59-4,.45-5.4-1.43-1.27-1.71-2.5-3.28-4.82-3.83-6.5-1.53-7.98-.5-10.43,7.74Z"/>
  <path class="cls-27" d="m68.18,169.28c5.86.34,6.62,5.8,9.21,9.35.92,1.27,1.12,3.07,2.63,4.5v-10.76c2.26,6.14-.51,11.14,2.19,15.5,1.55,1.33,1.46,3.18,1.57,4.96-.11,2.08.11,4.24-1.18,6.09-.33.48.32,1.5,1.17,1.73,1.04,1.33,1.25,2.97,1.71,4.52.3,4.43-1.59,9.1,1.71,13.21.66.83.61,2.26-.44,3.14-1.06.89-2.2.47-3.2-.12-2.31-1.37-4.48-2.97-6.96-4.04-1.5-.65-3.18-2.12-4.57-.04-1.18,1.76-2.08,3.77-1.06,5.95.88,1.88,2.27,3.11,4.55,2.65,1.31-.27,2.56-.84,3.91-.95,4.06-.32,6.91,2.1,7.43,6.29.51,4.1-1.62,6-5.4,6.68-1.72.31-3.46.02-5.15.41-.53.11-1.07.14-1.61.12-2.85-.68-3.34-3.48-4.74-5.43-1.74-2.41-3.73-2.99-6.47-1.88-3.03,1.24-3.17,2.6-1.03,5.07,1.76,2.03,5.56,2.4,5.26,6.17-2.42,3.83-6.54,5.33-10.2,7.46-1.62.7-2.76,1.81-2.99,3.66-.75,2.2-.43,4.44-.3,6.68-5.06,7.47-11.19,8.05-16.59,1.72-1.18-1.39-1.8-4.05-3.9-3.75-1.89.26-1.94,2.64-1.99,4.36-.08,2.54,1.03,4.48,3.43,5.5,1.48.63,3.02.46,4.56.21,4.45-.74,6.85.91,7.52,5.6,1.12,7.85,10.1,15.85,18.19,16.54,2.78.24,5.51-.6,5.3-3.79-.27-4.11.72-7.55,3.47-10.3-1.3-1.7-2.45-.77-3.51-.73-4.8.18-6.51-1.45-6.51-6.45,0-1.54-.18-3.08-.07-4.62,2.91-5.5,9.06-6.74,13.54-10.2,2.43-1.88,5.14-3.34,6.81-6.04,1.38-2.15,1.17-4.77,2.17-7.07,2.06-4.72,5.09-7.55,10.58-6.68,3.83,1.23,5.34,4.81,7.44,7.67,5.17,7.03,11.68,12.61,18.47,17.93,3.45,2.95,7.29,5.27,11.53,6.93,4.22,1.92,8.17,4.43,12.7,5.67,1.37.5,2.8.8,4.2,1.2,21.91,6.69,43.29,3.51,64.46-3.44,3.18.06,6.28-.1,8.24-3.21.59-.96,1.48-1.33,2.56-1.32,2.6.08,3.76-2.02,5.33-3.52.61-.56,1.31-.9,2.14-.96,4.01.24,5.81,2.97,6.16,6.38.3,2.96-1.85,4.39-4.78,4.51-1.51.06-1.61,1.16-1.85,2.37-1.59,7.81-3.96,9.59-11.83,8.88.4,2.43,4.75.96,4.07,4.15-.28.27-.58.54-.94.64-10.03,2.74-10.74,4.04-7.56,13.86.82,2.55,1.65,5.1,2.55,7.62,3.93,10.97,8.56,12.07,16.63,3.97,1.26-.71,1.57-2.16,2.46-3.15,3.22-3.59,8.26-3.43,10.77.64,2.56,4.15,5.72,7.7,9.15,11.12,4.49,4.48,3.04,11.88-2.71,14.43-5.76,2.55-11.35,5.55-18.14,2.88-2.55-1-5.92-.78-8.57.11-4.43,1.49-8.39.83-12.25-1.21-2.71-1.43-4.21-.94-5.03,2.06-.64,2.35-3.26,3.85-3.04,6.96,3.06.48,4.99-1.27,7.05-3.04,5.14-4.43,12.54-3.69,16.43,1.81,2.06,2.92,4.71,1.83,7.3,1.93,1.98.08,4.64-1.79,5.54,1.76-4.25,2.91-9.47,3.42-13.96,5.47-7.83,3.56-16.2,4.31-24.35,5.73-19.8,3.45-39.64,2.85-59.4-1.34-4.67-.99-9.76.64-14.29-2.23-6.42-4.07-14.39-2.85-21.25-6.04-3.22-1.5-4.81-4.51-8.13-5.77-6.88-2.61-14.49-4.74-19.92-9.3-4.87-4.08-10.21-7.43-14.99-11.47-8.14-6.89-15.88-14.33-23.09-22.19-7.77-8.46-15.17-17.36-19.73-28.16-.73-1.2-1.61-2.31-2.33-3.52-.77-1.54-1.53-3.08-2.3-4.62-.55-2.63-1.85-4.89-3.5-6.97-2.24-1.33-3.57-3.03-2.31-5.76-.35-3.6-2.46-7.67,2.93-9.6,3.74-1.34,10.84.81,12.93,4.14,1,1.6,1.72,3.98,4.2,1.99,1.98-1.59,2.84-3.44.7-5.86-4.92-5.58-4.85-5.65,1.46-9.67,3.85-2.45,5.45-11.2,2.22-14.9-3.32-3.81-2.74-5.47,1.84-7.39,3.35-1.4,6.01-4.2,9.91-1.24,1.3.98,1.98-.48,2.02-1.74.07-2.12.07-4.24,0-6.35-.07-2.37-1.15-2.87-3.42-2.06-7.9,2.85-9.26,2.3-14.61-3.87-1.98-2.28-5.08-2.44-7.96-2.69-1.01-.09-1.89-.52-2.3-1.49-.36-.83-.02-1.61.87-1.74,5.08-.73,8.24-4.57,12.07-7.32,1.2-.86,2.37-1.19,3.7-.26,1.67,1.17-.77,2.32-.01,3.48,6.37-4.01,6.54-6.77.89-11.67-.41-.36-2.86.17-1.23-1.66.27-.31,1.11-.11,1.68-.14.88-.9,1.97-1.01,3.13-.88,2.36.69,4.83.59,7.24.91.52.08,1.04.21,1.55.36,2.23.58,4.46,1.09,6.56-.4,2.06-1.32,2.65-4.44,5.63-4.64Z"/>
  <path class="cls-9" d="m225.98,287.53c-1.1-1.51-2.75-1.11-4.24-1.18-1.93-.08-2.95-1.02-2.51-2.93.4-1.76,1.64-2.33,3.48-1.94,7.18,1.52,9.68-.7,9.21-8.08-.11-1.68,0-3.46,2.23-2.94,2.18.51,4.45,1.41,5.05-1.57.57-2.84-1.32-4.84-3.67-6.27-.45-.27-.97-.43-1.45-.65-.54-1.91.88-2.83,2.06-3.69,7.85-5.63,14.04-12.85,19.9-20.42.93-1.21,1.97-2.36,3.67-2.49,1.86,2.68,1.88,6.83,6.3,7.48,1.16.17,1.6,1.56,1.65,2.79.22,5.17,2.28,3.78,4.66,1.32,4.82,3.83,9.94,7.21,15.19,10.42,8.94,5.46,8.88,5.57,16.95-.67,4.6-.86,6.64-4.25,8.76-8.54-4.2-.2-7.53,2.04-11.11,1.21-2.47-.77-5.41-1-5.47-4.61,5.05-2.03,6.97-6.82,4.92-12.31-.71-1.9-2.58-4.04.02-5.6,2.07-1.24,3.51.57,4.69,2.15.6.8,1.68,1.86,2.31,1.27,5.46-5.1,10.13.14,15.06,1.03,1.25-1.1.72-2.57.98-3.84.37-1.77,2.21-3.96.14-5.24-1.8-1.11-2.75,1.5-4.07,2.44-3.91,2.77-6.17-1.8-9.4-2.08-1.02-.09-1.9-.81-1.64-1.96.55-2.46,2.46-3.84,4.5-4.96,3.53-1.92,4.04,2.94,6.83,3.06.88-1.1-.13-3.01,1.47-3.93.97-.55,1.86-1.77,2.78-1.77,1.3.01,1.55,1.5,1.56,2.68.03,6.15,2.66,5.53,6.26,2.43.9-.77,1.91-1.59,3.09-.93,1.64.92.75,2.3.34,3.55-.57,1.77-.77,3.9,1.05,4.64,5.91,2.42,6.83,7.73,8.25,12.9.45,1.64,1.24,3.28,3.06,4,1.82,2.83-1.58,3.07-2.31,4.64-.48,1.52-1.82,2.82-1.19,4.63-1.82,8.57-7.45,15.17-11.46,22.63-8.26,15.34-19.89,28.03-31.58,40.61-6.14,6.61-13.64,12.09-20.76,17.51-5.09,3.88-10.12,9.25-16.63,10.77-6.78,1.58-12.56,5.43-19.24,7.01-3.48-2.24-6.94.97-10.47.05-1.46-.38-3.14-.05-4.03-1.66-3.61-6.53-9.71-7.24-14.64-1.49-2.16,2.51-5.23,2.84-7.81,2.82-4.14-.03-1.57-3.63-.92-4.5,2.41-3.24,4.23-6.67,5.04-10.38,5.54,1.52,9.39,6.4,16.32,3.21,3.71-1.71,9.48-.6,14.31.88,6.27,1.92,15.73-4.18,16.88-10.13.42-2.2-.17-3.93-1.71-5.14-4.33-3.39-8.04-7.09-10.07-12.44-1.03-2.71-6.22-2.42-8.43.05-.83.93-.34,3.22-2.64,2.69-4.86-8.4-7.51-17.77-11.54-26.54Z"/>
  <path class="cls-3" d="m0,168.21c1.81,10.01,1.84,20.03,0,30.04,0-10.01,0-20.03,0-30.04Z"/>
  <path class="cls-16" d="m18.46,259.73c2.32,1.75,5.18,3.22,3.5,6.97-1.92-1.95-2.96-4.33-3.5-6.97Z"/>
  <path class="cls-16" d="m24.26,271.31c1.58.64,2.36,1.81,2.33,3.51-1.21-.89-3.67-.94-2.33-3.51Z"/>
  <path class="cls-16" d="m345.36,251.6c-1.93-2.14,0-3.29,1.19-4.63.16,1.69-.38,3.19-1.19,4.63Z"/>
  <path class="cls-20" d="m83.34,169.18c0-4.36.84-8.56,2.31-12.64.18-.08.37-.24.53-.22q10.34,1.36,10.73-9.66c.1-2.79,1.45-4.47,4.21-4.43,2.92.05,5.98-1.24,8.58-.6,5.65,1.39,7.82-1.96,9.59-5.93,2.78-6.25,8-7.87,14.11-8.09,5.33-.2,10.53.28,15.12-4.03,2.92-2.74,6.13.14,8.3,2.72,1.26,1.5,2.24,3.11,4.42,3.38,2.65.32,5-.06,4.5-3.4-.79-5.2,3.79-6.16,6.38-8.68.82-.79,1.88-.56,2.42.45,1.28,2.35,3.94,2.12,5.76,3.26,7.83,4.88,14.39-.47,20.95-2.69,7.3-2.48,7.03-3.3,11.95,2.61.62.74,1.29,1.44,1.92,2.17,2.68,4.06,5.44,2.09,8.32.22,5.93-3.85,7.14-3.29,8.51,3.68,1.94,9.9,3.1,10.85,13,9.94,2.99-.27,5.65-.04,6.33,3.33.63,3.16,1.41,7.05-3.04,8.04-3.39.76-2.04,2.58-1.66,4.25q2.79,12.23-7.69,19.22c-1.28.85-2.55,1.74-3.93,2.42-1,.51-2.03.93-3.14,1.12-1.17.06-2.14-.44-3.04-1.11-2.99-2.91-5.91-5.92-10.29-6.71-5.59-2.62-10.82-.68-16.05,1.29-4.41,1.6-6.47,6.63-11.24,7.71-1.82-.15-3.45.25-4.69,1.7-6.57,7.74-15.24,12.21-24.65,15.31-4.62,1.52-7.23,5.58-11.36,7.78-8.34,4.44-9,4.62-15.81-1.97-.58-.56-1.28-.82-2.06-.94-5.44-3.88-6.58-3.89-9.42-.09-3.46,4.64-3.19,5.4,3.32,9.28-1.05,6.47-3.64,11.63-10.74,13.26-3.46.8-6.65.54-9.02-2.23-2.37-2.77-1.63-5.74.25-8.53.98-1.46,1.91-2.93,1.39-4.82-.13-2.9,2.2-4.31,3.74-6.22,1.16-1.44,3.27-2.87,1.71-4.92-1.66-2.18-4.1-1.66-6.33-.62-1.81.84-2.84,2.57-4.27,3.84-.89.79-1.89,1.36-3.12.67-2.1-4.38-.47-13.59,3.34-17.45,2.91-2.94,5.21-6.26,6.56-10.08.85-2.39,2.21-6.03-1.04-7.07-2.91-.93-6.03.86-6.85,4.56-.59,2.65-1.47,5.21-2.54,7.67-2.19,5.04-4.89,5.97-9.95,3.71q-2.43-1.09-6.37,1.4c-.67-4.1-.84-7.97.02-11.87Z"/>
  <path class="cls-14" d="m234.09,173.96c.74-.59,1.41-1.32,2.23-1.76,8.53-4.62,14.74-10.01,8.43-20.82-.83-1.42-3.39-6.87,3.39-3.95,2.57,1.11,2.03-2.45,2.13-4.13.13-2.31.25-4.87-3.14-5.05-.54-.03-1.1.34-1.66.44-10.91,1.84-14.58-1.11-15.17-12.49-.08-1.61.31-3.18-1.45-3.88-1.57-.63-2.33.93-3.38,1.69-1.09.79-2.26,1.47-3.33,2.27-3.53,2.65-6.27,2.52-7.76-2.14-.51-1.38.39-2.75,1.31-2.73,6.12.18,9.28-5.44,14.42-7.07,5.88,6.59,11.18,1.49,16.62-.81.32-.13.74.07,1.11.22.79.77,1.59,1.55,2.38,2.32.61,2.91,3.32,4.52,4.41,7.13.28,2.17,1.55,3.22,3.71,3.29,2.39,5.23,6.7,9.41,8.2,15.12.62.64.74,1.58.18,2.07-4.54,3.93-1.34,5.6,2.04,7.24,1.2.78.98,2.68,2.51,3.22,2.15,3.22.51,7.24,2.23,10.56-1.61,2.79.61,5.3.58,7.98-.19,1.16-.59,2.4-1.51,3-9.09,5.9-14.16,15.24-20.4,23.58-1.14,1.52-2.4,2.96-3.88,4.18-.47.34-1,.58-1.46.93-7.63,5.9-7.56,9.44.27,13.71.71.61-1.33.86-.17,1.64,8.3,5.58,13.77.21,19.33-4.93.76-.71,1.51-2.17,2.72-1.04.85.79.6,2.1-.08,3.13-2.16,6.61-5.69,12.54-9.18,18.49-7.23,10.13-15.83,18.95-25.63,26.6-.4.34-.79.68-1.19,1.02-1.74,1.5-3.39,3.14-5.77,3.61-.94.06-1.78.32-2.25,1.23-1.77,2.29-4.28,3.09-6.99,3.46-14.2,4.85-28.63,8.72-43.8,7.97-7.98-.39-15.92-1.59-23.47-4.48-.63-2.05-2.3-.8-3.48-1.1-4.88-.61-8.87-3.19-12.88-5.75-1.87-2.47-1.03-4.29.83-6.57,7.2-8.85,15.89-4.72,24.28-3.1,2.08.4,3.98,1.61,5.63,2.92,5,3.98,10.18,4.76,16.22,2.34,3.87-1.55,7.96-.56,11.86.94,4.79,1.84,5.01,1.42,4.77-3.81-.29-6.48-.25-12.75-5.4-17.96-2.57-2.6-.84-5.36,2.43-6.77,2.34-1.01,4.83-1.91,3.9-5.35-.86-3.19-1.32-6.6-5.88-6.54-1.69.02-3.55-.14-4.43-2.08-.16-2.73,2.24-3.34,3.85-4.56,2.61-1.99,5.31-3.86,7.06-6.74,1.16-1.91,2.08-3.93,0-5.72-2.06-1.79-4.09-.79-5.62.85-3.68,3.96-8.01,6.63-13.4,7.35-2.23.3-4.72.99-5.89-2.01,2.05-7.69,8.93-10.58,14.62-14.62,1.27-.9,3-.84,4.48-.35,6.69,2.23,12.29-.01,17.67-3.88,4.25-3.05,9.08-4.95,14.19-6.11,1.12-.16,2.14.19,3.14.59,1.91,1.1,4.07-.24,6.02.58,2.79,1.09,2.54,3.45,2.58,5.81.04,2.1,1.37,3.26,3.43,2.92,2.42-.41,5.21-.67,6.21-3.41.56-1.53-1.08-2.23-2.2-2.97-6.35-4.2-6.43-4.24-3.66-10.73,1.46-3.41.67-4.77-3.07-4.21-1.34.2-2.7.39-3.76-.79Z"/>
  <path class="cls-31" d="m247.85,113.75c-1.62,1-3.44,1.77-4.82,3.03-4.09,3.72-7.86,5.03-11.59-.43-.79-1.16-2.51-1.96-3.33-.39-2.55,4.91-6.65,6.33-11.77,6.26-.64,0-1.3,1.24-1.95,1.9-.49-.31-1.17-.5-1.43-.94-3.07-5.31-6.09-7.13-12.02-2.59-3.41,2.61-9.16,1.66-12.78,5.39-1.02,1.05-2.66.15-3.44-1.09-1.6-2.55-4.6-2.94-6.6-2.51-4.02.86-4.02-1.69-4.7-4.25-1.15,1.42-1.96,2.97-3.73,3.35-2.77.59-3.36,2.31-2.33,4.72,1.19,2.76-.19,5.55-2.36,5.3-2.78-.32-6.62,1.3-8.55-2.61-2.78-5.62-4.74-5.83-9.6-1.68-3.54,3.02-8.19,1.93-12.14,1.95-6.52.03-11.65,1.02-14.29,7.72-.77,1.94-2.17,3.62-3.24,5.44-.49.83-1.27,2.32-1.87,1.86-4.41-3.43-8.97.56-13.38-.5-3.88-.93-4.68,1.18-3.38,4.19,1.86,4.31.29,8.02-2.8,10.22-3.14,2.24-7.01.98-10.09-1.55.74-3.98,1.17-8.06,3.55-11.54.84-3.47,2.38-6.59,4.58-9.4,3.41-3.77,6.51-7.74,8.07-12.68.99-1.69,1.58-3.68,3.56-4.6,2.81.49,3.65,3.1,5.29,4.87,1.22,1.32,2.82,2.35,4.55,1.69,2.1-.8,1.88-3.17,1.07-4.4-2.74-4.21,1.76-8.55-.57-12.62.4-.38.8-.76,1.21-1.13,8.12-.08,11.73,4.31,9.33,11.42-.4,1.19-.61,2.2.36,3.14,1.15,1.11,10.91,1.4,12.26.38,2.66-2.01,3.16-6.49,1.12-10.1-.48-.12-.95-.26-1.43-.37-1.22-.31-2.44-.59-3.69-.78-3.91-2.14-7.56-9.02-6.34-11.9,9.18-7.26,20.1-10.53,31.26-12.43,20.12-3.42,39.84-1.64,58.71,6.79,11.19,5,21.1,11.74,29.31,20.89Z"/>
  <path class="cls-14" d="m83.34,169.18v10.59c2.04-.77.72-3.88,2.76-3.8,1.36.05,2.75,1.19,4,2.02,4.1,2.74,6.83,2.04,8.23-2.76.85-2.91,2.13-5.64,2.68-8.73.78-4.39,5.45-4.77,8.91-5.03,3.61-.27,2.29,3.26,2.41,5.29.38,6.11-3.38,10.5-7.05,14.56-4.57,5.05-5.25,10.76-4.48,17.03,1.73,3.46,4.09,6.2,8.15,6.93,3.72,1.06,2.14,2.97.55,4.51-2.39,2.33-4.41,5.05-2.07,8.02,2.58,3.27,6.35,3.27,9.93,1.18,3.24-1.9,8.31-2.41,5.96-8.49-.79-2.03,2.39-1.42,2.96-2.86,1.45-3.75,4.84-6.06,6.95-9.32.17-.9.38-2.34,1.55-1.08,2.25,2.43,3.38,6.62,7.43,6.25,4.81-.45,8.99-3.23,12.33-6.48,2.3-2.24,4.69-3.56,7.57-4.69,9.02-3.55,17.99-7.22,23.86-15.67,1.41-2.03,3.5-2.19,5.38-.22.03.24.05.48.08.72.02,1.4-.13,2.83.95,3.97.85.9,1.75,1.72,2.8,2.38,1.3,1,3.51.63,4.33,3.47-9.23,2.32-16.43,8.47-24.52,13.06-1.55.88-3.37.8-5.1.62-2.89-.31-5.28.51-7.14,2.76-3.27.19-6.84-2.86-9.79.89-1.15,2.6-2.47,4.03-5.85,4.9-5.27,1.35-7.95,7.64-13.03,9.82-5.45,2.33-6.69,7.23-8.88,11.72-.76,1.56-1.42,3,.98,3.45,2.89.54,4.38,2.15,4.53,5.06.02.38.04.95.29,1.09,9.47,5.29.35,12.39,1.52,18.63.74,3.96-4.46,5.01-9.79,2.05-9.67-5.76-16.6-14.23-23.05-23.19-.65-.91-1.5-1.67-2.26-2.5-7.19-7.48-10.3-16.83-12.25-26.71-.22-1.09.31-2.32-.61-3.28-1.66-1.27-.95-3.11-1.11-4.73-1.58-2.16.29-4.88-1.16-7.06-.03-1.89-.06-3.78-.09-5.67.58-6.22-1.21-12.58,1.13-18.69Z"/>
  <path class="cls-13" d="m248,202.94c7.35-9.54,12.22-21.15,23.28-27.58.92-.54,1.49-1.69,2.22-2.56,1.23-.4,0-2.02,1.21-2.44,2.61,11.7,1.07,23.22-1.76,34.62-1.01,4.06-2.69,7.95-4.07,11.91-.03-.57.07-1.2-.12-1.71-.57-1.49-.77-.53-1.14.17-2.09,3.94-6.42,5.2-9.65,7.76-2.8,2.21-11.53-.2-13.34-3.11-.09-.15,1.43-1.31,2.21-2,.07-.57.16-1.22.58-1.56,4.53-3.74,4.82-7.68.68-11.91-.39-.4-.36-1.04-.1-1.59Z"/>
  <path class="cls-33" d="m185.27,52.26c0,3.28.3,6.59-.07,9.82-.56,4.86-4.55,7.9-9.2,7.64-5.11-.28-7.09-3.86-7.5-8.05-.56-5.7-.43-11.47-.37-17.21.06-5.45,4.07-10.11,8.37-10.1,4.63.01,8.67,4.73,8.82,10.39.07,2.5.01,5.01.01,7.52-.02,0-.04,0-.06,0Z"/>
  <path class="cls-10" d="m304.82,257.41c-5.88,7.42-8.02,7.87-16.11,2.3-5.69-3.92-12.99-5.84-16.38-12.74.87-10.34,6.25-13.03,14.91-7.56,3.05,1.93,6.27,3.58,9.42,5.36,1.27,2.19,3.38,2.98,5.7,3.42,3.77,2.28,4.97,5.26,2.47,9.22Z"/>
  <path class="cls-24" d="m68.18,169.28c-1.51,1.89-3.01,3.77-4.52,5.66-2.67,1.25-5.36.96-8.07.15h.02c-2.56-1.5-5.59.38-8.15-1.13-1.13,0-2.26-.02-3.39-.03-.84-.99-2-.92-3.14-1.06-5.59-.67-7.85-3.34-7.43-8.68.39-4.9,3.84-8.42,8.94-7.36,5.49,1.14,11.01.79,16.49,1.61,6.8,1.02,9,4.82,9.25,10.85Z"/>
  <path class="cls-34" d="m104.28,93.11c-.11,3.59-2.38,5.31-4.91,6.86-2.72,1.66-5.46,1.16-7.52-.74-4.97-4.57-9.95-9.19-14.31-14.32-2.76-3.24-3.2-7.42.06-11.09,3.26-3.67,7.55-3.89,10.96-1.3,6.48,4.91,11.04,11.69,15.3,18.57.38.61.32,1.49.42,2.02Z"/>
  <path class="cls-2" d="m278.32,79.77c.21,1.64-.67,3.77-2.63,5.7-3.98,3.93-7.71,8.11-11.66,12.06-3,3.01-6.54,3.39-9.85.73-3.24-2.6-5.38-6.18-2.54-10.08,4.07-5.59,8.5-10.95,13.23-15.99,2.28-2.43,5.59-2.94,9.07-1.48,3.78,1.58,4.19,4.64,4.38,9.05Z"/>
  <path class="cls-34" d="m312.28,155.46c7.72-.05,11.69,2.9,11.86,7.69.16,4.33-4.13,7.93-9.89,8.55-4.95.53-9.89,1.19-14.8,1.98-4.77.76-7.95-1.21-9.48-5.54-1.32-3.75,1.62-9.27,5.59-10.1,6-1.25,12.12-1.9,16.71-2.59Z"/>
  <path class="cls-15" d="m140.18,110.23c3.85-1.38,2.44,2.24,2.72,3.36,1.69,6.57-2.8,11.44-9.19,10.03-1.83-.41-3.32-.17-5.01.24-2.3.56-3.5-1.29-4.68-2.74-1.34-1.65.04-2.81,1.09-3.93,2.98-3.21,3.14-5.62-1.8-6.79-2.45-.58-3.48-3.74-6.35-3.68,3.46-3.32,7.07-6.42,11.61-8.21-.51,1.27-.9,2.59.56,3.48,2.46,1.49,4.76,3.02,3.86,6.49.88.21,1.76.41,2.63.62.26,2.19-1.86,2.2-2.9,3.21-2.06,1.73-1.22,3.58.29,4.77,2.26,1.79,4.19.58,5.66-1.49.23-.42.47-.85.68-1.28.71-1.27-.03-2.83.81-4.08Z"/>
  <path class="cls-20" d="m115.76,107.85c1.2.96,4.27,1.21,2.87,3.3-2.28,3.42-1.71,6.35-.61,9.85.55,1.73,1.15,4.96-1.28,5.56-2.58.64-6.11.4-7.49-2.6-1.01-2.17-2.89-3.55-3.82-5.64,2.66-4.26,5.59-8.27,10.34-10.46Z"/>
  <path class="cls-31" d="m268.87,151.94c-1.06-.38-2.1-1-3.19-1.1-1.81-.16-2.8-1.15-3.22-2.71-.51-1.89.33-3.39,2.05-4.14,1.17-.51,1.93-1.1,2.04-2.39,1.67,2.45,2.85,5.11,3.49,8.01-.67.63-.22,1.82-1.16,2.32Z"/>
  <path class="cls-20" d="m101.86,122.92c2.1,3.08-.91,5.4-1.95,7.35-1.21,2.26-3.58,4.18-5.16,6.55-.54.81-.73-.68-.96-1.22,1.57-4.94,4.65-8.92,8.07-12.68Z"/>
  <path class="cls-31" d="m258.34,126.49c-1.1.59-1.57,2.64-3.1,1.98-2.57-1.11-1.03-3.63-1.45-5.5.22-.53.61-.89,1.14-1.11,1.14,1.54,2.27,3.09,3.41,4.63Z"/>
  <path class="cls-20" d="m274.72,170.36c-.05,1.11.31,2.57-.25,3.25-.87,1.05-.72-.38-.96-.81-1.21-2.7-2.15-5.4,0-8.11.41,1.89.81,3.78,1.22,5.67Z"/>
  <path class="cls-20" d="m254.94,121.86c-.38.37-.76.74-1.14,1.11-1.41-2.19-4.32-3.6-3.57-6.9,1.57,1.93,3.14,3.86,4.71,5.79Z"/>
  <path class="cls-20" d="m268.87,151.94c.02-.96.23-1.82,1.16-2.32.8,1.4,1.33,2.87,1.24,4.51-2.61,1.25-2.02-1.01-2.4-2.2Z"/>
  <path class="cls-7" d="m122.74,261c1.58-1.59,2.24.65,3.41.85,3.01.51,5.73-.91,5.57-3.49-.29-4.71-.63-9.07,3-12.73.16-.16,0-.99-.11-1.01-4.57-.87-6.39-3.61-5.82-8.17.03-.23-1.29-.97-1.92-.9-6.94.71-6.09-1.87-2.61-5.84,1.27-1.45,2.08-3.25,2.02-5.28-.08-2.86.85-3.82,4.03-4.8,3.74-1.14,6.93-4.56,9.94-7.44,1.78-1.7,3.26-4.59,5.61-4.39,4.1.35,4.98-2.01,5.87-4.89,6.19,15.18,17.87,19.89,33.3,17.5,1.34-.21,2.69-.19,3.79.82.68,1.13,1.78,1.53,2.96,1.36,5.18-.75,6.97,1.37,8.35,6.57,1.3,4.91.46,6.63-3.94,7.84-3.79,1.05-5.6,2.59-1.65,6.17,1.85,1.68,2.32,4.71,4.95,6.01.88.44,1.27,1.9.67,2.55-3.47,3.71-1.02,7.83-.46,11.47.76,4.89-1.59,5.59-4.62,3.93-5.9-3.23-11.35-3.47-17.58-.93-3.18,1.3-6.8.85-10.24-1.74-5.47-4.1-11.54-6.25-18.97-6.52-4.87-.17-7.53.68-10.95,3.49-2.37,1.94-3.74,3.51-3.11,6.5-4.54-1.14-8.45-3.33-11.5-6.95Z"/>
  <path class="cls-16" d="m64.84,264.29c.63,1.4,1.23,2.74,1.1,4.4-.47,5.73.53,6.42,6.3,5.05,1.23-.3,2.91-2.11,3.95.2.71,1.58-.07,3.05-1.31,4.12-2.57,2.22-3.27,4.5-2.34,8.11,1.17,4.54-4.94,7.73-9.84,5.32-4.37-2.16-8.9-4.18-12.82-7-3.46-2.49-4.26-6.75-4.09-10.93.14-3.37-1.72-4.94-4.54-4.12-4.4,1.28-8.05,1.13-10.55-3.07-1.81-3.04-.45-7.3,3.58-11.95,3.12,3.86,4.45,10.19,9.88,10.68,2.98.27,7.26-1.7,9.16-5.48,4.09.96,7.57,3.41,11.53,4.69Z"/>
  <path class="cls-35" d="m64.84,264.29c-4.96,1.17-8.37-1.45-11.53-4.69-2.01-2.24-.35-4.47.01-6.7.69-1.58,1.98-2.61,3.31-3.6,3.52-2.33,7.03-4.66,10.55-6.98,2-2.8,4.99-3.84,8.15-4.58l-.03.02c8.92-.8,11.98,2.62,10.34,11.53-3.79,5.41-10.07,7.43-15.16,11.08-1.86,1.34-3.76,2.62-5.64,3.92Z"/>
  <path class="cls-11" d="m225.98,287.53c6.29,7.79,8.79,17.21,11.54,26.54-1.91,3.66-4.18,7.14-8.89,6.83-4.77-.31-7.48-3.5-8.96-7.84-1.31-3.82-2.51-7.68-3.94-11.45-3.39-8.92-1.13-15.55,10.26-14.08Z"/>
  <path class="cls-23" d="m142.81,295.33c-3.32,7.31-4.3,15.84-9.54,22.41-2.36,2.95-6.31,3.68-10,1.71-4.05-2.17-5.02-6.05-3.63-9.9,2.32-6.45,4.79-12.9,8.38-18.83,2.1-3.46,4.86-4.45,8.71-3.39,4.02,1.1,5.13,4.18,6.08,8Z"/>
  <path class="cls-16" d="m85.64,249.28c.08-8.2-1.81-10.31-10.34-11.53,1.31-1.85,3.35-.39,4.65-.93,1.89-.79,4.97.41,5.63-2.77.5-2.41-.11-4.66-1.65-6.49-1.78-2.12-4.36-2-6.31-.72-3.79,2.51-5.72.66-7.96-2.22-3.12-4.02.78-6.95,1.67-10.05.61-2.15,3.58.5,5.27,1.29,3.23,1.5,6.24,3.47,10,5.1-3.06-5.02-4.14-10.17-2.03-15.62,3.66,10.27,7.4,20.49,12.87,29.99-7.85,1.23-9.44,2.95-10.55,11.56-.13.99-.37,1.83-1.24,2.4Z"/>
  <path class="cls-16" d="m75.33,237.73c-2.54,1.85-5.01,3.82-8.15,4.58-2.57-2.37-5.17-4.71-7.69-7.13-1.92-1.84-1.49-3.14.88-4.36,6.83-3.5,7.74-3.18,11.79,3.43.74,1.21.87,3.5,3.17,3.47Z"/>
  <path class="cls-16" d="m57.81,192.49c-1.77,0-3.59-.07-4.21-2.14-.69-2.28,1.64-2.03,2.61-2.97,2.36-2.28,6.24-3.12,6.65-7.32.17-1.72,1.99-1.44,3.31-1.38,1.36.06,1.98.87,2.09,2.21.36,4.2-6.36,11.69-10.44,11.6Z"/>
  <path class="cls-16" d="m82.3,193.53c1.87,2.11.81,4.7,1.15,7.06-1.24.89-2.72,3.02-3.38-.33-.32-1.63-.06-3.37-.06-5.13,2.06.32.25,2.56,1.99,3.23.1-1.68.2-3.26.29-4.84Z"/>
  <path class="cls-9" d="m217.86,271.31c2.33-1.15,4.66-2.3,6.99-3.46-1.12,3.6-3.67,4.3-6.99,3.46Z"/>
  <path class="cls-7" d="m147.11,273.7c2.18-2.56,4.01.05,6.11.27-.74,1.1-1.76.69-2.63.83-1.27-.02-2.58.09-3.48-1.1Z"/>
  <path class="cls-9" d="m227.11,266.62c1.71-1.55,3.44-3.06,5.77-3.61-1.32,2.17-2.43,4.67-5.77,3.61Z"/>
  <path class="cls-16" d="m47.47,173.95c2.72.38,5.68-.98,8.15,1.15-2.71-.41-5.69,1.09-8.15-1.15Z"/>
  <path class="cls-16" d="m55.59,175.08c2.69-.05,5.38-.1,8.07-.15-2.65,2.2-5.35,1.96-8.07.15Z"/>
  <path class="cls-16" d="m56.63,249.29c-.67,1.6-1.96,2.63-3.31,3.6-.02-2.23,1.08-3.44,3.31-3.6Z"/>
  <path class="cls-16" d="m304.82,257.41c.46-3.42-.55-6.44-2.47-9.22,2.92.1,5.72-.23,8.32-1.77,1.5-.89,3-.64,4,.93.87,1.36.53,3.08-.67,3.55-3.65,1.43-3.08,8.73-9.19,6.5Z"/>
  <path class="cls-18" d="m151.92,173.91c-5.96,3.02-11.47,6.66-15.78,11.84-3.46,4.17-7.09,4.48-11.39,1.23-2.58-1.94-5.49-3.45-8.22-5.19-2.47-1.57-3.46-3.08,0-4.78,1.75-.86,2.82-2.5,3.28-6.18.55,3.03.78,4.29,1.04,5.55,0,.04.37.07.53,0,.16-.07.28-.25.42-.39,6.67,3.19,6.72,3.22,11.87-2.55,3.72-4.17,8.36-4.97,13.56-4.09,2.18.87,4.77,1.34,4.69,4.54Z"/>
  <path class="cls-25" d="m147.17,170.54c-6.4-.62-11.51.87-14.84,7.19-2.5,4.75-6.72,3.88-10.53-1.72,2.68-7.25,6.78-13.06,14.98-14.7,1.68,1.06,3.37.1,5.06,0,2.28-.13,3.77.91,4.04,3.19.27,2.31-.38,4.11-2.97,4.2,1.06.85,4.02-1.64,4.27,1.84Z"/>
  <path class="cls-13" d="m234.09,173.96c.39-.01.77-.02,1.16-.03,2.69-.07,5.73-2.98,7.96.23,1.93,2.78-.75,5.05-2.12,7.19-2.4,3.75-.15,5.24,2.79,6.48,2.64,1.11,6.61,2.01,4.8,5.63-1.76,3.5-6.27,4.72-10.02,4.39-2.97-.26-4.18-3.25-2.88-6.32.89-2.1-1.24-2.54-1.76-3.84-.13-.23-.27-.45-.4-.68-.01-.26-.02-.52-.05-.78,1.38-4-2.64-7.13-1.82-11.04.49-.96,1.36-1.2,2.34-1.23Z"/>
  <path class="cls-4" d="m228.15,187.95c-.73-.4-1.46-.81-2.19-1.21-3.57-2.44-4.9-7.34-9.51-8.65-.46-.27-.9-.58-1.34-.88-2.49-1.25-5.66.14-7.91-2.03-.16-.57-.06-1.09.29-1.57,2.46-1.27,5.35-1.93,6.4-4.51-2.48.64-5.35,1.23-8.1-1.79,4.83-1.7,9.24-1.57,13.69-.47,4.46.67,7.55,3.37,10.14,6.81.55,1.32.13,2.58-.24,3.84-.96,3.23-1.22,6.05,3.36,6.49,1.56.15,2.47,1,1.31,2.67l-.02.02c-1.88.8-3.75,1.63-5.88,1.27Z"/>
  <path class="cls-5" d="m147.17,170.54c-1.84-2.39-4.76-.39-7.2-1.83,2.09-.95,5.48-.14,4.83-3.98-.56-3.25-3.05-2.13-4.92-2.34-1.14-.13-2.29-.06-3.1-1.08,9.72-3.74,17.84-1.39,24.53,6.43-.48,4.58-3.49,6.17-7.61,6.45-.59-.09-1.18-.19-1.77-.28-.77-2.26-3.17-2.24-4.75-3.37Z"/>
  <path class="cls-12" d="m207.43,173.96v1.15c.39.43.53.91.37,1.48-.22.51-.51.98-.85,1.42-.18.21-.37.42-.54.63-2.04,1.92-3.79,4.15-6.12,5.77-2.27.61-4.54,1.21-6.71-.31-.76-.69-1.53-1.37-2.29-2.06-.96-1.93-1.11-3.84.07-5.74,0,0,0,.1,0,.1,3.31-2.82,5.72-6.73,10.06-8.33,5.74-1.85,3.73,4.2,6.01,5.88Z"/>
  <path class="cls-28" d="m108.96,205.27c-6.07.7-7.67-.66-8.15-6.93,2.69-1.77,3.61-5.4,7.05-6.49,3.04-.97,5.98-.7,7.97,1.55,2.3,2.6-.55,4.45-1.98,6.29-1.51,1.95-3.25,3.73-4.89,5.58Z"/>
  <path class="cls-30" d="m133.24,198.31c.02,4.84-4.07,6.63-6.95,9.32-3.01-.08-7.53.44-7.34-3.31.19-3.88,2.82-8.02,6.66-10.11,4.1-2.22,5.48,1.95,7.63,4.1Z"/>
  <path class="cls-32" d="m153.69,174.19c2.55-2.13,5.84-3.39,7.61-6.44,2.17,1.73,3.18,4.27,4.45,6.58,1.64,2.98.96,5.8-2.1,7.26-2.86,1.36-5.65.67-7.37-2.33-.94-1.64-1.73-3.37-2.59-5.06Z"/>
  <path class="cls-19" d="m207.43,173.96c-1.41-1.42-4.09-1.72-3.48-4.89.32-1.65-1.7-.52-2.53-.99,5.87-2.57,11.78-4.59,18.06-1.24-3.96,0-7.92,0-11.89,0,0,.38-.02.76-.03,1.15h10.17c-4.15,1.03-4.63,8.44-10.32,5.97Z"/>
  <path class="cls-26" d="m234.06,186.65c-.03-.19,0-.51-.1-.55-8.34-3.15-8.61-3.91-4.33-12.45.71.51,1.41,1.03,2.12,1.54.69,3.84,6.3,6.68,2.31,11.46Z"/>
  <path class="cls-22" d="m193.58,184.11c2.34-.06,4.79.71,6.94-.85,3.42,2.81,5.86,2,7.29-2.07.86-2.43,2.55-2.15,4.26-1.8-1.31-1.83-4.95,2.16-5.73-1.86l.05-.03c3.54-1.78,7.11-1.7,10.71-.22,5.11,1.14,6.9,5.38,8.86,9.46-8.71,2.28-15.1,9.43-24.01,11.38-2.82.62-5.29,1.69-8.07-.51-1.44-1.14-4.02-1.02-5.33.63-3.36,4.25-10.39,4.63-11.61,11.13-.14.73-1.33,1.26-2.03,1.89-6.48,1.63-12.53-2.29-12.79-8.3,1.21-1.47.94-4.36,4.31-3.64,7.86,1.7,13.19-3.6,18.79-7.54,3.97-2.8,8.29-4.21,12.89-5.53-1.12-1.54-3.83.17-4.53-2.13Z"/>
  <path class="cls-8" d="m162.13,202.96c2.54,5.41,7.02,7.86,12.79,8.3,6.91,1.69,12.43-.76,17.03-5.79,2.35-2.57,4.75-4.96,8.33-2.13,3.8,3,2.02,6.08-.16,9.07-2.93,4.01-7.27,6.22-11.3,8.82-11.36,2.95-21.99,2.08-31.13-6.11-3.59-3.22-7.03-6.65-5.96-12.21,3.48-3.27,6.95-3.58,10.41.04Z"/>
  <path class="cls-21" d="m248,202.94c7.23,7.46,7.15,8.6-1.16,15.06-3.2-.44-7.41.69-8.06-4.18-.46-3.45,5.45-10.06,9.22-10.89Z"/>
  <path class="cls-29" d="m235.08,204.51c0,3.44-6.24,11.1-8.85,11.02-3.47-.1-5.21-2.33-5.31-5.58-.1-3.36,5.54-9.27,8.65-8.87,2.26.29,5.23.44,5.5,3.43Z"/>
  <path class="cls-13" d="m256.48,172.13c-1.22,1.51-2.91,2.05-4.64,1.77-1.6-.25-3.27,2.09-4.64-.1-.29-.46.03-1.54.4-2.12,1.13-1.76,2.8-2.53,4.94-2.36,1.9.15,3.3.9,3.94,2.8Z"/>
  <path class="cls-20" d="m249.06,184.38c-1.29-.11-3.28.11-3.02-1.68.47-3.16,3.72-2.8,5.91-3.54,1.57-.53,1.84.96,1.72,2.15-.28,2.84-2.37,3.1-4.62,3.07Z"/>
  <path class="cls-31" d="m244.61,127.53c2.57-1.5,4.46-1.53,6.1.3.25.28.18,1.32-.06,1.46-2.24,1.33-3.94.16-6.04-1.76Z"/>
  <path class="cls-26" d="m228.15,187.95c1.81-1.13,3.81-1.38,5.88-1.27.01.34,0,.67-.02,1.01-1.94.34-3.84,1.82-5.87.26Z"/>
  <path class="cls-20" d="m164.22,120.85c-.91,2.28-2.8,3.19-4.75,4-1.94.81-2.44-.43-3.3-1.94-1.1-1.93-2.91-3.46-4.39-5.19-.82-.96-2.64-2.03-1.61-3.21,1.16-1.33,3.83-2.65,5.06-1.54,2.65,2.4,4.95,5.11,8.4,6.48.35.14.42.97.59,1.4Z"/>
  <path class="cls-1" d="m132.03,111.31c1.2-.74,2.4-1.48,3.6-2.21,1.13.39,2.26.77,3.39,1.16.78,1.44,2.45,2.65,1.2,4.62h0c-1.61,2.03-2.93,4.58-6.2,3.9-2.19-.46-2.62-2.51-3.38-4.16-.69-1.49.34-2.45,1.39-3.3Z"/>
  <path class="cls-20" d="m89.21,144.99c.69,0,1.82-1.3,1.91.4.04.68-.91,1.41-1.41,2.12-.17-.84-.34-1.67-.51-2.51,0,0,0,0,0,0Z"/>
  <path class="cls-17" d="m140.22,114.87c-.4-1.54-.8-3.08-1.2-4.62.39-.02.77-.03,1.16-.02.57,1.54,2.13,3.07.04,4.64Z"/>
  <path class="cls-20" d="m191.37,176.32c-.02,1.91-.05,3.83-.07,5.74-1.82-1.94-1.9-3.85.07-5.74Z"/>
  <path class="cls-17" d="m132.03,111.31c-1.49,2.61-.67,4.98,1.54,6.37,3.17,2,4.31-2.09,6.65-2.81-.5,3.14-2.38,4.6-5.53,4.62-2.3.02-3.47-1.34-4.21-3.25-.78-2.03-1.67-4.14,1.56-4.93Z"/>
  <path class="cls-27" d="m59,276.93c-.24,1.49.89,3.75-1.29,4.42-2.24.69-3.38-1.3-4.3-2.94-.63-1.13-1.3-2.5-1.22-3.72.19-2.68-3.95-3.46-2.64-6.29.42-.91,1.99-.55,2.49.18,2.07,3,8.53,2.3,6.96,8.35Z"/>
  <path class="cls-6" d="m217.11,177.28c-3.57.07-7.14.15-10.71.22.34-.42.69-.84,1.03-1.26,3.1-.81,6.19-.94,9.27.09.14.32.27.63.41.95Z"/>
  <path class="cls-19" d="m216.7,176.33c-3.09-.03-6.18-.06-9.27-.09,0-.38,0-.75,0-1.13,3.07.53,6.44-1.2,9.26,1.22Z"/>
  <path class="cls-6" d="m206.35,177.53c2.28,2.19,5.23.37,8.32,1.55-2.93.73-5.66.73-6.21,4.48-.23,1.56-2.31,4.02-5.12,3.9-2.86-.12-1.32-3.18-2.82-4.2,1.24-2.62,3.15-4.57,5.82-5.73Z"/>
</svg>