<?xml version="1.0" encoding="UTF-8"?>
<svg id="Capa_1" data-name="Capa 1" xmlns="http://www.w3.org/2000/svg" viewBox="0 0 323.08 324.91">
  <defs>
    <style>
      .cls-1 {
        fill: #bfa2fa;
      }

      .cls-1, .cls-2, .cls-3, .cls-4, .cls-5, .cls-6, .cls-7, .cls-8, .cls-9, .cls-10, .cls-11, .cls-12, .cls-13, .cls-14, .cls-15, .cls-16, .cls-17, .cls-18, .cls-19, .cls-20, .cls-21, .cls-22, .cls-23, .cls-24, .cls-25, .cls-26, .cls-27, .cls-28, .cls-29, .cls-30, .cls-31, .cls-32, .cls-33, .cls-34, .cls-35, .cls-36, .cls-37, .cls-38, .cls-39, .cls-40, .cls-41, .cls-42, .cls-43, .cls-44, .cls-45, .cls-46, .cls-47, .cls-48, .cls-49, .cls-50, .cls-51 {
        stroke-width: 0px;
      }

      .cls-2 {
        fill: #efe5fc;
      }

      .cls-3 {
        fill: #272083;
      }

      .cls-4 {
        fill: #c6a2fa;
      }

      .cls-5 {
        fill: #262082;
      }

      .cls-6 {
        fill: #d3bcfa;
      }

      .cls-7 {
        fill: #272283;
      }

      .cls-8 {
        fill: #c2a8fb;
      }

      .cls-9 {
        fill: #bfa5fa;
      }

      .cls-10 {
        fill: #d6d4d7;
      }

      .cls-11 {
        fill: #ead8e7;
      }

      .cls-12 {
        fill: #d8d7d9;
      }

      .cls-13 {
        fill: #241f83;
      }

      .cls-14 {
        fill: #322990;
      }

      .cls-15 {
        fill: #ccb5fa;
      }

      .cls-16 {
        fill: #b79cf8;
      }

      .cls-17 {
        fill: #fdf3fc;
      }

      .cls-18 {
        fill: #f6f1fb;
      }

      .cls-19 {
        fill: #bda2fa;
      }

      .cls-20 {
        fill: #decbf9;
      }

      .cls-21 {
        fill: #c6a0fa;
      }

      .cls-22 {
        fill: #c7a3fb;
      }

      .cls-23 {
        fill: #c39ffa;
      }

      .cls-24 {
        fill: #dedcde;
      }

      .cls-25 {
        fill: #c4aafb;
      }

      .cls-26 {
        fill: #c0a5fa;
      }

      .cls-27 {
        fill: #c3a8fa;
      }

      .cls-28 {
        fill: #d5c1fa;
      }

      .cls-29 {
        fill: #bea2f9;
      }

      .cls-30 {
        fill: #c19cf9;
      }

      .cls-31 {
        fill: #f4def2;
      }

      .cls-32 {
        fill: #c9a5fa;
      }

      .cls-33 {
        fill: #2b258e;
      }

      .cls-34 {
        fill: #f4ebf3;
      }

      .cls-35 {
        fill: #f4def3;
      }

      .cls-36 {
        fill: #c4adfa;
      }

      .cls-37 {
        fill: #cbabfa;
      }

      .cls-38 {
        fill: #c49efa;
      }

      .cls-39 {
        fill: #e3cce0;
      }

      .cls-40 {
        fill: #c9a2fa;
      }

      .cls-41 {
        fill: #c0a7fa;
      }

      .cls-42 {
        fill: #2e2586;
      }

      .cls-43 {
        fill: #cdb7f9;
      }

      .cls-44 {
        fill: #322a96;
      }

      .cls-45 {
        fill: #faf6fb;
      }

      .cls-46 {
        fill: #131176;
      }

      .cls-47 {
        fill: #b89df9;
      }

      .cls-48 {
        fill: #ab8cf1;
      }

      .cls-49 {
        fill: #cfa8fa;
      }

      .cls-50 {
        fill: #caa3fa;
      }

      .cls-51 {
        fill: #d7c1fb;
      }
    </style>
  </defs>
  <path class="cls-31" d="m320.21,184.95c-.32,0-.64,0-.96,0-1.39,1.9.23,4.31-1.04,6.23-1.46,8.24-2.47,16.6-4.52,24.69-1.68,6.65-4.16,13.3-8.15,18.92-5.09,7.17-9.33,14.88-14.12,22.21-8.16,12.49-18.51,22.5-29.48,32.16-1.39,1.23-3.08,2.12-4.63,3.16-5.13,3-10.58,5.55-14.47,10.29-13.53,7.84-27.76,13.98-42.93,17.92-4.82,1.25-9.59,2.27-14.43.35-.49,2.03,1.51.8,1.61,1.97-2.18,1.26-4.1-.49-6.15-.61-4.59,1.18-9.08,2.31-12.72-2.33-1.17-1.49-3.05-1.36-4.49.18-.79.84-1.02,2.54-2.38,2.47-6.91-.38-13.85,1.55-20.72-.32h-.5s-.5,0-.5,0c-3.23-.15-6.57.16-9.35-2.05-.67,0-1.34-.01-2.01-.02-7.58-.4-14.73-2.59-21.8-5.16-1.31-.47-2.91-1.01-2.91-2.52,0-1.44,1.79-1.26,2.8-1.81,2.85-1.55,5.6-2.89,8.17.54.79,1.05,1.68.36,2.65-.23,4.11-2.47,5.2-2.02,6.84,2.64.35.99.51,1.98,1.61,2.43,1.29-1.4-.35-1.94-.73-2.79-1.6-3.59-.9-6.12,2.73-7.42,2.25-.81,3.39-1.78,3.58-4.27.2-2.55-.84-3.78-3.08-4.59-2.44-.89-3.27-2.88-3.01-5.38.24-2.31,1.52-3.35,3.83-3.15.35.03.69,0,1.02-.05-1.15-5.56,7.2-5.29,6.55-11.1-.42-3.74,2.52-6.21,6.65-6.36,3.91,1.35,3.48,5.08,4.41,8.06-.51,2.69,2.26,4.08,2.66,6.45.03.18.63-.91,1.29-.96,7.32,1.58,11.42-2.24,14.92-8.1,3.59-6.02,5.64-13,10.93-17.98,6.59-5.46,13.4-4.07,20.17-.49,5.76,3.05,11,7.04,17.02,9.64,7.31.88,10.22-1.27,10.21-8.37-.02-6.72,1.02-13.35,1.19-20.04.07-2.83,1.04-5.37,2.49-7.76,3.69-5.97,9.34-8.07,16.04-8.06.51-.16,1.03-.26,1.56-.33,3.05-.38,6.15.13,9.19-.48.47-.16.94-.28,1.43-.37,1.68-.3,3.41-.28,5.08-.7,6.34-1.58,8.18-5.05,6.04-11.41-1.77-3.5-3.9-6.75-6.34-9.81-1.43-2.52-3.11-4.88-4.56-7.38-2.47-4.25-2.74-8.66-.69-13.18,2.84-4.91,7.32-8.12,11.82-11.29,3.23-2.28,6.49-4.52,9.54-7.02,6.16-5.06,5.66-10.34-1.21-14.2-5.1-2.86-10.6-4.89-15.74-7.67-4.16-2.25-7.9-4.9-9.41-9.73-.53-2.15-.47-4.32-.27-6.5.06-.55.19-1.09.35-1.61,1.75-5.24,4.56-10,6.94-14.95.82-1.7,1.76-3.36,2.26-5.19,1.54-5.65-.53-8.72-6.39-8.98-8.07-.36-16.16.12-24.23-.3-.53-.06-1.05-.19-1.56-.34-4.44-.71-7.35-3.79-10.37-6.7-2.99-5.44-2.5-11.56-3.22-17.42-.39-3.21-.67-6.45-1.37-9.6-1.24-5.6-4.48-7.29-10.21-5.51-5.22,2.72-9.68,6.54-14.44,9.92-3.79,2.68-7.63,5.39-12.44,5.92-5.95.66-11.32-.51-15.35-5.39-3.95-4.51-7.02-9.68-10.74-14.38-2.32-2.93-4.46-6.42-9.06-5.42-4.39.96-6.37,4.28-7.43,8.32-.17.66-.35,1.32-.55,1.98-1.47,4.95-3.48,9.71-5.24,14.55-3.12,8.57-10.6,13.14-19.79,12.29-6.02-.55-11.83-2.14-17.71-3.38-1.51-.32-3-.75-4.54-.94-8.25-1.03-11.58,2.42-10.35,10.67.87,5.78,2.12,11.49,3.04,17.25,1.52,12.5-1.88,18.98-13.18,24.47-5.71,2.77-11.8,4.67-17.47,7.59-7.86,4.04-8.96,9.67-2.82,15.85,3.63,3.66,7.77,6.75,11.75,10.02,9.32,7.68,10.64,16.01,4.15,26.23-5.6,7.6-11.74,14.88-13.84,24.46-.37.35-.8.44-1.28.26-.25-.63-.03.23-.36-.36-.32-.56-.07-1.22-.45-1.73.23.6.05,1.33.57,1.84,1.91,1.36,2.99,4.16,6.08,3.49,6.37,1.03,12.82,1.19,19.21,1.98,1.96.24,4.12.24,5.68,1.84.08,2.58-2.1,1.01-3.07,1.65-.68.12.42.83.03.26,1.09-.7,2.73.08,3.58-1.32,1.54-.68,2.93-.72,3.88.96-.11.87-.75,1-1.45,1.04.12.17.3.07.45.09,3.06.37,3.82,2.09,2.52,4.67-1.31,2.61-2.98,6.1-6.42,3.98-4.46-2.76-8.81-2.03-13.4-1.53-4.86.53-9.46-.74-13.94-2.42-3.03-1.14-5.23-2.9-5.1-6.8.1-2.8-2.19-5.21-4.57-5.56-4.19-.62-6.23-3.12-8.24-7.73-.31,2.49.62,3.42.69,4.48.11,1.68-.42,3.12-1.9,3.94-1.77.99-2.87-.27-3.87-1.5-.54-.66-.85-1.49-1.46-2.11-.79-.8-1.79-1.15-2.81-.67-1.34.63-.85,1.67-.29,2.56,2.19,3.47.29,5.41-2.57,6.98-1.96,1.08-3.14,1.47-1.14,4.39,1.38,2.01,2.91,6.4-.77,9.12-.02-.83-.17-1.6-.99-2.04-1.15-1.55-1.98-3.23-2.09-5.2-.68-2.05-1.37-4.11-2.05-6.16-1-1.44-2.04-2.86-1.43-4.78.8-1.2,3-.84,3.22-2.97-1.92.09-1.76,2.38-3.19,2.8-3.43-2.68-2.26-7.46-4.81-10.54-2.86-4.82-2.54-10.44-3.67-15.66C-.66,178.92.03,167.61.32,156.44c.49-18.42,4.28-36.27,11.55-53.23,3.93-9.17,9.34-17.58,14.66-26.07,13.79-22.01,31.95-39.17,53.96-52.77,15.72-9.72,32.81-15.34,50.37-20.5,8.06-2.37,16.24-3.42,24.01-3.11,7.79.3,15.66-2.08,23.37.33.63.2,1.37.17,2.05.12,12.29-.9,23.15,4.5,34.54,7.67,8.41,2.35,15.97,6.78,23.94,10.06,5.5,2.26,10.59,7.13,15.86,10.85,7.26,5.13,14.87,9.81,21.12,16.23,16.82,17.27,30.4,36.63,38.42,59.58.52,1.48.95,2.91.93,4.49-.04,3.04-.37,6.02,2.59,8.37,1.09.87,1.6,3.21,1.44,4.78-.63,6.13,2.69,11.46,3.13,17.34-.24.29-.55.45-.9.52-.47,2,.13,4-.08,5.99,0,.23,0,.45,0,.68-.01.36-.02.73-.04,1.09-.81,8.92-.84,17.84.02,26.76,0,.36.01.72.02,1.08v-.02s-.49,0-.49,0h-.5c-.95,2.39-.86,4.8-.04,7.21.34.34.68.68,1.02,1.02-.35.51-.71.52-1.07.02Z"/>
  <path class="cls-35" d="m16.72,234.48c.71-2.7-.47-7.57-1.9-9.4-1.02-1.31-2.14-3.02.56-4.05,1.44-.55,2.88-1.17,4.18-1.97,2-1.23,2.4-2.73.48-4.54-.94-.89-2.49-1.76-1.74-3.37.79-1.7,2.58-1.44,4.11-1.41,1.49.03,3.26-.33,3.56,1.93.02.17.02.35.09.51.61,1.5.97,3.94,3.24,2.66,1.87-1.05,1.61-3.16.35-4.98-.54-.78-2-.85-1.65-2.55,2.43-.79,4.81-1.89,5.43,2.32.26,1.76,1.66,4.08,3.1,3.58,4.38-1.52,5.09,2.75,7.57,4.08.96.51,1.38,1.4,1.41,2.55.11,4.37,3.49,7.37,7.62,7.86,5.64.67,11.16,1.41,16.8-.16,1.24-.35,3.16.45,4.31,1.33,2.17,1.65,4.06,3.66,6.12.06,1.33-2.33,3.42-4.91-1.39-5.93-.79-.17-.17-.72.29-.81.5-.11,1.03-.07,1.54-.1,2.68-1.35,4.2.38,5.48,2.23,1.89,2.72,3.08,5.74,3.06,9.12-.04,6.16.23,12.31-.65,18.47-.65,4.54-1.36,9.65,2.93,12.87,4.16,3.13,8.17-.02,12.04-1.59,3.66-1.48,6.88-3.84,10.4-5.62,13.83-7,21.43-4.52,28.29,9.25.56,1.54,1.57,3.05.39,4.73-3.24,1.2-5.11,3.08-5.4,6.96-.2,2.62.78,7.33-5.29,6.1-2.01-.41-.67,1.87.14,2.84.68.82,1.38,1.63.53,2.68-.69.85-1.51.4-2.32.12-1.46-.5-3.31-2.19-4.06.66-.62,2.35-.14,4.99,2.66,5.16,5.93.37,2.88,4.53,3.34,7.14.56,3.21-1.56,3.63-4.09,3.58-1.52-.03-2.67.72-2.94,2.32-.3,1.74-.31,3.46,1.45,4.57,1.31.82,2.99,1.59,2.1,3.5-.61,1.31-2.1,1.04-3.19.55-1.46-.66-4.13-.38-2.84-3.53.7-1.7-.59-3-1.99-3.74-1.76-.94-2.45.55-3.03,1.79-1.43,3.03-2.76,3.22-4.33.07-1.35-2.72-3-3.91-5-.46-1.11,1.91-2.89-.79-4.36.84,7.67,4.02,16.33,4.42,24.14,7.47-6.36,2.28-12.23-.5-17.82-2.5-9.77-3.49-19.59-7.03-28.6-12.41-8.97-5.35-17.96-10.66-25.49-17.99-7-6.82-15.2-12.57-20.57-20.89-4.47-6.93-10.86-12.54-14.1-20.24-1.64-3.89-4.93-7.09-4.95-11.65Z"/>
  <path class="cls-35" d="m140.6,322.22c4.98,0,9.97.02,14.95-.02,2.8-.02,5.85,1.11,6.74-3.55.5-2.59,7.48-2.28,8.05.66.82,4.2,3.3,2.68,5.41,2.87,1.7.16,3.43.04,5.15.05-1.01,2.1-2.85,2.23-4.79,1.94-10.13-1.56-20.25-1.17-30.41-.17-1.46.14-4.9,2.87-5.12-1.76Z"/>
  <path class="cls-34" d="m242.82,302.59c-1.14-1.83.52-2.35,1.52-3.06,3.58-2.57,7.21-5.08,10.81-7.62.85-.59,1.56-.47,2.14.39-3.85,4.8-9.66,6.84-14.47,10.29Z"/>
  <path class="cls-35" d="m5.38,205.59c2.92.61,2.45,3.27,3.1,5.22.58,1.75.68,3.68,2.08,5.09h0c.34,1.73.68,3.45,1.02,5.18-4.96-4.01-5.08-9.95-6.2-15.49Z"/>
  <path class="cls-39" d="m321.27,175.63c-2.17-3.62-.96-7.59-.9-11.35.08-5.13-1.3-10.4.88-15.42,0,8.92.01,17.84.02,26.76Z"/>
  <path class="cls-12" d="m323.08,149.9v23.43c-.14,0-.29,0-.43,0v-23.43c.14,0,.29,0,.43,0Z"/>
  <path class="cls-35" d="m130.26,320.16c3.24.1,6.4.59,9.35,2.05-4.12,2.73-8.16-.76-13.61.34,2.25-1.27,3.26-1.83,4.27-2.39Z"/>
  <path class="cls-35" d="m13.63,227.24c1.44,1.43,1.64,3.36,2.09,5.2-2.1-1.17-3.33-2.69-2.09-5.2Z"/>
  <path class="cls-24" d="m321.33,140.57c.31,0,.62,0,.92,0-.3,2.4,1.04,5.02-.97,7.19,0,0,.01.02.01.02-.78-2.41-.85-4.81.03-7.22Z"/>
  <path class="cls-11" d="m320.26,183.91c-1.61-2.42-1.67-4.83.04-7.22-.01,2.41-.03,4.82-.04,7.22Z"/>
  <path class="cls-11" d="m318.2,191.17c.33-2.08-.87-4.41,1.04-6.23-.35,2.08.8,4.4-1.04,6.23Z"/>
  <path class="cls-11" d="m320.21,184.95c.36,0,.72-.01,1.07-.02,0,1.34,0,2.67,0,4.01-.27.02-.55.04-.82.06l-.26-4.06Z"/>
  <path class="cls-10" d="m321.29,176.7c1.43,1.17,1.21,2.58.6,4.27-1.1-1.45-.43-2.92-.59-4.28,0,0-.01.02-.01.02Z"/>
  <path class="cls-23" d="m141.65,267.51c-.66-.99-1.4-1.93-1.96-2.97-5.09-9.52-11.91-11.8-21.85-7.33-5.95,2.68-11.33,6.4-17.38,8.96-7.97,3.37-13.36.42-13.43-8.29-.06-8.22,1.62-16.4.9-24.64-.43-4.85-1.32-9.63-7.12-11.16-1.11-1.41-2.71-.91-4.14-1.05h0c-6.84-3.03-14.38-1.16-21.4-3.02-1.79-.47-3.62-.77-5.44-1.16-1.73-.82-3.03-1.96-3.05-4.07-.47-4.66,1.27-8.6,3.97-12.22,3.11-4.18,5.15-9.14,9.23-12.6,4.79-1.67,7.34-7.02,12.75-7.72,1.77-.23,3.44-1.53,5.31-.4,2.56,3.64,2.97,8.09,4.56,12.09,10.2,27.01,28.95,44.41,57.33,51,18.58,3.95,36.76,2.66,54.35-4.57,11.92-4.9,22-12.44,30.12-22.53,1.59-1.98,2.96-4.23,5.37-5.41.34-.05.78-.16.99.02,5,4.32,11.34,7.26,14.21,13.77-.43.26-.91.81-1.29.75-6.17-.96-10.33,2.43-14.22,6.44-1.04,1.62-2.56,2.28-4.41,1.98-4.54-.75-4.74,2.08-4.46,5.31.22,2.48,1.12,4.69,3.04,6.34,1.36,1.18,2.11,2.43,2.2,4.36.38,7.81-2.43,10.28-10.16,8.68-1.44-.3-2.84-1.42-4.48-.24.02,2.67,2.56,3.89,3.56,6,1.19,2.51,1.25,2.57-.83,4.72-5.75-1.88-10.38-5.76-15.54-8.7-6.78-3.88-13.53-5.82-20.53-.56-1.82,1.29-3.61.1-5.42-.04-4.27-.33-6.29,1.26-7,5.53-1.16,6.97-4.17,8.61-10.01,5.05-3.01-1.83-5.93-2.34-9.24-1.47-1.62.42-3.35,1.17-4.54-.85Z"/>
  <path class="cls-38" d="m161.35,62.07c7.77,7.94,17.11,5.99,24.22,1.15,5.63-3.83,10.45-8.87,16.93-11.45,1.47-.74,2.86-.24,1.78,1.26-1.92,2.66-1,4.39.86,6.23,3.04,3,2.43,5.76-.6,8.27-2.05,1.7-2.98,3.95-4.12,6.3-2.52,5.14-7.31,7.73-12.72,9.21-3.69.11-7.02-1.49-10.54-2.21-26.05-5.29-48.76,1.85-69.04,18.28-.8.65-1.57,1.33-2.47,1.83-2.81,1.64-5.26,1.88-8.37-.16-3.85-2.53-8.07-3.01-11.99.89-1.93,1.92-4.42,3.82-7.69,2.8-2.07-6.67-3.15-13.57-3.96-20.45-.72-6.18,2.93-9.65,9.12-9.51,6.37.15,12.37,2.38,18.57,3.54,5.37,1.01,10.67,1.81,16.05-.37,4.27-1.73,7.17-4.46,8.76-8.75,2-5.4,4.11-10.75,6.18-16.13,1-.33,1.64.26,2.11.96,2.41,3.6,5.79,4.59,9.76,3.43,4.2-1.23,7.53.68,11.06,2.4,1.95.95,3.91,2.03,6.09,2.49Z"/>
  <path class="cls-4" d="m77.62,104.46c2.42-1.25,5.04-2.23,7.23-3.8,5.79-4.16,8.97-4.47,14.65.22,2.4,1.98,3.27-1.24,4.99-.58.58,2.73-1.6,3.99-3.06,5.54-18.28,19.33-25.32,42.38-22.87,68.6.18,1.87.72,3.77-.88,5.34-4.72,2.11-10.32,2.55-13.5,7.58-.8,1.26-2.6,1.6-4.17.6,6.14-12.93,5.04-17.34-6.36-26.67-3.71-3.04-7.34-6.21-10.73-9.6-5.41-5.4-3.83-13.19,3.24-16.26,5.19-2.25,10.35-4.57,15.57-6.76,11.24-4.69,16.86-8.59,15.9-24.22Z"/>
  <path class="cls-21" d="m257.29,179.79c-1.82,4.92-1.64,9.51,1.66,13.91,1.49,1.99,3.23,3.98,3.58,6.64-.64,3.24-.47,6.05,3.46,7.09,1.2.32,1.95,1.34,2.73,2.25,3.15,6.58,1.19,10.66-5.94,12.82-2.18.66-4.34.51-6.51.66-1.84-2.31-4.27-3.93-6.54-5.77-4.44-3.59-4.43-6.38-.31-10.09,1.66-1.5,4.84-2.65,2.98-5.6-1.55-2.46-4.36-3.23-7.33-2.42-1.81.49-3.69,1.43-5.27-.36-1.61-1.83-1.3-3.91-.09-5.73,1.35-2.01.69-3.94.27-5.94.49-5,3.1-9.64,2.48-14.83.01-1.65.03-3.3.38-4.92.95-3.46.93-6.93.04-10.41-.88-11.98-3.96-23.32-9.73-33.89-.9-1.65-1.76-3.37-1.39-5.38,2.69-4.02,7.29-4.52,11.31-6.01,1.28-.47,3.15.11,3.35,1.56.56,3.92,4.02,6.16,5.13,9.69.04,2.15.02,4.3.01,6.45-3.18,6.46-2.14,10.32,3.83,14.14,1.74,1.11,3.43,2.26,4.51,4.1,2.19,3.77,1.67,6.18-2.05,8.54-1.46.93-3.22,1.65-2.85,3.77.36,2.1,2.26,2.3,3.93,2.7,1.48.35,3.34.42,3.78,2.17.52,2.08-1.35,2.87-2.72,3.87-3.39,2.47-6.63,5.12-9.72,8.59q6.36-.82,7,2.38Z"/>
  <path class="cls-50" d="m257.29,179.79c-.95-3.33-2.89-2.09-4.71-.97-1.4.87-3.03,1.68-4.1.12-1.13-1.65.46-3.11,1.7-3.78,3.94-2.14,6.01-6.66,10.51-8.05.54-.17,1.21-.89,1.28-1.43.16-1.14-.86-1.23-1.72-1.37-1.01-.15-2.01-.38-3.02-.51-2.02-.27-3.66-.98-4-3.27-.35-2.35.6-3.82,2.78-4.89,5.3-2.61,5.63-6.88.19-9.74-4.89-2.57-7.56-5.86-8.01-11.27-.2-2.42.16-4.11,2.92-4.38.35-.53.7-.51,1.05,0,3.85,6.74,10.88,8.99,17.24,12.18,3.04,1.52,6.23,2.76,9.15,4.47,5.95,3.5,6.51,9.95,1.16,14.38-4.47,3.69-9.17,7.14-13.96,10.42-3.3,2.26-5.98,5.05-8.45,8.11Z"/>
  <path class="cls-40" d="m188.08,81.75c4.57-2.62,10.66-3.5,11.56-10.29.33-2.5,2.59-3.55,4.26-4.93,2.64-2.18,3.21-4.04.25-6.54-2.61-2.2-5.38-4.83-.36-7.6-.09-.13-.15-.35-.27-.39-.32-.12-.66-.16-1-.23,5.44-3.32,11.36-.68,12.31,5.77.96,6.51,1.58,13.08,2.21,19.64.26,2.71.74,5.31,2.04,7.72.84,4.25-1.4,8-1.94,12.03-.18.49-.45.92-.8,1.31-2.39.91-3.86-.88-5.44-2.01-3.19-2.3-6.3-4.7-9.92-6.33-3.27-2.16-6.52-4.32-10.32-5.53-1.18-.38-2.79-.68-2.58-2.6Z"/>
  <path class="cls-40" d="m215.99,98.24c0-.34,0-.68,0-1.03,4.16-2.02,8.05-4.57,12.4-6.21h0c3.49,1.22,7.1.35,10.64.51,4.49.21,5.1,1.13,3.04,5.19-.23.46-.58.85-.83,1.3-1.92,3.51-.76,5.44,3.27,5.46,8.3.06,10.28,2.6,7.6,10.56-.96,2.84,1.17,5.35.03,7.99,0,.33-.01.66-.04.99-.34.48-.67.46-1.01,0-2.45-2.59-6.1-4.32-5.47-8.97.19-1.41-1.92-1.71-2.78-1.12-3.2,2.22-7.39,2.28-10.34,4.94-1.2.47-2.04-.23-2.64-1.04-4.08-5.52-8.5-10.75-13.14-15.8-.68-.74-1.26-1.66-.73-2.79Z"/>
  <path class="cls-22" d="m141.65,267.51c1.37.83,2.56.11,3.88-.31,3.7-1.17,7.26-1.56,10.5,1.55,1.58,1.52,3.75,2.59,6.11,1.27,2.16-1.21,1.86-3.15,1.87-5.32.02-5.51,3.86-8.07,9.4-6.67,1.49.38,2.96.83,4.44,1.25-4.7,6.09-7.5,13.28-11.53,19.76-4.33,6.97-7.45,8.19-15.37,6-2.07-1.17-3.57-2.78-4.05-5.19-1.56-2.68-1.04-6.41-4.17-8.31-.36-1.34-.72-2.69-1.09-4.03Z"/>
  <path class="cls-30" d="m240.78,188.04c2.46,1.95,1.41,3.87-.07,5.76-1.07,1.36-1.36,2.86-.42,4.3,1.24,1.89,2.75.65,4.07.02,4.1-1.96,7.15.48,9.63,2.9,2.39,2.34-.15,4.43-1.87,5.92-6.4,5.56-6.39,6,.37,10.99,1.74,1.28,4.57,2.03,3.77,5.24,0,0,0-.01,0-.01-3.35,1.36-7.01-.45-10.35,1.01l-.47.05s-.48,0-.47,0c-4.85-4.49-9.69-8.98-14.54-13.47-.24-.25-.58-.61-.47-.84,3.27-7.45,5.82-15.26,10.82-21.85Z"/>
  <path class="cls-49" d="m252.14,122.02c-1.97-3.58-2.98-7.03-.13-10.82,1.7-2.27-.64-4.06-1.71-5.88-1.19-2.03-3.07-1.37-4.52-.65-3.5,1.74-5.74-.55-7.47-2.62-1.82-2.18.86-3.58,2.13-5.01,1.1-1.23,2.01-2.79,1.45-4.14-.7-1.69-2.69-.6-4.1-.83-3.12-.51-6.47,1.04-9.42-1.06,8.41-.01,16.82-.07,25.22-.02,8.2.05,11.27,4.71,7.85,12.21-2.9,6.37-6.19,12.56-9.31,18.83Z"/>
  <path class="cls-4" d="m161.35,62.07c-3.68,1.62-6.5-.82-9.09-2.5-2.45-1.58-4.61-1.76-7.18-1.2-7.18,1.57-9.11.71-12.75-5.57.39-1.66.55-3.42,1.22-4.96,2.98-6.92,10.84-8.21,15.65-2.32,4.33,5.29,8.12,11.02,12.15,16.55Z"/>
  <path class="cls-32" d="m213.92,268.54c2.34-3.87-1.5-5.41-3.16-7.48-1.28-1.6-2.78-2.8-1.31-4.72,1.4-1.84,3.19-1.24,5.04-.21,3.01,1.69,6.27,1.85,9.19-.09,2.39-1.59,1.49-4.33,1.58-6.67.04-1.09-.35-1.87-1.42-2.46-5.14-2.81-4.91-7.74-4.66-12.54.15-2.75,2.14-3.48,4.4-2.65,2.12.77,3.98.75,5.9-.32-3.34,9.38-2.85,19.18-3.14,28.89-.23,7.72-5.05,10.93-12.41,8.25Z"/>
  <path class="cls-49" d="m228.39,91.01c-3.26,3.81-7.3,6.06-12.4,6.21.66-4.2,1.09-8.46,3.08-12.33,2.97,2.25,5.54,5.1,9.32,6.12Z"/>
  <path class="cls-35" d="m150.41,298.66c-1.05,1.39-1.34,2.02-1.84,2.38-.94.69-2.01.57-2.83-.2-1.46-1.35-2.61-2.52-4.61-.45-2.03,2.11-3.86.26-5.15-1.24-1.05-1.22-2.27-2.95-.88-4.63,1.57-1.89,4.13-1.85,5.55-.47,2.26,2.19,4.46,3.82,7.7,3.81.65,0,1.3.49,2.05.8Z"/>
  <path class="cls-37" d="m268.72,209.68c-1.58-.6-3.2-1.12-4.75-1.82-4.56-2.06-4.8-3.42-1.45-7.52,3.21,2.36,4.58,5.93,6.2,9.34Z"/>
  <path class="cls-35" d="m10.56,215.9c0-.51,0-1.02.01-1.54.06-1.61.26-3.31,2.34-3.24,1.11.04,2.55.61,2.6,2.03.06,1.94-1.18,3.15-3.06,3.45-.58.09-1.25-.46-1.89-.71,0,0,0,0,0,0Z"/>
  <path class="cls-35" d="m146.91,279.85c1.35,1.73,2.7,3.46,4.05,5.19.69,1.45.72,2.84-1.23,2.92-2.24.09-1.06-1.01-.74-2.21.61-2.26-3.77-3.04-2.08-5.9Z"/>
  <path class="cls-21" d="m245.93,224.16c3.28-2.1,6.91-.58,10.35-1.01-3.29,2.01-6.91.58-10.35,1.01Z"/>
  <path class="cls-35" d="m46.79,212.78c1.02,1.36,2.03,2.71,3.05,4.07-2.92.23-3.61-1.85-4.18-4.04.38,0,.75-.02,1.13-.03Z"/>
  <path class="cls-35" d="m138.72,304.81c.72-.04,1.44.06,1.49.93.06.97-.58,1.54-1.5,1.68-.75.12-1.38-.28-1.5-1.01-.17-1.07.67-1.38,1.51-1.6Z"/>
  <path class="cls-17" d="m321.33,140.57c-.01,2.41-.02,4.81-.03,7.22-1.84-2.22-.89-4.76-.82-7.19,0-.08.25-.21.39-.21.15,0,.31.12.46.19Z"/>
  <path class="cls-49" d="m251.09,123.01c.34,0,.68,0,1.01,0,.01,2.41.02,4.81.04,7.22-.35,0-.7,0-1.05,0,0-2.41,0-4.82,0-7.22Z"/>
  <path class="cls-35" d="m65.12,220.58c-1.5.41-2.84.88-4.1-.07,1.51-.88,2.9-.37,4.1.07Z"/>
  <path class="cls-35" d="m45.83,213.4c-1.36-2.12-1.46-3.36-.76-4.82,1.11,1.39.31,2.88.76,4.82Z"/>
  <path class="cls-35" d="m76.67,221.03c-1.18,1.37-2.59,1.29-4.3.65,1.44-1.12,2.95-.37,4.3-.64,0,0,0,0,0,0Z"/>
  <path class="cls-6" d="m240.78,188.04c-2.78,7.87-6.64,15.25-10.34,22.69-10.18,13.56-22.59,24.25-38.72,30.19-8.74,3.22-17.83,4.23-27.04,5.27-8.71.99-16.84-.48-25.09-2.42.77-.75,2.05-1.21.19-2.45-3.81-2.55-8.38-2.99-12.4-4.86-10.7-4.98-21.06-10.03-28.57-20.05-6.65-8.86-13.07-17.55-16.16-28.34-1.47-5.14-1.09-10.57-2.81-15.65-.26-1.05-.39-2.12-.43-3.19.06-2.22-.18-4.46.31-6.66.16-.55.45-1.03.83-1.45.55-.27,1.06-.22,1.55.15,1.88,4.85,2.38,10.04,2.88,15.09,2.98,30.08,30.45,55.59,58.67,60.59,16.73,2.97,32.35,2.3,47.78-4.5,8.9-2.13,16.28-6.96,23.05-12.9,5.82-3.63,8.73-9.69,12.57-14.98,7.27-7.67,11.27-16.85,12.96-27.2.45-2.73.3-5.43.46-8.14.1-1.83-.25-3.82,1.55-5.15,1.78.45,1.59,1.73,1.48,3.14-.14,1.78-.63,3.62.37,5.33.53,5.47-1.87,10.36-3.08,15.49Z"/>
  <path class="cls-20" d="m80.76,161.2c0,.34,0,.69,0,1.03-.84,2.41-.85,4.82,0,7.23,0,1.03,0,2.06,0,3.09,1.3,5.69.56,11.68,2.64,17.28.41,1.1.08,2.4-1.65,2.38-2.03-3.92-3.13-8.15-4.09-12.43-1.55-11.45-1.58-22.84,1-34.18,3.37-14.84,9.88-28.04,20.28-39.24,1.86-2.01,3.7-4.04,5.54-6.06,8.24-8.04,18.06-13.73,28.77-17.51,16.65-5.87,33.65-7.56,50.79-1.61,1.26.44,2.69.39,4.04.57,4.49,2.4,9.76,3.33,13.45,7.21.09,2.08-1.54,1.89-2.83,2.15-4.51-.58-8.34-3.16-12.65-4.34-2.21-.84-4.47-1.51-6.72-2.26-5.03-1.87-10.27-2.49-15.57-2.41-14.14.22-27.2,4.34-39.42,11.28-2.17,1.76-4.39,3.43-6.89,4.7-7.07,4.38-13.01,9.93-17.48,16.98-2.56,3.38-5.5,6.5-7.18,10.48-1.82,3.31-3.2,6.86-5.41,9.95-2.91,6.52-4.62,13.35-5.21,20.46-.15,1.85.03,3.75-1.41,5.24Z"/>
  <path class="cls-51" d="m81.75,192.21c1-.68,1.17-1.64.75-2.67-2.2-5.5-1.73-11.26-1.74-16.98,2.92,6.23,1.83,13.32,4.54,19.71,3.24,7.63,8.07,14.09,12.52,20.94,6.3,9.73,15.88,14.71,25.11,20.31,3.4,2.06,7.57,3.07,11.52,3.93,3.74.82,6.42,2.69,8.72,5.54-1.22,1.2-2.48.61-3.6.79-13.16-1.75-24.29-7.96-34.21-16.31-10.09-8.5-17.7-19-22.6-31.33-.5-1.25-.69-2.62-1.02-3.93Z"/>
  <path class="cls-28" d="m198.42,90.01c1.13-.06,2.36.17,3.11-1.04,5.57,1.93,9.5,6.41,14.46,9.28,5.5,6.54,11.01,13.09,16.51,19.63,3.06,8.42,8.15,16.03,9.65,25.11.78,4.68,2.01,9.27,1.72,14.08.8,3.45.8,6.9,0,10.35,0,1.71,0,3.43-.01,5.14-2.47-2.31.41-5.95-2.06-8.25-2.33-2.93-1.48-6.6-2.05-9.88-2.19-12.62-6.31-24.23-13.11-35.3-5.51-8.96-11.9-16.61-20.21-22.82-2.4-2.43-7.25-1.76-8.01-6.29Z"/>
  <path class="cls-6" d="m243.87,167.41c0-3.45,0-6.9,0-10.35,1.59,3.45,1.59,6.9,0,10.35Z"/>
  <path class="cls-8" d="m192.25,233.45c-9.95,4.3-20.23,7.87-31.17,7.11-19.18-1.32-38.02-5.32-52.6-18.58-12.68-11.53-22.86-25.41-24.58-43.55-.54-5.76-2.55-11.34-2.1-17.22-.84-8.53,1.92-16.48,3.87-24.56.37-.58.9-1.01,1.37-1.51,1.39-1.5,1.85-4.48,4.93-3.34,3.25,1.21,6.59,2.53,6.99,6.65.23,2.34.62,4.39,2.89,5.61,1.27.68,2.58,1.12,3.87.22,1.45-1.02,1.14-2.33.28-3.59-1.27-1.84-1.55-3.46.88-4.57,2.37.14,3.88,2.42,6.27,2.52.44.13.86.32,1.27.53,2.8,1.48,6.07,2.15,8.24,4.74.52.56.84,1.19.71,1.98-.53,1.21-1.43,2.03-2.64,2.52-1.14.36-2.47.32-3.47.92-5.89,3.52-11.59,4.14-18.46,1.87-6.81-2.25-9.21-4.9-6.59-12.39-3.68,4.55-4.65,9.42-5.64,14.82-1.44,7.89,1.4,14.01,4.6,20.41.87,1.74.67,3.69,1.3,5.73,4.99-2.61,8.72.66,12.49,2.91,7.62,4.56,8.03,13.26,11.11,20.4.59,1.37-.52,2.57-1.25,3.75-2.66,4.28-1.54,8.17,3.32,9.5,5.31,1.45,9.31,4.09,11.98,8.92,1.1,1.99,3.08,3.3,5.06,4.29,11.18,5.59,22.78,9.31,35.55,7.71,1.96-.25,3.62-.94,5.14-2.14.8-.57,1.66-1.01,2.64-1.15,2.9.57,4.55-2.19,7.06-2.67,3.21-.17,5.97-3.38,9.5-1.42,1.14,2.81-2.03,2.26-2.8,3.58Z"/>
  <path class="cls-15" d="m206.7,95.15c7.45,4.45,13.74,10.5,17.77,17.86,3.25,5.93,7.67,11.13,10.05,17.69,3.97,10.93,7.3,21.86,7.28,33.59.66,11.26-1.36,21.96-6.7,31.96-1.94,3.64-5.18,6.2-7.76,9.32-1.21-1.52-.29-2.89.31-4.28.24-.46.53-.89.85-1.31,8.76-10.91,11.14-23.24,10.39-37.13-.66-12.23-3.55-23.53-9.52-33.82-5.43-9.36-9.69-19.71-18.76-26.67-2.16-1.66-4.73-3.69-3.92-7.23Z"/>
  <path class="cls-36" d="m192.25,233.45c1.03-1.03,2.07-2.06,3.1-3.1,1.49-2.1,3.97-2.62,6.03-3.81,3.21-.83,5.09-3.75,7.98-5.08,1.63-.75,2.97-2.28,5.03-1.87.19.14.39.29.58.43-6.07,7-13.85,11.13-22.71,13.41Z"/>
  <path class="cls-51" d="m86.93,136.43c-2.15,6.17-4.09,12.36-4.15,19-.02,1.94.76,4.1-.98,5.78-.35,0-.69,0-1.04,0-.69-8.74,2.09-16.87,4.45-25.07.2-.7,1.14-1.19,1.74-1.77.6.69.58,1.38-.02,2.06Z"/>
  <path class="cls-36" d="m228.38,201.45c-.34,1.38-.69,2.75-1.03,4.13-3.34,5.49-5.89,11.66-12.39,14.45,0,0,0,0,0,0-.56-1.09.06-1.91.61-2.74,3.01-3.14,4.7-7.14,7.12-10.67,1.45-2.11,2.24-5.18,5.69-5.16Z"/>
  <path class="cls-51" d="m80.76,169.46c-1.62-2.41-1.62-4.82,0-7.23,0,2.41,0,4.82,0,7.23Z"/>
  <path class="cls-41" d="m228.38,201.45c-3.83,3.14-5.71,7.67-8.12,11.77-1.15,1.96-2.39,3.57-4.27,4.74-6.14,1.04-10.02,5.6-14.45,9.29-1.72,1.71-3.83,2.66-6.19,3.1-3.81-1.16-6.6,2.77-10.32,2.06-.49-3.01,2.17-3.62,3.8-5.03,1.17-.77,2.47-1.34,3.84-1.36,5.33-.05,8.48-2.89,10.54-7.56,1.36-3.07,4.24-4.38,7.34-5.11,3.21-.76,4.32-2.88,5.54-5.89,2.6-6.38,4.44-12.19,1.21-19.12-1.73-3.7-1.42-8.39-1.51-12.68-.04-1.9-.14-3.86-1.49-5.34-2.45-2.68-4.25-5.31-2.2-9.17.82-1.55-.41-2.96-1.73-3.91-1.26-.9-2.53-1.27-3.19.74-.49,2.14.65,5.91-2.03,5.91-2.76,0-1.56-3.73-1.95-5.86-.15-.82-.34-1.63-.59-2.42-1.06-3.1-1.81-6.27-2.08-9.54,4.55-6.27,3.76-15.18,10.29-20.59,2.06-1.71.84-3.4-1.58-3.92-2.37-.51-4.8-.48-7.18-.09-3.82.63-4.9-1.32-4.86-4.67.03-2.33,1.52-5.23-.73-6.84-4.45-3.18-6.14-9.39-12.73-10.37-6.17-.92-6.73-2.25-4.3-7.94,1.31-3.06-.31-5.25-.82-7.83.4-.52.81-.54,1.25-.06,2.26.1,4.39.58,6.18,2.06,6.8,4.4,15.54,5.77,20.5,13.03,2.43,3.55,5.15,6.4,9.24,8.47,5.46,2.76,6.26,9.19,8.09,14.38,1.16,3.3,2.33,6.36,4.56,9.03,2.9,3.48,4.2,7.61,3.65,11.98-.57,4.48.85,8.2,3.42,11.49,2.74,3.52,3.77,7.18,2.77,11.52-.54,2.35-.11,4.8-.29,7.18-.5,6.45-4.19,12.14-3.93,19.02.11,3.04-3.77,6.26-5.68,9.5h0Z"/>
  <path class="cls-36" d="m228.38,201.45c.57-2.31,1.01-4.65,2.81-6.47,2.46-2.49,3.45-5.42,1.91-8.78-1.09-2.39-.21-4.95,1.16-6.19,2.9-2.63,2.49-5.6,2.41-8.79-.06-2.37-.35-4.78.54-7.12,1.1-2.87.04-5.29-1.7-7.63-3.19-4.27-6.21-8.45-4.57-14.52.59-2.17-.14-5.58-1.59-7.27-5.83-6.79-7.4-15.33-10.56-23.22-.48-1.19-1.66-2.9-2.62-2.97-6.53-.51-8.37-6.32-11.87-10.16-2.82-3.09-5.74-5.42-9.97-6.66-3.06-.9-5.54-3.81-8.28-5.82,4.49.28,8.07,3.28,12.37,4.16,2.04,2.87,6.02,2.62,8.27,5.15,2.12,4.94,6.61,7.81,10.08,11.57,2.89,3.13,5.57,6.05,7.01,10.45,1.69,5.17,6.35,8.97,8.53,14.22,3.91,9.44,7.06,18.76,7.8,29.29.7,10.04-.12,19.39-3.46,28.65-1.69,4.7-4.39,8.85-8.27,12.11Z"/>
  <path class="cls-25" d="m86.93,136.43c0-.69.01-1.37.02-2.06,1.8-3.06,2.73-6.6,5.14-9.32,2.74,1.13,5.6,1.73,8.54,2,1.5,1.37,1.21,4.63,4.35,4.23,1.27-.16,2.19-1.08,2.46-2.31.74-3.34-2.35-4.1-4.08-5.76-.39-2.08,1.54-1.82,3.04-2.69-3.3-1.15-5.62-3-7.1-5.77,3.83-7.89,10.29-13.12,17.59-17.52.64,1.57,1.52,3.01,2.39,4.47-1.26,3.58-4.93,4.91-7.11,7.68-3.49,4.45-3.3,5.94,1.76,8.94.63.41,1.14.94,1.53,1.59,2.56,6.47,2.47,7.24-2.98,11.49-1.9,1.48-3.25,3.37-4.89,5.04-2.12,1.11-2.26,2.18-.22,3.68,1.6,1.18,1.78,3.07.48,4.49-1.36,1.48-3.29,2.99-5.35,1.45-2.33-1.74-6-2.37-4.71-7.2,1.03-3.83-3.38-4.53-5.85-5.91-3.54-1.98-3.05,2.7-5.02,3.48Z"/>
  <path class="cls-25" d="m179.87,83.79c-.35,0-.7.01-1.05.02-3.66,1.84-7.37.41-10.91-.18-5.32-.89-9.99,1.63-15.03,2.06-2.01.17-2.26,1.9-.22,3.08,1.19.68,2.47,1.22,2.69,2.81-.15.53-.54,1.05-1.02.98-4.34-.63-6.15,1.91-7.13,5.56-.51.98-1.88-.93-2.65,1.15-.62,1.69-3.3,2.84-5.76,2.42q-1.02-6.47-7.71-5.03c-.83.18-1.65.29-2.47,0-.4-3.44-3.45-2.78-5.56-3.58,8.53-6.5,18.6-9.25,28.83-11.22,7.37-1.43,14.92-1.82,22.44-.19,2.03.44,4.09.4,5.56,2.14Z"/>
  <path class="cls-26" d="m100.39,127.15c-3.41,1.83-6.14.98-8.3-2.1,1.18-4.29,3.94-7.48,7.21-10.31,3.15.53,4.28,4.6,7.94,4.45.67-.03,1.6,1.41,1.17,2.54-.45,1.18-1.44.35-2.19.31-1.07-.06-2.06-.02-2.73.98.24,2.32-.52,3.9-3.08,4.13Z"/>
  <path class="cls-29" d="m123.05,93.07c1.89-.5,3.79-1.01,6.1-1.62-.35,1.85-.63,3.27-.9,4.7-1.92,3.75-5.17,5.17-9.19,5.23-2.8-.3-3.59-1.65-2.16-4.16,2.05-1.39,4.1-2.77,6.16-4.16Z"/>
  <path class="cls-1" d="m155.03,92.17c-.51-1.47-1.59-2.16-3.1-2.17-1.69-.02-3.22-.33-2.92-2.49.27-1.93,1.03-3.36,3.42-3.74,8.82-1.4,17.61-2.26,26.41.04,3.42,2.36,3.97,4.96,1.58,8.66-1.91,2.96-2.17,5.46,3.03,6.02,3.71.4,8.73.58,9.57,6.28.17,1.15,1.01,2.21,2.28,2.61,3.73,1.18,4.42,3.56,3.48,7.2-.9,3.49-1.17,7.15,4.59,5.4.94-.29,2.05-.04,3.08-.05,2.59-.03,5.72-.19,7.03,2.11,1.68,2.94-1.78,4.32-3.24,6.26-2.45,3.24-5.46,6.2-4.59,10.91.62,3.39-3.08,4.32-4.19,6.76-1.46.05-1.97-1.16-2.75-2.04-5.69-6.42-11.82-5.63-15.82,2.03-.62,1.34-.77,2.81-1.14,4.22-1.58,9.18-.07,17.52,6.65,24.43.22,3.85-3.36,5.2-5.13,7.74-.46.1-.91.09-1.37-.01-1.82-.9-3.48-2.09-5.32-2.95-.6-.32-1.18-.65-1.8-.94-3.07-1.03-6.41-.25-9.51-2.37-1.4-.96-5.46-.55-6.73,2.8-.34.67-.84,1.18-1.5,1.53-.96.38-1.93.37-2.91.09-3.17-1.28-4.74-4.33-7.06-6.54-1.67-1.59-2.98-3.57-4.83-.25-.14.26-.9-.17-1.2-.63-1.15-2.62-.73-5.4-.72-8.11.02-4.22-1.11-8.14-2.9-11.87-2.17-4.55-5.53-7.35-10.95-6.75-1.18.13-2.41.32-3.37-.69-.34-.32-.68-.64-1.03-.96-1.52-3.69-5.31-3.76-8.26-5.16h0c-2.49-.98-5.04-2.3-4.51-5.36.48-2.72,3.41-3.35,5.65-3.75,3.19-.57,6.54-.44,9.74.11,2.47.43,4.04.24,4.4-2.6.4-3.16-1.75-2.72-3.64-2.67-4.51.14-7.81-2.1-10.61-5.34l-1.12-1.24c2.47-6.89,8.51-10.25,14.18-13.74,3.16-1.95,6.41-4.64,10.72-3.59,1.97-1.56,4.9-1.53,6.4-4.03.46-.77,1.15.8,1.93.88,4.21.02,7.51-1.18,8.09-6.03Z"/>
  <path class="cls-9" d="m205.67,156.05c2.54-2.96,4.55-1.05,6.43.8,1.74,1.71,3.49,3.45.82,5.99-2.17,2.07-.49,3.79,1.12,5.15,2.3,1.92,3.01,4.23,3.07,7.21.09,4.89.76,9.76,1.21,14.64.05.5.07,1.2.38,1.45,5.9,4.69,1.39,8.85-.59,13.17-.49,1.07-1.1,2.29-1.01,3.39.35,4.22-2.14,5.93-5.65,6.63-3.98.79-6.6,2.58-8.21,6.67-1.16,2.95-3.5,5.59-7.69,5.67-2.04.04-4.5.05-6.41,1.48-2.03.71-3.99,1.47-5.32,3.38-1.17,1.69-2.8,2.83-5.01,2.81-.69.34-1.38.69-2.06,1.03-11.23,3.21-22.23,3.31-32.68-2.66-1.81-1.03-3.54-1.93-5.61-2.39-5.19-1.15-9.4-5.72-9.97-11.05-.23-2.12-1.09-2.82-2.91-3.54-5.41-2.15-6.68-4.33-6.64-10.2.02-3.45.05-6.83-2.82-9.54-1.86-1.76-1.64-4.21-.45-6.23,2.24-3.79,4.9-7.31,8.05-10.43,1.69-.36,2.89.75,4.24,1.4,1.4.8,2.99.57,4.49.82,1.14.19,2.83.18,2.81,1.62-.03,1.89-1.9,1.5-3.17,1.61-.82.07-1.68.18-2.22-.08,5.62-.3,8.28,3.53,9.8,8.35.74,2.34,1.54,4.12,4.23,4.34,4.65,2.36,9.66,4.24,12.3,9.26-3.02,1.97-6.22,3.52-9.59,4.87-2.91,1.16-6.16,2.31-6.97,6.17-1.27,6.11,2.57,10.99,9.59,11.53,3.61.28,7.17.75,10.72,1.37,5.29.93,10.19-.07,14.89-2.67,3.86-2.14,7.65-4.25,12.12-5.4,3.06-.79,6.04-3.13,7.49-7.24,1.57-4.47,6.09-6.93,10.88-7.74,2.89-.49,3.93-1.44,2.94-4.37-.64-1.88.29-3.72.86-5.51.84-2.62,1.73-5.24,2.05-7.97.55-4.72-1.01-6.99-5.56-8.38-3.59-1.1-7.3-1.99-9.56-5.43.55-2.29,2.12-3.51,4.29-4.09,7.24.79,7.28.77,5.99-6.88-.5-2.97.51-6.04-.67-8.95Z"/>
  <path class="cls-26" d="m124.11,180.04c-2,3.03-3.93,6.06-6.38,8.83-2.11,2.38-3.42,5.33,1.11,7.95,2.45,1.42,1.66,5.66,1.57,8.57-.17,6.07,1.23,8.47,7.05,9.43,1.81.3,2.82.68,2.75,2.78-.21,6.6,3.34,10.85,10.07,11.66,3.79.46,6.06,3.49,9.24,4.99,6.39,3,12.61,1.18,18.85,1.75,2.76.25,5.59-.3,8.38-.49-1.63,2.75-4.29,3.02-7.13,3.12-6.7.23-14.12,1.29-19.79-1.46-7.87-3.81-18.24-4.3-22.69-14-1.55-3.39-5-4.49-8.44-5.19-6.45-1.31-8.66-7.05-4.86-12.03,3.24-4.24-1.89-7.26-2.15-11.07-.07-1.02-1.97-2.13-1.79-2.92,1.22-5.44-4.47-5.83-6.49-8.85-1.22-1.82-4.48-2.22-6.75-3.4-1.36-.7-1.97,0-2.32,1.03-.43,1.24-.9,2.52-2.41,1.73-.76-.4-1.64-1.77-1.49-2.49,1.28-5.91-2.99-9.89-5.02-14.57-1.03-2.37-1.68-4.33-.56-6.76,2.06-4.5-.87-9.6,1.99-14.22,1.93-3.12,3.87-6.02,6.5-8.79,1.48,2.47-.03,3.69-.69,5.22-2.08,4.8,1.07,9.11,6.21,8.67.33-.03.82-.42.95-.31,6.83,6.06,12.55.13,18.63-1.72.93-.28,1.67-.04,2.45.3.74,1.15.34,2.32-.04,3.43-2.25,6.53-2.09,13.01.16,19.5.45,1.28.84,2.59.73,3.98-1.64,4.03-6.8,2.81-9.09,6.22,4.07,2.29,6.31-1.76,9.39-2.68,1.11.13,1.9.62,2.07,1.82Z"/>
  <path class="cls-13" d="m124.11,180.04c-.59-.48-1.18-.95-1.77-1.43-1.44-.54-1.34-1.77-1.33-2.96-1.58-5.15-3.49-10.17-3.3-15.78.14-4.36,1.3-8.28,3.19-12.09.73-.71,1.46-1.43,2.19-2.14,8.4-2.04,13.1.52,16.53,8.66,2.64,6.25,2.53,12.73,2.11,19.27.71,2.44-.77,4.19-1.9,6.06-3.63,4.01-8.17,2.86-12.62,2.2-1.03-.6-2.07-1.19-3.1-1.79Z"/>
  <path class="cls-26" d="m114.82,119.92c4.57,1.7,8.29,5.05,14.19,3.89,3.23-.63,1,4.06,1.04,6.24.03,1.77-.96,3.88-3.67,2.34-3.46-1.97-7.25-.42-10.87-.91-1.74-.23-4.69.27-5.25,2.34-.69,2.54,2.1,3.92,3.53,5.71-2.72.28-4.95-.42-6.19-3.1-.22-2.1.61-3.75,2.41-4.73,4.85-2.64,7.32-6.17,4.82-11.78Z"/>
  <path class="cls-26" d="m178.83,234.48c3.73-1.58,5.13-7.05,10.32-6.19-1.24,1.51-3.41,2.09-4.13,4.13-2.16.4-2.99,4.79-6.19,2.06Z"/>
  <path class="cls-26" d="m113.79,139.53c3.82,0,7.22.7,8.26,5.16-2.08-2.79-6.21-2.31-8.26-5.16Z"/>
  <path class="cls-8" d="m201.54,227.25c3.24-5.54,7.12-10.1,14.45-9.29-.35.69-.69,1.37-1.04,2.06-3.17,1.15-6.09,2.78-8.58,5.03-1.43,1.29-2.77,2.47-4.84,2.2Z"/>
  <path class="cls-5" d="m200.24,172.43c-1.29,1.08-2.58,2.16-3.86,3.23-2.78,2.02-5.5,2.06-8.15-.24-7.71-4.28-9.82-18.12-7.4-25.7,1.17,2.97.33,6.06.63,9.09-.71-4.44.95-8.81.21-13.25,1.3-4.4,4.19-7.06,8.79-7.41,5.72-.44,8.52,3.5,10.97,7.8.76,3.03,1.52,6.05,2.27,9.08.89,3.53.36,7.14.5,10.7.11,2.81-1.18,5.33-3.96,6.7Z"/>
  <path class="cls-19" d="m200.24,172.43c3.47-5.34,3.52-11.35,3.46-17.39,1.98,2.45.22,5.52,1.97,8.14,0-2.37,0-4.75,0-7.12,1.03,4.34,2.42,8.63,2.98,13.02.62,4.86-2.2,5.89-8.41,3.36Z"/>
  <path class="cls-45" d="m138.6,101.35c-10.07,3.23-18.19,9.27-24.89,17.33-5.83-.96-7.12-3.92-3.77-8.54,2.51-3.47,6.08-5.84,9.11-8.76,3.06-1.74,6.13-3.49,9.19-5.23,1.6-.47,3.23-.88,4.81-1.42,2.14-.72,4.26-1.33,6.05.65,1.93,2.13.48,4.05-.49,5.97Z"/>
  <path class="cls-2" d="m100.39,127.15c1.03-1.38,2.05-2.75,3.08-4.13,4.51.87,6.67,3.43,5.45,6.52-.89,2.27-2.77,3.88-5.02,3.54-3.04-.47-3.41-3.29-3.51-5.93Z"/>
  <path class="cls-18" d="m155.03,92.17c.87,2.17,1.02,4.09-1.1,5.82-2.38,1.93-4.63,1.48-7,.21-.26-6.93,1.41-8.18,8.09-6.03Z"/>
  <path class="cls-19" d="m188.23,175.42c2.7.8,5.42.43,8.15.24,3.12,1.66,5.93,3.76,9.62,4.46,5.67,1.09,7.82,5.14,6.36,11-.66,2.65-1.54,5.24-2.31,7.86-.34,1.15-1.27,2.7-.85,3.39,4.05,6.64-1.02,5.52-4.89,6.83-4.02,1.36-8.61,2.83-9.35,9.01-.21,1.79-4.44,6.29-7.71,6.07-3.68-.25-6.07,1.46-8.35,3.08-7.97,5.66-16.41,4.95-25.5,3.95-5.52-.61-9.79-2.94-14.44-5.09-1.61-.74-3.27-2.39-2.06-3.28,3.29-2.42-.61-6.42,2.59-8.68,5.17-3.64,10.84-6.04,16.86-7.76,1.11-1.03,2.33-.98,3.6-.35.41.37.59.88.3,1.33-.5.78-1.33.99-1.14.98,4.36-1.17,9.18,2.7,14.59,1.93,1.55-.22,3.79,1.35,4.41-1.04.72-2.8-2.13-2.46-3.67-3.19-.47-.22-.82-.6-1.04-1.08-.06-.79.32-1.39.84-1.93,1.66-1.33,3.58-2.29,5.2-3.68,5.86-4.96,7.04-10.77,3.26-17.51,1.42-2.54,3.37-4.64,5.54-6.54Z"/>
  <path class="cls-7" d="m182.69,181.96c5.72,7.16,5.02,11.6-2.89,18.44-.55.53-1.75.39-1.67.16,1.48-4.64-3.52-3.97-4.96-6.17-.09-2.18,1.7-3.32,2.67-4.91,1.46-2.97,3.74-5.29,6.03-7.6.27.05.54.08.82.09Z"/>
  <path class="cls-42" d="m175.73,177.73c.37.29.73.59,1.1.88.05.16.19.36.14.49q-2.66,7.14-10.84,7.17c-1.89,0-3.78.1-5.66.13-3.25-1.11-1.87-4.56-3.31-6.59.34-.35.68-.7,1.02-1.04,5.66-3.64,11.67-1.12,17.55-1.03Z"/>
  <path class="cls-27" d="m139.41,178.41c.77-1.61,1.54-3.22,2.32-4.83,1.55-1.04.56-2.88,1.47-4.53,4.36,2.94,7.42,7.07,10.87,10.8-.77,3.17-3.89,2.88-6,4.1-4.62.87-7.18-1.48-8.66-5.53Z"/>
  <path class="cls-14" d="m147.77,182.84c2.1-1,4.2-2,6.3-3,1.03-.01,2.07-.02,3.1-.03,4.04.53.72,4.71,3.03,6.11.07.24.14.48.21.71-1.9,2.22-4.35,3.14-7.23,3.02-2.2-1.43-4.72-2.4-6.54-4.39-.47-1.2.43-1.76,1.13-2.41Z"/>
  <path class="cls-44" d="m160.19,185.92c4.57-2.24,9.44-.27,14.43-1.21-1.52-2.74-.28-4.66,2.21-6.09,2.14.38,3.93,1.3,5.04,3.27-.75,3.29-3.98,5.09-4.96,8.24-3.2-2.26-6.75-3.01-10.64-2.76-2,.13-4.14.31-5.87-1.17l-.21-.27Z"/>
  <path class="cls-48" d="m175.73,177.73c-5.9-.54-11.69.87-17.55,1.03-.14-.89-2.13-1.17-.98-2.4,1.59-1.7,7.76-1.39,10.33-.04,2.5,1.32,5.75-.85,8.2,1.4Z"/>
  <path class="cls-46" d="m181.67,145.56c3.1,4.87-1.72,9.64.77,14.5-.54,0-1.07,0-1.61,0,0-3.45,0-6.9,0-10.35.04-1.44-.52-2.99.84-4.16Z"/>
  <path class="cls-3" d="m146.43,184.75c2.31,1.29,5.45,1.32,6.6,4.36,1.27,5.04,5.21,6.34,9.69,6.9,2.59.33,5.09-.68,7.67-.45,1.7,2.04.77,6.27,5.25,6.14.5-.02-.34,1.29-.93,1.81-.34.37-.67.74-1.01,1.11-4.11,3.19-8.45,4.72-13.41,1.9-1.31,0-2.61-.01-3.92-.02-4.11-2.77-8.22-5.54-12.33-8.31-3.31-1.05-3.8-3.77-3.36-6.55.52-3.29,1.95-6.18,5.75-6.9Z"/>
  <path class="cls-47" d="m146.43,184.75c-5.71,5.7-6.05,7.59-2.4,13.45-2.71,1.42-4.98-.41-5.15-2.29-.63-6.74-4.31-9.79-10.61-10.54-.4-.05-.75-.57-1.56-1.23,2.9-.17,5.3-.32,8.21-.49-2.74-1.66-5.69.42-7.71-1.82,4.62.83,8.89.41,12.2-3.42,2.79,1.48,4.06,5.82,8.36,4.43-.45.64-.89,1.27-1.34,1.91Z"/>
  <path class="cls-8" d="m121.01,175.65c1.01.73,1.23,1.82,1.33,2.96-2.43,3.17-5.5,4.89-9.63,4.26-.95-.15-2.25.24-2.53-1.06-.24-1.11.73-1.87,1.56-2.4,2.85-1.82,5.88-3.23,9.27-3.76Z"/>
  <path class="cls-16" d="m160.28,206.52c4.6.31,9.01-.79,13.41-1.9.58.29,1.29.95,1.71.8,2.34-.81,3.44.42,4.47,2.22.9,1.57-.1,2.49-.8,3.66-1.31,2.22-2.93.44-4.39.6-5.02.55-9.44-2.15-14.29-2.2-1.57-.02-3.08-.13-4.37-1.35,1.04-1.51,3.43.04,4.24-1.84Z"/>
  <path class="cls-33" d="m174.7,203.51c.11-.48.36-1.37.31-1.39-4.16-1.43-5.18-2.7-4.77-6,.47-1.83,1.62-2.45,3.42-1.93.74,1.2,1.8.26,2.63.44,2.16.48,6.04.31,2.54,4.33-.96,1.11.07,1.33.97,1.43-1.32,1.66-3.07,2.62-5.1,3.12Z"/>
  <path class="cls-43" d="m173.66,194.2c-1.14.64-2.28,1.28-3.42,1.93-6.47,2.01-12.33,1.48-17.68-3.29-2.26-2.01-.98-2.65.47-3.72,2.46-.98,4.92-1.95,7.38-2.93,3.6-.2,7.2-.47,10.81-.57,3.07-.08,5.4.97,5.7,4.5-1.09,1.36-2.17,2.72-3.26,4.08Z"/>
</svg>