<?xml version="1.0" encoding="UTF-8"?>
<svg id="Capa_1" data-name="Capa 1" xmlns="http://www.w3.org/2000/svg" viewBox="0 0 310.02 340.91">
  <defs>
    <style>
      .cls-1 {
        fill: #fefefe;
      }

      .cls-1, .cls-2, .cls-3, .cls-4, .cls-5, .cls-6, .cls-7, .cls-8, .cls-9, .cls-10, .cls-11, .cls-12, .cls-13, .cls-14, .cls-15, .cls-16, .cls-17, .cls-18, .cls-19, .cls-20, .cls-21, .cls-22, .cls-23, .cls-24, .cls-25, .cls-26, .cls-27 {
        stroke-width: 0px;
      }

      .cls-2 {
        fill: #bca8f8;
      }

      .cls-3 {
        fill: #322c87;
      }

      .cls-4 {
        fill: #ac99ee;
      }

      .cls-5 {
        fill: #2d2582;
      }

      .cls-6 {
        fill: #ad9af0;
      }

      .cls-7 {
        fill: #b3a2f4;
      }

      .cls-8 {
        fill: #28227e;
      }

      .cls-9 {
        fill: #241d77;
      }

      .cls-10 {
        fill: #2b2482;
      }

      .cls-11 {
        fill: #2c2582;
      }

      .cls-12 {
        fill: #a899ef;
      }

      .cls-13 {
        fill: #bdaaf8;
      }

      .cls-14 {
        fill: #c0aefa;
      }

      .cls-15 {
        fill: #b3a2f5;
      }

      .cls-16 {
        fill: #af9df0;
      }

      .cls-17 {
        fill: #2e2682;
      }

      .cls-18 {
        fill: #afa0f1;
      }

      .cls-19 {
        fill: #af9df1;
      }

      .cls-20 {
        fill: #2b2480;
      }

      .cls-21 {
        fill: #2c2481;
      }

      .cls-22 {
        fill: #2d2681;
      }

      .cls-23 {
        fill: #241e78;
      }

      .cls-24 {
        fill: #251e78;
      }

      .cls-25 {
        fill: #2e2681;
      }

      .cls-26 {
        fill: #231c76;
      }

      .cls-27 {
        fill: #2b2481;
      }
    </style>
  </defs>
  <path class="cls-13" d="m161.84.79c8.14.74,15.59,3.3,21.51,9.12,5.08,5,6.64,11.25,6.02,18.32-.59,6.7-3.31,12.61-5.99,18.57-2.97,6.61-6.21,13.12-7.97,20.21-1.36,5.47-2.5,10.97-2.82,16.62-.16,2.88-.74,5.75-.68,8.61.32,15.15,3.29,29.72,9.32,43.7,4.5,10.41,10.4,19.91,17.42,28.72,9.18,11.52,20.27,20.82,33.12,28.12,9.69,5.5,19.93,9.43,30.72,11.98,6.3,1.49,12.69,2.37,19.2,2.66,5.47.24,11.05-.09,16.37,1.85,6.82,2.5,10.54,7.41,11.6,14.5,1.08,7.23-.42,14.13-2.49,20.99-4.67,15.56-12.75,29.22-22.88,41.79-10.68,13.24-23.42,24.14-37.98,32.82-16.82,10.02-34.99,16.51-54.35,19.64-9.41,1.52-18.87,2.16-28.37,1.81-14.09-.53-27.85-3.03-41.33-7.22-18.66-5.79-35.65-14.8-51.4-26.23-9.38-6.81-18.06-14.45-25.89-22.99-9.66-10.54-18.05-22.01-24.88-34.63-5.74-10.61-10.27-21.71-13.48-33.3-2.46-8.88-4.28-17.91-5.45-27.08-1.3-10.12-1.31-20.25-.98-30.38.29-8.83,1.82-17.54,3.7-26.19,2.16-9.95,5.47-19.5,9.18-28.94.32-.83.83-1.58,1.26-2.37.63.2,1.16.54,1.44,1.17.8,1.8,1.41,2.14,3.29,1.77.57-.11,1.13-.24,1.71-.25,1.05-.03,1.9.2,2.24,1.36.33,1.12,1.02,1.64,2.29,1.55,1.24-.09,1.63-.79,1.87-1.81.14-.62.58-1.19.43-1.85-.44-1.89.63-2.59,2.22-2.86,1.37-.23,2-.98,2.37-2.37.54-2.07.89-3.98.44-6.19-.44-2.14,1.46-3.58,3.03-4.79,1.57-1.21,1.64-1.1.27-2.43-.51-.49-.95-1.05-1.35-1.63-.26-.38-.5-.83-.13-1.23.41-.45.78-.06,1.18.15,1.38.74,1.39.73,2.21-.5-.76-.03-1.24.84-1.96.52-.64-.28-1.06-.72-.85-1.51.25-.9-.42-.21-.53-.23-.69-.13-1.33-.37-1.39-1.11-.08-1.09.21-2.07,1.55-2.24.4-.05,1.01.23.97-.53-.02-.5.03-1.1-.51-1.37-.48-.24-.93.07-1.18.43-1.63,2.31-4.66,3.42-5.39,6.57-.23.99-1.24,1.97-2.31,2.48-.98.47-1.16,1.1-1.13,2.14.06,2.26-4.21,6.02-6.55,5.94,1.53-3.98,3.89-7.51,6.07-11.13,7.11-11.8,15.61-22.52,25.23-32.4,8.81-9.05,18.54-16.92,28.94-24.01,11.94-8.13,24.61-14.8,38.43-19.16,5.25-1.65,10.52-3.26,16-4.02,1.94-.61,3.89-.13,5.27,1.03,2.22,1.86,4.5,1.14,6.71.65,2.65-.6,5.08-2.15,8-1.59.77.15,1.42-.53,2.02-1.01.98-.8,2.08-1.06,3.24-.6,1.12.45,2.31-.1,3.4.38Z"/>
  <path class="cls-2" d="m18.54,92.67c2.66-.43,3.66-3.03,5.64-4.37.57-.38.92-1.35.38-2.1-.56-.78-.21-1.24.43-1.51,1.96-.84,3.27-2.28,3.71-4.32.38-1.78,1.98-2.43,3.09-3.31.95-.76,1.24-2.07,2.51-2.51,1.04-.36,1.73-.63,1.7.9,0,.49.24.99.31,1.49.1.76-.13,1.15-.96.74-.58-.29-1.27-.67-1.58.25-.18.54-.8,1.22-.05,1.74.61.42,1.33.5,1.88-.19.31-.39.65-.76,1-.1.28.52,0,.85-.56.94-.8.12-1.03.54-.51,1.18.39.49.88.4,1.34,0,.37-.31.18-1.59,1.23-.77.57.45.79,1.03.23,1.65-.56.61-1.06,1.31-2.11.76-.56-.29-.7-1.11-1.7-1.15.57,1.26,1.29,2.21,2.32,2.88.39.25,1.16.1.96.86-.15.56-.11,1.34-.95,1.51-2,.41-2.69,2.2-3.75,3.59-.33.43-.35,1.06-.1,1.48,1.64,2.75-.43,5.12-.79,7.64-.15,1.05-1.6.91-2.49,1.12-1.31.31-2.09.57-1.61,2.28.54,1.91-1.18,3.92-3.07,4.27-1.34.25-2.12-.4-2.3-1.44-.34-1.93-1.72-1.83-2.85-1.44-1.4.49-2.6.17-3.89-.11-.4-.09-.97-.26-.75-.62.82-1.31-.75-1.65-.91-2.53.97-3.15,2.63-5.97,4.22-8.82Z"/>
  <path class="cls-14" d="m161.84.79c-1.34-.03-2.68.15-4-.31-.9-.31-1.55.25-2.19.85-1.1,1.03-2.23,1.67-3.96,1.13-1.88-.58-3.64.66-5.26,1.37-1.81.79-3.76.23-5.47,1.16-.46.25-.9-.33-1.3-.65-1.88-1.53-4.02-2.36-6.46-2.4,2.79-.99,5.74-1.09,8.62-1.47,4.9-.65,9.84-.45,14.77-.42,1.77.01,3.53.2,5.24.73Z"/>
  <path class="cls-1" d="m68.4,61.83c-.18-2.17.81-3.88,2.13-5.43,7.65-8.99,16.69-16.24,26.93-22.1,9.29-5.32,19.1-9.07,29.69-10.6,3.16-.46,6.44-1.09,9.63.43,3.54,1.69,4.77,5.1,4.41,8.04-.5,4.1-3.29,6.86-7.07,7.22-9.51.9-18.44,3.67-26.84,8.17-9.31,5-17.41,11.53-24.51,19.35-3.49,3.84-8.3,4.08-11.94.7-1.66-1.54-2.67-3.44-2.43-5.79Z"/>
  <path class="cls-9" d="m143.98,232.82c-2.91-6.63-5.82-13.26-8.72-19.9-2.1-4.82-4.15-9.67-6.26-14.48-.99-2.26-1.1-4.44.28-6.59,1.26-1.15,2.1-3.01,4.39-2.39.58.16.66-.92,1.5-.9,1.36.03,1.71,1.2,2.52,1.73.69.46,2.06-.34,2.77,1.09.76,1.54,1.49,3.09,2.19,4.65.36.8.66,1.62,1.11,2.38,3.89,8.16,7.23,16.56,10.77,24.88,2.11,4.96,4.21,9.92,6.25,14.9,2.59,6.33.71,10.55-5.72,12.84-1.44.51-2.79,1.31-4.35,1.5-5.61,1.8-11.13,3.82-16.67,5.82-1.24.45-2.5.65-3.77.48-1.86-.26-3.18-1.65-4.59-2.68-1.28-.94-1.52-2.8-1.06-4.28.61-1.96,1-4.19,3.49-5,.99-.32,1.8-1.15,2.87-1.44,1.63-.44,3.06-1.02,4.95-.27,2.08.82,4.05-.6,5.39-2.19,1.11-1.32,2.47-2.04,3.97-2.5,1.49-.46,1.54-1.22,1.1-2.45-.64-1.81-1.59-3.47-2.41-5.19Z"/>
  <path class="cls-9" d="m66.36,247.05c-1.76,1.88-3.82,3.06-6.49,2.62-4.87-.8-7.36-5.56-4.97-9.91,5.27-9.61,12.61-17,23.34-20.36,7.4-2.32,14.57-1.32,21.45,2.12.38.59,1.37.66,1.28,1.7-.04.56.61.93,1.11.74,1.47-.54,2.38.53,3.47,1.08.85.67,1.7,1.33,2.55,2,.81.48,1.49,1.11,1.96,1.94.91,1.2-.7,2.26-.13,3.65.28-.4.28-.99.74-.96.4.03.34.46.42.75.32,1.21-.05,2.38-.21,3.57-1.52,3.41-4.95,4.93-8.46,3.74-.66-.22-1.29-.51-1.94-.77-1.42-.75-2.36-2.03-3.43-3.15-4-2.37-8.15-4.25-12.98-3.58-1.92.27-3.63,1.14-5.35,1.96-.63.3-1.21.7-1.89.91-2.54,1.23-4.39,3.26-6.15,5.39-1.64,2.06-2.77,4.46-4.33,6.56Z"/>
  <path class="cls-23" d="m160.72,200.79c2.59-2.32,5.12-4.74,8.32-6.25,1.24-.62,2.43-1.46,3.9-.44.49.34,1.13.02,1.65-.24,1.32-.66,2.72-1.11,4.14-1.39.51-.78-1.43-.67-.5-1.55,2.08-.56,4.17-.94,6.33-.78,1.01.02-.04.87.41,1.05,1.01.42,1.12-.45,1.41-1.05,2.22-.02,4.35.44,6.43,1.12.19.06.35.19.34.38-.03.57-.86,1.12-.13,1.7.69.56,1.43.24,2.14-.08.46-.21.92-.42,1.42-.5,1.93.45,3.83.93,4.66,3.06.19.5.66.88,1.18.83,1.4-.13,2.4.65,3.44,1.36.25.22.5.45.75.67.47.58,1.14,1.02,1.3,1.83.26,1.25.72,2.13,2.23,2.47,1.18.26,1.51,1.63,1.62,2.78.15,1.47-.08,2.92-.52,4.33-.21.87-.77,1.45-1.53,1.87-3.09,2.35-6.18,1.65-9.26-.02-2.16-1.33-3.42-3.61-5.43-5.09l.03.02c-3.1-1.36-6.24-2.62-9.59-3.21-.5-.09-1.01.01-1.52.11-3.82.73-7.31,2.25-10.6,4.28l.02-.02c-2.71,2-4.27,5.04-6.62,7.36-2.53,4.24-5.92,5.73-9.62,4.2-3-1.23-4.62-4.47-3.83-7.66.66-1.49,1.34-2.96,2.3-4.29l-.02.02c.26-.19.38-.66.65-.65,1.93.01,1.48-1.31,1.41-2.43.61-1.61,1.71-2.82,3.08-3.82Z"/>
  <path class="cls-24" d="m147.5,278.67c6.59-2.19,12.23-5.77,16.61-11.23.92-1.14,1.78-2.33,2.66-3.5.32.96.57,1.91,1.09,2.85.94,1.69-.34,3.58-2.41,3.51-1.86-.06-2.24.51-2.03,2.29.25,2.17-1.73,4.42-3.99,4.64-2.22.22-4.06,1.14-5.71,2.52-1.46,1.23-3.22,1.55-5.01,1.74-1.18.13-2.09.58-2.72,1.57-1.11,1.73-2.79,2.99-3.93,4.71-1.06,1.6-.99,2.12.73,2.9.29.13.6.23.88.38.41.22.88.53.77.99-.13.57-.74.36-1.16.37-1.22.02-2.44.02-3.66.01,1.45,0,2.97.29,4.33-.07,1.49-.4,3-.62,4.49-.98,1.5-.36,2.97-.8,4.45-1.25.93-.28,1.88-1,2.88-.14-5.5,2.66-11.4,3.54-17.4,3.33-8.59-.31-16.74-2.55-24.18-6.95-1.82-1.08-4.04-1.82-4.89-4.11-.8-2.16-1.01-4.32.07-6.47,1.01-2.01,2.86-2.83,4.88-3.38.24-.07.58-.13.75,0,2.15,1.7,5.14,1.3,7.31,3.05,1.13.91,2.63,1.28,4.04,1.7l-.03-.02c1.52.95,3.4,1.18,4.78,2.41,5.46-.41,11.04,1.33,16.41-.88Z"/>
  <path class="cls-26" d="m155.76,289.99c-2.28.11-4.27,1.26-6.45,1.76-3.52.8-7.05,1.06-10.64.5h5.53c-.35-.98-1.12-.88-1.65-1.08-2.31-.87-2.32-1.86-.86-3.77.79-1.03,1.89-1.82,2.49-2.88,1.41-2.5,3.37-3.88,6.24-3.83,1.29.02,2.22-.71,3.07-1.4,1.72-1.39,3.49-2.43,5.79-2.51,2.57-.1,4.45-3.07,3.48-5.59-.59-1.54,0-1.52,1.15-1.35.57.08,1.16.06,1.73.03,1.7-.09,2.93-2.25,1.7-3.24-1.19-.97-.65-1.74-.57-2.67.07-.78.76-1.21,1.06-1.86.53-.34,1.1-.18,1.67-.15.46.02,1.05-.02,1.11-.52.28-2.21,1.92-1.75,3.32-1.77.5,0,1.02-.09,1.5.14,4.19,1.29,5.93,5.94,3.62,9.97-3.66,6.37-8.47,11.73-14.63,15.78-2.72,1.79-5.43,3.63-8.65,4.46Z"/>
  <path class="cls-1" d="m39.08,94.64c1.97-3.14,3.63-6.48,5.88-9.46,2.07-2.74,4.9-3.96,8.24-3.65,3.07.28,5.2,2.09,6.31,4.96,1.04,2.67.38,5.24-.94,7.57-1.7,3.01-3.54,5.95-5.51,8.78-2.47,3.54-6.15,4.55-9.76,2.93-3.48-1.56-5.38-5.54-4.52-9.47.12-.56.2-1.13.3-1.7v.02Z"/>
  <path class="cls-8" d="m143.98,232.82c1.5,1.81,2.21,4,2.98,6.16.26.73,0,1.23-.64,1.33-2.79.44-4.18,2.84-6.19,4.36-1.73,1.31-3.72,1.57-5.58.48-.87-.51-5.02.64-5.25,1.61-.18.76-.27.92-1.07.76-1.26-.25-2.2.74-2.05,2.07.08.69.23,1.1-.79,1.28-1.11.2-.62,1.38-.62,2.13,0,2.39.96,3.42,3.3,3.75.6.09,1.24,0,1.06,1.1-.12.8.92.73,1.5.79,2.13.22,3.99-.79,5.91-1.45,4.35-1.5,8.68-3.04,13.03-4.54.35-.12.75-.08,1.13-.11-5.91,2.5-11.97,4.58-18.11,6.42-3.53,1.06-7.11-1.17-8.12-4.47-1.07-3.48.92-7.32,4.6-8.64,5.13-1.84,10.28-3.65,15.46-5.33,1.83-.59,2.07-1.46,1.35-3.09-.67-1.52-1.63-2.92-1.92-4.59Z"/>
  <path class="cls-5" d="m184.94,190.36c-2.35-.24-4.61.33-6.89.78-1.75,1.34-3.6,2.4-5.94,1.85,7.86-4,15.87-4.04,23.99-.92,3.61,1.39,6.96,3.23,9.76,5.96-1.17-.3-2.17-1.19-3.57-.8-.74.21-1.51-.56-1.6-1.13-.38-2.5-2.41-2.54-4.15-3.07-1.28-.25-2.63-.34-3.5-1.53-2.27-.59-4.53-1.19-6.9-1.16-.4.33-.81.32-1.21,0Z"/>
  <path class="cls-7" d="m173.35,208.07c6.21-4.7,12.82-5.95,20-2.35.62.31,1.33.52,1.72,1.18-1.2-.81-2.43.44-3.62-.04-.58-.24-1.31-.23-1.72-.79-2.02-2.8-4.77-2.11-7.49-1.62-.65.12-.88.39-.84,1.15.05.77-.79,1.29-1.3.72-1.28-1.44-2.28-.41-3.32.16-1.12.61-2.15,1.37-3.44,1.58Z"/>
  <path class="cls-17" d="m126.34,277.16c-2.1.05-3.84-1.12-5.47-2.08-1.46-.86-2.82-.92-4.33-.99-.68-.03-1.79.43-1.41-1.16.15-.61-.66-.31-1.02-.23-3.93.88-5.9,4.02-5.09,8.07.1.5.18.99.27,1.49-1.49-2.49-1.21-5.71.68-7.84,2.04-2.3,5.51-3.15,8.25-1.58,2.67,1.53,5.39,2.92,8.12,4.31Z"/>
  <path class="cls-10" d="m172.12,192.99c2.11-.2,3.93-1.33,5.94-1.85.22.12.42.3.65.33.56.09,1.24-.02,1.18.87-.05.74-.64.64-1.14.71-1.14.15-2.2.46-3.26.97-1.16.56-2.38,1.51-3.78.04-.75-.79-1.69.68-2.67.49.87-.82,1.91-1.32,3.08-1.55Z"/>
  <path class="cls-20" d="m143.76,198.42c-1.47-1.52-1.69-3.67-2.75-5.4-.4-.65-.71-1.36-1.14-1.97-.34-.49-.69-.8-1.36-.14-1.23,1.21-2.06-.51-1.94-.86.51-1.35-.67-.95-1.06-1.15-.43-.22-1.05-.19-.95.67.06.56-.34.67-.74.48-1.82-.88-2.81.33-3.87,1.45-.16.17-.44.24-.66.36,2.42-4.54,9.01-4.68,11.66-.13,1.21,2.08,2.24,4.32,2.82,6.7Z"/>
  <path class="cls-18" d="m76.84,235.1c6.66-4.87,14.17-4.06,20.52.76.11.1.15.2.1.3-.05.09-.09.14-.13.14-1.43-.8-2.55-2.46-4.58-1.6-.35.15-.74-.11-1.03-.4-2.74-2.72-6-2.08-9.25-1.38-1.99.43-3.56,1.95-5.64,2.18Z"/>
  <path class="cls-22" d="m147.5,278.67c-1.16,1.04-2.65,1.09-4.05,1.2-3.34.29-6.7.35-10.02-.32-.51-.1-.94.09-1.41.38-1.16.69-1.51.52-2.18-.9-.25-.53-.74-.48-1.09-.54-.98-.19-1.81-.56-2.43-1.35,4.77,1.63,9.63,2.63,14.72,2.43,2.2-.09,4.31-.63,6.47-.9Z"/>
  <path class="cls-11" d="m211.25,210.11c-.28-1.35.62-2.62.33-3.95-.29-1.31-.13-3.04-2.41-2.76-.83.1-1.28-.65-1.43-1.5-.21-1.12-.52-2.21-1.11-3.19,2.68,2.44,5.87,4.57,5.43,8.9-.09.89-.11,1.81-.8,2.51Z"/>
  <path class="cls-15" d="m195.03,206.87c2.24,1.05,3.59,3.08,5.27,4.75.61.45,1.63.4,1.73,1.45-1.51,0-2.47-1.78-4.17-1.31-.18.05-.79-.55-.74-.74.49-2.01-1.38-2.78-2.09-4.15Z"/>
  <path class="cls-11" d="m175.43,259.78c-.76.02-1.52.07-2.28.04-1.22-.06-2.2.03-1.84,1.71.17.78-.45.91-1.06,1-.86.12-1.61-.3-2.41-.45,2.03-2.53,4.63-3.31,7.59-2.3Z"/>
  <path class="cls-21" d="m110.89,235.98v-4.06c-.67.55-.25,1.18-.51,1.63-.41.08-.46-.33-.65-.52-.48-.5-1.23-1.1-.5-1.77.82-.76.68-1.55.52-2.43,1.18.2,1.01,1.37,1.48,2.07.2,1.71.73,3.45-.34,5.08Z"/>
  <path class="cls-25" d="m105.56,225.04c-1.26-.3-2.36-1.27-3.88-.47-.5.27-1.67-.85-1.42-1.38.44-.96-.62-1.07-.57-1.67,2.14.87,4.23,1.83,5.87,3.52Z"/>
  <path class="cls-16" d="m166.74,215.4c1.79-2.83,3.68-5.57,6.62-7.36-.51,1.06-1.53,1.67-2.26,2.53-.33.38-.98.76-.97,1.12.08,2.41-2.16,2.58-3.39,3.71Z"/>
  <path class="cls-3" d="m202.03,213.08c-.58-.48-1.15-.97-1.73-1.45.99-.1,1.59.71,2.4,1.03,1.82.71,3.64,1.03,5.44-.11.47-.3.98-.62,1.59-.56-2.28,2.38-4.94,2.03-7.69,1.09Z"/>
  <path class="cls-27" d="m157.89,204.48c.14.48.37.96.39,1.45.04,1.01.14,2.23-1.54,1.36-.52-.27-.72.41-1.16.4.41-.74.82-1.49,1.24-2.23.26-.43.44-.95,1.07-.97Z"/>
  <path class="cls-4" d="m66.36,247.05c1.17-2.37,2.3-4.76,4.33-6.56-1.2,2.35-2.36,4.72-4.33,6.56Z"/>
  <path class="cls-2" d="m39.08,94.62c-.48.22-.36.8-.67,1.12-.24.24-.61.43-.77.02-.28-.73-.19-1.51-.04-2.26.05-.25.32-.4.61-.34.85.17.82.86.86,1.49,0,0,0-.02,0-.02Z"/>
  <path class="cls-19" d="m157.89,204.48c-.36.32-.72.65-1.07.97.81-1.97,1.61-3.94,3.9-4.66-.94,1.23-1.89,2.46-2.83,3.69Z"/>
  <path class="cls-12" d="m97.33,236.29c0-.15.02-.29.03-.44,1.04,1.03,2.09,2.06,3.13,3.09-1.5-.35-2.83-.91-3.16-2.66Z"/>
  <path class="cls-6" d="m111.23,230.9c-.63-.59-.67-1.61-1.48-2.07-.55-.6-1.09-1.2-1.64-1.8,1.8.68,2.98,1.85,3.12,3.87Z"/>
  <path class="cls-27" d="m155.6,207.67c-.58,1.53-1.32,2.97-2.3,4.29.2-1.73,1.02-3.14,2.3-4.29Z"/>
  <path class="cls-20" d="m193.05,191.51c1.12.61,2.54.54,3.5,1.53-.65.37-1.26.87-1.96,1.07-.86.24-1.79.23-2.4-.65-.75-1.09.41-1.37.86-1.95Z"/>
  <path class="cls-20" d="m184.94,190.36c.4,0,.8,0,1.21,0,.42.21.83.42,1.37.69-1.35.86-2.59,1.11-3.91.17.17-.78,1.1-.26,1.33-.86Z"/>
</svg>