<?xml version="1.0" encoding="UTF-8"?>
<svg id="Capa_1" data-name="Capa 1" xmlns="http://www.w3.org/2000/svg" viewBox="0 0 377.13 239.47">
  <defs>
    <style>
      .cls-1 {
        fill: #fefefe;
      }

      .cls-1, .cls-2, .cls-3, .cls-4, .cls-5, .cls-6, .cls-7, .cls-8, .cls-9, .cls-10, .cls-11, .cls-12, .cls-13, .cls-14, .cls-15, .cls-16, .cls-17, .cls-18, .cls-19, .cls-20, .cls-21, .cls-22 {
        stroke-width: 0px;
      }

      .cls-2 {
        fill: #abc0fb;
      }

      .cls-3 {
        fill: #2b2880;
      }

      .cls-4 {
        fill: #afc4fc;
      }

      .cls-5 {
        fill: #a3b8f5;
      }

      .cls-6 {
        fill: #302e83;
      }

      .cls-7 {
        fill: #28257b;
      }

      .cls-8 {
        fill: #2b297f;
      }

      .cls-9 {
        fill: #231f74;
      }

      .cls-10 {
        fill: #a8befa;
      }

      .cls-11 {
        fill: #242075;
      }

      .cls-12 {
        fill: #242177;
      }

      .cls-13 {
        fill: #29277f;
      }

      .cls-14 {
        fill: #9db3f0;
      }

      .cls-15 {
        fill: #242176;
      }

      .cls-16 {
        fill: #a2b7f5;
      }

      .cls-17 {
        fill: #323186;
      }

      .cls-18 {
        fill: #666ab6;
      }

      .cls-19 {
        fill: #2d2980;
      }

      .cls-20 {
        fill: #2b287f;
      }

      .cls-21 {
        fill: #27247c;
      }

      .cls-22 {
        fill: #302e84;
      }
    </style>
  </defs>
  <path class="cls-4" d="m377.05,145.06c.34,7.21-.71,14.35-2.38,21.39-1.1,4.63-2.65,9.14-4.6,13.53-3.15,7.1-7.22,13.53-12.87,18.87-7.74,7.33-16.89,11.72-27.5,13.16-7.14.97-14.16.25-21.18-.95-2.01-.34-3.82.05-5.19,1.85-4.23,5.54-9.3,10.18-15.34,13.68-7.04,4.08-14.56,6.83-22.69,7.83-3.47.43-6.95,1.01-10.44.91-10.76-.3-21.17-2.35-31.05-6.73-2.94-1.3-5.79-2.84-8.55-4.52-2.67-1.63-4.32-1.44-6.88.45-6.07,4.5-12.65,8.05-19.81,10.53-5.96,2.07-12.04,3.43-18.32,4.03-12.86,1.23-25.32-.57-37.33-5.12-9.02-3.42-17.26-8.24-23.99-15.31-1.53-1.61-2.96-3.32-4.35-5.05-1.96-2.45-3.52-3.04-6.54-2.01-4.52,1.55-9.05,3.1-13.78,3.88-3.56.59-7.11,1.05-10.73,1.26-9.07.53-17.84-.86-26.42-3.55-7.54-2.36-14.49-5.99-20.91-10.61-6.39-4.59-11.78-10.18-16.21-16.64-4.19-6.1-7.1-12.81-8.69-20.06-1.24-5.68-1.56-11.38-1.1-17.2.32-4.03,1.02-7.95,2.25-11.73,2.1-6.48,5.2-12.5,9.43-17.89,6.36-8.1,14.18-14.39,23.48-18.81,4.22-2.01,8.61-3.58,13.15-4.78,4.86-1.28,5.29-1.88,5.27-6.79-.02-6.58.15-13.12,1.75-19.53,3.14-12.62,9.45-23.45,19.02-32.25,8.54-7.85,18.48-13.22,29.65-16.4,7.78-2.22,15.67-3.24,23.71-2.89,9.68.42,19.02,2.48,27.91,6.43,4.99,2.22,9.68,4.97,14.23,7.97,3.06,2.02,5.04,1.74,7.36-1,3.01-3.57,5.91-7.23,9.37-10.39,6.29-5.74,13.25-10.43,21.1-13.8,4.51-1.93,9.12-3.49,13.87-4.7C230.11-.02,238.63-.33,247.13.26c9.66.67,18.95,3.19,27.69,7.39,9.49,4.55,17.78,10.78,24.79,18.64,7.75,8.7,12.98,18.74,16,30.01,1.56,5.83,2.3,11.74,2.55,17.73.17,4.11,1.81,5.61,6.34,6.1,11.55,1.26,21.94,5.33,30.89,12.9,6.58,5.57,11.34,12.42,15.07,20.13,3.36,6.94,5.02,14.32,6.22,21.83.52,3.29.52,6.65.37,10.06Z"/>
  <path class="cls-11" d="m215.16,152.15c-.85,2.17-2.48,3.61-4.62,4.26-9.11,2.77-18.34,5.14-27.68,6.98-3.97.78-7.27-1.56-7.85-5.18-.61-3.82,1.82-7.07,5.83-7.81,6.47-1.2,12.78-3.03,19.17-4.53,1.2-.28,1.49-.76,1.11-1.97-3.4-10.84-6.75-21.69-10.11-32.54-.25-.79-.46-1.6-.69-2.4-.61-2.71-1.59-5.3-2.6-7.89-1.06-2.72-.2-5.15,1.73-6.99,1.53-1.46,3.57-2.26,5.83-1.39q-.33.82-1.59.71c-.22-.04-.04.3-.07.08,0-.09.04-.13.14-.09,1.72.62,3.47,1.17,5.12,1.96,1.41.68,1.48,2.3,1.89,3.57,1.54,4.8,3.21,9.56,4.64,14.39.66,2.22,1.78,4.32,1.67,6.73-.02.39.18.75.39,1.09,2.03,3.33,2.98,6.99,3.32,10.84.12,1.35,1.2,2.3,1.53,3.64.48,1.98,1.27,3.91,1.7,5.89.56,2.56,1.97,4.94,1.63,7.71-.12.99-.22,1.98-.5,2.94Z"/>
  <path class="cls-11" d="m160.66,122.59c.1.1.2.19.29.29.82,1.48,1.87,2.83,1.83,4.7-.1,3.91-3.32,6.65-7.2,6.21-2.46-.28-3.94-1.81-5.44-3.45-.35-.21-.58-.52-.64-.93-1.99-4.37-6.05-5.96-10.13-7.5-5.66-2.13-10.92-1.29-16.03,1.89-3.48,2.17-6.64,4.67-9.47,7.59-1.73,1.79-3.29,3.76-4.57,5.92-1.38,2.34-4.06,3.41-7.05,2.93-2.27-.37-4.58-2.83-5.05-5.2-.13-.66-.09-1.37.25-1.96,1.28-2.23,2.22-4.62,3.95-6.63,3.31-3.86,6.85-7.45,10.88-10.55.97-1.02,2.1-1.81,3.43-2.28.53-.15,1.09-.12,1.63-.19,1.18-.14,1.92-.7,2.02-1.95,1.63-1.09,3.44-1.74,5.33-2.17,1.99.21,3.68,1.26,5.42,2.1.88.43,1.51.35,2.26-.25,1.84-1.49,3.82-2.7,6.33-2.55.24.02.46.11.68.17.05,1.03.63-.02.88.22,2.89.75,5.81,1.65,8.24,3.27,1.42.94,3.01,1.33,4.37,2.26,2.51,1.72,4.57,3.84,6.24,6.38.42.64.74,1.39,1.53,1.7Z"/>
  <path class="cls-1" d="m288.01,51.64c-1.21-.15-2.98-.92-4.3-2.88-6.15-9.11-14.53-14.97-25.41-17.06-1.02-.2-2.11-.13-3.17-.11-3.72.08-7.27-2.87-6.9-7.25.29-3.35,3.68-6.07,7.53-5.77,5.34.42,10.55,1.45,15.49,3.58,7.59,3.27,14.01,8.1,19.34,14.41,1.47,1.74,2.99,3.43,4.07,5.46,1.08,2.02,1.47,4.07.29,6.17-1.31,2.31-3.24,3.61-6.96,3.43Z"/>
  <path class="cls-1" d="m125.92,32.29c4.5-.24,8.67.72,12.81,1.8,3.87,1,5.22,4.19,4.99,6.81-.33,3.76-2.9,5.74-6.69,5.82-2.28.04-4.33-.93-6.55-1.15-4.69-.46-9.32-.52-13.86.98-1.65.55-3.31.88-5.07.81-4.22-.16-7.05-4.85-5.35-8.71,1.23-2.78,3.58-3.89,6.23-4.5,4.48-1.04,8.97-2.19,13.49-1.85Z"/>
  <path class="cls-1" d="m88.24,47.32c2.93-.23,4.96,1.24,6.05,3.78.98,2.3.5,4.64-1.1,6.56-1.08,1.28-1.94,2.69-2.87,4.06-2.14,3.12-5.96,3.94-9.07,1.99-2.81-1.76-3.62-5.45-2.04-8.65.99-2.01,2.26-3.81,3.72-5.48,1.39-1.59,3.14-2.45,5.33-2.24Z"/>
  <path class="cls-15" d="m214.48,193.29c-10.07,6.39-20.89,8.52-32.62,5.91-8.51-1.89-15.76-6.01-21.99-12.03-1.94-1.87-2.49-4.69-1.37-7.35.25-.17.42-.53.82-.36.28.18.49.45.73.68,1.52,1.43,1.61,2.14.51,3.9-1.02,1.63-.61,2.49,1.33,2.56,1.25.05,1.96.6,1.9,1.79-.04.88.34,1.36.94,1.81,1.39,1.03,2.84,1.97,4.3,2.89.62.39,1.31.64,2.07.38.9-.31,1.51-.14,1.69.93.19,1.13.76.95,1.32.28.65-.78,1.02-1.72,1.43-2.64.4-.89,1.01-1.35,1.99-.92,1.01.43,1.29,1.19.82,2.18-.52,1.11-1.08,2.2-1.2,3.45-.02.04-.04.1-.08.13-.11.09-.16.15-.12.15.99-.07,1.83.5,2.77.65.6.19,1.06.76,1.84,0,.4-.39,1.74-.62,1.82.89,0,.16.74-.1,1.12.1,1.42.58,2.93.36,4.4.53,1.08.1,2.15-.14,3.23-.11,3.07.18,6.07-.22,9.04-.95.38-.04.86-.1,1.01-.43.76-1.58,2.06-1.51,3.45-1.24.62.02,1.17-.19,1.7-.48.49-.23.97-.48,1.47-.7,1.33-.42,2.47-1.19,3.68-1.86.61-.33,1.2-.82,1.99-.59.1.15.1.29-.01.44Z"/>
  <path class="cls-13" d="m112.41,115.94c-2.55,2.47-5.34,4.67-7.8,7.25-1.88,1.98-3.38,4.26-5.22,6.26-.32.34-.18.71-.24,1.08-.11.64-.09,1.35-.56,1.89-1.45,1.66-1.58,2.64-.51,4.36,3.34,5.37,9.27,3.5,11.41-.08,3.49-5.81,8.6-10.07,14.43-13.53,2.82-1.68,5.83-2.56,8.96-2.75,2.28-.14,4.63.48,6.8,1.34,2.01.8,3.96,1.78,5.9,2.75,2.05,1.02,3.07,2.9,3.92,4.9-.16-.15-.38-.26-.49-.44-3.34-5.46-8.95-6.9-14.61-7.95-3.84-.71-7.34.9-10.61,2.83-5.86,3.45-10.69,7.98-14.35,13.73-1.75,2.76-5.56,3.88-8.55,2.51-3.19-1.47-4.58-4.71-3.4-8.08.96-2.76,3.02-4.78,4.82-6.96,2.85-3.43,5.93-6.63,9.65-9.15.16-.13.31-.12.44.05Z"/>
  <path class="cls-2" d="m256.95,115.26c-1.39,1.22-3.19,1.78-4.65,2.94-.64.51-1.94.3-2.94.26-1.16-.05-2.01-.54-1.82-1.96.03-.23-.14-.56-.33-.72-.71-.62-1.21-1.37-1.64-2.19-.05-.53.36-.62.72-.74,1.28-.4,2.61-.51,3.93-.34,2.03.27,3.94.99,5.84,1.72.45.17.95.37.89,1.03Z"/>
  <path class="cls-20" d="m215.16,152.15c.55-2.78.34-5.5-.65-8.16-.15-.41.05-.87-.63-.27-.25.22-.57-.81-.34-.95,1.04-.62.23-1.2.07-1.79-.4-1.44-.72-2.91-1.23-4.31-.41-1.11-.48-2.32-1.56-3.25-1.15-.98-.17-2.6-.61-3.95-.72-2.21-1.39-4.44-2.1-6.66-.13-.41-.34-.73-.67-1.07-.61-.63-1.07-1.32-.79-2.45.46-1.81-.68-3.43-1.15-5.12-.8-2.87-1.82-5.68-2.74-8.53-.92-2.83-2.06-5.59-2.77-8.49-.38-1.56-1.91-1.76-3.08-2.13-1.29-.4-2.41-1.02-3.57-1.71.67-.38,1.49.18,2.05-.47,1.13-.29,1.82.71,2.77.96,1.27.86,1.85,2.16,2.33,3.54,2.67,7.82,5.2,15.69,7.58,23.6.17.58.42,1.13.64,1.69.78,2.22,1.93,4.33,2.06,6.75.88,4.02,2.39,7.86,3.49,11.82.76,2.72,1.9,5.36,1.68,8.29-.07.94-.04,1.9-.76,2.66Z"/>
  <path class="cls-3" d="m234.26,102.89c3.1-1.07,6.08-2.49,9.36-3.02,10.56-1.68,19.58,1.46,27.28,8.7,1.04.98,2.2,1.9,2.81,3.26.13.15.13.3,0,.45-.76.08-1.03-.57-1.43-.99-2.5-2.62-5.13-5.08-8.31-6.88-1.08-.61-2.12-1.06-3.45-.93-1.1.11-2.41.09-2.8-1.45-.13-.51-.62-.6-1.04-.72-1.17-.36-2.37-.61-3.59-.67-.61-.03-1.24,0-1.68-.55-1.51-.13-3.02,0-3.84-.04.81-.02,2.31-.02,3.81.02.42.92-.4.84-.8.86-1.89.09-3.8.3-5.63-.36-.7-.25-.46-.14-.33.36.12.45-.45.62-.83.58-4.84-.5-8.57,2.33-12.64,4.17-1.4.63-2.5,1.88-4.14,2.05-.7-.63.08-.93.37-1.11,2.22-1.36,4.39-2.84,6.87-3.72Z"/>
  <path class="cls-8" d="m112.41,115.94c-.15-.02-.29-.03-.44-.05,4.09-3.49,8.77-5.85,13.93-7.3,8.45-2.37,16.14.05,23.68,3.68,4.79,2.3,8.34,5.85,11.08,10.32-.66.07-1.06-.33-1.33-.83-1.51-2.73-3.72-4.81-6.15-6.7-.82-.64-1.57-1.42-2.81-.86-.42.19-.88-.07-1.08-.55-.9-2.07-2.83-2.29-4.69-2.59-.3-.05-.62.14-.87-.21-.88-1.21-2.25-1.37-3.56-1.63-.18-.2-.53-.06-.68-.33-.22,0-.44,0-.66-.01-3.35-.22-6.7-.24-10.06-.08-.26.09-.52.14-.79.18-1.08.16-2.08.71-3.21.57-1.94.24-3.64,1.13-5.34,2.02-.94,1.25-2.38,1.69-3.69,2.33-1.37.25-2.26,1.29-3.34,2.02Z"/>
  <path class="cls-20" d="m214.48,193.29c-.01-.13-.02-.26-.03-.4.02-.22.13-.4.27-.57.14-.17.3-.32.47-.46,1.12-.86,2.4-1.51,3.42-2.49,1-.66,1.85-1.48,2.67-2.35.98-1.01,2.08-1.91,2.91-3.06.42-.64,1.02-1.14,1.47-1.76.16-.23.31-.47.47-.69,3.04-4.24.22-8.97-4.4-9.82-.05,0-.11-.07-.17,0,.52.29.23.59-.07.7-.9.33-1.64,1.23-2.5,1.26-1.69.05-2.41,1.13-3.21,2.27-.29.29-.58.58-.99.7-.17.01-.32-.05-.44-.17-.17-1,.79-1.29,1.19-1.93,1.32-1.74,2.92-3.05,5.17-3.34,2.89-.38,5.18.67,6.66,3.17,1.47,2.49,1.25,5.04-.34,7.41-2.13,3.17-4.78,5.88-7.74,8.26-1.51,1.21-3.01,2.47-4.8,3.28Z"/>
  <path class="cls-21" d="m173.34,181.43c1.84.77,3.24,2.35,5.25,2.79,2.64.8,5.17,1.92,7.97,2.23,4.42.49,8.76.46,13.02-.93.39-.13.76-.15,1.15-.15.78.49.09.69-.18.98-.16.09-.32.16-.49.21-.92.24-1.86.46-2.78.7-1.33.19-2.6.71-3.96.74-.81,0-1.62,0-2.42,0-1.56.03-3.12-.04-4.62-.53-1.02-.34-1.98.17-2.97.14-1.05-.03-2.15.33-2.7-1.25-.28-.82-1.57-.95-2.54-.85-1.48.16-2.61-.07-3.1-1.75-.26-.88-1.63-1.01-1.75-2.12.04-.07.09-.15.13-.22Z"/>
  <path class="cls-16" d="m201.04,185.49c-3.52.84-7.01,1.71-10.7,1.52-4.1-.22-8.07-.85-11.75-2.79,2.26.12,4.18,1.43,6.37,1.8,7.98,1.36,15.5.29,22.24-4.41,2.68-1.87,5.56-3.57,7.41-6.42.19-.3.61-.45.92-.67-.09.83-1.01,1.16-1.17,1.95-.41,1.36-1.59,2.06-2.57,2.91-.96.83-1.97,1.6-2.98,2.36-2.41,1.48-4.73,3.11-7.55,3.78-.08,0-.16-.02-.24-.03Z"/>
  <path class="cls-10" d="m235.54,117.96c-3.42,2.79-6.86,5.55-9.45,9.21-.69.98-1.61,1.81-2.87,2.13-1.09.28-1.94.99-2.78,1.71-1.04.89-2.41.36-2.43-.99,0-.72-.46-.81-.79-1.09-.79-.67-1.88-.98-2.43-1.95.13-.11.28-.17.44-.19.91.17,1.55.83,2.32,1.25,2.8,1.54,5.92.97,7.86-1.56,2.14-2.78,4.53-5.3,7.31-7.44.73-.56,1.35-1.35,2.4-1.35.16.04.3.13.41.26Z"/>
  <path class="cls-5" d="m215.21,126.94c-.14.01-.28.03-.43.04-.44-.67-.89-1.35-1.33-2.02-.28-.33-.3-.67-.02-1.02-.55-3.77,1.46-6.48,3.84-8.96,4.47-4.67,9.41-8.74,15.26-11.6.55-.27,1.08-.58,1.73-.49-2.04,1.18-4.07,2.35-6.11,3.53-.52.3-1.07.57-1.41,1.1-1.25,1.75-3.2,2.72-4.73,4.16-2.39,2.25-4.73,4.57-6.63,7.23-1.43,2.01-1.67,4.33-.47,6.64.23.43.58.84.3,1.39Z"/>
  <path class="cls-14" d="m235.54,117.96c-.14-.02-.29-.04-.43-.06-.02-.59.39-.93.82-1.16,4.18-2.32,8.35-4.7,13.36-4.59,5.9.13,10.5,2.81,14.16,7.28.35.43.69.87,1.01,1.33.26.47.55.94.23,1.5-1.73-1.39-2.74-3.42-4.42-4.88-1.02-.88-2.07-1.62-3.32-2.1-3.62-1.76-7.27-3.27-11.38-1.67-.92.1-1.82.3-2.67.68-.61,1.02-1.65,1.16-2.69,1.32-1.73.46-3.15,1.52-4.68,2.36Z"/>
  <path class="cls-19" d="m264.69,122.24c-.16-.42-.31-.85-.47-1.27.96-.26,1.23.52,1.59,1.1.53.85.82,1.82,1.34,2.68,1.45,2.35,3.7,3.15,6.28,2.94,2.4-.2,4.21-1.96,4.68-4.33.29-1.45.36-2.87-1.19-3.83-.74-.46-.87-1.24-.57-2.06.1-.14.23-.24.4-.29.49.05.69.43.9.79,1.79,2.35,2.08,4.93.69,7.48-2.17,3.99-7.98,4.42-11.17.94-.41-.45-.77-.95-1.15-1.42-.45-.9-.83-1.84-1.36-2.7h.01Z"/>
  <path class="cls-17" d="m198.14,93.81c-1.05.04-1.75-.91-2.77-.96-3.15-.67-5.48.43-7.07,3.23-.95,1.68-.84,3.42-.26,5.13.86,2.56,2.18,4.98,2.29,7.77-1.03-2.87-2.17-5.7-3.06-8.62-.79-2.61.67-5.82,3-7.21,2.59-1.54,5.64-1.29,7.88.67Z"/>
  <path class="cls-10" d="m213.43,123.94c0,.34.01.68.02,1.02-1.73.97-2.29,2.66-2.71,4.43-.8-2.21-1.56-4.44-2.06-6.75.52.19.38.77.65,1.1.3.37.26,1.3.8,1.1.74-.27,2.02.06,2.05-1.44.01-.61.46-1.2.75-1.89.46.83-.18,1.76.5,2.42Z"/>
  <path class="cls-22" d="m150.14,130.34c.73.23,1.13.88,1.63,1.38,2.27,2.33,5.81,2.2,7.78,1.1,2.55-1.42,4.18-5.14,1.99-8.62-.26-.41-.69-.75-.58-1.33,2.62,2.21,2.57,6.26.81,8.65-1.85,2.52-6.06,3.37-8.76,1.75-1.2-.72-2.29-1.59-2.86-2.94Z"/>
  <path class="cls-6" d="m159.24,179.5c-.24.11-.49.21-.73.32,1.6-4.21,7.02-5.42,10.59-2.33,1.46,1.26,2.83,2.62,4.24,3.94,0,0-.05.14-.05.14-.98.43-1.55-.29-2.15-.82-1-.87-1.83-1.92-2.89-2.73-2.66-2.05-5.53-1.86-7.91.5-.35.35-.62.79-1.1.99Z"/>
  <path class="cls-2" d="m240.22,115.59c.74-.76,1.85-.76,2.69-1.32.17.28.27.64.51.83.62.5.29,1.01.05,1.46-.31.59-.83.3-1.3.17-.76-.2-1.4-.6-1.95-1.15Z"/>
  <path class="cls-19" d="m273.67,112.26c.01-.14.03-.28.04-.42,1.4,1.33,2.14,3.07,3.02,4.73.14.22.17.44.02.66l-.07.05c-.11.03-.26.06-.31-.01-1.07-1.58-2.31-3.06-2.69-5.01Z"/>
  <path class="cls-14" d="m264.68,122.25c.84.71,1.16,1.67,1.36,2.7-.77-.74-1.16-1.67-1.36-2.7Z"/>
  <path class="cls-18" d="m276.74,117.23c0-.22-.01-.44-.02-.66.49.34.98.69.93,1.39-.31-.24-.61-.49-.92-.73Z"/>
  <path class="cls-7" d="m128.46,108.57c2.71-.69,5.46-.35,8.18-.17.69.05,1.58-.13,2.19.5-2.74.04-4.9,1.41-6.85,3.13-.5.44-.79.43-1.27.17-1.9-1.04-3.87-1.95-5.93-2.63,1-.33,2-.66,3-.99.23.22.46.48.68-.01Z"/>
  <path class="cls-13" d="m115.74,113.92c1.03-1.1,2.4-1.66,3.69-2.33.59,1.07.16,1.69-.9,1.98-.91.25-1.83.46-2.79.35Z"/>
  <path class="cls-7" d="m139.49,108.91c.28,0,.53.06.68.33-.33.1-.67.51-.99.24-.23-.2.28-.32.31-.56Z"/>
  <path class="cls-11" d="m159.24,179.5c1.72-3.77,6.52-4.41,9.87-1.36,1.33,1.21,2.26,2.92,4.18,3.42.33.63,1,.86,1.5,1.29.42.36,1.14.37.84,1.45-.21.75,1.1,1.06,1.8.83,1.28-.41,2.27.11,3.32.6.2.09.58.22.57.26-.55,2.2,1.37,1.25,1.82,1.13,2.11-.57,4.05.31,6.07.41.5.03,1,0,1.5,0,.89.27,1.78.27,2.67,0,1.34-.22,2.68-.45,4.02-.67,1.85.44,2.07,2.28,3,3.51.16.2.14.53.27.78.88,1.66.85,1.73-1.02,1.97-2.27.28-2.72,0-3.3-2.15-.07-.27-.15-.54-.32-.77-.45-.61-.83-1.51-1.75-1.27-.78.2-.88,1.05-.96,1.79-.25,2.38-.52,2.4-2.79,1.98-2.34-.43-3.89-1.36-4.41-3.8-.19-.88-.9-.76-1.36-.15-.87,1.14-2.02,1.89-3.21,2.62-1.15.71-1.75,1.84-2.13,3.1-.21.7-.52,1.35-.93,1.95-.38.56-.83.9-1.53.49-.42-1.33.35-2.35.89-3.42.41-.81.73-1.51-.42-2.03-1.11-.5-1.29.21-1.62.99-.42.96-1.01,1.85-1.51,2.77-.27.49-.61.8-1.2.58-.5-.19-.9-.47-.79-1.1.19-1.07-.04-1.42-1.1-.75-.92.59-1.72-.09-2.43-.5-1.44-.83-2.84-1.74-4.14-2.76-.7-.55-1.85-1.01-1.17-2.44.17-.37-.2-1.45-1.33-1.17-1.04.25-1.94-.05-2.5-1.07-.56-1.03.2-1.63.7-2.34.77-1.07,1.07-2.09-.32-2.95-.44-.27-.78-.64-.78-1.2Z"/>
  <path class="cls-9" d="m176.98,196.91c1.46-.09,1.67-1.37,1.95-2.33.48-1.62,1.2-2.97,2.7-3.79,1.2-.65,2.27-1.39,2.95-2.61.21-.38.59-.72,1.11-.57.51.16.89.53.94,1.06.2,2.12,1.25,3.33,3.46,3.42.38.02.77.13,1.13.27,1.2.45,1.87,0,1.72-1.24-.05-.43-.37-.87,0-1.25.53-.54.37-1.9,1.58-1.61,1.23.3,2.16,1.37,2.2,2.49.09,2.17,1.15,2.27,2.81,1.94.52-.1,1.07-.11,1.62-.27-1.58-1.66-1.88-4.14-3.76-5.55.85-.37,1.75-.57,2.67-.67,1.17,1.52,2.9,2.15,4.52,2.92.62-.6.11-1.14.15-1.66.05-.65.22-1.21.82-1.55.59-.33,1.09-.04,1.54.31,1.09.86,2.54,1.28,3.53,2.03,1.54,1.17,3.89,1.84,4.18,4.31-.11.11-.23.22-.34.34-1.97.72-3.49,2.43-5.68,2.68-.55.01-1.12,0-1.34.67-.43.53-1.02.69-1.67.67-.73-.39-1.51-.67-2.08-1.33-.68-.79-1.16-.74-1.37.38-.16.87-.24,1.76-.57,2.6-3.19.73-6.4,1.26-9.7,1.02-1-.5-2.01-.63-3.01,0-1.57-.14-3.25.41-4.68-.67.04-1.31-1.28-2.29-2.48-1.76-.72.32-1.42.63-2.2.75-1.12.17-1.99-.63-3.02-.79.01-.04.01-.12.04-.13.1-.04.2-.06.3-.09Z"/>
  <path class="cls-11" d="m201.73,198.56c-.5-1.39.29-2.65.46-3.97.07-.56.7-.33,1.05-.01.85.76,1.67,1.54,2.51,2.32-.48-.07-.97-.1-1.44-.22-.72-.19-1.29.1-1.37.75-.1.83-.75.83-1.22,1.13Z"/>
  <path class="cls-11" d="m179.65,197.91c1.95-1.65,3.4-1.74,5.05-.29.3.26.59.58.48.98-.11.4-.54.27-.85.31-.49-.15-1.51.5-1.23-.81-.53-.09-.94-.46-1.51.28-.47.61-1.37.09-1.94-.47Z"/>
  <path class="cls-11" d="m189.02,199.58c.86-1.18,1.62-1.18,3.01,0h-3.01Z"/>
  <path class="cls-11" d="m158.65,184.16v-3.59c.33,1.19.3,2.39,0,3.59Z"/>
  <path class="cls-11" d="m207.43,196.24c-.35-.28-.3-.57.03-.79.45-.3.91-.34,1.31.12-.34.43-.81.61-1.34.67Z"/>
  <path class="cls-12" d="m273.67,112.26c1,1.67,2,3.35,3,5.02-.09.87-.31,1.67.91,2.11.87.31,1.06,1.33,1.11,2.26.19,3.36-1.7,5.77-5.14,6.55-2.6.59-6.03-1.31-7.22-3.97-.53-1.19-.74-2.6-2.12-3.25-2.6-3.44-5.75-6.14-9.93-7.54-2.88-.96-5.76-1.27-8.69-.47-3.78,1.03-7.34,2.54-10.49,4.94-3.29,2.04-6.03,4.7-8.45,7.68-3.72,4.57-6.88,4.96-11.45,1.36-2.25-4.11-1.85-6.67,1.35-10.19,3.1-3.4,6.21-6.78,10.17-9.23,1.41-.24,2.45-1.22,3.62-1.92,3.05-1.85,6.37-3.08,9.66-4.38,1.17-.46,2.36-.5,3.57-.08.29.1.73.16.79-.29.02-.16-.31-.37-.56-.66,2.67.09,5.23.85,7.78.01,2.02-.1,3.98.2,5.88.92.3.11.7.07.86.43.72,1.55,1.1,1.8,2.73,1.43.74-.17,1.3.1,1.9.4,4.26,2.12,7.63,5.32,10.7,8.87Z"/>
  <path class="cls-12" d="m251.59,100.15h-4.92s0-.08,0-.12h4.92s0,.08,0,.12Z"/>
  <path class="cls-13" d="m128.46,108.57c.19.03.5.05.4.3-.16.42-.6.41-.96.33-.4-.09-.17-.4-.13-.63.23,0,.45,0,.68-.01Z"/>
  <path class="cls-9" d="m225.83,182.52c-.45.56-.9,1.12-1.35,1.67-.36.27-.79.38-1.22.5q-1.97.54-1.79,2.51c-.7,1-1.53,1.85-2.68,2.34-.38.26-.79.4-1.26.35-1.14-.24-2.27-.46-3.34-.97-1.31-.63-2.32-1.43-2.81-2.87-.34-1-.99-1.85-1.94-2.43-.59-.36-1.02-.87-.85-1.65,1.83-2.06,3.74-2.29,5.97-.7.72.51,1.53,1.09,2.11.07.43-.77.42-1.75-.65-2.26-.5-.24-.94-.58-1.38-.93-.79-.62-.74-1.16.12-1.65.13-.32.35-.54.67-.67,2.04,1.48,4.22,2.5,6.82,2.69,1.88.14,3.29,1.95,3.55,3.99Z"/>
  <path class="cls-15" d="m225.83,182.52c-1.12-2.89-3.38-3.84-6.3-4.07-1.66-.13-3.15-1.06-4.07-2.62.7-.71.77-2.27,1.75-2.27,1.47,0,2.55-.66,3.56-1.39,1.84-1.33,3.26-.46,4.57.7,1.92,1.71,3.07,3.78,2.26,6.49-.35,1.19-.92,2.26-1.77,3.16Z"/>
  <path class="cls-11" d="m208.77,181.85c.06.57.23,1.16.8,1.36,1.24.44,1.87,1.52,2.21,2.56.79,2.5,2.82,2.97,4.93,3.47.27.06.51.2.77.3.11.35-.12.54-.38.59-1.19.21-1.71,1.02-1.96,2.09-.11.11-.22.22-.34.33-.32-1.04-1.15-1.6-2.01-2.13-.6-.37-1.31-.59-1.5-1.43-.07-.3-.39-.64-.74-.58-1.57.28-2.39-.93-3.43-1.69-.44-.32-.83-.89-1.43-.55-.68.39-.67,1.09-.52,1.78.11.5.75.95.15,1.5-.65.6-1.13-.09-1.64-.3-.91-.39-1.78-.9-2.67-1.34-.67-.34-1.01-.85-.94-1.61.11,0,.22,0,.34,0,.08,0,.15,0,.23,0,1.05.19,1.83.16,2.35-1.13.32-.78,1.45-1.24,2.44-1.09,1.5.23,2.56,0,2.63-1.8,0-.2.27-.33.49-.41.07.02.15.05.22.07Z"/>
  <path class="cls-15" d="m214.79,176.5c-1.03,1.33.44,1.59,1.01,1.94.98.59,1.83.98,1.56,2.42-.11.56.04,1.09-.64,1.29-.6.18-1.14.53-1.85,0-2.63-2-3.59-2.01-6.11-.29,0,0,0,0,0,0-.19-.13-.2-.26-.03-.42,1.92-1.61,3.9-3.15,5.64-4.97.14.01.28.02.42.03Z"/>
  <path class="cls-15" d="m221.48,187.2c-1.16-1.79-.95-2.27,1.04-2.76.66-.16,1.3-.26,1.96-.25-.86,1.15-1.87,2.14-3,3.01Z"/>
  <path class="cls-15" d="m215.12,192.22c-.5-1.41.12-2.12,1.49-2.34.32-.05.65-.03.85-.34.45,0,.89,0,1.34,0-.95,1.27-2.39,1.87-3.68,2.68Z"/>
  <path class="cls-9" d="m193.37,187.54c-.89.51-1.78.51-2.67,0,.89,0,1.78,0,2.67,0Z"/>
  <path class="cls-11" d="m200.4,186.2c.21-.24.43-.48.64-.71,0,0,0,.02,0,.02.36-.15.84-.31.99.12.17.45-.35.59-.7.7-.31.1-.64.09-.93-.12Z"/>
  <path class="cls-21" d="m200.4,186.2c.26-.03.54,0,.78-.09.22-.08.4-.28.6-.42-.25-.06-.49-.12-.74-.18,2.6-1.29,5.25-2.5,7.7-4.07.01.14.02.28.03.42-.13.1-.35.17-.38.3-.59,2.54-.57,2.48-3.07,2.2-1.01-.11-2.05-.01-2.14,1.51-.07,1.06-1.3,1.18-2.77.34Z"/>
  <path class="cls-11" d="m186.94,192.75c-.86.72,1.27,2.74-1.11,2.72-.71,0-2.36-.05-1.96-1.35.31-.99-.11-2.88,1.85-2.86.82.01,1.3.56,1.21,1.49Z"/>
  <path class="cls-11" d="m241.15,111.23c-.53-1.86.29-1.86,1.47-1.35.51.22,1,.49,1.53.65.89.28.72,1.19,1.02,1.79.16.31-.62.43-.99.54-.57.17-1.24.84-1.64-.38-.22-.68-.66-.27-.87.21-.19.44-.07.96-.6,1.3-1.13.72-2.12,1.04-3.08-.27-.42-.57-.76-1.63-1.7-1.24-.77.33-.45,1.31-.39,1.99.11,1.28,1.21.56,1.84.81.04.02.08.05.26.16-.75.43-1.26,1.04-2.23.35-.6-.43-1.01.33-1.3.73-1.57,2.27-3.73,3.92-5.73,5.76-1.29,1.19-2.35,2.64-3.36,4.11-.5.73-1.02,2.01-2.4.74-.6-.56-1.15.19-1.27.81-.11.56-.02,1.01-.86,1.06-1.02.06-1.88-.25-2.63-.8-.31-.22.35-.21.42-.45.17-.63.61-1.33.05-1.87-.67-.65-1.07.15-1.49.52-.4.35-.73.69-1.27.19-.59-.56-.05-.92.22-1.26,1.55-1.95,1.59-2.88.07-4.79-.33-.42-.54-.89-.59-1.35-.08-.81.27-1.32,1.2-.89.2.09.36.25.55.37.66.4,1.4,1.01,2.1.3.75-.76.03-1.61-.44-2.05-1.41-1.3-.65-1.71.62-2.19.69-.26,1-.9,1.2-1.67.33-1.26,1.3-1.54,2.41-.84.38.24.73.51,1.11.74.36.22.72.67,1.17.28.44-.37,0-.69-.19-1-.29-.45-.02-.82.3-.99,1.04-.53.04-1.99,1.09-2.38.97-.36,1.7.97,2.63.66,1.4-.47,3.45.52,4.1-1.84.15-.53,1.2-.75,1.77-.26.58.5.09.95-.37,1.34-.48.42-.55,1.03-.22,1.52.36.53.76.04,1.15-.13.88-.39,2.76-.01,5.31,1.07Z"/>
  <path class="cls-11" d="m215.13,125.41c-.85-.9-.77-1.7-.98-2.39-.11-.35-.08-.78.23-1.07.18-.17.39-.12.58.04.36.3.62.7.46,1.14-.23.63-.5,1.24-.28,2.28Z"/>
</svg>